<svg width="149" height="120" viewBox="0 0 149 120" fill="none" xmlns="http://www.w3.org/2000/svg">
    <g clip-path="url(#clip0)">
        <path d="M64.5055 67.5463C64.2326 67.9263 63.819 68.2198 63.3284 68.3817C62.1737 68.8024 60.9905 69.1652 59.785 69.4682C59.0343 69.6403 58.2462 69.6613 57.4841 69.5294C55.4956 69.2537 53.5144 68.9576 51.5308 68.6696C49.3922 68.3592 47.2366 68.1509 45.0858 67.9242C42.9932 67.7036 40.9054 67.4361 38.8176 67.1808C37.3451 67.001 35.8604 66.8765 34.395 66.6375C32.8667 66.3883 31.3869 66.0248 30.0354 65.3406C29.0472 64.8301 28.8244 64.0397 28.8389 63.1513C28.8389 63.1084 28.8874 63.0655 28.9092 63.0267C29.1708 62.9368 29.2749 63.0655 29.3427 63.2309C29.4226 63.4352 29.5026 63.6394 29.5655 63.8436C29.634 64.0733 29.7591 64.2882 29.9327 64.4744C30.1064 64.6605 30.3245 64.8137 30.5731 64.924C31.369 65.2963 32.2237 65.5714 33.1114 65.7409C34.6739 66.0641 36.2562 66.315 37.8513 66.4925C40.0311 66.7335 42.1842 67.0072 44.3544 67.2441C46.7352 67.5055 49.1257 67.6873 51.4993 68.0038C53.5072 68.2734 55.5078 68.5655 57.5132 68.8453C57.7353 68.908 57.9742 68.9151 58.201 68.8657C58.4045 65.3345 59.5695 61.9218 60.2065 58.3968C59.7962 58.3002 59.3729 58.2487 58.947 58.2436C56.944 58.0761 54.9434 57.8801 52.9501 57.6452C50.6468 57.3756 48.3628 57.0182 46.0692 56.7057C42.8987 56.2748 39.7283 55.8255 36.5531 55.4109C35.6375 55.2904 34.7051 55.2639 33.7774 55.2067C33.4774 55.1674 33.1709 55.2259 32.92 55.3701C32.6367 55.7275 32.5834 56.187 32.4356 56.4831C32.3969 56.6996 32.5858 56.7221 32.5495 56.8528C32.2007 57.0918 31.772 57.0836 31.3385 57.0734C30.3138 57.0257 29.2947 56.9151 28.2891 56.7425C24.9177 56.2319 21.5487 55.7071 18.2015 55.0862C17.8091 55.0147 17.4264 54.9003 16.9904 54.7941C17.0583 57.057 16.7071 59.2872 16.7652 61.5542C18.744 61.7584 20.7131 61.8932 22.6362 62.2465C24.5592 62.5999 26.4654 62.8797 28.2577 63.5393C28.2237 63.7436 28.076 63.6843 27.9791 63.6945C27.1476 63.7594 26.3091 63.6971 25.5038 63.5107C22.9171 63.0104 20.2916 62.6938 17.6734 62.3364C17.3489 62.2935 17.0292 62.2241 16.7046 62.1689C16.5835 62.1832 16.586 62.3384 16.4261 62.3262C16.1427 61.9994 16.1694 61.593 16.087 61.1886C15.5348 61.1233 14.9995 61.1743 14.4546 61.1519C14.302 61.4459 14.1567 61.7258 14.0089 62.0056C13.5685 62.8164 12.7826 63.4579 11.8073 63.8028C10.2282 64.4277 8.59574 64.4686 6.92455 64.152C6.20428 64.0266 5.4978 63.8503 4.81255 63.6251C2.03934 62.6672 0.590975 60.8516 0.159857 58.4172C0.0373001 57.5894 0.0552421 56.7511 0.213141 55.9276C0.612774 53.5136 2.30334 52.0472 4.9942 51.3814C6.91138 50.928 8.94475 50.9629 10.8385 51.4815C12.5 51.9043 13.5027 52.9315 14.164 54.2345C14.2328 54.3872 14.28 54.5463 14.3044 54.7084C14.3335 54.8697 14.3311 55.0331 14.3456 55.2557C14.9845 55.2996 15.6261 55.3078 16.2663 55.2802C16.3074 55.2128 16.3559 55.1679 16.3535 55.127C16.322 54.5654 16.7264 54.2509 17.2084 53.9405C18.096 53.3589 19.0648 52.8712 20.093 52.4884C20.6047 52.2875 21.1713 52.207 21.7327 52.2555C23.6922 52.4598 25.6661 52.5741 27.6134 52.8539C29.752 53.1623 31.8979 53.4074 34.0947 53.579C34.8867 53.1542 35.5261 52.517 36.3641 52.1493C36.0493 49.6557 35.9451 47.1804 35.8168 44.6112C35.64 44.4069 34.9957 44.5928 34.848 44.1128C35.2621 43.8453 35.669 44.0781 36.059 44.0904C40.576 42.5689 45.001 40.8696 49.7046 39.6831C49.7748 39.583 49.7046 39.4359 49.7046 39.293C49.6683 38.331 49.6271 37.3671 49.5932 36.4052C49.5932 36.1233 49.5932 35.8435 49.8863 35.6801V34.3833C49.7942 34.3424 49.7288 34.3097 49.661 34.2852C45.9723 32.9017 42.8372 30.6475 40.6342 27.7948C38.6504 25.2671 37.2783 22.434 36.5967 19.458C36.303 18.1566 36.2336 16.8263 36.3908 15.5082C36.5752 13.5852 37.0455 11.6894 37.7907 9.86527C38.6725 7.66625 40.2433 5.70935 42.3368 4.20194C43.4728 3.38501 44.5602 2.53133 45.8318 1.85532C47.6653 0.881135 49.6828 0.425698 51.7948 0.194917C53.1191 0.0293741 54.4667 0.0480059 55.7839 0.250063C57.3824 0.517607 58.8259 1.10987 60.2161 1.80222C60.9029 2.13711 61.5515 2.52476 62.1538 2.96022C63.0077 3.58238 63.6721 4.36819 64.0914 5.25169C64.6207 6.31968 64.9775 7.44277 65.1522 8.59087C65.3605 8.6215 65.3944 8.47854 65.4622 8.38663C66.557 7.05505 67.86 5.86437 69.0565 4.60427C69.9555 3.69975 71.035 2.93465 72.2463 2.34344C73.5846 1.66964 75.1126 1.31067 76.6713 1.3039C78.9383 1.25693 81.2126 1.20381 83.453 1.56121C85.3155 1.85735 87.0666 2.419 88.5634 3.44425C89.4805 4.07328 90.3928 4.70638 91.3003 5.34358C92.6808 6.31368 93.6593 7.55542 94.4489 8.88293C95.1465 10.047 95.735 11.2581 96.3284 12.4651C96.9945 13.8212 97.2585 15.2611 97.4062 16.7111C97.4837 17.477 97.6484 18.2347 97.6484 19.0046C97.6524 20.1657 97.5626 21.3257 97.3796 22.4766C97.181 23.7714 96.9218 25.0601 96.7087 26.357C96.4229 28.099 95.4855 29.6124 94.3932 31.0706C93.8196 31.8481 93.1391 32.5659 92.366 33.2089C91.886 33.5594 91.4486 33.9493 91.0605 34.373C90.7045 34.806 90.0917 35.0225 89.5492 35.2614C89.1374 35.4391 88.7209 35.6066 88.2849 35.7863C88.4108 36.6441 88.5271 37.4774 88.6627 38.3821C89.0914 38.0594 89.4378 37.7531 89.9512 37.6632C90.4647 37.5733 90.9055 37.7367 91.4044 37.8205L92.0511 37.6469C92.3263 37.5601 92.6237 37.5357 92.9136 37.5762C93.2035 37.6167 93.4757 37.7206 93.7029 37.8777C93.9579 38.0644 94.2595 38.2003 94.5853 38.2753C94.9111 38.3502 95.2527 38.3623 95.5848 38.3106C95.9724 38.2636 96.3526 38.3699 96.7208 38.3964C96.9478 38.2928 97.1409 38.1433 97.2827 37.9614C97.7827 37.4649 98.4601 37.1184 99.2132 36.9737C99.9664 36.8291 100.755 36.894 101.461 37.1588C101.889 37.3078 102.291 37.508 102.713 37.6734C102.922 37.7419 103.103 37.8591 103.236 38.0114C103.369 38.1636 103.448 38.3446 103.464 38.5332C103.48 38.6159 103.506 38.6972 103.539 38.7763C104.432 38.713 105.208 39.1847 106.121 39.1663C107.034 39.148 107.743 39.5748 108.414 40.0241C108.976 40.3938 108.974 40.8921 108.499 41.3475C108.373 41.468 108.242 41.5865 108.128 41.6907C108.165 41.8255 108.271 41.8214 108.371 41.8295C109.62 41.9398 110.873 42.046 112.125 42.1604C112.356 42.1804 112.59 42.161 112.813 42.1032C113.167 42.0273 113.532 41.9929 113.898 42.0011C113.927 42.2053 113.689 42.2482 113.655 42.4095C113.898 43.0427 113.898 43.7125 113.932 44.3783C114.009 45.9489 113.905 47.5133 113.798 49.0757C113.65 51.2446 113.511 53.4135 113.382 55.5825C113.378 56.0714 113.292 56.5575 113.127 57.0264C113.033 57.0264 112.936 57.0631 112.832 56.9876C112.658 56.7188 112.574 56.4152 112.59 56.1094C112.553 55.3925 112.539 54.6798 112.59 53.9547C112.776 50.4481 113.057 46.9435 113.045 43.4286C113.076 43.2252 113.076 43.0194 113.045 42.816C113 42.8091 112.954 42.8091 112.91 42.816C111.255 43.4123 109.589 43.9883 107.947 44.6112C105.387 45.5833 102.861 46.5983 100.293 47.5725C96.1584 49.1394 91.9078 50.4792 87.568 51.5836C87.4918 51.5898 87.4187 51.6117 87.3549 51.6473C87.2912 51.6829 87.2387 51.7312 87.2022 51.7878C87.4226 53.6464 87.5825 55.5457 87.2531 57.4757C88.0306 57.827 88.4811 58.4519 88.9049 59.0605C89.4032 59.8218 89.7014 60.6646 89.7793 61.5317C89.9177 63.0291 89.8772 64.5343 89.6582 66.0248C89.4947 67.3521 88.8269 68.5993 87.7545 69.5805L87.0279 70.2606C87.0279 70.9876 87.0109 71.7392 87.0279 72.4887C87.1005 74.9538 87.1441 77.4189 87.0279 79.886C86.9286 81.8589 86.9043 83.8379 87.0085 85.8087C87.0715 87.0137 87.2507 88.2166 87.1901 89.4277C87.165 89.5568 87.1869 89.6893 87.2531 89.8076C87.4251 89.8484 87.5462 89.7483 87.6794 89.6952C89.1084 89.1091 90.5301 88.5107 91.901 87.8347C96.7329 85.4513 101.662 83.219 106.653 81.0828C108.378 80.3435 110.078 79.5592 111.861 78.92C112.161 78.8417 112.449 78.7334 112.718 78.5973C112.54 78.2126 112.429 77.8081 112.389 77.3964C112.224 76.0281 112.178 74.6577 112.159 73.2873C112.191 73.0907 112.164 72.8903 112.079 72.7052C112.036 72.6739 111.991 72.6452 111.943 72.6195C111.689 72.5051 111.43 72.3927 111.171 72.2804C109.212 71.4522 107.12 70.8721 104.96 70.5588C104.414 70.4916 103.89 70.3266 103.425 70.0747C103.321 69.9481 103.238 69.8378 103.144 69.7377C102.756 69.3293 102.359 68.9208 102.175 68.4123C101.845 67.5907 101.687 66.7268 101.708 65.8594C101.773 64.634 102.216 63.4862 102.771 62.367C103.168 61.5624 103.67 60.8087 104.466 60.2349C104.612 60.1287 104.626 59.9877 104.709 59.8734C105.107 59.6629 105.548 59.5161 106.009 59.4404L107.547 59.1831C108.342 58.9806 109.096 58.6754 109.78 58.2783C109.121 57.0693 108.543 55.8275 107.358 54.7778C106.667 54.4293 105.884 54.2294 105.079 54.1957C104.286 54.1474 103.488 54.1949 102.71 54.3367C100.063 54.8153 97.7478 56.1593 96.2727 58.0741C94.9527 59.7345 94.1292 61.5787 93.577 63.5148C93.2268 64.824 93.1303 66.1723 93.2912 67.5075C93.5334 69.7541 94.9454 71.3532 97.1228 72.5541C98.0428 73.0485 99.1127 73.3081 100.204 73.3016C101.115 73.3158 102.024 73.2341 102.911 73.0586C103.861 72.8727 104.796 72.6195 105.798 72.5766C105.442 72.9276 104.978 73.189 104.457 73.3322C103.497 73.6388 102.497 73.8446 101.478 73.9449C99.6998 74.1042 98.0069 73.9633 96.4592 73.1035C94.5579 72.0496 93.1774 70.6833 92.6251 68.784C92.275 67.5084 92.1931 66.1908 92.3829 64.8913C92.6663 62.6448 93.5939 60.578 94.805 58.5908C95.1387 58.0372 95.5396 57.5143 96.0014 57.0305C98.0383 54.9167 100.603 53.6178 103.88 53.4278C105.174 53.3523 106.438 53.4564 107.564 54.0834C107.971 54.3101 108.356 54.5511 108.494 54.9841C108.552 55.0895 108.634 55.184 108.736 55.2618C109.377 55.9192 109.875 56.6665 110.209 57.4696C110.262 57.686 110.375 57.8888 110.538 58.0618C111.403 57.7126 112.306 57.4287 113.149 57.0407C113.343 57.0303 113.531 56.9798 113.697 56.8936C116.317 56.0011 118.921 55.076 121.556 54.2182C123.665 53.521 125.836 52.9665 128.05 52.5599C128.409 52.4956 128.759 52.4005 129.096 52.276C131.172 51.5121 133.24 50.734 135.393 50.1234C136.654 49.7465 137.984 49.5585 139.322 49.5679C140.044 49.5589 140.748 49.7596 141.315 50.1363C141.883 50.513 142.279 51.0427 142.439 51.6367C142.712 52.5762 142.766 53.5442 142.882 54.496C143.253 57.4982 143.11 60.5004 142.853 63.5005C142.686 65.4223 142.54 67.3462 142.313 69.2639C142.173 70.3512 141.946 71.4292 141.635 72.4908C141.356 73.4711 140.646 74.1144 139.632 74.5882C138.179 75.2421 136.666 75.7953 135.107 76.2425L133.17 76.8266C133.076 76.9666 133.044 77.1302 133.08 77.2882C133.121 79.8533 133.274 82.4144 133.603 84.9652C133.984 88.0841 134.602 91.1791 135.454 94.2312C135.865 95.6751 136.396 97.0905 136.963 98.5017C137.03 98.6692 137.113 98.8346 137.178 98.9776C137.365 99.0554 137.578 99.0756 137.781 99.0347C138.803 98.9592 139.833 98.9633 140.857 98.9428C141.548 98.8986 142.241 98.988 142.884 99.2043C141.116 99.721 139.348 99.58 137.556 99.7455C138.322 101.247 139.349 102.644 140.605 103.889C142.543 105.864 145.05 107.096 148.007 107.792C148.007 107.179 147.929 106.514 148.327 105.868C148.959 106.604 148.966 107.408 148.884 108.184C148.731 108.372 148.583 108.436 148.399 108.405C147.618 108.306 146.844 108.17 146.081 107.996C144.451 107.559 142.965 106.803 141.746 105.791C141.325 105.456 140.935 105.09 140.535 104.737L135.807 105.331C136.409 106.083 137.104 106.78 137.88 107.408C138.123 107.42 137.987 107.139 138.123 107.165L141.918 106.7C140.838 107.41 139.651 107.588 138.416 107.69C139.68 108.834 142.012 109.306 143.931 108.973C144.003 108.719 143.957 108.431 144.132 108.188C144.345 108.229 144.396 108.393 144.485 108.503C144.564 108.616 144.631 108.735 144.686 108.858L145.033 108.819C145.033 108.962 144.856 108.983 144.761 109.136C144.677 109.322 144.907 109.749 144.403 109.769C144.12 109.722 144.117 109.526 143.948 109.44C143.679 109.481 143.395 109.53 143.11 109.565C141.187 109.798 139.518 109.281 138.006 108.321C137.035 107.669 136.187 106.896 135.492 106.028C133.975 104.229 132.741 102.272 131.823 100.205C131.755 100.052 131.68 99.9027 131.603 99.7393C131.063 99.7005 130.559 99.8292 130.05 99.8966C129.437 99.9763 128.825 100.056 128.207 100.101C127.722 100.135 127.234 100.12 126.754 100.058C124.974 99.8353 123.198 99.8537 121.464 100.291C119.066 100.903 116.601 101.228 114.13 101.543C113.941 101.567 113.752 101.604 113.539 101.639C113.282 102.188 113.031 102.746 112.328 102.999C112.375 103.205 112.484 103.397 112.646 103.556C112.801 103.761 112.982 103.965 113.13 104.169C113.357 104.488 113.437 104.868 113.353 105.233C113.269 105.599 113.027 105.926 112.675 106.15C112.342 106.379 111.944 106.529 111.521 106.585C111.098 106.641 110.664 106.602 110.265 106.471C109.789 106.33 109.338 106.136 108.923 105.895C108.378 105.579 107.752 105.378 107.097 105.309C106.22 105.223 105.384 105.023 104.735 104.449C104.299 104.7 103.902 104.931 103.5 105.156C103.298 105.273 103.068 105.352 102.825 105.388C102.583 105.423 102.335 105.413 102.098 105.36C102.756 106.861 103.028 108.366 103.212 109.888C103.396 111.409 103.556 112.951 103.212 114.464C103.127 114.589 102.924 114.528 102.839 114.685C102.777 114.803 102.744 114.931 102.744 115.061C102.832 115.138 102.926 115.098 103.016 115.077C103.883 114.893 104.786 114.865 105.668 114.993C106.477 115.091 107.29 115.077 108.09 115.145C108.317 115.163 108.557 115.175 108.7 115.014C108.741 114.93 108.719 114.881 108.673 114.852C107.397 114.036 106.678 112.918 106.128 111.697C105.484 110.204 105.192 108.618 105.27 107.03C105.282 106.851 105.312 106.673 105.36 106.497C105.39 106.322 105.466 106.154 105.58 106.005C105.801 106.297 105.937 106.629 105.978 106.973C106.087 107.79 106.174 108.63 106.283 109.457C106.382 110.183 106.59 110.896 106.9 111.579C107.143 111.715 107.397 111.707 107.627 111.783C108.354 112.036 108.543 112.347 108.325 112.974C108.259 113.161 108.167 113.341 108.082 113.527C108.252 113.784 108.48 114.011 108.753 114.193C108.811 114.236 108.874 114.274 108.933 114.319C109.201 114.524 109.545 114.728 109.376 115.093C109.305 115.266 109.17 115.415 108.991 115.518C108.812 115.621 108.599 115.672 108.383 115.665C107.591 115.665 106.796 115.62 106.004 115.582C105.619 115.561 105.237 115.498 104.851 115.463C104.292 115.409 103.725 115.448 103.183 115.577C102.931 115.662 102.653 115.677 102.391 115.62C101.952 115.212 102.122 114.599 102.875 113.913C102.924 112.412 102.839 110.91 102.621 109.42C102.553 108.852 102.449 108.288 102.357 107.723C102.262 107.172 102.088 106.634 101.838 106.12C101.626 105.73 101.481 105.318 101.405 104.894C101.355 104.697 101.243 104.514 101.08 104.365C100.8 104.317 100.511 104.317 100.23 104.365C99.2048 104.464 98.1667 104.328 97.2245 103.973C96.6326 103.761 95.9793 103.702 95.3475 103.804C94.9834 103.855 94.6119 103.855 94.2479 103.804C93.4123 103.663 93.2016 103.125 93.7635 102.578C93.8507 102.494 93.9936 102.447 94.0057 102.313C92.8165 102.409 91.6515 102.211 90.4792 102.108C88.9413 101.984 87.4057 101.823 85.8774 101.678C85.7684 101.816 85.8944 101.9 85.9525 101.99C87.861 104.794 89.8277 107.572 91.9857 110.245C92.6615 111.082 93.267 111.956 93.8894 112.824C94.0785 113.072 94.2192 113.344 94.306 113.629C94.3689 113.804 94.3475 113.992 94.2463 114.154C94.1452 114.315 93.9725 114.436 93.7659 114.491C93.57 114.564 93.3577 114.601 93.1435 114.599C91.5328 114.546 89.9343 114.728 88.3309 114.803C87.769 114.826 87.2071 114.803 86.6355 114.816C85.8096 114.816 85.2356 114.526 84.9401 113.856C84.3176 112.467 83.6661 111.086 83.0461 109.696C81.9998 107.343 80.9704 104.984 79.9289 102.627C79.8834 102.467 79.8056 102.315 79.6988 102.178C76.727 102.464 73.8085 102.838 70.8391 103.238C70.6975 103.748 70.5963 104.265 70.5364 104.786C70.1682 106.869 69.7807 108.95 69.5264 111.048C69.3326 112.641 69.2309 114.238 69.1098 115.835C69.087 116.519 69.0134 117.201 68.8894 117.877C68.8385 118.084 68.773 118.289 68.6932 118.49C68.6385 118.638 68.5402 118.771 68.4077 118.878C68.2751 118.986 68.1125 119.063 67.9351 119.103C66.5845 119.458 65.1869 119.672 63.7741 119.738C63.2695 119.757 62.765 119.7 62.2846 119.568C62.0966 119.525 61.9263 119.44 61.7925 119.32C61.6587 119.201 61.5666 119.053 61.5265 118.892C61.4196 118.51 61.413 118.113 61.5071 117.728C61.8316 116.249 62.2603 114.791 62.6503 113.327C63.6191 109.694 64.4797 106.044 65.2321 102.376C65.2758 102.284 65.2758 102.182 65.2321 102.09C61.9988 101.712 58.7508 101.974 55.5441 101.908C55.2389 102.225 54.9773 102.486 54.7303 102.758C52.3979 105.325 50.0752 107.896 47.9777 110.609C47.6834 110.995 47.3598 111.364 47.0089 111.715C46.6106 112.123 46.0501 112.393 45.4322 112.477C44.0301 112.636 42.614 112.688 41.2009 112.632C40.928 112.625 40.6609 112.565 40.421 112.455C39.9754 112.251 39.8446 111.981 40.065 111.603C40.2342 111.328 40.4277 111.064 40.6438 110.813C41.6562 109.614 42.7486 108.47 43.8554 107.341C45.793 105.348 47.8445 103.43 49.9105 101.532C50.0928 101.393 50.2452 101.228 50.361 101.044C50.1563 101.038 49.953 101.075 49.77 101.153C48.4912 101.479 47.2148 101.802 45.873 101.908C44.8 101.994 43.744 101.859 42.6929 101.735C41.0417 101.53 39.3605 101.574 37.7277 101.865C36.2896 102.122 34.8334 102.301 33.3681 102.4C31.6898 102.526 30.0251 102.759 28.3884 103.097C27.2256 103.346 26.0377 103.504 24.8402 103.567C23.5638 103.62 22.3043 103.824 21.0401 103.975C20.4505 104.055 19.8506 104.066 19.2574 104.008C19.2574 103.826 19.4367 103.834 19.5481 103.804C20.437 103.499 21.3888 103.43 22.3165 103.273C23.0744 103.134 23.8449 103.05 24.6198 103.021C25.9153 102.967 27.2021 102.811 28.4635 102.556C30.3208 102.226 32.2008 101.996 34.0923 101.865C34.9991 101.805 35.8994 101.687 36.7856 101.514C38.8777 101.073 41.0502 100.973 43.187 101.218C44.7836 101.405 46.4085 101.316 47.9632 100.957C48.4863 100.838 49.0167 100.738 49.5447 100.64C49.9929 100.528 50.4636 100.494 50.9277 100.542C53.0906 98.5691 55.0936 96.4921 57.2904 94.5274L56.3918 93.2305C54.5801 93.1386 45.5751 93.6982 42.4337 94.0964C41.7908 94.5185 41.0189 94.7777 40.2079 94.8439C39.0575 94.9824 37.8987 95.0649 36.7371 95.091C36.3166 95.1094 35.8991 95.0221 35.5374 94.8403C35.1757 94.6586 34.8861 94.3905 34.7051 94.0699C34.6017 93.9129 34.5305 93.7424 34.4943 93.5654C34.3732 92.9241 34.676 92.4789 35.4026 92.2645C36.0718 92.0997 36.7553 91.9796 37.4468 91.905C38.4374 91.7559 39.4256 91.5844 40.4428 91.6538C40.9103 91.6844 41.3244 91.7764 41.5957 92.1685C46.5826 91.7947 51.5647 91.3516 56.6655 91.1759C56.4233 90.8736 56.0043 90.6878 56.0745 90.2916C56.1375 89.9342 56.4305 89.6789 56.6437 89.3623C56.1908 88.478 55.7839 87.5651 55.7548 86.5685C55.2939 86.4741 54.8218 86.424 54.3476 86.4194C51.1045 86.1865 47.876 85.8537 44.6595 85.4942C42.2787 85.2287 39.9245 84.8366 37.5752 84.42C37.2637 84.3895 36.9694 84.2838 36.7274 84.1156C36.555 83.631 36.4732 83.1266 36.4852 82.6207C36.3617 78.7403 36.243 74.8599 36.5216 70.9631C36.5749 70.2299 36.5506 69.4927 36.5894 68.7595C36.5752 68.2515 36.6891 67.7468 36.9236 67.2788C36.9575 67.2237 36.9745 67.1542 37.0956 67.144C37.3166 67.4068 37.4259 67.7249 37.4056 68.0467C37.4056 69.5805 37.4056 71.1102 37.3669 72.6521C37.316 75.0682 37.2676 77.4843 37.3354 79.9024C37.3669 81.0603 37.3136 82.2204 37.299 83.3743C37.299 83.5356 37.299 83.699 37.299 83.8501C37.369 83.899 37.4498 83.9355 37.5367 83.9576C37.6237 83.9797 37.7149 83.9869 37.8052 83.9788C39.4474 84.0911 41.0677 84.3382 42.6953 84.5363C45.035 84.8223 47.3819 85.0531 49.7191 85.2798C54.3355 85.725 58.9664 86.0599 63.5658 86.6399C67.1673 87.0954 70.7616 87.559 74.3147 88.2391C76.5236 88.6618 78.7252 89.1111 80.9534 89.4645C82.5714 89.7157 84.2014 89.9097 85.812 90.1956C86.0203 90.2324 86.2262 90.2753 86.4054 90.31C86.5822 90.2814 86.6476 90.1833 86.7735 90.0812C86.5604 88.8987 86.5313 87.6897 86.3981 86.4888C86.1734 84.1929 86.1216 81.8872 86.2431 79.5858C86.3134 78.1562 86.3497 76.7122 86.3424 75.2765C86.3352 73.8408 86.3424 72.4336 86.3424 71.0122C86.3798 70.8524 86.3605 70.6868 86.2867 70.5363C86.0924 70.5193 85.8969 70.5582 85.7321 70.6466C85.4075 70.7569 85.0854 70.8692 84.7633 70.9917C83.0993 71.6391 81.5081 71.4002 79.9846 70.6793C79.5236 70.4448 79.0141 70.2861 78.483 70.2116C77.7597 70.096 77.0474 69.9363 76.3516 69.7337C76.2007 69.7019 76.0579 69.6472 75.9302 69.5723C74.9614 68.9351 73.7819 68.5185 72.9487 67.7199C71.711 67.4299 70.454 67.2523 69.1655 67.0358C68.9427 67.4442 68.6496 67.7873 68.1361 67.9303C67.4265 68.1345 66.7144 68.2571 65.9709 68.0651C65.4622 67.9323 64.9149 67.8731 64.5394 67.5014C63.9 67.3135 63.6699 66.7989 63.2921 66.37C62.5921 66.5109 62.0666 66.227 61.5967 65.841C61.2988 65.581 61.094 65.2553 61.0057 64.9015C60.6376 63.7374 60.9016 62.6387 61.5289 61.5848C61.868 61.013 62.3039 60.5514 63.1807 60.7026C63.6698 60.0371 64.3253 59.4698 65.1014 59.0401C64.7623 58.3968 64.9996 57.7535 64.9197 57.0734C63.6118 57.537 62.3839 58.0945 61.0445 58.4295C61.0009 58.6888 60.9621 58.9298 60.9161 59.1688C60.5722 61.0232 60.1217 62.8592 59.6421 64.683C59.2716 66.0861 59.2086 67.5198 58.9664 68.9249C59.0137 68.9456 59.0668 68.9552 59.1201 68.9527C59.1733 68.9501 59.2248 68.9356 59.2691 68.9106C60.2113 68.6124 61.1462 68.2979 62.0932 68.014C62.8344 67.7894 63.5585 67.4912 64.382 67.5484C64.399 67.6076 64.4523 67.5668 64.5055 67.5463ZM95.5873 101.43C95.4371 101.13 95.1319 101.046 94.8607 100.948C94.3899 100.805 93.903 100.702 93.4074 100.642C92.8518 100.574 92.3046 100.464 91.7726 100.313C90.7287 99.9803 90.5301 99.2308 91.3027 98.5446C91.769 98.1468 92.3743 97.8856 93.0296 97.7991C93.5466 97.7267 94.0727 97.7122 94.5942 97.7562C94.8638 97.7805 95.1363 97.7448 95.3844 97.6528C95.6326 97.5607 95.8478 97.4154 96.0087 97.2314C95.9845 96.633 96.2509 96.0489 96.3914 95.4403C96.4533 95.0896 96.6384 94.7626 96.9229 94.5016C97.2075 94.2405 97.5783 94.0574 97.9875 93.9759C98.9225 93.7306 99.9332 93.7949 100.814 94.1556C101.255 94.0801 101.693 94.0147 102.124 93.9249C103.08 93.7 104.086 93.672 105.057 93.8432C105.384 93.892 105.721 93.8428 106.009 93.7043C106.445 93.5266 106.881 93.3469 107.332 93.2019C107.699 93.0704 108.097 93.0103 108.495 93.0258C108.894 93.0414 109.284 93.1323 109.635 93.2917C110.358 93.6462 111.196 93.7965 112.028 93.7206C112.88 93.643 113.568 93.9575 114.082 94.5376C114.422 94.9738 114.718 95.4336 114.966 95.9121C115.092 96.1373 115.109 96.3955 115.012 96.6309C114.856 97.0024 114.584 97.3314 114.225 97.5826C114.087 97.6889 113.883 97.744 113.82 97.9135C115.179 99.2533 115.218 99.5637 114.2 100.948C114.244 100.993 114.3 100.983 114.355 100.973C116.492 100.583 118.674 100.375 120.767 99.8129C122.77 99.2806 124.901 99.1851 126.96 99.5351C127.113 99.5549 127.267 99.5645 127.422 99.5637C128.747 99.5841 130.026 99.3064 131.317 99.1553C131.321 98.9799 131.281 98.8057 131.198 98.6447C131.029 98.1423 130.842 97.6439 130.69 97.1374C129.764 94.074 129.348 90.9431 129.079 87.7959C128.837 84.8488 128.565 81.9018 128.435 78.9465C128.461 78.7846 128.429 78.6198 128.345 78.4727C128.151 78.4753 127.962 78.5241 127.8 78.6136C126.722 78.9772 125.649 79.3509 124.569 79.7124C124.308 79.7982 124.041 79.933 123.673 79.7839C123.649 79.5674 123.431 79.4571 123.169 79.3591C122.774 79.2134 122.452 78.9544 122.261 78.628C122.116 78.3971 121.896 78.2058 121.626 78.0765C120.498 77.4638 119.393 76.8368 118.332 76.1527C116.838 75.1887 115.256 74.335 113.682 73.4711C113.52 73.3647 113.34 73.2806 113.147 73.2219C113.016 73.322 113.072 73.4262 113.077 73.514C113.154 75.2009 113.382 76.8879 113.103 78.5728C113.263 78.6565 113.479 78.5442 113.648 78.6647C113.372 79.014 112.992 79.2958 112.546 79.4816C112.011 79.7124 111.478 79.9452 110.933 80.1597C106.264 81.9978 101.729 84.0605 97.273 86.2315C93.9839 87.8306 90.7166 89.4542 87.1901 90.6715C86.73 90.8287 86.3061 91.0452 85.8217 91.0166C85.0161 92.8564 83.8231 94.5585 82.3001 96.0407C82.862 96.8719 83.1744 97.7869 83.7024 98.6222C84.2304 99.4575 84.7342 100.297 85.3203 101.093C87.2458 101.298 89.1229 101.502 91.0121 101.641C92.1819 101.724 93.3832 101.702 94.4465 102.211L95.0084 102.063C95.2408 101.88 95.4363 101.666 95.5873 101.43ZM66.0702 29.6594C66.6072 30.3072 67.218 30.9091 67.8939 31.4566C71.4301 34.3689 75.6226 35.9089 80.6119 35.7659C81.4098 35.7659 82.1968 35.6093 82.9104 35.3084C84.1868 34.7525 85.3293 34.0011 86.2795 33.0925C88.091 31.3566 89.406 29.2934 90.1232 27.0616C90.9293 24.4514 91.3491 21.7671 91.373 19.07C91.374 18.5472 91.3164 18.0254 91.201 17.5117C90.824 15.8251 90.2562 14.1728 89.5056 12.5775C88.9379 11.2551 88.0682 10.0394 86.9455 8.99933C86.2347 8.3485 85.4776 7.73468 84.6785 7.16125C84.076 6.69944 83.4129 6.29721 82.7021 5.96241C81.2005 5.32317 79.7303 4.6206 78.1003 4.21827L77.9235 4.18356L77.628 4.31427C76.7903 4.05039 75.9148 3.88143 75.0244 3.81185C73.5813 3.75251 72.153 4.07919 70.9433 4.7452C69.2115 5.63769 67.8552 6.85491 66.6442 8.21713C64.9948 10.0552 63.98 12.1506 63.2848 14.3604C62.5364 16.7315 62.3378 19.1558 62.3693 21.5963C62.384 22.2668 62.4765 22.9344 62.6454 23.5896C63.062 25.2562 63.9339 26.7634 64.9488 28.2195C65.1522 28.5136 65.3823 28.7975 65.6003 29.0855C65.7505 29.1304 65.8134 28.9262 65.9418 29.0181C66.1162 29.1999 65.9878 29.4306 66.0702 29.6594ZM65.0384 29.594C64.7211 29.1631 64.4135 28.7506 64.1108 28.3339C62.2894 25.8321 61.3472 23.1342 61.5604 20.1769C61.6476 18.9719 61.7105 17.7629 61.9019 16.5641C61.9346 16.3211 61.9346 16.0758 61.9019 15.8329C61.7359 14.6488 61.4843 13.4743 61.1486 12.316C60.5557 9.99068 59.3312 7.81299 57.5713 5.95423C56.4708 4.75933 54.9617 3.8782 53.248 3.42994C51.2547 2.92637 49.151 2.81459 47.0985 3.10317C45.613 3.28104 44.2211 3.81964 43.0925 4.65328C41.2337 5.9789 39.7905 7.67 38.8903 9.5773C37.6923 12.1035 37.1243 14.8107 37.2215 17.5301C37.2821 19.264 37.8391 20.9162 38.5173 22.5358C40.0165 26.1078 42.3489 29.1917 45.9844 31.5036C47.5393 32.4941 49.1645 33.3723 51.0512 33.8441C52.3591 34.1709 53.6815 34.3935 55.0597 34.2403C58.6467 33.842 61.6863 32.5166 64.2633 30.3885C64.5552 30.1482 64.8151 29.8818 65.0384 29.594ZM36.7832 44.8215C36.7517 47.2723 36.9018 49.6863 36.9648 52.1126C37.1411 52.1515 37.3262 52.1515 37.5025 52.1126C37.9869 52.084 38.4713 52.0901 38.9557 52.1003C41.2275 52.1493 43.4703 52.4434 45.701 52.7682C49.4769 53.3196 53.2747 53.7546 57.0554 54.2815C59.2385 54.5573 61.392 54.9794 63.4956 55.5437C63.8834 55.6437 64.2563 55.7807 64.6073 55.9521C64.7671 56.0338 64.9488 56.1217 64.8809 56.3157C64.7041 56.4648 64.537 56.3912 64.382 56.33C63.5998 56.0409 62.7894 55.8092 61.96 55.6376C59.274 54.9861 56.5032 54.6941 53.7591 54.2856C52.0055 54.0262 50.2374 53.8465 48.4766 53.6218C45.4128 53.2297 42.3514 52.8274 39.2584 52.6415C38.422 52.5645 37.5791 52.5495 36.7396 52.5966C35.7368 53.2481 34.7026 53.822 33.7677 54.4898C33.8961 54.6205 34.0099 54.5797 34.1262 54.5879C34.7438 54.6348 35.3614 54.6696 35.979 54.7227C37.4637 54.8513 38.9266 55.0903 40.3895 55.3354C41.9299 55.5886 43.497 55.6948 45.0446 55.9052C46.9944 56.1686 48.9368 56.477 50.889 56.7221C53.7227 57.0836 56.5613 57.4042 59.4193 57.6105C59.9978 57.6171 60.5606 57.77 61.0348 58.0496C62.333 57.5084 63.5997 56.9447 64.9294 56.4934C65.1716 56.4096 65.3944 56.33 65.6366 56.4688C65.8207 57.3184 65.5736 58.1313 65.3436 58.9768C65.8677 58.8598 66.413 58.8258 66.9518 58.8767C68.1047 58.9707 69.1825 59.1892 69.6305 60.2675C70.6668 60.1682 71.696 60.0223 72.7137 59.8305C73.4354 59.1295 74.2979 58.5411 75.2617 58.0925C75.37 58.057 75.4682 58.0027 75.5499 57.9332C75.7856 57.712 76.1118 57.5741 76.463 57.5472C77.892 57.3307 79.2992 57.0182 80.7452 56.8834C80.9555 56.8579 81.1613 56.8105 81.3579 56.7425C83.0533 56.2095 84.7245 56.2074 86.3037 57.0693C86.3395 57.096 86.3822 57.1155 86.4284 57.1261C86.4746 57.1367 86.5231 57.1382 86.5701 57.1306C86.6403 56.5179 86.4538 51.8491 86.3279 51.4121C81.186 50.6237 75.9956 50.0029 70.9433 49.0634C70.82 49.1335 70.7293 49.2374 70.6865 49.3575C70.4758 49.7192 70.1364 50.0164 69.7156 50.2076C69.2948 50.3987 68.8137 50.4742 68.3396 50.4236C67.9394 50.3687 67.5337 50.3482 67.1286 50.3623C66.641 50.384 66.1584 50.2699 65.7553 50.0376C65.6299 49.9414 65.4759 49.8757 65.3097 49.8477C64.9076 49.9477 64.4862 50.1111 64.0018 50.0927C63.5174 50.0743 63.1541 49.7619 62.7278 49.574C62.4662 50.1724 62.2288 50.7401 61.9697 51.3038C61.7619 51.7984 61.426 52.2477 60.9863 52.6191C60.1629 53.2726 59.2667 53.2583 58.482 52.5741C57.972 52.099 57.6107 51.5241 57.4308 50.9015C57.2976 50.5114 57.2153 50.107 57.099 49.7108C57.0457 49.525 57.0142 49.3187 56.7648 49.2268C56.5911 49.2441 56.4228 49.2884 56.2683 49.3575C55.8299 49.4902 55.3794 49.6516 54.9192 49.6189C54.149 49.5658 53.42 49.719 52.6788 49.8231C52.4502 49.862 52.2146 49.8606 51.9866 49.8191C51.7587 49.7777 51.5433 49.697 51.354 49.5821C51.2159 49.4984 51.1409 49.3534 50.964 49.3085C50.809 49.3759 50.7654 49.5127 50.6855 49.6169C50.3513 50.058 50.0292 50.5053 49.6852 50.9403C49.5373 51.1312 49.3661 51.3085 49.1742 51.4692C48.5784 51.9553 47.9002 51.9247 47.3528 51.3937C47.0645 51.105 46.8538 50.7671 46.7352 50.4032C46.56 49.8664 46.4961 49.3081 46.5463 48.753C46.5463 48.6161 46.648 48.463 46.4761 48.3302C45.6744 48.2996 44.7346 48.6366 44.2139 47.7563L43.3395 47.8829C42.9592 47.9469 42.5694 47.96 42.1842 47.9217C41.814 47.8935 41.4681 47.7544 41.209 47.5296C40.95 47.3048 40.795 47.0092 40.7722 46.6964C40.7441 46.435 40.7711 46.1716 40.8521 45.9182C40.8842 45.8308 40.8864 45.7375 40.8586 45.649C40.8307 45.5605 40.7739 45.4804 40.6947 45.4179L36.7832 44.8215ZM82.5859 46.437C83.4166 45.6201 84.4266 45.0278 85.3688 44.3763C86.2897 43.7093 87.2509 43.0828 88.2486 42.4994C88.0064 41.4006 87.9119 40.3264 87.7787 39.2583C87.6455 38.1901 87.5607 37.1302 87.4541 36.0539C85.6255 36.3418 83.8817 36.6931 82.0482 36.7768C82.2662 37.51 82.225 38.2065 82.2153 38.8804C82.1887 40.7185 82.1475 42.5689 82.1088 44.4151C82.1088 44.7582 82.0869 45.1013 82.0579 45.4363C82.0409 45.6242 82.0579 45.8447 81.7842 45.9305C81.4621 45.7446 81.4185 45.7099 81.4185 45.2402C81.4185 42.8895 81.3046 40.5429 81.4596 38.1881C81.4616 37.7044 81.5431 37.2233 81.7018 36.7585C81.2453 36.7616 80.7907 36.7079 80.3528 36.5992C79.9078 36.4881 79.446 36.4324 78.9819 36.4337C78.1099 36.4307 77.2408 36.3472 76.3904 36.1846C73.2391 35.5809 70.329 34.2949 67.9472 32.4533C67.8115 32.3049 67.6331 32.1882 67.4289 32.1143C66.8126 32.5545 66.1331 32.9278 65.4065 33.2253C64.4367 33.6336 63.4367 33.989 62.4129 34.2893C61.2799 34.6291 60.084 34.7951 58.8816 34.7795C57.9715 34.7371 57.0586 34.7789 56.1593 34.904C54.847 35.1345 53.4919 35.129 52.1823 34.8877C51.6398 34.7856 51.0973 34.6835 50.4869 34.5589C50.5087 35.2635 50.3634 35.9313 50.4167 36.5889C50.545 38.1493 50.6831 39.7055 50.6419 41.3006C51.5962 41.4435 52.5456 41.5885 53.4951 41.7254C55.251 41.9766 57.0215 42.1624 58.7605 42.481C62.6357 43.1918 66.4795 44.0209 70.3862 44.6377C73.7165 45.1646 77.0249 45.7712 80.4158 45.9754C81.1448 46.0326 81.8883 46.0837 82.5859 46.437ZM71.0232 48.3731C71.2509 48.418 71.4567 48.4589 71.6626 48.4956C74.787 49.0512 77.9332 49.5168 81.077 49.9804C82.9831 50.2643 84.8965 50.5175 86.7784 50.9035C87.0562 50.9682 87.3511 50.9574 87.6212 50.8729C91.1671 49.7843 94.7274 48.7223 98.2079 47.4867C102.437 45.9877 106.559 44.2864 110.771 42.7527C110.848 42.7241 110.967 42.7159 110.948 42.5791C110.24 42.43 109.494 42.4463 108.785 42.3748C108.075 42.3034 107.303 42.3258 106.566 42.2421C105.83 42.1583 105.113 42.0991 104.386 42.0378L102.134 41.8336C101.407 41.7683 100.681 41.7049 99.9396 41.6294C99.1985 41.5538 98.4864 41.4762 97.7598 41.3945C97.0332 41.3128 96.263 41.223 95.517 41.129C94.771 41.0351 94.0638 40.9248 93.3372 40.8349C92.6106 40.7451 91.8428 40.6511 91.0968 40.5551L88.888 40.2631C88.8638 40.9513 89.026 41.5844 88.888 42.1808C88.9316 42.3401 89.1108 42.4136 89.0502 42.6465C88.9873 42.8364 88.7257 42.9896 88.498 43.1611C87.1964 44.1146 85.8279 45.0012 84.4 45.8161C84.048 46.0196 83.6713 46.1908 83.2762 46.3267C82.6409 46.5766 81.9327 46.6639 81.2392 46.5779C80.7839 46.5085 80.3189 46.4758 79.8587 46.437C77.2381 46.2205 74.6223 45.9775 72.0332 45.5588C69.444 45.1401 66.804 44.8154 64.227 44.2844C61.4804 43.7187 58.7218 43.2122 55.9219 42.8711C54.0117 42.6714 52.1237 42.3423 50.2762 41.8867C49.862 41.4517 49.9347 40.9146 49.7651 40.4428C47.4788 41.0044 38.6965 43.9147 37.9409 44.3742L40.9539 44.7827C41.2287 44.4563 41.6004 44.1964 42.0317 44.0291C42.7604 43.7399 43.595 43.7046 44.3544 43.9311C44.9933 44.1245 45.6835 44.1641 46.3477 44.0454C47.0376 43.9149 47.7596 43.9869 48.3943 44.2497C49.2323 44.6377 50.0195 44.6071 50.8914 44.3702C51.7209 44.1244 52.6177 44.0889 53.4708 44.2681C54.196 44.4427 54.9512 44.5117 55.7039 44.4723C56.0341 44.4573 56.3641 44.5045 56.6699 44.6104C56.9758 44.7164 57.2498 44.8785 57.472 45.085C57.6754 45.2586 57.8644 45.4465 58.0606 45.6241C58.2846 45.8475 58.5757 46.0161 58.9034 46.1123C60.0103 45.2953 60.8822 45.183 62.815 45.6037C64.5491 45.1258 64.5491 45.1258 65.9103 46.0408C66.7193 46.0694 67.5791 46.0408 68.3808 46.3369C69.1825 46.6331 69.7177 47.2437 70.3184 47.7481C70.5606 47.6338 70.471 47.4193 70.5969 47.2498C71.028 47.5317 70.9602 47.9483 71.0304 48.3731H71.0232ZM121.362 77.0901C121.096 76.0465 120.914 75.0171 120.725 73.9878C120.291 71.8288 120.081 69.6421 120.096 67.4524C120.134 65.7225 120.096 63.9805 120.079 62.2608C120.032 60.4809 120.113 58.7001 120.321 56.9284C120.374 56.5342 120.469 56.1421 120.546 55.7459C120.374 55.7356 120.304 55.8255 120.214 55.8847C117.501 57.7523 114.263 58.9999 110.812 59.5078C109.4 59.712 107.978 59.857 106.557 59.9959C105.841 60.0661 105.187 60.3705 104.735 60.8435C104.38 61.19 104.078 61.5729 103.837 61.9831C103.287 62.9206 102.884 63.9148 102.64 64.9404C102.18 66.8172 102.732 68.4572 104.26 69.8991C105.159 69.9603 106.053 70.0653 106.937 70.2136C108.632 70.4873 110.216 71.0857 111.781 71.7086C112.021 71.8255 112.286 71.9005 112.561 71.9292C112.655 72.0261 112.761 72.1138 112.878 72.1906C115.85 73.6406 118.541 75.4358 121.37 77.0901H121.362ZM124.165 67.8016L125.293 68.159C128.1 69.0515 130.927 69.8889 133.824 70.5547C135.388 70.9141 137.004 71.1204 138.525 71.6208C138.551 71.631 138.593 71.6024 138.665 71.5799C138.981 70.8862 139.186 70.1603 139.276 69.4212C139.566 67.2312 139.695 65.028 139.661 62.8245C139.634 60.0163 139.418 57.2143 139.418 54.4061C139.42 54.1941 139.4 53.9823 139.36 53.773C139.23 53.1194 138.827 52.8417 137.992 52.8131C137.326 53.3768 136.615 53.9021 135.865 54.3857C132.758 56.334 129.844 58.4887 126.754 60.4554C125.713 61.1312 124.714 61.8511 123.76 62.6121C123.898 64.3297 124.036 66.0514 124.172 67.8016H124.165ZM71.6408 3.56065C71.7159 3.5872 71.7377 3.6015 71.7522 3.59742C71.9145 3.55045 72.0768 3.49733 72.2366 3.4524C73.3366 3.12196 74.521 3.04373 75.6686 3.2257C76.1503 3.34559 76.658 3.37143 77.1533 3.30127C77.4039 3.26807 77.6604 3.28845 77.8993 3.3605C80.0137 3.84657 81.9344 4.69619 83.7533 5.69488C85.1363 6.45462 86.3061 7.44513 87.4251 8.46629C88.4025 9.35402 89.2033 10.3692 89.7962 11.4726C90.2004 12.2314 90.5585 13.0072 90.8692 13.7967C91.5958 15.6532 92.0802 17.5505 92.0366 19.5152C92.0041 21.9669 91.6236 24.4064 90.9031 26.7818C89.7478 30.5335 87.5341 33.6746 83.482 35.725C83.39 35.77 83.2592 35.7965 83.2713 35.964C84.6591 35.7312 86.0615 35.6168 87.3742 35.3513C87.5607 35.2206 87.5631 35.0286 87.7763 35.0041C87.941 34.9776 88.0354 35.1532 88.2752 35.0919C88.7935 34.9 89.3942 34.7161 89.9561 34.4547C90.514 34.2199 90.9817 33.8566 91.3051 33.407C91.4997 33.1441 91.7201 32.8955 91.9639 32.6636C92.5601 32.0834 93.1211 31.4781 93.6448 30.85C94.6717 29.5532 95.5655 28.2073 95.8852 26.6388C96.1492 25.3358 96.3986 24.0308 96.6118 22.7196C96.7837 21.6515 96.8395 20.5731 96.9436 19.4989C97.0284 18.6431 96.8201 17.8078 96.7256 16.9644C96.5536 15.449 96.3308 13.9417 95.6599 12.5162C95.1072 11.2959 94.4774 10.1015 93.7732 8.93805C93.0611 7.79231 92.2207 6.70989 91.0266 5.87458C90.0917 5.21287 89.135 4.57567 88.1759 3.93847C86.8108 3.06507 85.2108 2.48979 83.5184 2.26378C81.0697 1.89208 78.5774 1.96151 76.1021 2.07792C74.4682 2.16847 72.9086 2.68682 71.6408 3.56065ZM112.793 101.224C112.913 100.916 113.136 100.644 113.435 100.44C113.549 100.351 113.654 100.255 113.75 100.152C114.162 99.7067 114.176 99.3819 113.818 98.8979C113.636 98.6862 113.423 98.4953 113.183 98.3301C112.842 98.0646 112.82 97.8175 113.103 97.5132C113.228 97.3888 113.366 97.274 113.515 97.1701C113.721 97.0202 113.91 96.8548 114.079 96.6759C114.189 96.5711 114.255 96.4393 114.268 96.3001C114.281 96.1609 114.241 96.0219 114.152 95.9039C114.031 95.7201 113.953 95.5158 113.847 95.3239C113.496 94.6969 112.972 94.2905 112.086 94.3517C111.953 94.3517 111.815 94.3517 111.682 94.3517C111.04 94.3955 110.397 94.2722 109.841 93.9984C109.691 93.9249 109.531 93.8657 109.376 93.7942C109.118 93.6762 108.831 93.6084 108.538 93.5956C108.245 93.5829 107.952 93.6256 107.68 93.7206C107.282 93.8474 106.894 93.9976 106.52 94.17C105.959 94.4389 105.301 94.526 104.67 94.415C104.174 94.3326 103.663 94.3403 103.171 94.4375C102.173 94.6417 101.163 94.7867 100.145 94.9072C99.5523 95.0017 98.9496 95.0476 98.3459 95.0441C98.4767 94.6111 98.966 94.6029 99.2954 94.3701C98.7199 94.3226 98.1415 94.4306 97.6435 94.6785C97.3968 94.7846 97.2091 94.9678 97.1204 95.1891C96.9218 95.814 96.5754 96.4145 96.636 97.0864C96.6481 97.2413 96.6182 97.3964 96.5486 97.5401C96.4789 97.6838 96.3713 97.8122 96.2339 97.9156C96.0386 98.0868 95.8019 98.2206 95.5399 98.308C95.2779 98.3954 94.9967 98.4343 94.7153 98.422C94.3666 98.4118 94.0178 98.3873 93.669 98.3914C93.1034 98.3832 92.5483 98.5208 92.0778 98.7856C91.9382 98.8487 91.8178 98.9381 91.7258 99.0469C91.6338 99.1556 91.5728 99.2807 91.5473 99.4126C91.5988 99.5161 91.6796 99.6075 91.7826 99.6787C91.8856 99.7499 92.0078 99.7988 92.1383 99.821C92.429 99.9068 92.7293 99.9701 93.0296 100.025C93.6496 100.156 94.2818 100.229 94.8873 100.417C95.2601 100.508 95.6065 100.663 95.9045 100.873C96.1807 101.091 96.3478 101.373 96.1467 101.663C95.8609 102.096 95.6018 102.572 94.9357 102.709C94.7937 102.726 94.6595 102.774 94.5464 102.849C94.4334 102.923 94.3455 103.022 94.2915 103.134C94.7781 103.194 95.2726 103.194 95.7592 103.134C96.3358 103.079 96.9192 103.149 97.4546 103.338C98.4538 103.709 99.5595 103.828 100.637 103.679C100.874 103.629 101.125 103.65 101.345 103.738C101.566 103.827 101.744 103.977 101.848 104.163C101.909 104.294 102.008 104.41 102.134 104.501C102.261 104.593 102.412 104.657 102.575 104.688C102.683 104.665 102.789 104.636 102.892 104.6C103.048 104.535 103.197 104.461 103.34 104.377C103.582 104.241 103.825 104.089 104.067 103.955C104.612 103.65 104.851 103.652 105.365 104.014C105.715 104.278 106.15 104.447 106.615 104.5C107.782 104.612 108.901 104.955 109.882 105.501C110.067 105.591 110.262 105.663 110.466 105.717C110.684 105.788 110.915 105.826 111.149 105.827C111.402 105.834 111.653 105.783 111.876 105.681C112.099 105.58 112.286 105.43 112.418 105.247C112.679 104.878 112.539 104.527 112.287 104.19C112.062 103.885 111.824 103.577 111.623 103.268C111.422 102.96 111.459 102.754 111.793 102.49C111.9 102.407 112.071 102.372 112.113 102.206C111.926 102.032 111.698 101.891 111.444 101.794C111.19 101.697 110.914 101.644 110.635 101.641C110.405 101.641 110.17 101.641 109.94 101.641C109.725 101.663 109.509 101.619 109.329 101.518C109.149 101.417 109.018 101.265 108.959 101.089C108.873 100.854 108.714 100.643 108.499 100.477C107.753 99.9395 106.968 99.4983 105.932 99.4432C105.06 99.4047 104.199 99.2673 103.372 99.0347C104.583 98.6018 105.762 98.6692 106.903 98.9224C108.225 99.2186 109.097 100.025 109.679 101.028C110.163 101.079 110.604 101.112 111.04 101.179C111.476 101.247 111.849 101.477 112.251 101.729C112.263 101.416 112.561 101.359 112.793 101.224ZM62.6963 96.8147C63.4946 97.3811 64.4113 97.8168 65.3993 98.0994C67.0917 98.5833 68.8828 98.7737 70.6647 98.659C72.515 98.5678 74.2847 97.9892 75.7243 97.0047C77.4546 95.8094 78.8214 94.283 79.7109 92.5524C80.0961 91.8295 80.3407 91.0534 80.641 90.3222C80.4925 90.216 80.3052 90.1562 80.1106 90.1527C79.0691 89.973 78.0204 89.8116 76.9862 89.6095C73.6486 88.9559 70.3087 88.3146 66.9251 87.8551C66.7001 87.8001 66.4631 87.7896 66.2324 87.8245C66.6369 88.2146 67.3175 88.3637 67.3732 88.9702C66.9639 89.056 66.6805 88.8722 66.385 88.7272L65.4162 88.2472C65.1107 88.658 64.6613 88.9785 64.1301 89.1642C63.9229 89.2561 63.691 89.301 63.4571 89.2945C63.2232 89.2881 62.9952 89.2305 62.7956 89.1275C62.5114 89.0113 62.2681 88.8345 62.0901 88.6145C61.912 88.3945 61.8054 88.139 61.7808 87.8735C61.193 87.8659 60.6067 87.8201 60.0272 87.7367C59.9529 88.1186 59.8091 88.4885 59.601 88.8334C59.3905 89.1486 59.054 89.3904 58.6515 89.5155C58.2107 89.6523 57.782 89.444 57.3703 89.4951C57.2298 89.683 57.3945 89.8586 57.3412 90.0404L57.0046 89.8995C56.816 90.0378 56.688 90.2255 56.6413 90.4325C56.7367 90.618 56.8808 90.7828 57.0627 90.9145C57.6973 91.468 57.7312 91.9847 57.1838 92.6158C57.1544 92.656 57.1277 92.6976 57.1039 92.7403C57.1862 92.8322 57.3461 92.8731 57.3073 93.0834C57.3073 93.1324 57.0821 93.1447 57.1232 93.3061C57.2892 93.6539 57.5013 93.9848 57.7554 94.2925C58.9155 94.4212 59.7753 94.8603 59.5549 96.0652C60.1677 96.2695 60.7369 96.4737 61.3085 96.6779C61.3679 96.6852 61.4283 96.6852 61.4877 96.6779C61.6161 96.5166 61.3957 96.2694 61.6742 96.1571C61.9164 96.0897 61.9939 96.3307 62.2264 96.3328C62.6624 96.1285 63.1468 95.9427 63.6796 96.0673C64.2125 96.1918 64.5467 96.537 64.8349 96.9148C65.2878 96.8107 65.7383 96.7964 66.1743 96.5962C65.9927 95.2646 66.5497 94.3027 68.187 93.8983C68.2451 93.3265 68.5648 92.7832 68.5067 92.193C67.2569 91.9622 66.7265 91.4414 66.5691 90.3243C66.4843 89.6789 66.6539 89.3317 67.1552 89.1356C67.4531 89.25 67.4362 89.4686 67.3853 89.681C67.3124 89.9862 67.3248 90.3016 67.4217 90.602C67.5767 91.0901 67.8721 91.4659 68.5334 91.5354C68.6596 91.5384 68.7826 91.5702 68.8892 91.6273C68.9958 91.6845 69.0821 91.7649 69.1389 91.8601C69.2285 92.8567 68.9838 93.9433 68.5794 94.3456C68.5447 94.3596 68.5091 94.3719 68.4728 94.3824C67.2788 94.6274 66.7071 95.2319 66.7047 96.2551C66.7088 96.386 66.7031 96.517 66.6878 96.6473C66.6804 96.7296 66.6483 96.809 66.5945 96.8779C66.5407 96.9469 66.4669 97.0032 66.3802 97.0414C65.8206 97.2948 65.1939 97.4242 64.5588 97.4172C64.353 97.2293 64.1761 97.0557 63.9848 96.8964C63.5658 96.5247 63.297 96.5145 62.6963 96.8147ZM13.5294 55.1985C13.5436 55.1407 13.5517 55.0819 13.5536 55.0229C13.5483 54.9409 13.5304 54.8599 13.5003 54.7819C12.9481 53.581 12.127 52.5721 10.606 52.1473C8.92952 51.6523 7.11675 51.5869 5.39626 51.9594C3.06386 52.4843 1.55494 53.7178 1.1553 55.7949C1.0173 56.5699 0.966213 57.3542 1.00272 58.1374C1.06811 60.2389 2.72962 62.5631 5.55369 63.3045C6.30698 63.5143 7.08109 63.6668 7.86671 63.7599C9.28181 63.9007 10.7121 63.6391 11.9309 63.0165C12.8173 62.5896 13.1758 61.8728 13.5584 61.1131C12.9215 60.9946 12.2602 61.1478 11.7613 60.7271C12.4588 60.4105 12.4589 60.4105 16.0773 60.5024C16.0216 58.9748 16.3317 57.4594 16.3195 55.9766C16.2792 55.9354 16.2264 55.904 16.1668 55.8856C16.1072 55.8673 16.0429 55.8628 15.9805 55.8725C15.2261 55.895 14.4707 55.8806 13.7183 55.8296C13.0406 55.8131 12.3682 55.7231 11.7177 55.562C11.5837 55.5395 11.4578 55.4909 11.3501 55.4199C11.2425 55.349 11.156 55.2578 11.0977 55.1536C11.9115 54.9024 12.6986 55.2598 13.5245 55.1985H13.5294ZM128.362 76.4998C127.812 76.5305 127.284 76.6367 126.744 76.6265C124.93 76.5958 124.051 75.9443 123.913 74.4289C123.736 72.4765 123.61 70.52 123.455 68.5655C123.244 65.8962 123.021 63.2268 122.816 60.5575C122.74 59.5629 122.634 58.5724 122.61 57.5758C122.593 57.3465 122.65 57.1178 122.773 56.9131C122.897 56.7084 123.083 56.5353 123.312 56.4117C124.073 55.9338 124.909 55.5462 125.795 55.2598C128.135 54.6269 130.436 53.8955 132.69 53.0684C133.501 52.7566 134.338 52.4958 135.194 52.2882C136.052 52.084 136.921 51.9022 137.825 51.99C138.113 52.0186 138.387 52.0431 138.614 51.8818C138.728 51.9614 138.614 52.0656 138.777 52.1616C138.791 52.1616 138.876 52.2065 138.963 52.2392C139.278 52.3493 139.553 52.5286 139.757 52.7585C139.962 52.9884 140.09 53.2604 140.128 53.5463C140.179 53.8372 140.208 54.1305 140.215 54.4245C140.278 56.2517 140.342 58.0795 140.407 59.9081C140.499 62.4222 140.513 64.9363 140.31 67.4483C140.222 68.9507 139.866 70.4332 139.251 71.8454C138.818 72.7869 138.113 73.4527 136.98 73.7877C136.452 73.9449 135.921 74.1001 135.393 74.2635C134.795 74.4514 134.206 74.672 133.598 74.8272C133.356 74.8946 133.267 75.1642 132.949 75.1233C132.978 75.4746 133.01 75.8075 133.036 76.12C133.188 76.1524 133.349 76.1334 133.485 76.0669C134.912 75.6551 136.311 75.1779 137.677 74.6373C138.549 74.286 139.399 73.8898 140.341 73.6958C140.403 73.6103 140.459 73.5216 140.508 73.4302C140.571 73.2931 140.625 73.1534 140.671 73.0116C141.076 71.7505 141.342 70.4603 141.465 69.1577C141.671 67.2727 141.828 65.3835 141.971 63.4924C142.213 60.3431 142.349 57.1979 141.92 54.0528C141.819 53.3073 141.799 52.5517 141.593 51.8185C141.477 51.3344 141.157 50.9021 140.693 50.6017C140.228 50.3013 139.649 50.1531 139.065 50.1846C138.658 50.1969 138.253 50.2459 137.854 50.2582C137.622 50.2685 137.398 50.3328 137.207 50.444C136.607 50.7746 135.973 51.059 135.313 51.2936C133.313 51.9962 131.314 52.7089 129.273 53.3359C126.669 54.1222 124.046 54.8615 121.457 55.752C121.263 56.1888 121.157 56.65 121.144 57.1162C120.953 58.9543 120.902 60.7924 120.902 62.6468C120.902 64.246 120.975 65.8471 120.926 67.4463C120.844 70.089 121.241 72.693 121.723 75.2908C121.905 76.2772 122.171 77.2453 122.762 78.1296C122.908 78.3733 123.115 78.587 123.37 78.7554C123.624 78.9238 123.92 79.0428 124.235 79.1038L128.352 77.6905L128.362 76.4998ZM59.2183 46.6821C58.8646 46.7129 58.5076 46.6646 58.1831 46.5419C57.8587 46.4193 57.5783 46.2267 57.3703 45.9836C57.3 45.906 57.2104 45.8406 57.1281 45.7671C56.9207 45.5503 56.6522 45.3807 56.3472 45.2737C56.0423 45.1667 55.7104 45.1257 55.3818 45.1544C54.9201 45.2083 54.4505 45.1861 53.9988 45.0891C52.8759 44.8085 51.6768 44.8335 50.5717 45.1606C50.2179 45.2696 49.8406 45.3142 49.4649 45.2913C49.0891 45.2684 48.7234 45.1786 48.3919 45.0278C47.8458 44.7695 47.2162 44.665 46.5947 44.7296C45.696 44.8632 44.7723 44.8128 43.9015 44.5826C43.7906 44.553 43.6759 44.5345 43.5599 44.5274C42.8844 44.4848 42.2123 44.6414 41.6587 44.9706C41.5836 45.4179 41.4794 45.8325 41.4504 46.2532C41.3995 47.0048 41.8888 47.3826 42.7752 47.3009C43.1603 47.2662 43.5406 47.1947 43.9232 47.1579C44.2066 47.1314 44.4973 47.0517 44.7734 47.1886C44.9696 47.2907 44.9429 47.5174 45.1343 47.6379C45.8221 47.8421 46.6286 47.3867 47.2923 47.8421C47.44 48.1873 47.3286 48.512 47.2923 48.8326C47.2366 49.478 47.2681 50.1091 47.6628 50.685C47.8082 50.8892 47.9535 51.1159 48.3265 51.1609C48.6046 51.066 48.8372 50.8957 48.9877 50.6768C49.5134 50.0923 49.9986 49.4827 50.4409 48.851C50.5693 48.6692 50.6831 48.4732 50.9737 48.4425C51.0627 48.4457 51.1491 48.4685 51.2243 48.5086C51.2996 48.5488 51.361 48.6049 51.4024 48.6713C51.7488 49.1941 52.2768 49.2452 52.9017 49.1328C53.3158 49.0593 53.7348 48.9286 54.1611 48.9817C54.9315 49.0735 55.7168 48.9712 56.4184 48.6876C56.9028 48.4936 57.3291 48.6651 57.5713 49.0736C57.6902 49.2975 57.7655 49.5361 57.7941 49.7803C57.9017 50.3784 58.132 50.9562 58.4747 51.4876C58.664 51.7925 58.9282 52.0599 59.2498 52.2719C59.3771 52.3623 59.5366 52.4143 59.7029 52.4194C59.8692 52.4246 60.0328 52.3827 60.1677 52.3005C60.4116 52.1663 60.6209 51.9919 60.7829 51.7878C61.0325 51.4766 61.2389 51.1422 61.3981 50.7912C61.6403 50.2786 61.8825 49.77 62.1368 49.2492C62.241 49.0328 62.3645 48.8265 62.6793 48.8122C62.9311 48.8631 63.1498 48.994 63.2897 49.1778C63.4343 49.322 63.629 49.4243 63.8464 49.4701C64.0637 49.5159 64.2926 49.503 64.5007 49.4331C64.6302 49.4015 64.7566 49.3612 64.8785 49.3126C65.0511 49.2369 65.2461 49.2052 65.4397 49.2215C65.6333 49.2379 65.8171 49.3014 65.9684 49.4045C66.2917 49.6183 66.6865 49.7412 67.0971 49.7558C67.5815 49.7558 68.0659 49.7823 68.5503 49.815C68.9206 49.8147 69.2793 49.706 69.5651 49.5074C69.8509 49.3089 70.0461 49.0328 70.1174 48.7264C70.1949 48.2506 69.788 47.7563 69.1195 47.55C68.8965 47.4983 68.6848 47.4169 68.4922 47.309C67.9045 46.9238 67.1721 46.7295 66.4286 46.7617C65.7383 46.7801 65.1789 46.6331 64.7574 46.149C64.6508 46.0191 64.4923 45.9258 64.311 45.8861C64.1296 45.8464 63.9374 45.8628 63.7692 45.9325C63.6216 45.9708 63.4769 46.0165 63.3357 46.0694C63.1589 46.1542 62.9604 46.2017 62.7571 46.2078C62.5538 46.2138 62.3517 46.1782 62.1683 46.1041C61.4417 45.8406 60.6909 45.8999 59.9546 46.1163C59.6228 46.2225 59.2837 46.339 59.2183 46.6821ZM78.4951 98.0994C78.4707 98.2276 78.5044 98.3588 78.5896 98.467C80.1469 101.492 81.5275 104.576 82.8814 107.67C83.7339 109.614 84.5881 111.558 85.4439 113.5C85.5214 113.764 85.7034 113.998 85.9597 114.162C88.2849 114.334 90.6681 113.807 93.0659 114.021C93.182 114.025 93.2982 114.017 93.4123 113.999C93.4531 113.995 93.4923 113.983 93.5268 113.964C93.5612 113.946 93.5901 113.92 93.6109 113.891C93.6448 113.65 93.4632 113.464 93.3227 113.278C92.7826 112.561 92.257 111.834 91.6733 111.146C88.624 107.553 86.0179 103.734 83.5014 99.8701C82.8039 98.8019 82.0869 97.7399 81.6316 96.5227C80.649 97.1336 79.5986 97.663 78.4951 98.1035V98.0994ZM66.7507 99.2431C66.7143 99.3377 66.6836 99.4338 66.6587 99.531C65.7965 104.01 64.6557 108.442 63.4108 112.853C62.9627 114.44 62.4686 116.017 62.1513 117.628C62.069 118.036 61.9648 118.463 62.224 118.937C64.135 119.276 65.9854 118.839 67.8358 118.574C68.0287 118.29 68.1329 117.969 68.1386 117.642C68.187 117.056 68.2209 116.47 68.2572 115.884C68.3977 113.601 68.5576 111.321 68.9451 109.056C69.2406 107.331 69.553 105.605 69.8533 103.877C69.9091 103.558 70.0205 103.238 69.8049 102.925C69.9859 102.748 70.0968 102.527 70.1222 102.294C70.2433 101.359 70.3063 100.413 70.6502 99.4575C69.3451 99.517 68.0362 99.4464 66.7507 99.2471V99.2431ZM40.7286 111.871C40.9273 111.955 41.1485 111.993 41.3704 111.983C42.6444 111.914 43.9232 111.926 45.1924 111.779C45.64 111.734 46.0502 111.546 46.338 111.254C46.6493 110.942 46.9341 110.611 47.1905 110.265C48.4427 108.593 49.816 106.998 51.2038 105.403C53.156 103.156 55.1372 100.952 57.4308 98.951C58.2495 98.2362 59.0487 97.503 60.0563 96.9536C59.7317 96.7065 59.2037 96.7616 58.9809 96.4104C58.8889 95.1564 58.792 95.0236 57.8401 94.8909C57.719 95.0012 57.5834 95.1155 57.4575 95.2381C56.5977 96.0775 55.7451 96.925 54.8756 97.7562C52.1436 100.362 49.3946 102.954 46.6771 105.568C44.9042 107.275 43.1894 109.024 41.5521 110.825C41.2326 111.148 40.9565 111.5 40.7286 111.875V111.871ZM46.5414 2.29851C46.7584 2.34528 46.9857 2.34528 47.2027 2.29851C48.7388 2.11895 50.2982 2.13478 51.8287 2.34548C54.5244 2.75394 56.7454 3.81798 58.4335 5.68261C60.1618 7.57947 61.3396 9.79103 61.8728 12.1404C62.0327 12.8266 62.1852 13.5149 62.3403 14.2011C62.7326 13.4107 62.9966 12.5979 63.3599 11.8136C63.7111 11.0203 64.1304 10.2497 64.6145 9.50786C64.4542 9.22194 64.3558 8.91417 64.3239 8.59904C64.1853 7.57813 63.8754 6.57899 63.4035 5.63156C63.0225 4.78819 62.3912 4.04139 61.5701 3.46262C60.2146 2.50959 58.6708 1.76505 57.0094 1.26304C55.7668 0.89459 54.4484 0.743125 53.1342 0.817833C51.916 0.870338 50.7075 1.02842 49.5278 1.28959C48.4756 1.49128 47.4683 1.83323 46.5439 2.30257L46.5414 2.29851ZM80.0452 57.5063C79.8999 57.5288 79.7884 57.5431 79.677 57.5635C78.8826 57.7065 78.1027 57.9311 77.2914 57.972C76.5569 58.0224 75.8534 58.2437 75.2593 58.6112C74.7817 58.8891 74.3247 59.1912 73.8908 59.516C73.1692 60.0455 72.6613 60.7515 72.4376 61.5358C72.1527 62.4884 72.0143 63.4679 72.0259 64.4502C72.002 65.0737 72.1688 65.692 72.5103 66.2454C73.559 67.8343 75.0558 68.931 77.2235 69.2823C77.554 69.3604 77.8952 69.4016 78.2384 69.4049C77.3277 68.014 77.2696 66.5456 77.3374 65.0425C77.3737 64.1786 77.4464 63.3167 77.5796 62.4589C77.8139 60.7629 78.6039 59.1554 79.8611 57.8168C79.9151 57.7782 79.9592 57.7308 79.9909 57.6775C80.0225 57.6241 80.041 57.5659 80.0452 57.5063ZM86.6791 66.2883C86.7832 66.175 86.8387 66.0354 86.8365 65.8921C87.113 63.7651 86.9961 61.6148 86.4902 59.518C86.3252 58.854 86.0305 58.2176 85.6183 57.635C84.7487 57.4757 84.056 57.7228 83.4239 58.1394C82.8538 58.5345 82.3912 59.0283 82.0676 59.5874C80.9244 61.4112 80.5853 63.378 80.6337 65.4101C80.647 65.4885 80.6689 65.5658 80.6991 65.6409C82.7094 65.7757 84.7269 65.8941 86.6791 66.3005V66.2883ZM124.22 68.3633C124.22 68.5124 124.22 68.592 124.22 68.6717C124.327 70.3504 124.436 72.0285 124.547 73.706C124.563 74.0322 124.6 74.3574 124.659 74.6801C124.746 75.1111 124.942 75.4971 125.465 75.6891C126.4 76.0179 127.34 75.9178 128.306 75.7156C128.105 75.009 127.921 74.3595 127.732 73.71C127.66 73.4895 127.635 73.26 127.657 73.032C127.727 72.4642 128.34 71.9373 128.967 71.9149C129.227 72.0394 129.27 72.2661 129.316 72.4949C129.444 73.3072 129.5 74.1263 129.486 74.9456C129.452 75.1109 129.481 75.2811 129.568 75.4317C130.504 75.1695 131.421 74.862 132.315 74.5106C132.191 73.9122 132.152 73.3384 132.026 72.7828C131.871 72.1028 131.956 71.5227 132.584 71.0428C132.596 71.0428 132.584 71.0122 132.603 70.9631C129.793 70.2136 126.957 69.5131 124.213 68.3755L124.22 68.3633ZM88.8589 39.5993C94.96 40.3856 101.034 40.9044 107.039 41.6845C107.375 41.3087 107.794 41.0718 107.986 40.6409C107.593 40.2353 107.051 39.9526 106.445 39.8383C105.651 39.7157 104.873 39.5483 104.091 39.4094C103.309 39.2705 102.781 39.0704 102.8 38.3249C102.261 38.0598 101.693 37.8382 101.105 37.6632C100 37.3303 99.012 37.5304 98.1401 38.1717C97.9366 38.3229 97.755 38.4944 97.5636 38.6558C97.432 38.7877 97.2555 38.8824 97.0579 38.927C96.8604 38.9715 96.6514 38.9638 96.4592 38.9049C96.0948 38.7892 95.7026 38.7493 95.316 38.7885C95.0105 38.8336 94.697 38.8223 94.3972 38.7553C94.0973 38.6883 93.8183 38.5672 93.5794 38.4005C93.3666 38.2427 93.1014 38.1439 92.8198 38.1176C92.5381 38.0913 92.2537 38.1387 92.0051 38.2534C91.8617 38.3227 91.7025 38.3656 91.5381 38.3793C91.3736 38.393 91.2076 38.3773 91.0508 38.3331C90.0966 38.0288 89.3966 38.28 88.9146 39.0213C88.8783 39.0785 88.8347 39.1316 88.8008 39.1745C88.7762 39.321 88.7902 39.4702 88.842 39.6116L88.8589 39.5993ZM123.75 61.9198C123.921 61.8776 124.07 61.7875 124.172 61.6645C124.912 61.0412 125.7 60.4587 126.529 59.9203C129.011 58.3559 131.373 56.6649 133.824 55.0617C134.817 54.4102 135.781 53.726 136.752 53.052C136.861 52.9765 137.03 52.9254 137.013 52.7253C136.742 52.7702 136.478 52.809 136.219 52.8601C134.766 53.148 133.429 53.6443 132.07 54.1222C130.652 54.6459 129.195 55.094 127.71 55.464C126.808 55.6518 125.933 55.9259 125.104 56.2809C124.516 56.5798 123.901 56.8387 123.264 57.055C123.409 58.6888 123.571 60.2941 123.734 61.932L123.75 61.9198ZM33.2833 54.1365C33.201 54.0364 33.075 54.0793 32.9685 54.0712C32.0651 53.9936 31.1568 53.9548 30.2558 53.8383C27.5432 53.4871 24.8547 53.0092 22.1203 52.7682C21.5462 52.7051 20.9625 52.7669 20.4249 52.9479C19.5496 53.255 18.7164 53.6412 17.9399 54.0997C17.8381 54.159 17.671 54.1753 17.6783 54.353C18.2765 54.447 18.8893 54.5368 19.4827 54.6328C23.1278 55.2251 26.7705 55.8214 30.4181 56.4035C30.9042 56.5004 31.4039 56.5396 31.9028 56.5199C32.3533 54.8003 32.0796 55.3415 33.2833 54.1365ZM72.1373 66.901C70.9021 64.7913 71.4979 62.7306 72.1373 60.6147C70.4419 61.0232 68.7973 61.0232 67.1116 60.8619C66.0411 61.5011 65.5107 62.4181 65.3654 63.5005C65.2273 64.5217 65.6076 65.3692 66.758 65.8757C66.8774 65.9297 66.9923 65.9905 67.1019 66.0575C67.295 66.1657 67.5195 66.2271 67.751 66.2352C68.9659 66.3275 70.1712 66.4941 71.3574 66.7335L72.1373 66.901ZM65.9951 99.1205C63.4374 98.2239 63.4374 98.2239 61.9237 97.1517C61.4804 97.3825 61.0178 97.2273 60.5334 97.1027C60.2694 97.7154 59.7245 98.1463 59.2086 98.5854C58.2834 99.3738 57.3412 100.148 56.4814 100.991C56.3319 101.096 56.2169 101.232 56.1472 101.385C56.9876 101.385 57.8087 101.41 58.6297 101.385C60.0587 101.334 61.4877 101.242 62.9215 101.31C63.7437 101.337 64.5618 101.421 65.3678 101.561C65.5809 100.726 65.7844 99.9354 65.9951 99.1205ZM70.919 102.627C73.7891 102.358 76.5769 101.955 79.4494 101.71L77.8121 98.3669C77.7141 98.3762 77.617 98.3913 77.5215 98.4118C76.4973 98.7151 75.4239 98.8839 74.3389 98.9122C73.2781 98.9367 72.3359 99.3758 71.2605 99.4126C71.4446 100.511 70.9844 101.514 70.919 102.627ZM134.836 95.0216L134.076 92.291L130.564 93.1304C130.939 95.1727 131.387 97.1456 132.177 99.0817C133.574 99.0041 134.935 99.0552 136.376 99.0429C135.761 97.7195 135.408 96.4063 134.858 95.1257C134.591 95.2299 134.373 95.3075 134.172 95.3933C133.47 95.6686 132.723 95.8564 131.956 95.9508C131.695 95.9896 131.421 96.0264 131.23 95.7997C131.438 95.5077 131.436 95.5015 131.787 95.4137C132.47 95.2317 133.18 95.132 133.896 95.1176C134.214 95.1317 134.532 95.0992 134.836 95.0216ZM75.6686 98.0238C76.4858 97.9456 77.2857 97.7702 78.0446 97.503C79.912 96.8413 81.5807 95.9488 82.77 94.5233C83.4828 93.6689 84.1052 92.7634 84.6301 91.8172C84.796 91.546 84.9267 91.2604 85.02 90.9656C84.3467 90.7307 81.806 90.3529 81.2998 90.4121C80.8539 91.8811 80.165 93.2898 79.2532 94.5968C78.3028 95.9056 77.0899 97.0652 75.6686 98.0238ZM83.7194 57.0734C82.334 56.9998 81.1787 57.347 80.3286 58.3294C79.4243 59.3529 78.7968 60.531 78.4903 61.7809C78.1737 63.2591 78.0293 64.7598 78.0591 66.2617C78.0618 66.885 78.1744 67.5045 78.3934 68.0998C78.5788 68.6339 78.9107 69.1236 79.3622 69.5294C79.6044 69.7337 79.9386 69.799 80.1832 69.9767C80.9099 70.5138 81.7987 70.6364 82.707 70.7221C82.9016 70.7486 83.1009 70.7114 83.264 70.618C83.1403 70.5381 82.9959 70.4843 82.8426 70.4607C82.335 70.3194 81.8703 70.0859 81.4811 69.7768C81.092 69.4677 80.7878 69.0905 80.5901 68.6717C80.3875 68.2826 80.2254 67.8794 80.1057 67.4667C79.5747 65.4328 79.658 63.319 80.3479 61.3193C80.905 59.6018 81.7648 58.0312 83.7194 57.0734ZM68.9209 60.3411C68.6617 59.9428 68.5576 59.8468 68.1943 59.7059C67.5207 59.4472 66.7771 59.3456 66.0411 59.4118C65.6326 59.4422 65.2436 59.5729 64.9221 59.7876C64.0658 60.3352 63.4759 61.1275 63.263 62.0158C62.907 63.5475 63.2122 65.0078 63.9218 66.4169C64.4062 67.3727 66.0314 68.0161 67.2327 67.7955C67.7898 67.6914 68.1749 67.4606 68.2887 66.9316C67.9739 66.8642 67.6517 66.807 67.3417 66.7274C65.6947 66.2801 64.7889 65.4142 64.7284 63.8498C64.7191 63.1438 64.9225 62.4474 65.3193 61.8258C65.7844 61.0477 66.4795 60.5453 67.5476 60.4432C67.9739 60.3921 68.4171 60.3839 68.9209 60.3349V60.3411ZM86.6016 66.8765L80.6991 66.2883C80.8759 67.2808 81.123 68.1917 81.7624 68.9964C81.9164 69.1856 82.1172 69.3444 82.351 69.462C83.3585 69.9849 84.4533 70.0482 85.5747 69.9216C86.0471 68.9378 86.3898 67.9132 86.5967 66.8662L86.6016 66.8765ZM86.2649 69.7051C86.5874 69.5949 86.8739 69.4212 87.1005 69.1986C87.9967 68.4416 88.6033 67.4756 88.842 66.4251C89.1493 64.9279 89.242 63.405 89.1181 61.8891C89.0917 61.4323 88.9873 60.9811 88.808 60.5494C88.522 59.9292 88.2897 59.2924 88.1129 58.6439C87.8538 58.503 87.614 58.362 87.3645 58.2354C87.1355 58.1055 86.8814 58.0102 86.6137 57.9536C88.2486 61.8952 87.8441 65.7798 86.2601 69.6949L86.2649 69.7051ZM133.317 88.6353C132.237 89.0131 131.239 89.395 130.106 89.54C130.183 90.5489 130.304 91.5456 130.481 92.5667C131.692 92.3911 132.835 92.1583 134.037 92.0643C133.787 90.89 133.555 89.7892 133.313 88.6251L133.317 88.6353ZM41.6877 93.6553C46.4881 93.0554 51.3357 92.7652 56.1883 92.7873C56.9343 92.2073 56.9343 92.2073 56.9706 91.8499C56.0355 91.9699 55.0938 92.0497 54.149 92.0888C49.9952 92.2931 45.856 92.7015 41.6902 92.7015C41.5849 92.6897 41.4779 92.6975 41.3767 92.7243C41.2754 92.7511 41.1824 92.7963 41.104 92.8567C41.213 93.2223 41.2372 93.257 41.6877 93.6553ZM35.1701 93.0426C35.0054 93.9269 35.606 94.5662 36.6112 94.5805C37.0544 94.5805 37.5001 94.556 37.9457 94.5294C39.0114 94.4702 40.0408 94.2271 41.0943 94.0903C41.1936 94.078 41.3365 94.1169 41.3559 93.9678C40.3387 93.4368 40.1837 93.1508 40.5179 92.3666C39.3456 92.2257 35.8143 92.6546 35.1701 93.0426ZM133.988 102.823C134.403 103.546 134.884 104.239 135.427 104.898C137.006 104.49 138.576 104.506 140.215 104.529C139.482 103.796 138.807 103.023 138.195 102.215L133.988 102.823ZM133.647 102.233C135.1 102.051 136.507 101.837 138.006 102.002C137.534 101.185 137.038 100.475 136.66 99.7087C135.255 99.5964 133.906 99.8333 132.465 99.8762C132.791 100.686 133.19 101.474 133.659 102.233H133.647ZM132.436 82.0917C132.339 80.9562 132.271 79.8758 132.215 78.7689C131.787 79.033 131.312 79.2396 130.808 79.3816C130.324 79.5266 129.839 79.6757 129.343 79.8247C129.399 80.8867 129.437 81.9202 129.563 82.9944C130.542 82.6901 131.414 82.2878 132.436 82.0815V82.0917ZM65.6318 87.6733C62.4832 87.3323 59.4895 86.8421 56.4039 86.6522C56.5499 87.4176 56.7811 88.1698 57.0942 88.8987C57.4138 88.8469 57.7417 88.8428 58.063 88.8865C58.2569 88.9059 58.453 88.8718 58.6219 88.7893C58.7909 88.7068 58.9237 88.5804 59.0003 88.429C59.1293 88.2099 59.2035 87.9708 59.2183 87.7264C59.274 87.2649 59.4605 87.1137 60.0054 87.1383C60.8192 87.175 61.6209 87.2771 62.3209 87.6877C62.4095 87.8491 62.5123 88.0048 62.6285 88.1533C62.9167 88.4699 63.2606 88.7987 63.7765 88.6965C64.513 88.5395 65.166 88.1793 65.6318 87.6733ZM129.873 86.3438C129.832 87.2302 129.987 88.6598 130.149 88.96C131.155 88.6627 132.188 88.4352 133.237 88.2799C133.075 87.3241 132.92 86.4092 132.753 85.4207C131.821 85.8945 130.828 86.064 129.871 86.3438H129.873ZM138.326 72.211C136.657 71.9006 135.047 71.5718 133.405 71.1469C133.596 72.1538 133.492 73.1116 133.533 74.0429C133.583 74.0653 133.638 74.077 133.694 74.077C133.75 74.077 133.806 74.0653 133.855 74.0429C134.582 73.8387 135.33 73.6345 136.064 73.4302C136.568 73.3147 137.058 73.1616 137.529 72.9728C137.902 72.8155 138.188 72.5424 138.326 72.211ZM65.5543 30.2272C63.8527 31.9157 61.7285 33.2653 59.3345 34.179C61.2382 34.2648 65.857 32.5942 66.821 31.524C66.4238 31.1074 66.0169 30.6969 65.5543 30.2272ZM129.619 83.6357C129.619 84.3301 129.711 84.9856 129.779 85.678C130.307 85.5881 130.779 85.5167 131.232 85.4248C131.685 85.3328 132.22 85.3758 132.743 85.29C132.637 84.3321 132.533 83.4274 132.424 82.4613C131.562 82.9658 130.617 83.3614 129.619 83.6357ZM119.897 55.3088C116.555 56.4443 113.19 57.5145 109.967 58.8604C113.603 58.4743 117.041 57.2448 119.897 55.3088ZM129.273 78.0786C129.237 78.4549 129.256 78.8334 129.328 79.2059C130.321 78.9465 131.23 78.6259 132.249 78.5789C132.299 78.0924 132.299 77.6032 132.249 77.1166L129.273 78.0786ZM132.271 76.4284C132.327 76.0616 132.327 75.6903 132.271 75.3235L129.19 76.3324C129.19 76.6857 129.127 77.0043 129.258 77.3535L132.271 76.4284ZM63.1226 65.9799C62.4714 64.5357 62.3367 62.9622 62.735 61.4541C61.9503 62.0668 61.742 62.8837 61.6936 63.7293C61.6427 64.6544 61.9988 65.4223 63.1226 65.9799ZM122.549 54.6124C122.089 54.643 121.595 54.5531 121.161 54.9167C121.777 55.1148 122.145 54.7921 122.549 54.6124ZM128.66 72.836H128.498C128.306 73.1913 128.459 73.516 128.711 73.8306L128.66 72.836ZM107.588 112.892C107.678 112.675 107.724 112.543 107.637 112.389C107.588 112.327 107.522 112.276 107.444 112.24C107.366 112.205 107.28 112.186 107.191 112.185C107.264 112.444 107.406 112.686 107.605 112.892H107.588Z" fill="black" stroke="black" stroke-width="0.75"/>
        <path d="M79.4833 82.3114C79.6286 82.1888 79.5802 82.0397 79.5608 81.9029C79.3086 80.0045 79.2026 78.0944 79.2435 76.1844C79.2435 76.1558 79.2169 76.1272 79.1854 76.0639C75.0026 75.6738 70.8173 75.1735 66.5909 74.5792C66.5909 77.1239 66.913 79.6257 66.7701 82.1357C67.0123 82.0255 68.5673 80.6714 68.9063 80.2793C68.9063 79.8116 68.9063 79.3235 68.9063 78.8353C68.8743 77.8555 68.931 76.8751 69.0759 75.9026C69.1243 75.6248 69.1146 75.2899 69.524 75.1898C69.6346 75.2011 69.7356 75.2485 69.8053 75.3218C69.875 75.3951 69.9079 75.4884 69.897 75.5819C69.9066 75.778 69.9066 75.9741 69.897 76.1701C69.8727 77.3138 69.7201 78.4494 69.599 79.5869C69.5603 79.7308 69.5603 79.8801 69.599 80.024L71.7256 80.3569C73.4961 80.6285 75.269 80.8899 77.0225 81.2371C77.6266 81.3507 78.2169 81.5114 78.7857 81.7171C79.0691 81.8233 79.4227 81.9213 79.4082 82.2767C77.9356 82.1868 76.5018 81.8519 75.068 81.6272C73.2054 81.3392 71.3211 81.1473 69.4416 80.7837C68.6351 81.2698 68.2766 82.0949 67.5452 82.5994C67.5544 82.6405 67.5785 82.6782 67.614 82.7074C67.6495 82.7366 67.6948 82.756 67.7438 82.7627C70.7471 83.3264 73.748 83.8983 76.7537 84.4497C77.6848 84.6016 78.5936 84.8385 79.4639 85.1563C79.5677 85.1831 79.6547 85.2432 79.7061 85.3238C78.8062 85.3836 77.9008 85.3445 77.0128 85.2074C73.6487 84.7397 70.362 83.982 67.0487 83.3223C66.7483 83.2631 66.3657 83.304 66.2324 82.9139C66.3404 82.6653 66.3404 82.3925 66.2324 82.1439C66.0191 81.2809 65.8911 80.4045 65.8498 79.5236C65.7335 77.7958 65.5204 76.0721 65.6584 74.3382C65.6693 74.1428 65.7009 73.9487 65.7529 73.7581C65.8183 73.5417 65.9733 73.415 66.2542 73.5151C66.4407 73.6295 66.4189 73.8153 66.5376 73.9889C67.3102 74.0829 68.1144 74.1666 68.9112 74.283C71.372 74.6404 73.8594 74.8345 76.325 75.1572C77.2469 75.2529 78.1587 75.4085 79.0522 75.6228C79.2359 75.6544 79.4261 75.6453 79.6044 75.5962C79.9071 75.7862 79.9265 76.0456 79.9604 76.307C80.1421 77.6855 80.1833 79.0743 80.2995 80.459C80.3819 81.4352 80.4448 82.4135 80.5102 83.3897C80.5811 83.9857 80.5344 84.5875 80.3722 85.1706C80.1796 85.0113 80.0516 84.8047 80.0064 84.5804C79.8137 83.979 79.6888 83.3635 79.6335 82.7423C79.6431 82.5953 79.6916 82.4217 79.4833 82.3114Z" fill="black" stroke="black" stroke-width="0.75"/>
        <path d="M41.2009 71.5403C41.4431 71.2605 41.7701 71.2462 42.1043 71.2441C42.8205 71.2682 43.5337 71.3364 44.2381 71.4484C46.6335 71.7384 49.0337 72.012 51.3831 72.5104C51.664 72.5696 51.9425 72.637 52.2453 72.7146C52.4003 72.5757 52.3785 72.2857 52.7297 72.2837C52.9719 72.3245 53.0446 72.4879 53.0688 72.6799C53.1245 73.1006 53.1802 73.5234 53.2214 73.9461C53.4054 75.8986 53.5871 77.8524 53.7663 79.8075C53.8123 80.2308 53.8123 80.6567 53.7663 81.0799C53.766 81.263 53.7101 81.443 53.604 81.6027C53.3618 81.5149 53.3618 81.3127 53.3061 81.1555C53.0252 80.4182 52.9549 79.6503 52.8411 78.8905C52.5297 77.0798 52.3509 75.2546 52.3058 73.4253C52.2993 73.3562 52.2847 73.2878 52.2622 73.2211L45.6865 72.3102C45.7373 73.1802 45.7858 73.991 45.8342 74.8018C45.8514 75.614 45.8102 76.4263 45.7107 77.2342C45.9529 77.3343 45.9674 77.0913 46.1588 77.124C46.2169 77.3016 45.9916 77.4507 46.011 77.704C46.3065 77.7367 46.6214 77.7775 46.9362 77.8081L50.8115 78.1962C51.292 78.2418 51.7477 78.4003 52.1266 78.6537C51.8212 78.8067 51.4742 78.8911 51.1191 78.8987C49.228 78.922 47.342 78.7297 45.5121 78.3269C44.899 79.2422 44.168 80.0977 43.3323 80.8777C43.4995 80.9554 43.6889 80.9929 43.8797 80.986C46.694 81.2412 49.4503 81.7355 52.238 82.1766C52.6377 82.24 53.0373 82.3094 53.4297 82.3931C53.8539 82.4838 54.2509 82.6487 54.5947 82.8771C53.9887 83.0242 53.3511 83.0535 52.7297 82.9629C50.8236 82.7587 48.9586 82.389 47.0767 82.0888C45.5557 81.8458 44.025 81.6436 42.4991 81.4169C42.3785 81.3849 42.2491 81.3849 42.1285 81.4169C41.9917 81.3163 41.9016 81.1781 41.8742 81.0268C41.5085 79.6462 41.4915 78.237 41.3632 76.8401C41.2542 75.6515 41.2179 74.4587 41.1791 73.2681C41.1355 72.7024 41.1815 72.1346 41.2009 71.5403ZM42.424 80.7756C43.2281 79.636 44.4295 78.7762 45.3498 77.6938C45.0748 75.8715 44.9131 74.0384 44.8654 72.202C43.8361 72.0978 42.8358 71.8752 41.8282 71.8773C42.16 74.8652 42.3804 77.8061 42.424 80.7756Z" fill="black" stroke="black" stroke-width="0.75"/>
        <path d="M51.5453 60.477C51.6559 60.713 51.8583 60.9103 52.1194 61.0365C52.3484 61.1638 52.5106 61.3605 52.5723 61.5859C52.7673 62.0865 52.7434 62.6294 52.5048 63.1164C52.2662 63.6034 51.8288 64.0023 51.2717 64.2409C51.0375 64.3411 50.7786 64.3932 50.516 64.3932C50.2534 64.3932 49.9945 64.3411 49.7603 64.2409C49.3066 64.0354 48.9364 63.7198 48.6977 63.3349C48.4589 62.9501 48.3625 62.5137 48.421 62.0822C48.5211 61.6553 48.7764 61.2652 49.1514 60.9662C49.5264 60.6672 50.0025 60.4741 50.5136 60.4136C50.8575 60.3769 51.1627 60.479 51.5453 60.477ZM50.5257 61.1264C50.1757 61.1705 49.8541 61.3143 49.6144 61.5339C49.3747 61.7535 49.2313 62.0356 49.2081 62.3334C49.196 62.9053 49.6756 63.4873 50.2907 63.6099C50.0413 62.7786 49.8887 61.9597 50.5257 61.1264ZM51.2063 61.3531C50.7897 62.0434 50.9181 62.7562 51.0416 63.5731C51.8215 62.9604 51.8529 62.3212 51.6325 61.6186C51.5236 61.5104 51.4339 61.3858 51.2063 61.3531Z" fill="black" stroke="black" stroke-width="0.75"/>
        <path d="M33.8331 60.716C33.8128 60.2731 33.9584 59.8361 34.2492 59.4669C34.5401 59.0978 34.9614 58.8152 35.4535 58.6594C36.2164 58.4347 36.725 58.6083 37.115 59.219C37.1865 59.3132 37.2676 59.402 37.3572 59.4845C37.5886 59.7157 37.7517 59.9899 37.8329 60.2846C37.9142 60.5793 37.9113 60.886 37.8246 61.1796C37.5824 62.0149 36.8292 62.548 35.8991 62.5296C35.4133 62.5096 34.9494 62.3532 34.5812 62.0853C34.213 61.8173 33.9616 61.4532 33.867 61.0509C33.8452 60.9223 33.8428 60.7916 33.8331 60.716ZM35.7126 59.1761C35.2906 59.2949 34.9324 59.5363 34.7021 59.8574C34.4718 60.1784 34.3844 60.558 34.4556 60.9284C34.5026 61.2177 34.6728 61.4826 34.9344 61.6739C35.1959 61.8651 35.5311 61.9697 35.8773 61.9679C35.2161 60.3463 35.2113 60.2871 35.7126 59.1761ZM36.6354 59.2026C35.8725 59.6806 35.8579 60.765 36.5143 61.8127C36.7927 61.6532 36.9968 61.4172 37.0918 61.1449C37.1868 60.8726 37.1667 60.581 37.035 60.3198C36.8873 59.9726 36.6185 59.6601 36.6354 59.2026Z" fill="black" stroke="black" stroke-width="0.75"/>
        <path d="M25.8938 61.59C25.3252 61.6069 24.7713 61.4356 24.3504 61.1127C23.9296 60.7899 23.6751 60.3411 23.6413 59.8622C23.5759 58.9105 24.5423 57.9302 25.6564 57.8403C25.8858 57.8107 26.1204 57.8353 26.3342 57.9114C26.548 57.9874 26.7326 58.112 26.8674 58.2713C27.3427 58.8331 27.6099 59.5012 27.6352 60.191C27.6933 61.0284 26.9716 61.5757 25.8938 61.59ZM26.0609 58.4367C25.6586 58.4227 25.2644 58.5354 24.9551 58.7528C24.6458 58.9702 24.4434 59.2768 24.3873 59.613C24.2734 60.2257 24.6658 60.7179 25.4675 60.9242C25.2955 60.044 25.2737 59.1964 26.0609 58.4285V58.4367ZM26.4266 58.9677C25.9568 59.5804 26.0875 60.2748 25.9785 60.9508C26.6155 60.9283 26.8359 60.7731 26.8892 60.3381C26.9108 59.9154 26.836 59.4932 26.6688 59.0943C26.6373 59.0147 26.5695 58.9901 26.4266 58.9595V58.9677Z" fill="black" stroke="black" stroke-width="0.75"/>
        <path d="M43.0271 59.7377C43.2768 60.001 43.4942 60.285 43.6762 60.5852C44.3544 61.8902 42.8479 62.94 41.7798 62.8992C41.4682 62.8894 41.1674 62.8003 40.917 62.6435C40.6667 62.4868 40.4786 62.2697 40.3774 62.021C40.2292 61.6215 40.2269 61.1936 40.3707 60.793C40.5146 60.3924 40.7979 60.0375 41.184 59.7744C41.7725 59.4109 42.1382 59.4007 43.0271 59.7377ZM42.1043 60.0277C42.0661 60.0008 42.0194 59.9839 41.97 59.9788C41.9207 59.9738 41.8706 59.9808 41.8258 59.9991C41.0653 60.2931 40.6269 61.2878 40.9854 61.9188C41.0596 62.0631 41.1848 62.1847 41.3438 62.2669C41.5029 62.3491 41.688 62.388 41.8742 62.3784C41.3608 61.5369 41.4116 60.7568 42.1043 60.0277ZM42.5887 60.3708C42.0317 60.9978 42.2593 61.5962 42.4604 62.2089C43.2451 61.8127 43.2863 61.2673 42.579 60.3646L42.5887 60.3708Z" fill="black" stroke="black" stroke-width="0.75"/>
        <path d="M76.1724 111.855C75.9157 111.935 75.8212 111.868 75.7655 111.782C75.2359 111.031 74.8355 110.22 74.5763 109.374C75.205 110.154 75.7397 110.986 76.1724 111.855Z" fill="black" stroke="black" stroke-width="0.75"/>
        <path d="M30.0281 108.792C30.7087 109.011 31.2658 109.493 31.3336 109.897C31.316 109.916 31.2933 109.932 31.2672 109.943C31.2412 109.954 31.2125 109.96 31.1834 109.96C31.1544 109.96 31.1257 109.954 31.0997 109.943C31.0736 109.932 31.0509 109.916 31.0333 109.897C30.653 109.568 30.1928 109.29 30.0281 108.792Z" fill="black" stroke="black" stroke-width="0.75"/>
        <path d="M31.9488 109.729C31.7599 109.729 31.6606 109.652 31.6848 109.578C31.8277 109.113 31.7454 108.59 32.1692 108.188C32.0433 108.7 32.3048 109.26 31.9488 109.729Z" fill="black" stroke="black" stroke-width="0.75"/>
        <path d="M32.7965 109.188C32.9695 108.684 33.2369 108.206 33.5885 107.773C33.5037 108.269 33.448 108.77 33.1356 109.203C33.0847 109.28 32.9757 109.297 32.7965 109.188Z" fill="black" stroke="black" stroke-width="0.75"/>
        <path d="M77.209 111.261C77.1557 110.751 77.473 110.418 77.8751 110.075C77.9066 110.798 77.7152 111.153 77.209 111.261Z" fill="black" stroke="black" stroke-width="0.75"/>
        <path d="M76.0465 111.259C76.2112 110.832 76.2378 110.381 76.5163 109.966C76.6464 110.382 76.6115 110.823 76.417 111.22C76.3492 111.312 76.2596 111.357 76.0465 111.259Z" fill="black" stroke="black" stroke-width="0.75"/>
        <path d="M119.158 106.45C119.064 106.542 118.989 106.561 118.916 106.479C118.972 106.235 119.054 106.331 119.158 106.45Z" fill="black" stroke="black" stroke-width="0.75"/>
        <path d="M95.3596 77.5324C95.2603 77.3812 95.0375 77.3506 95.0254 77.1443C95.0738 76.9054 95.4444 76.8543 95.5098 76.5786C95.8517 76.6945 96.2335 76.6945 96.5755 76.5786C100.356 75.6759 104.12 74.7405 107.831 73.6438C108.431 73.4681 109.042 73.2946 109.712 73.3415C110.163 74.2892 110.129 75.2879 110.197 76.2702C110.238 76.838 110.197 77.4098 110.197 78.0348L109.955 78.386C109.502 78.3677 109.177 78.6556 108.78 78.7945C106.116 79.7789 103.483 80.8001 100.799 81.7314C99.9033 82.0418 99.0023 82.3441 98.1038 82.6382C97.6172 82.8005 97.1074 82.9083 96.5876 82.9588C96.2533 82.9915 95.9797 82.9322 95.8319 82.7035C95.7835 82.4993 95.9821 82.4462 96.0111 82.3216C95.6866 80.7265 95.5098 79.1193 95.3596 77.5324ZM107.581 74.3811C103.749 75.439 99.9808 76.4581 96.1419 77.3873C96.2751 78.384 96.4035 79.3623 96.5416 80.3936C100.366 79.3725 103.992 78.0531 107.782 77.1014C107.792 76.1558 107.593 75.2899 107.581 74.3811ZM108.504 77.5344C104.459 78.7006 100.666 80.1894 96.5876 81.0635C96.6094 81.472 96.6288 81.8335 96.6506 82.2031C96.9703 82.2644 97.2125 82.1378 97.4619 82.0622C99.5885 81.4025 101.693 80.6979 103.759 79.9096C105.212 79.348 106.699 78.819 108.201 78.3329C108.627 78.1961 109.066 78.0817 109.579 77.9245C109.228 77.6324 108.761 77.7059 108.501 77.5344H108.504ZM109.376 77.3077C109.277 76.1129 109.17 74.9999 109.168 73.8521C108.856 73.919 108.556 74.0163 108.271 74.1421C108.422 75.0468 108.354 75.9414 108.48 76.8176L109.376 77.3077Z" fill="black" stroke="black" stroke-width="0.75"/>
        <path d="M80.687 20.2904C80.5587 20.4068 80.4787 20.5396 80.2801 20.4599C80.0064 20.3251 80.1615 20.078 80.1009 19.9126C79.9992 19.7349 79.7594 19.7083 79.6843 19.5429C79.8975 19.4081 80.0791 19.6368 80.3262 19.5633C81.215 18.5422 82.506 17.9295 83.8235 17.3331C84.5017 17.0167 85.2031 16.737 85.9234 16.4958C86.8923 16.1915 87.5123 16.3773 88.033 17.1289C88.5913 17.9931 88.9016 18.9556 88.9389 19.9391C89.002 20.8693 88.9264 21.8024 88.7136 22.7167C88.6925 22.8134 88.6642 22.9089 88.6288 23.0026C88.4205 23.5744 87.941 23.8195 87.2459 23.6765C86.8164 23.5781 86.4079 23.4237 86.0349 23.2191C84.3394 22.3695 82.6901 21.4525 81.0625 20.511L80.687 20.2904ZM81.0334 19.8431C81.0843 19.8942 81.1036 19.9269 81.1351 19.9411C82.8305 20.7581 84.4678 21.6608 86.1196 22.541C86.4314 22.7079 86.755 22.8586 87.0884 22.9924C87.1715 23.0677 87.2812 23.1184 87.4013 23.1368C87.5213 23.1551 87.6452 23.1401 87.7543 23.0941C87.8634 23.0481 87.9519 22.9735 88.0065 22.8816C88.0611 22.7896 88.0789 22.6851 88.0572 22.5839C88.2418 21.7321 88.3012 20.8644 88.234 20.0004C88.1798 19.2323 87.959 18.4792 87.5825 17.7783C87.4178 17.4822 87.2483 17.1861 86.8777 17.0431C85.7636 17.039 82.0192 18.8281 81.0334 19.8431Z" fill="black" stroke="black" stroke-width="0.75"/>
        <path d="M74.7192 15.5542C74.549 15.4276 74.4155 15.2697 74.3292 15.0927C73.3904 13.5529 72.628 11.941 72.0526 10.279C71.9297 9.90126 71.8414 9.51617 71.7885 9.12708C71.7042 8.70338 71.7906 8.26806 72.0337 7.89053C72.2769 7.51299 72.663 7.21497 73.1304 7.04393C74.1769 6.60627 75.3444 6.4157 76.5091 6.4925C77.3002 6.5477 78.085 6.65562 78.856 6.8152C79.0215 6.84921 79.1834 6.89427 79.3404 6.94997C80.0234 7.19301 80.2051 7.50141 80.0283 8.11615C79.9896 8.25932 79.9386 8.39992 79.8757 8.53685C78.9723 10.3586 78.0737 12.1844 76.7271 13.8162C76.3734 14.2431 76.0586 14.6944 75.6953 15.1172C75.3756 15.495 75.2545 15.5318 74.7192 15.5542ZM79.4954 7.57698C79.2628 7.38794 78.9652 7.26569 78.6453 7.22772C77.9856 7.09789 77.3152 7.01052 76.6399 6.96633C75.5341 6.88618 74.4238 7.06944 73.4355 7.49528C72.7089 7.80979 72.3311 8.29178 72.4038 8.99637C72.4219 9.25662 72.4632 9.51537 72.5273 9.77042C72.7579 10.5625 73.0616 11.3382 73.4355 12.0905C73.907 13.0558 74.3793 14.0205 74.8524 14.9844C74.9009 15.0804 74.8694 15.2234 75.0631 15.2458C75.5609 14.3634 76.1122 13.5031 76.7149 12.6684C77.7588 11.2674 78.4879 9.73569 79.3428 8.25501C79.4936 8.05343 79.5482 7.81113 79.4954 7.57698Z" fill="black" stroke="black" stroke-width="0.75"/>
        <path d="M71.8685 20.6416C71.6263 20.6416 71.5197 20.4619 71.292 20.4251C71.1377 20.9782 70.8554 21.5001 70.4613 21.961C70.0036 22.4635 69.5086 22.941 68.979 23.3906C68.4403 23.8338 67.8639 24.2434 67.2545 24.616C66.5279 25.0755 65.9394 24.9693 65.4647 24.3158C65.1615 23.8591 64.9789 23.3526 64.9294 22.831C64.7325 21.5852 64.7194 20.3236 64.8907 19.0752C64.9314 18.7337 65.0438 18.4011 65.2225 18.0928C65.3283 17.8788 65.5174 17.7015 65.7587 17.5901C65.9999 17.4788 66.2789 17.44 66.5497 17.4801C66.7996 17.5003 67.0446 17.552 67.2763 17.6333C68.7335 18.121 70.1017 18.7796 71.3405 19.5898C71.5761 19.7334 71.783 19.9078 71.9532 20.1065C72.1107 20.3353 72.147 20.517 71.8685 20.6416ZM71.2412 20.3925C71.2011 20.336 71.154 20.2833 71.1007 20.2352C69.8221 19.4115 68.4186 18.7356 66.9276 18.2256C66.8062 18.1702 66.6725 18.1365 66.535 18.1267C66.3975 18.1168 66.259 18.131 66.1283 18.1684C65.8776 18.372 65.7234 18.6458 65.6948 18.9383C65.442 20.1126 65.3906 21.3115 65.5422 22.4981C65.568 22.8737 65.6569 23.2443 65.8062 23.5989C65.9152 23.8419 66.0217 24.0911 66.3729 24.2116C66.6757 24.1667 66.8791 23.9624 67.1165 23.8031C68.6036 22.7861 69.708 21.432 71.2412 20.3925Z" fill="black" stroke="black" stroke-width="0.75"/>
        <path d="M77.3592 18.4973C78.2553 19.5062 78.7082 20.558 78.6307 21.7507C78.6057 22.1524 78.4796 22.5449 78.2608 22.9023C78.042 23.2597 77.7355 23.5738 77.3616 23.8236C77.1368 23.9931 76.8742 24.123 76.5891 24.2059C76.3041 24.2887 76.0022 24.3228 75.7014 24.306C75.4005 24.2893 75.1066 24.2221 74.8369 24.1084C74.5672 23.9947 74.3271 23.8368 74.1307 23.6439C73.5935 23.1421 73.2549 22.5119 73.1619 21.8405C72.9589 20.7005 73.1931 19.5356 73.8303 18.5156C74.0069 18.2059 74.2538 17.9284 74.5569 17.6987C75.0413 17.3413 75.6008 17.1228 76.2523 17.3311C76.9038 17.5394 77.318 17.9234 77.3592 18.4973ZM74.0071 21.0236C74.0314 21.283 74.0435 21.5444 74.0846 21.8017C74.1479 22.2414 74.3494 22.6589 74.6683 23.0108C75.3707 23.7726 76.3855 23.795 77.1339 23.0618C77.3789 22.8288 77.5602 22.5533 77.6653 22.2548C77.7703 21.9563 77.7965 21.642 77.7419 21.334C77.6639 20.9157 77.5357 20.5051 77.3592 20.1087C77.1898 19.7622 77.0687 19.4003 76.9983 19.0303C76.9313 18.6891 76.7088 18.3835 76.3783 18.1787C76.2293 18.0577 76.0314 17.9889 75.8246 17.9863C75.6177 17.9836 75.4174 18.0473 75.2642 18.1644C74.9622 18.371 74.7258 18.6377 74.5763 18.9405C74.2171 19.5954 74.0233 20.3062 74.0071 21.0277V21.0236Z" fill="black" stroke="black" stroke-width="0.75"/>
        <path d="M74.8839 25.9027C74.9393 25.8526 75.0125 25.8191 75.0925 25.8073C75.1725 25.7955 75.2549 25.8061 75.3271 25.8373C75.4434 26.1457 75.7728 26.3479 76.0537 26.595C77.4291 27.8806 78.6965 29.2454 79.8466 30.6797C80.1303 31.0124 80.3208 31.3951 80.4037 31.7989C80.5054 32.3033 80.302 32.6158 79.7328 32.7955C79.2539 32.9306 78.7504 32.9929 78.2457 32.9793C77.0392 32.9999 75.842 32.797 74.7386 32.385C73.6801 31.9765 73.3023 31.4353 73.4767 30.4754C73.7601 28.8967 74.3317 27.3895 74.8839 25.9027ZM75.4071 26.8442C75.2956 26.8238 75.2617 26.8626 75.2472 26.9095C74.9009 27.9961 74.4407 29.0519 74.1597 30.1548C74.106 30.3616 74.0752 30.5722 74.0677 30.7838C74.0471 30.9809 74.1015 31.1785 74.223 31.3477C74.3445 31.517 74.5268 31.6493 74.7434 31.7253C76.1361 32.2604 77.5869 32.5627 79.1321 32.432C79.2737 32.4348 79.4139 32.4084 79.5406 32.355C79.6673 32.3016 79.7765 32.2228 79.8587 32.1256C79.8127 31.5865 79.4518 31.1412 79.0691 30.7144C77.8896 29.3869 76.5575 28.1595 75.4071 26.8442Z" fill="black" stroke="black" stroke-width="0.75"/>
        <path d="M47.658 18.5135C45.8342 19.6981 43.7828 20.4272 41.9057 21.3952C41.5593 21.5757 41.1864 21.7172 40.7964 21.816C40.1934 21.9691 39.784 21.816 39.4764 21.3646C39.4091 21.265 39.3547 21.1596 39.3142 21.0501C39.0026 20.2076 38.8322 19.3325 38.808 18.4502C38.791 17.5434 39.3917 17.0614 40.4695 17.0574C40.9733 17.0675 41.474 17.1271 41.9614 17.235C43.5638 17.5189 45.1196 17.9654 46.5947 18.5646L47.6507 18.3767C47.7374 18.197 47.7889 18.0066 47.8033 17.813C47.9446 17.0808 48.3798 16.4117 49.0361 15.9178C49.6998 15.4276 50.4215 15.3766 51.2571 15.593C52.1557 15.8279 52.6304 16.3385 52.9138 17.041C53.0518 17.3801 53.2093 17.715 53.357 18.0622C53.4103 18.1847 53.4394 18.3216 53.6258 18.3257C54.9386 17.4352 56.416 16.798 57.8934 16.1608C58.2207 16.017 58.5759 15.9236 58.9422 15.8851C59.2605 15.838 59.5883 15.8817 59.8739 16.0093C60.1595 16.1369 60.3864 16.3411 60.5189 16.5897C60.771 16.9976 60.9078 17.4491 60.9185 17.909C60.9555 18.9707 60.8572 20.0326 60.6255 21.0766C60.6078 21.1738 60.5802 21.2694 60.5431 21.3626C60.3251 21.8915 59.848 22.0896 59.211 21.9099C58.9008 21.8152 58.608 21.6839 58.3415 21.5198L53.8753 18.9567C53.8148 18.922 53.7615 18.8669 53.6549 18.8873C53.5411 18.9874 53.6016 19.1242 53.5919 19.2447C53.5392 19.9494 53.2903 20.6337 52.8653 21.2421C52.5466 21.715 52.0582 22.0904 51.4703 22.3143C51.0762 22.4802 50.6291 22.5343 50.1957 22.4684C49.7623 22.4025 49.3657 22.2202 49.0652 21.9487C48.3095 21.336 47.9608 20.5415 47.8009 19.6858C47.7404 19.3141 47.7089 18.9383 47.658 18.5135ZM51.7948 16.5039C51.5512 16.3826 51.2875 16.2924 51.0125 16.2364C50.3537 16.0607 49.8378 16.2364 49.4019 16.6448C49.0691 16.9666 48.8412 17.3558 48.7406 17.7742C48.5333 18.6257 48.5993 19.5084 48.932 20.3312C49.0441 20.6255 49.2144 20.9017 49.4358 21.1481C50.235 22.059 51.0561 21.7853 51.7028 21.2891C51.8479 21.1807 51.9721 21.0539 52.0709 20.9132C52.6183 20.0963 52.8653 19.261 52.4706 18.3379C52.1883 17.7425 51.9624 17.1293 51.7948 16.5039ZM59.7196 21.3013C59.803 21.262 59.8733 21.2057 59.9241 21.1376C59.9749 21.0694 60.0045 20.9916 60.0103 20.9112C60.2716 19.8058 60.306 18.6709 60.112 17.5557C60.0321 17.1697 59.8819 16.7939 59.4629 16.5693C58.884 16.4631 58.419 16.6816 57.9613 16.8858C56.835 17.3903 55.7185 17.907 54.5971 18.4278C54.5703 18.4391 54.5489 18.4579 54.5366 18.4809C54.5242 18.504 54.5216 18.5299 54.5293 18.5544C54.8756 18.7219 55.2292 18.8873 55.578 19.0609C56.6923 19.6205 57.767 20.2342 58.7969 20.899C59.0923 21.0787 59.3612 21.2931 59.7196 21.3013ZM40.2781 21.336C40.748 21.2284 41.1888 21.0453 41.5763 20.7968C42.7683 20.1269 44.0165 19.5311 45.3111 19.0139C45.4201 18.969 45.5726 18.9588 45.609 18.7913C44.5875 18.443 43.5397 18.1524 42.4725 17.9213C41.8609 17.7638 41.2306 17.6637 40.593 17.6231C39.755 17.6027 39.4692 17.8273 39.4474 18.536C39.4374 19.2228 39.5228 19.9082 39.7017 20.5783C39.7184 20.7344 39.7795 20.8848 39.8799 21.0167C39.9802 21.1486 40.1169 21.2581 40.2781 21.336Z" fill="black" stroke="black" stroke-width="0.75"/>
        <path d="M52.4221 6.18411C52.365 6.10249 52.2796 6.03759 52.1774 5.99815C52.0752 5.95872 51.9611 5.94664 51.8505 5.96355C50.1326 6.00124 48.4802 6.52733 47.1615 7.45647C46.9506 7.602 46.7893 7.79211 46.694 8.00739C46.5986 8.22266 46.5728 8.45539 46.619 8.68186C46.6971 9.10178 46.8455 9.51024 47.0598 9.895C47.7205 11.1309 48.5253 12.3083 49.4624 13.4098C49.5472 13.514 49.6925 13.5936 49.6683 13.7652C49.506 13.9694 49.2953 13.9306 49.0749 13.8224C48.8768 13.7147 48.7049 13.5761 48.5687 13.4139C47.5335 12.3527 46.7054 11.1594 46.1152 9.87867C45.9594 9.54384 45.8536 9.19394 45.8003 8.83707C45.7302 8.47199 45.7839 8.09765 45.9553 7.75723C46.1268 7.41681 46.4089 7.12421 46.7691 6.91323C47.7423 6.31585 48.8513 5.89448 50.0267 5.67558C50.6452 5.53795 51.2812 5.46389 51.9208 5.45502C52.7418 5.45502 53.1802 5.84306 53.1318 6.53541C53.1073 6.79552 53.0513 7.05281 52.9646 7.3033C52.3737 9.09372 51.777 10.8842 51.1748 12.6746C50.9555 13.3502 50.5946 13.9872 50.1091 14.5556C50.115 13.8962 50.2159 13.2399 50.4094 12.6011C50.9067 10.7213 51.5293 8.86664 52.2744 7.04599C52.4003 6.77232 52.5529 6.47821 52.4221 6.18411Z" fill="black" stroke="black" stroke-width="0.75"/>
        <path d="M50.5354 24.7957L49.6755 23.4784C50.1333 23.6071 50.4021 23.9175 50.763 24.1483C51.0537 23.944 51.09 23.4069 51.7318 23.6091C51.664 23.9951 51.3903 24.2994 51.3806 24.7038C52.0879 25.4594 52.8072 26.2457 53.5483 27.0177C54.5559 28.0695 55.5514 29.1315 56.6291 30.1363C56.6824 30.1853 56.7309 30.2344 56.7793 30.2875C57.3001 30.8573 57.1717 31.2351 56.37 31.4638C55.8175 31.6166 55.2432 31.7066 54.6625 31.7314C53.6582 31.7824 52.6513 31.7824 51.6471 31.7314C50.4167 31.6701 49.833 31.1595 49.77 30.118C49.7247 28.7967 49.8662 27.4755 50.1914 26.1824C50.2859 25.7331 50.4118 25.2899 50.5354 24.7957ZM51.0997 25.6453C50.9803 25.9136 50.9069 26.1948 50.8817 26.4806C50.654 27.6386 50.4288 28.7966 50.4748 29.975C50.5039 30.7796 50.7485 31.0329 51.7004 31.1105C52.8526 31.2235 54.0157 31.2365 55.1711 31.1493C55.5635 31.1125 55.9776 31.0901 56.3094 30.8838C56.3094 30.8287 56.3094 30.7858 56.2925 30.7674C54.4759 29.1668 52.785 27.4681 51.2305 25.6821C51.2232 25.6453 51.1724 25.6453 51.0997 25.6453Z" fill="black" stroke="black" stroke-width="0.75"/>
        <path d="M60.6618 39.6148C60.4515 39.9185 60.1432 40.1657 59.7729 40.3276C59.5404 40.4334 59.2705 40.4655 59.0123 40.4179C58.7541 40.3703 58.5247 40.2462 58.3657 40.0682C58.1615 39.8607 58.009 39.6206 57.9172 39.3623C57.8255 39.104 57.7963 38.8328 57.8316 38.5648C57.8669 38.2968 57.9658 38.0375 58.1225 37.8025C58.2792 37.5674 58.4904 37.3614 58.7436 37.1967C58.8976 37.0977 59.0715 37.023 59.257 36.9761C59.5436 36.9152 59.8423 36.9061 60.1334 36.9493C60.4245 36.9925 60.7015 37.0871 60.9462 37.2269C61.1909 37.3667 61.3978 37.5486 61.5533 37.7605C61.7088 37.9725 61.8094 38.2097 61.8486 38.4568C61.8841 38.6701 61.8328 38.8872 61.703 39.0726C61.5732 39.2581 61.3726 39.401 61.1341 39.4779C60.9936 39.5331 60.8435 39.5596 60.6618 39.6148ZM59.8189 37.5337C59.2086 37.4806 58.7775 37.8012 58.6079 38.3833C58.4166 39.0082 58.7193 39.6454 59.2788 39.8435L60.0345 39.2512C60.1096 38.6671 59.8698 38.1239 59.8189 37.5337ZM60.8798 38.8591C61.185 38.5119 61.1535 38.3302 60.7369 37.9585L60.8798 38.8591Z" fill="black" stroke="black" stroke-width="0.75"/>
        <path d="M70.9263 39.6882C70.9219 39.4361 70.9892 39.1868 71.1225 38.9612C71.5197 38.2606 72.2052 37.9809 73.0601 38.1667C73.4477 38.249 73.7884 38.4442 74.0219 38.7177C74.2555 38.9913 74.3669 39.3256 74.3365 39.6617C74.3148 39.9543 74.2422 40.2426 74.121 40.5174C74.0773 40.661 73.9907 40.7927 73.8695 40.9C73.7482 41.0073 73.5963 41.0865 73.4283 41.1301C73.286 41.1775 73.1483 41.2342 73.0165 41.2996C72.7536 41.4264 72.4438 41.4655 72.1483 41.4092C71.8528 41.3529 71.5931 41.2052 71.4204 40.9953C71.0865 40.6187 70.9124 40.1583 70.9263 39.6882ZM72.7525 38.714C72.2318 38.6671 71.9823 38.8019 71.7837 39.1981C71.6584 39.4719 71.6426 39.7727 71.7388 40.0548C71.835 40.3368 72.0379 40.5846 72.3166 40.7604C72.8567 40.7135 73.0432 40.5562 73.0432 40.1273C73.0625 39.6474 72.8276 39.2042 72.7525 38.7161V38.714Z" fill="black" stroke="black" stroke-width="0.75"/>
        <path d="M94.6524 46.7486C94.4919 46.9111 94.2659 47.018 94.0178 47.0488C93.9013 47.0361 93.7902 46.9997 93.694 46.9427C93.5978 46.8858 93.5195 46.8101 93.4656 46.722C92.7245 45.7009 91.9567 44.7083 91.5425 43.5565C91.5315 43.4888 91.5258 43.4206 91.5256 43.3522C92.567 44.2182 93.1193 45.3108 94.0445 46.2891C94.4126 44.933 94.5773 43.6055 95.2555 42.4087C95.2112 43.2405 95.1061 44.0692 94.9406 44.8901C94.8244 45.5171 94.6766 46.142 94.6306 46.7772L94.6524 46.7486Z" fill="black" stroke="black" stroke-width="0.75"/>
        <path d="M94.6403 46.7608L98.3847 43.2256C98.4598 43.2828 98.4598 43.3298 98.4307 43.3706C97.6042 44.5885 96.6162 45.7231 95.4856 46.7527C95.3015 46.912 95.1319 47.1101 94.8268 47.0733C94.7887 47.0633 94.7536 47.0465 94.7237 47.0242C94.6938 47.0019 94.6698 46.9745 94.6534 46.9439C94.6369 46.9132 94.6283 46.88 94.6281 46.8463C94.628 46.8127 94.6362 46.7793 94.6524 46.7486L94.6403 46.7608Z" fill="black" stroke="black" stroke-width="0.75"/>
        <path d="M92.8407 47.6799C91.792 47.4757 91.0872 46.7364 89.9537 46.4892C90.2256 46.4228 90.511 46.4048 90.7916 46.4364C91.0723 46.4681 91.342 46.5487 91.5837 46.673C92.0875 46.914 92.6494 47.1183 92.8407 47.6799Z" fill="black" stroke="black" stroke-width="0.75"/>
        <path d="M109.073 65.544C109.05 64.9361 109.24 64.336 109.618 63.8182C109.932 63.3604 110.425 63.0085 111.012 62.8223C111.6 62.6362 112.245 62.6273 112.839 62.7971C113.034 62.8469 113.214 62.9306 113.368 63.0428C113.522 63.155 113.646 63.2933 113.733 63.4486C114.021 63.9632 114.404 64.4371 114.564 65.0069C114.751 65.6434 114.743 66.3095 114.542 66.943C114.125 68.2521 112.701 68.8811 111.192 68.4053C109.817 67.9723 109.226 67.0492 109.073 65.8769C109.066 65.766 109.066 65.6549 109.073 65.544ZM113.067 67.8539C113.317 67.7944 113.532 67.6591 113.67 67.474C113.969 67.1129 114.143 66.6885 114.171 66.2486C114.283 65.4603 113.905 64.7822 113.527 64.1001C113.419 63.8675 113.222 63.6721 112.967 63.5448C112.712 63.4175 112.414 63.3657 112.12 63.3975C111.422 64.1123 111.381 64.9272 111.529 65.7584C111.607 66.1765 111.783 66.5772 112.047 66.9371C112.311 67.2969 112.658 67.6086 113.067 67.8539ZM111.195 63.5119C110.052 63.998 109.555 65.1743 109.928 66.3711C110.228 67.3412 111.117 68.005 112.108 67.9641C110.756 66.6591 110.497 65.1825 111.195 63.5119Z" fill="black" stroke="black" stroke-width="0.75"/>
        <path d="M64.7478 92.6333C64.7703 93.2182 64.5367 93.7896 64.0914 94.2385C63.8291 94.5037 63.4648 94.6829 63.062 94.745C62.7281 94.8142 62.3805 94.8226 62.0424 94.7697C61.7044 94.7168 61.3835 94.6038 61.1012 94.4383C60.8189 94.2727 60.5817 94.0583 60.4053 93.8094C60.2289 93.5606 60.1174 93.2828 60.0781 92.9948C59.97 92.3742 60.1429 91.742 60.5625 91.2241C61.2891 90.3357 62.9216 90.1273 63.7765 90.834C64.076 91.0618 64.3167 91.3391 64.4838 91.6486C64.6509 91.9581 64.7407 92.2933 64.7478 92.6333ZM63.1855 91.2547C61.9745 90.8646 61.0396 91.3385 60.9307 92.3841C60.9048 92.5949 60.9105 92.8076 60.9476 93.0172C61.0857 93.728 61.9842 94.2141 62.8707 94.0731C63.6578 93.9486 64.0817 93.3175 63.8879 92.5679C63.7326 92.1051 63.4959 91.6645 63.1855 91.2609V91.2547Z" fill="black" stroke="black" stroke-width="0.75"/>
        <path d="M7.3048 60.8304C7.07436 60.6585 6.88595 60.4504 6.75016 60.2177C6.05504 59.27 5.78136 58.2101 5.59002 57.1215C5.39868 56.033 5.83222 55.1037 6.67266 54.2929C6.98908 53.9772 7.41117 53.7494 7.88367 53.6393C8.24213 53.5556 8.34385 53.5801 8.64176 53.8048C8.64176 53.9743 8.48675 54.009 8.35596 54.0744C7.68698 54.3759 7.14672 54.8465 6.81096 55.4201C6.4752 55.9936 6.36077 56.6414 6.48374 57.2726C6.69688 58.4449 6.87853 59.6254 7.3484 60.7446C7.34356 60.7732 7.3266 60.7915 7.3048 60.8304Z" fill="black" stroke="black" stroke-width="0.75"/>
    </g>
    <defs>
        <clipPath id="clip0">
            <rect width="149" height="119.87" fill="white"/>
        </clipPath>
    </defs>
</svg>
