<svg width="192" height="135" viewBox="0 0 192 135" fill="none" xmlns="http://www.w3.org/2000/svg">
    <g clip-path="url(#clip0)">
        <path d="M155.809 119.571C155.809 120.342 155.405 120.812 154.547 120.997C153.891 121.115 153.226 121.182 152.56 121.197C150.948 121.295 149.33 121.26 147.723 121.09C145.704 120.878 143.685 120.858 141.665 120.779C138.275 120.645 134.885 120.595 131.495 120.779C130.124 120.86 128.751 120.779 127.377 120.757C124.532 120.716 121.685 120.681 118.838 120.719C115.084 120.767 111.33 120.736 107.574 120.688C106.711 120.688 105.845 120.688 104.982 120.688C104.832 120.671 104.68 120.703 104.551 120.78C104.421 120.858 104.321 120.975 104.265 121.116C104.139 121.369 103.997 121.614 103.838 121.849C103.822 121.886 103.798 121.92 103.769 121.948C103.739 121.976 103.704 121.998 103.666 122.013C103.628 122.027 103.588 122.034 103.547 122.033C103.506 122.032 103.466 122.023 103.429 122.006C103.22 121.905 103.24 121.72 103.3 121.535C103.384 121.27 103.631 121.078 103.654 120.777C103.093 120.635 103 120.8 102.896 121.197C102.793 121.594 102.644 122.006 102.508 122.408C102.461 122.541 102.401 122.669 102.328 122.79C102.304 122.832 102.265 122.865 102.22 122.884C102.174 122.903 102.124 122.906 102.076 122.893C102.046 122.886 102.019 122.872 101.995 122.852C101.971 122.833 101.952 122.808 101.938 122.781C101.925 122.753 101.918 122.723 101.917 122.692C101.916 122.661 101.922 122.631 101.935 122.602C102 122.37 102.089 122.142 102.167 121.915L102.553 120.802C101.796 120.802 101.087 120.868 100.387 120.903C100.365 121.199 100.554 121.323 100.66 121.482C101.094 122.114 101.546 122.747 101.973 123.374C102.303 123.86 102.536 124.406 102.659 124.982C102.687 125.108 102.755 125.285 102.571 125.348C102.387 125.412 102.318 125.252 102.248 125.136C102.139 124.967 102.041 124.79 101.942 124.613C101.299 123.491 100.598 122.403 99.842 121.353C99.7614 121.217 99.6435 121.106 99.5022 121.034C99.3609 120.963 99.202 120.933 99.0444 120.949C92.4634 121.237 85.8825 121.09 79.3016 121.075C78.9987 121.075 78.6958 121.075 78.3954 121.09C78.3626 121.09 78.3348 121.131 78.2767 121.171C78.3499 121.361 78.5292 121.462 78.6579 121.609C79.2461 122.312 79.2764 123.025 78.7412 123.771C78.4573 124.137 78.1395 124.476 77.7921 124.782C77.2999 125.234 76.8748 125.754 76.5299 126.327C76.0831 127.085 75.3585 127.639 74.5105 127.869C73.2654 128.219 72.0011 128.496 70.724 128.699C70.0981 128.774 69.4636 128.671 68.8938 128.4C68.134 128.071 67.3541 127.79 66.5588 127.558C65.8769 127.371 65.1732 127.275 64.4662 127.273C64.1229 127.286 63.7791 127.269 63.4388 127.222C62.8572 127.111 62.2551 127.218 61.7475 127.523C61.1535 127.873 60.4898 128.088 59.8035 128.153C59.1172 128.217 58.4252 128.129 57.7767 127.895C56.5384 127.523 55.2654 127.28 53.9776 127.169C52.5843 127.02 51.2596 126.487 50.1507 125.629C49.2647 124.957 48.4392 124.216 47.5961 123.495C47.0252 123.001 46.6066 122.355 46.3895 121.631C46.2254 121.106 45.9452 120.969 45.4302 120.967C43.8752 120.967 42.3228 120.946 40.7678 121.002C37.6209 121.141 34.4687 121.098 31.3268 120.873C29.8195 120.726 28.3273 120.451 26.8664 120.051C26.2404 119.892 25.6042 119.74 24.9882 119.583C24.91 119.566 24.8317 119.543 24.7535 119.523C24.5844 119.48 24.4354 119.396 24.4506 119.202C24.4657 119.007 24.6399 118.911 24.8368 118.893C25.1187 118.871 25.4023 118.887 25.6799 118.941C26.1848 119.04 26.6745 119.126 27.1617 119.25C30.0243 119.975 32.9424 120.137 35.8757 120.147C37.6705 120.147 39.4678 120.124 41.2651 120.087C42.6787 120.059 44.0898 120.041 45.5034 120.087C45.9603 120.087 45.9603 120.087 45.9603 119.679C45.9603 118.668 45.9603 118.668 44.9506 118.628C42.7494 118.529 40.5684 118.215 38.3874 117.99C36.9031 117.839 35.4188 117.679 33.9395 117.452C31.9857 117.151 30.1151 116.622 28.4617 115.485C28.3961 115.439 28.3237 115.404 28.2472 115.381C27.7221 115.232 27.7171 115.234 27.6742 114.723C27.6375 113.975 27.6679 113.226 27.765 112.483C27.8294 111.839 27.8294 111.19 27.765 110.546C27.2601 105.418 26.6998 100.29 26.3035 95.1498C25.9122 90.1079 25.7986 85.0558 25.9021 79.9962C26.0434 73.5054 26.2681 67.017 26.2908 60.5262C26.2908 56.2782 26.2782 52.0328 26.2908 47.7873C26.3085 44.1462 26.2908 40.5 26.6366 36.8741C27.0632 32.2695 26.9497 27.665 26.7932 23.0555C26.6736 20.1656 26.7259 17.2712 26.9496 14.3875C26.9656 13.9229 27.0069 13.4595 27.0733 12.9993C27.0789 12.8776 27.1173 12.7597 27.1844 12.658C27.2009 12.6324 27.2235 12.6114 27.2502 12.5968C27.2769 12.5823 27.3068 12.5746 27.3372 12.5746C27.3675 12.5746 27.3974 12.5823 27.4241 12.5968C27.4508 12.6114 27.4734 12.6324 27.4899 12.658C27.5338 12.6992 27.5615 12.7548 27.5681 12.8148C27.5403 13.3812 27.9493 13.677 28.3027 14.0007C29.3856 14.9994 30.4863 15.9805 31.6626 16.8756C32.2444 17.3126 32.7805 17.8074 33.263 18.3523C33.3412 18.4434 33.4245 18.5344 33.5154 18.6203C33.6063 18.7063 33.6593 18.767 33.7678 18.6987C33.7851 18.6888 33.8002 18.6755 33.8123 18.6597C33.8245 18.6439 33.8334 18.6259 33.8385 18.6066C33.8437 18.5873 33.845 18.5673 33.8424 18.5475C33.8398 18.5277 33.8333 18.5086 33.8234 18.4914C33.7073 18.1905 33.9067 18.0767 34.1364 18.0211C34.4873 17.9376 34.8457 17.8744 35.2042 17.8213C38.405 17.3536 41.6312 17.1917 44.8522 16.9692C47.7122 16.7745 50.5723 16.5646 53.4349 16.4306C57.6505 16.2359 61.8636 16.0336 66.0817 15.9527C76.3582 15.753 86.6323 15.7277 96.9088 15.8111C103.126 15.8592 109.344 15.6746 115.561 15.6746C118.812 15.6746 122.061 15.7327 125.305 15.9805C128.671 16.2351 132.018 16.6228 135.347 17.1437C137.52 17.4825 139.701 17.7733 141.859 18.2031C141.973 18.2382 142.095 18.2374 142.208 18.2007C142.322 18.1641 142.421 18.0934 142.493 17.9983C143.964 16.3854 145.555 14.8859 147.251 13.5127C147.451 13.3412 147.66 13.1816 147.877 13.0348C148.195 12.8299 148.562 12.6858 148.534 12.1953C148.534 12.036 148.678 11.9096 148.857 11.8792C148.948 11.8648 149.041 11.8795 149.123 11.9213C149.205 11.9631 149.272 12.0298 149.314 12.1118C149.443 12.3646 149.521 12.6404 149.543 12.9235C149.698 13.8816 149.775 14.8507 149.773 15.8212C149.773 18.0666 149.7 20.312 149.629 22.5548C149.591 23.766 149.523 24.9797 149.495 26.1909C149.382 30.8611 149.034 35.5213 148.958 40.1941C148.92 42.5203 148.975 44.8441 149.011 47.1704C149.051 49.838 149.081 52.5082 149.059 55.1758C149.021 59.5275 149.15 63.8715 149.339 68.2156C149.44 70.4761 149.455 72.7417 149.518 75.0073C149.599 77.9 149.889 80.7775 150.2 83.6525C150.409 85.5818 150.586 87.5136 150.69 89.453C150.917 93.6934 151.179 97.9313 151.222 102.179C151.25 104.91 151.222 107.638 151.361 110.367C151.397 111.4 151.248 112.432 150.922 113.414C150.768 113.949 150.563 114.468 150.311 114.964C150.22 115.133 150.106 115.391 149.889 115.33C149.672 115.27 149.733 114.994 149.723 114.799C149.713 114.605 149.889 114.334 149.74 114.155C149.591 113.975 149.321 114.056 149.107 114.018C148.376 113.856 147.67 113.601 147.004 113.259C146.678 113.105 146.391 112.865 146.009 112.835C145.823 112.819 145.757 112.637 145.691 112.496C145.631 112.367 145.531 112.261 145.407 112.192C145.283 112.123 145.141 112.095 145 112.111C144.598 112.127 144.192 112.094 143.791 112.111C130.591 112.562 117.389 112.428 104.186 112.501C101.706 112.514 99.2227 112.503 96.7371 112.468C92.9001 112.42 89.0682 112.569 85.2414 112.85C82.3586 113.06 79.4708 113.06 76.5855 113.042C73.2533 113.024 69.9237 113.098 66.5942 113.201C66.4604 113.201 66.3266 113.221 66.218 113.229C66.1827 113.348 66.218 113.396 66.2609 113.434C67.3893 114.192 68.0583 115.323 68.6111 116.531C68.6496 116.602 68.6825 116.676 68.7096 116.751C68.803 117.06 69.0175 117.131 69.3154 117.116C70.1636 117.075 71.0117 117.067 71.8574 117.03C81.0182 116.627 90.1814 116.567 99.3473 116.777C105.423 116.911 111.499 117.065 117.575 117.03C120.1 117.014 122.624 116.916 125.148 116.756C126.701 116.66 128.256 116.643 129.811 116.675C134.253 116.746 138.694 116.469 143.094 115.846C144.411 115.667 145.722 115.411 147.037 115.201C147.514 115.126 147.996 115.06 148.478 115.029C148.731 115.012 149.145 114.933 149.195 115.267C149.246 115.601 148.859 115.684 148.594 115.76C147.991 115.927 147.388 116.102 146.772 116.208C143.907 116.698 141.021 117.037 138.128 117.338C134.448 117.72 130.745 117.591 127.059 117.813C120.544 118.203 114.026 118.231 107.506 118.129C105.83 118.104 104.156 118.066 102.48 118.038C101.841 118.038 101.841 118.038 101.748 118.683L101.71 118.984C101.614 119.755 101.614 119.755 102.419 119.71C102.997 119.679 102.997 119.679 103.386 119.227C103.341 119.55 103.452 119.639 103.732 119.649C104.318 119.667 104.853 119.591 105.231 119.108C105.431 119.28 105.176 119.399 105.343 119.614C105.403 119.664 105.57 119.614 105.721 119.614C112.1 119.748 118.479 119.586 124.858 119.669C125.807 119.682 126.756 119.71 127.703 119.738C129.621 119.791 131.537 119.776 133.456 119.667C136.079 119.515 138.701 119.616 141.327 119.685C144.192 119.76 147.052 119.937 149.909 120.157C151.28 120.226 152.654 120.202 154.022 120.084C154.305 120.072 154.583 119.998 154.834 119.867C155.142 119.713 155.473 119.613 155.814 119.571H155.809ZM142.998 19.2651C142.696 19.2264 142.39 19.2737 142.114 19.4017C141.986 19.4801 141.811 19.5053 141.733 19.3587C141.602 19.1058 141.367 19.1336 141.16 19.0907C138.075 18.4535 134.953 18.0438 131.833 17.6165C127.107 17.0064 122.348 16.6839 117.583 16.6506C112.696 16.5823 107.811 16.734 102.927 16.7669C96.265 16.815 89.6034 16.6557 82.9392 16.7113C78.3954 16.7492 73.8516 16.7113 69.3078 16.8175C62.2851 16.9616 55.265 17.2372 48.2524 17.6949C44.5265 17.9478 40.7981 18.1475 37.0773 18.4535C36.2518 18.5243 35.4263 18.6026 34.6009 18.6456C34.3081 18.6608 34.2399 18.7544 34.2424 19.0401C34.2424 19.6773 34.1768 20.3195 34.192 20.9567C34.2349 22.9998 34.192 25.0429 34.1718 27.0835C34.1238 31.4326 33.8562 35.7741 33.8714 40.1233C33.8714 41.4988 33.8714 42.8743 33.8562 44.2473C33.7906 49.7545 33.2504 55.2289 32.7329 60.7058C32.4451 63.74 32.1523 66.7743 32.0236 69.8364C31.9251 72.1804 31.8519 74.5243 31.7484 76.8683C31.4026 84.7979 31.4682 92.7148 32.2532 100.622C32.589 103.982 33.1141 107.32 33.422 110.683C33.4308 110.822 33.485 110.954 33.5762 111.059C33.6675 111.164 33.7907 111.236 33.9269 111.264C34.7794 111.58 35.6567 111.825 36.5497 111.995C38.5635 112.32 40.6011 112.475 42.6409 112.458C46.6167 112.435 50.595 112.407 54.5708 112.508C56.0299 112.544 56.0475 112.544 56.9916 111.421C57.7111 110.564 58.5315 109.881 59.6245 109.57C59.6725 109.555 59.6901 109.527 59.6674 109.444C59.5387 109.444 59.3973 109.444 59.2585 109.444C57.3627 109.376 55.472 109.338 53.5712 109.231C51.2513 109.1 48.934 108.979 46.6116 109.027C45.7027 109.044 44.7935 109 43.8904 108.895C41.9281 108.639 39.9496 108.527 37.9709 108.561C37.7288 108.577 37.4859 108.577 37.2438 108.561C36.9586 108.534 36.6759 108.48 36.6153 108.114C36.6001 108.023 36.5345 107.874 36.4285 107.962C36.0347 108.296 36.0448 107.886 35.9968 107.709C35.8294 106.98 35.7247 106.238 35.6838 105.492C35.5374 104.081 35.6055 102.662 35.5904 101.249C35.5677 99.0034 35.4339 96.7555 35.5904 94.5152C35.8428 90.9752 35.8277 87.4352 35.8883 83.8952C35.9565 80.0341 35.9363 76.1704 35.959 72.3068C35.9792 68.5873 35.9312 64.8653 36.1231 61.1483C36.2947 57.8358 36.4638 54.5234 36.5497 51.2085C36.617 48.5804 36.7104 45.9533 36.8299 43.327C36.9813 39.9539 37.1378 36.5807 37.0495 33.2127C36.9687 30.1784 36.8845 27.1441 36.797 24.1099C36.797 23.809 36.797 23.503 36.797 23.2021C36.7896 23.1517 36.7924 23.1003 36.8053 23.0509C36.8182 23.0016 36.8408 22.9553 36.8719 22.915C36.903 22.8746 36.9419 22.8409 36.9863 22.816C37.0307 22.791 37.0797 22.7753 37.1303 22.7697C37.2879 22.7346 37.4484 22.7143 37.6099 22.709C38.5989 22.6906 39.5856 22.6061 40.5634 22.4562C40.9572 22.4081 41.3206 22.3651 41.5932 21.8417C41.7447 22.4031 42.0981 22.2691 42.401 22.2413L43.0649 22.1881C45.1399 22.039 47.2149 21.9176 49.2849 21.7305C52.362 21.4523 55.4442 21.2956 58.534 21.2071C62.8102 21.0857 67.0914 21.0225 71.3651 20.7974C74.9749 20.6078 78.5822 20.403 82.197 20.5016C82.5201 20.5016 82.8432 20.5016 83.1663 20.4839C87.0815 20.365 90.9918 19.9529 94.8944 19.8012C98.3628 19.6646 101.829 19.4699 105.302 19.4168C108.975 19.3612 112.65 19.4017 116.323 19.2373C122.256 19.0039 128.198 19.233 134.095 19.9226C134.429 19.9923 134.775 19.9819 135.104 19.8922C135.193 19.8593 135.357 19.8366 135.392 19.8922C135.756 20.2892 136.258 20.1198 136.687 20.2361C136.927 20.3018 137.124 20.2513 137.192 19.958C137.201 19.8977 137.232 19.8427 137.278 19.8032C137.324 19.7637 137.383 19.7424 137.444 19.743C137.506 19.7466 137.564 19.7724 137.607 19.8157C137.651 19.859 137.677 19.9168 137.682 19.9782C137.704 20.3726 137.982 20.4005 138.272 20.4308C138.472 20.451 138.674 20.4763 138.873 20.5067C139.413 20.5747 139.949 20.6769 140.476 20.8126C140.667 20.844 140.841 20.9429 140.965 21.0913C141.09 21.2397 141.157 21.4279 141.155 21.6217C141.17 21.9833 141.208 22.3475 141.223 22.709C141.339 25.4905 141.498 28.244 141.728 31.0052C142.111 35.0112 142.279 39.0349 142.233 43.0589C142.177 45.6482 142.208 48.2374 142.344 50.8216C142.538 54.5588 142.682 58.2961 142.745 62.0383C142.811 65.859 142.806 69.6821 142.781 73.5028C142.766 76.1932 142.695 78.8836 142.793 81.5715C142.91 84.7246 143.162 87.8676 143.346 91.0182C143.599 95.3774 143.778 99.7417 143.972 104.106C144.066 105.457 144.011 106.813 143.806 108.152C143.725 108.612 143.712 109.029 144.101 109.363C144.119 109.381 144.101 109.439 144.101 109.507C143.735 109.474 143.541 109.636 143.571 110.013C143.586 110.187 143.462 110.311 143.387 110.45C143.258 110.683 143.159 111.067 142.841 110.584C142.814 110.541 142.695 110.544 142.619 110.544C142.236 110.523 141.852 110.523 141.468 110.544C140.04 110.663 138.605 110.663 137.177 110.544C135.662 110.455 134.148 110.319 132.633 110.453C131.406 110.559 130.174 110.609 128.945 110.65C126.745 110.687 124.544 110.61 122.351 110.42C120.201 110.266 118.037 110.24 115.879 110.167C114.407 110.116 112.936 109.937 111.461 110.051C110.293 110.139 109.121 110.134 107.953 110.119C106.882 110.104 105.812 110.071 104.744 110.03C102.472 109.942 100.226 109.864 97.969 109.697C95.9944 109.56 94.0115 109.601 92.0444 109.821C89.2362 110.147 86.4048 110.225 83.5829 110.056C80.2634 109.833 76.9313 109.742 73.6017 109.659C69.8682 109.565 66.1322 109.547 62.3988 109.499C62.1671 109.459 61.9286 109.492 61.7171 109.596C62.9541 109.896 63.6988 110.746 64.393 111.634C64.5299 111.829 64.7169 111.983 64.9341 112.08C65.1514 112.178 65.3909 112.215 65.6273 112.187C69.5602 112 73.4956 111.934 77.4336 111.97C80.5208 111.993 83.6107 111.955 86.6929 111.717C89.2895 111.518 91.8913 111.42 94.498 111.424C100.755 111.424 107.014 111.413 113.274 111.391C119.875 111.353 126.476 111.431 133.077 111.353C133.724 111.353 134.37 111.34 135.013 111.302C136.71 111.206 138.404 111.201 140.1 111.247C140.907 111.27 141.715 111.253 142.521 111.196C143.405 111.108 144.295 111.108 145.179 111.196C145.593 111.252 145.623 111.216 145.628 110.781C145.659 108.943 145.742 107.105 145.658 105.262C145.517 102.253 145.386 99.2436 145.154 96.2397C144.859 92.854 144.761 89.4541 144.861 86.0571C144.929 84.0975 145.058 82.1404 145.012 80.1757C144.904 75.6243 144.909 71.0729 145.012 66.5215C145.091 62.7918 144.942 59.0824 144.654 55.373C144.424 52.4475 144.23 49.5244 144.227 46.5888C144.227 43.9414 144.205 41.2915 144 38.6466C143.73 35.1597 143.447 31.6728 143.2 28.1859C143.021 25.6852 142.743 23.1895 142.753 20.6786C142.737 20.1777 142.823 19.6788 143.005 19.212C143.258 19.255 143.359 19.4143 143.382 19.6748C143.541 21.5484 143.72 23.4196 143.886 25.2907C144.124 27.9912 144.364 30.6892 144.586 33.3821C144.838 36.5251 145.161 39.6656 145.176 42.8238C145.199 47.7368 145.371 52.6447 145.792 57.5425C146.003 59.8387 146.078 62.1455 146.017 64.4506C145.855 69.3231 145.969 74.1956 145.944 79.0682C145.944 80.6232 145.944 82.1809 145.858 83.7359C145.739 86.2645 145.646 88.7931 145.777 91.3216C145.987 95.2788 146.262 99.231 146.481 103.188C146.655 105.649 146.679 108.118 146.552 110.582C146.517 111.087 146.481 111.553 147.095 111.712C147.047 111.909 146.842 111.891 146.764 112.091C147.774 112.65 148.847 113.103 149.909 113.608C149.956 113.527 149.995 113.443 150.028 113.356C150.34 112.161 150.497 110.931 150.495 109.697C150.382 103.937 150.346 98.174 149.968 92.4215C149.776 89.4757 149.596 86.53 149.266 83.5969C148.945 80.7649 148.668 77.9253 148.582 75.0756C148.519 72.9339 148.503 70.7897 148.413 68.648C148.233 64.3494 148.087 60.0509 148.11 55.7346C148.127 52.6017 148.11 49.4663 148.036 46.3334C147.978 44.1917 147.943 42.05 147.976 39.9058C148.064 33.9611 148.415 28.0216 148.551 22.082C148.609 19.4952 148.688 16.9085 148.625 14.3218C148.659 14.0718 148.615 13.8173 148.498 13.5936C148.211 13.8666 147.953 14.1195 147.688 14.3648C146.302 15.6291 144.911 16.8933 143.528 18.1576C143.192 18.4661 143.202 18.4762 143.548 18.8201C143.566 18.8378 143.548 18.8934 143.548 18.9567L142.998 19.2651ZM102.356 80.7522C102.356 80.7244 102.356 80.6966 102.341 80.689C102.294 80.6507 102.243 80.6192 102.187 80.5954C100.65 80.0543 99.3776 79.1061 98.2239 77.9809C96.6451 76.4114 95.3062 74.617 94.2507 72.6558C92.7033 69.8541 91.5193 66.9184 91.2543 63.692C90.9463 59.9396 92.0823 56.7207 94.8893 54.1441C95.7905 53.3173 96.833 52.7029 97.8705 52.0758C98.6105 51.653 99.2899 51.1316 99.89 50.5258C101.869 48.4321 102.195 44.8188 99.5138 42.5355C98.7136 41.8528 97.7468 41.5039 96.7624 41.1777C96.5857 41.1329 96.3995 41.1444 96.2297 41.2105C95.5051 41.4181 94.8674 41.8555 94.4122 42.4571C94.2254 42.6923 94.0639 42.9628 93.8872 43.2005C93.7105 43.4382 93.554 43.6405 93.246 43.5141C92.938 43.3876 92.9633 43.1019 92.9936 42.8364C93.0474 42.3926 93.1863 41.9633 93.4025 41.5721C93.7692 40.8502 94.1912 40.1579 94.6646 39.5012C95.5302 38.2715 96.7258 37.3124 98.1129 36.735C99.7471 36.0793 101.501 35.7752 103.26 35.8424C104.89 35.8748 106.473 36.3963 107.804 37.3393C109.429 38.4768 110.834 39.9018 111.949 41.5443C112.986 43.0102 113.492 44.7876 113.383 46.5812C113.304 48.1135 112.852 49.5573 112.413 51.0112C111.994 52.43 111.316 53.7582 110.411 54.928C109.839 55.684 109.332 56.4877 108.897 57.3301C108.392 58.2885 108.407 58.4377 109.462 58.7815C110.877 59.2676 112.196 59.9975 113.36 60.9384C114.445 61.725 115.298 62.7897 115.831 64.0207C115.949 64.3195 116.12 64.5944 116.336 64.8324C117.733 66.3118 118.694 68.1496 119.113 70.1424C119.511 72.047 119.572 74.0068 119.294 75.9328C119.083 77.4205 118.547 78.8433 117.724 80.0998C117.501 80.4248 117.234 80.7175 116.932 80.9696L116.997 81.086L119.719 80.9646C119.865 80.7623 119.658 80.5803 119.812 80.4083C119.966 80.2364 120.163 80.4968 120.302 80.3072C120.064 79.5967 120.15 78.8684 120.175 78.1427C120.289 74.8076 120.471 71.4749 120.408 68.1372C120.39 67.1485 120.36 66.1573 120.337 65.1661C120.281 62.8398 120.461 60.5186 120.519 58.1924C120.617 54.2503 120.544 50.3083 120.408 46.3663C120.254 41.9008 120.345 37.4303 120.302 32.9649C120.302 32.712 120.254 32.5881 119.974 32.6336C119.655 32.6868 119.335 32.7348 119.014 32.7575C116.237 32.9472 113.461 33.066 110.664 33.0635C108.422 33.0635 106.181 33.1115 103.947 33.2936C99.2791 33.6729 94.6066 34.0193 89.9315 34.2797C83.8227 34.6169 77.7105 34.8293 71.5949 34.917C67.6973 34.9776 63.8023 35.0105 59.9098 35.2102C59.4907 35.2305 58.9631 35.0788 58.6804 35.3443C58.3977 35.6098 58.5416 36.1863 58.534 36.6237C58.3699 44.9351 58.5845 53.244 58.8167 61.5528C58.8975 64.486 58.8899 67.414 58.8167 70.3472C58.7586 73.0148 58.5845 75.6825 58.6577 78.3526C58.6754 79.0151 58.7157 79.6776 58.7485 80.4033C59.1474 80.1883 59.4428 80.4766 59.7962 80.4412C62.6764 80.1504 65.5643 80.2516 68.447 80.378C73.1271 80.5853 77.8072 80.7295 82.4923 80.737C88.9723 80.7497 95.4522 80.6915 101.93 80.7952C102.074 80.8186 102.222 80.8038 102.359 80.7522H102.356ZM133.529 20.7823C133.436 20.623 133.277 20.6533 133.148 20.6407C132.244 20.5572 131.341 20.4662 130.434 20.4081C126.484 20.1552 122.531 19.9959 118.57 20.1223C116.995 20.1704 115.422 20.2513 113.847 20.2639C106.64 20.3246 99.4331 20.3474 92.2363 20.7696C91.1483 20.8303 90.0578 20.8632 88.9698 20.9441C86.2132 21.1464 83.4567 21.374 80.685 21.3285C79.294 21.3057 77.9082 21.2905 76.5072 21.3537C72.857 21.5206 69.2094 21.7229 65.5567 21.8139C60.1294 21.9479 54.7021 21.996 49.2823 22.4688C47.5734 22.6206 45.8619 22.7217 44.1479 22.8304C43.8857 22.8367 43.6278 22.8978 43.3906 23.0099C43.5092 23.0959 43.5698 23.149 43.643 23.1869C48.3181 25.9304 52.6801 29.1417 57.1532 32.1886C57.6303 32.5301 58.0672 32.9245 58.4557 33.3644C58.6501 33.5743 58.8798 33.7917 58.6249 34.1508C58.481 34.3581 58.587 34.482 58.8496 34.4795C59.0109 34.4739 59.1718 34.4595 59.3317 34.4365C61.5783 34.1837 63.8351 34.0319 66.0969 33.9915C70.8392 33.9089 75.5816 33.7875 80.324 33.6274C84.5017 33.4933 88.6719 33.2203 92.8446 33.0028C95.6062 32.8587 98.3653 32.6842 101.122 32.4415C104.151 32.1886 107.16 31.9358 110.189 31.9358C113.158 31.9358 116.124 31.8068 119.087 31.6576C119.528 31.597 119.975 31.597 120.415 31.6576C120.548 31.6975 120.691 31.6945 120.822 31.6492C120.953 31.6038 121.067 31.5183 121.147 31.4048C121.823 30.6754 122.586 30.0325 123.419 29.4906C125.08 28.3376 126.659 27.0703 128.145 25.6978C129.912 24.1023 131.553 22.3576 133.446 20.9138C133.481 20.8747 133.51 20.8303 133.532 20.7823H133.529ZM138.391 100.467C138.512 100.366 138.462 100.215 138.462 100.083C138.462 99.456 138.462 98.8188 138.429 98.2044C138.293 95.9008 138.234 93.5973 138.204 91.2913C138.174 88.9852 138.118 86.6033 137.969 84.2593C137.828 82.1024 137.583 79.9608 137.55 77.7837C137.507 74.8329 137.513 71.8795 137.55 68.9337C137.571 66.792 137.568 64.6478 137.573 62.5036C137.573 62.0105 137.573 61.9979 137.068 61.8638C136.181 61.5901 135.314 61.2521 134.476 60.8524C134.284 60.7863 134.121 60.6564 134.013 60.4844C133.905 60.3123 133.859 60.1085 133.883 59.9067C133.903 59.2797 133.883 58.6425 133.883 58.0255C133.915 55.6411 134.135 53.2617 134.196 50.8747C134.236 49.5219 134.266 48.1666 134.264 46.8113C134.264 46.3385 134.478 45.9187 134.516 45.4585C134.529 45.2815 134.693 45.2057 134.849 45.1424C135.667 44.7961 136.503 44.494 137.353 44.2372C137.944 44.083 137.942 44.0678 137.954 43.4787C137.992 41.7997 138 40.1207 137.929 38.4443C137.737 33.8372 137.593 29.2277 137.172 24.6358C137.081 23.6244 137.068 22.613 137.068 21.6015C137.068 21.0301 137.068 21.0301 136.473 20.9694C136.149 20.9365 135.826 20.9213 135.508 20.8657C135.332 20.8336 135.151 20.8456 134.98 20.9007C134.81 20.9559 134.655 21.0524 134.531 21.1818C132.512 22.9796 130.573 24.876 128.576 26.7042C127.199 27.9835 125.715 29.1432 124.141 30.1708C123.273 30.7271 122.452 31.3491 121.617 31.9661C121.424 32.0889 121.273 32.2671 121.183 32.4773C121.093 32.6874 121.068 32.9199 121.112 33.1444C121.39 35.3367 121.364 37.5441 121.352 39.749C121.329 42.4774 121.352 45.2082 121.483 47.9365C121.672 51.8963 121.735 55.861 121.554 59.8208C121.435 62.6528 121.375 65.4797 121.43 68.3117C121.486 71.0426 121.276 73.7658 121.21 76.4941C121.205 77.772 120.968 79.0383 120.511 80.2313C120.445 80.3345 120.423 80.4595 120.448 80.5792C120.474 80.699 120.545 80.8039 120.648 80.8711C120.951 81.1243 121.217 81.4198 121.438 81.7485C122.011 82.4539 122.599 83.1467 123.205 83.8168C125.575 86.3959 128.049 88.874 130.434 91.4455C131.33 92.4064 132.229 93.3647 133.12 94.3306C134.912 96.2776 136.738 98.1968 138.227 100.399C138.27 100.442 138.305 100.5 138.393 100.467H138.391ZM41.2828 99.6861C41.3837 99.7012 41.4115 99.7114 41.4191 99.7038C41.7944 99.4004 42.168 99.0944 42.5399 98.7859C45.1978 96.609 47.6401 94.1804 49.8327 91.534C52.4504 88.3227 54.7854 84.894 57.4688 81.7333L57.5066 81.6878C57.5899 81.5866 57.6404 81.5032 57.4813 81.402C57.1633 81.2023 57.2719 80.9899 57.5319 80.8609C57.7919 80.732 57.7843 80.5322 57.7666 80.3047C57.6076 77.7584 57.6757 75.2121 57.7464 72.6634C57.8297 69.5912 57.9408 66.5189 57.8221 63.4442C57.5419 56.1695 57.3779 48.8923 57.4132 41.6126C57.4115 39.651 57.5083 37.6906 57.7035 35.7387C57.7186 35.582 57.7969 35.3898 57.6682 35.2709C57.4158 35.0181 57.5243 34.9043 57.7262 34.6944C58.1301 34.2772 58.0695 33.8979 57.6075 33.5768C57.3904 33.4276 57.1684 33.286 56.9588 33.1318C52.2661 29.6575 47.4068 26.421 42.5576 23.1768C42.4212 23.0858 42.3051 22.9669 42.1209 23.0529C41.9366 23.1389 42.0047 23.3386 42.0098 23.4853C42.0679 24.8381 42.0653 26.1934 42.1814 27.5462C42.2824 28.7144 42.3708 29.8826 42.3632 31.0584C42.3405 33.769 42.3354 36.4771 42.3077 39.1877C42.2851 39.3442 42.3153 39.5038 42.3934 39.6412C42.4716 39.7786 42.5933 39.886 42.7393 39.9463C43.5097 40.3892 44.3235 40.7518 45.1677 41.0285C45.4354 41.1105 45.6903 41.2297 45.925 41.3825C46.7366 41.8765 47.6001 42.2793 48.4998 42.5835C49.5651 42.9578 50.6303 43.3421 51.7006 43.6961C51.9371 43.7532 52.1483 43.8866 52.3016 44.0758C52.4549 44.265 52.5418 44.4994 52.5488 44.7429C52.6927 46.3739 52.877 48.0023 53.0133 49.6332C53.137 51.1225 53.2203 52.6169 53.3212 54.1113C53.4904 56.6398 53.6948 59.1482 53.7605 61.6793C53.8463 64.9108 53.7403 68.1498 54.0129 71.3788C54.0369 71.5305 54.0119 71.686 53.9415 71.8224C53.8712 71.9589 53.7591 72.0692 53.6217 72.1374C52.9415 72.5735 52.2302 72.9589 51.4936 73.2904C50.6379 73.647 49.7695 73.9782 48.9188 74.3474C46.7328 75.3032 44.6629 76.484 42.5677 77.6168C42.2016 77.814 41.8533 78.0669 41.3408 77.9986C41.3257 85.253 40.9597 92.4746 41.2853 99.6861H41.2828ZM111.459 97.4685C111.012 97.7542 110.868 97.7998 110.093 97.8934C109.588 97.9566 109.573 97.9566 109.621 98.4572C109.681 98.746 109.625 99.0468 109.465 99.2941C109.091 99.2562 109.056 98.7884 108.723 98.7884C108.389 98.7884 108.079 98.7884 107.756 98.7884C107.635 98.7841 107.514 98.7724 107.395 98.7531C105.812 98.5564 104.214 98.4997 102.621 98.5837C102.068 98.5988 102.061 98.6089 102.074 99.1804C102.106 100.657 102.116 102.134 102.086 103.608C102.086 103.792 102.066 103.975 102.056 104.157C101.79 103.221 101.629 102.258 101.576 101.287C101.521 100.528 101.48 99.7923 101.453 99.0463C101.453 98.7631 101.336 98.6342 101.049 98.6671C100.89 98.6848 100.728 98.6898 100.567 98.7C98.7152 98.85 96.8572 98.9014 95.0004 98.8542C93.4454 98.8036 91.8904 98.8036 90.3405 98.6721C89.2146 98.576 88.0888 98.4951 86.9604 98.4193C86.4959 98.3839 86.4833 98.399 86.4555 98.8567C86.3545 100.652 86.3798 102.457 86.0769 104.237C86.0239 104.551 86.1678 104.627 86.4455 104.617C87.0715 104.594 87.7076 104.594 88.321 104.569C90.7217 104.473 93.1173 104.417 95.5255 104.521C98.5294 104.647 101.531 104.809 104.532 104.976C106.728 105.1 108.925 105.229 111.118 105.401C113.236 105.562 115.357 105.489 117.474 105.557C117.861 105.57 117.883 105.514 117.8 105.125C117.782 105.047 117.752 104.971 117.732 104.892C117.161 102.576 116.761 100.221 116.535 97.8453C116.508 97.5924 116.414 97.2182 116.727 97.1676C117.04 97.1171 117.04 97.5217 117.103 97.7568C117.264 98.5077 117.38 99.2677 117.449 100.033C117.674 101.676 117.835 103.32 117.954 104.978C117.994 105.54 118.015 105.56 118.484 105.575C121.289 105.676 124.088 105.846 126.895 105.906C128.571 105.944 130.245 105.906 131.916 105.785C133.141 105.656 134.373 105.605 135.604 105.633C135.733 105.633 135.892 105.707 135.985 105.502C134.776 103.772 133.741 101.919 132.686 100.081C132.355 99.5246 132.065 98.9448 131.82 98.3459C131.767 98.2069 131.659 98.0602 131.82 97.8731C132.238 98.2808 132.587 98.7529 132.855 99.2714C133.842 100.963 134.804 102.672 135.632 104.455C135.773 104.769 135.922 105.08 136.058 105.393C136.082 105.471 136.128 105.54 136.192 105.59C136.256 105.64 136.333 105.669 136.414 105.674C136.977 105.694 137.525 105.833 138.151 105.909C138.159 104.85 138.227 103.792 138.353 102.741C138.347 102.578 138.29 102.421 138.189 102.293C137.46 101.032 136.615 99.8413 135.665 98.7379C134.698 97.6228 133.723 96.5152 132.721 95.4355C131.512 94.1308 130.298 92.8337 129.086 91.5315C129.006 91.4158 128.901 91.3204 128.778 91.2529C128.654 91.1853 128.517 91.1473 128.377 91.1421C126.822 91.12 125.272 90.9695 123.742 90.692C123.442 90.6171 123.13 90.6024 122.823 90.649C123.154 91.5528 123.429 92.4757 123.649 93.4127C123.879 94.3078 124.227 95.1827 124.088 96.1436C123.935 95.9765 123.81 95.7862 123.717 95.5797C123.09 94.1778 122.665 92.6939 122.455 91.1724C122.374 90.5024 122.392 90.4998 121.748 90.4366C121.647 90.4366 121.546 90.4214 121.445 90.4139C119.534 90.2394 117.616 90.2242 115.7 90.161C113.176 90.0725 110.651 89.9435 108.127 89.8323C107.677 89.7829 107.223 89.8499 106.807 90.027C106.943 90.2798 106.951 90.5883 107.203 90.7046C107.455 90.8209 107.761 90.7198 108.041 90.7046C108.251 90.7046 108.271 90.52 108.362 90.3911C108.513 90.1761 108.69 90.1837 108.839 90.3911C108.937 90.5352 108.95 90.7224 109.154 90.8083C109.298 90.869 109.154 90.9448 109.099 91.0182C108.877 91.271 108.978 91.5568 109.041 91.8147C109.094 92.0347 109.349 91.9386 109.515 91.9765C109.641 92.0068 109.793 91.9411 109.919 92.0979C109.742 92.2283 109.534 92.3103 109.316 92.3356C109.271 92.3399 109.227 92.3537 109.188 92.3761C109.149 92.3985 109.115 92.429 109.088 92.4655C109.061 92.5021 109.043 92.5439 109.033 92.5881C109.024 92.6324 109.024 92.6781 109.033 92.7224C109.033 92.9626 109.177 93.0259 109.392 93.0233C109.769 93.0171 110.145 93.0622 110.51 93.1574C110.267 93.3289 109.998 93.458 109.712 93.5391C109.498 93.6301 109.068 93.4759 109.126 93.8754C109.185 94.275 109.561 94.0044 109.79 94.055C110.029 94.0829 110.264 94.1381 110.49 94.2194C110.43 94.2707 110.365 94.3157 110.295 94.3534C109.987 94.452 109.682 94.5531 109.369 94.634C109.22 94.6745 109.116 94.7149 109.091 94.8869C109.051 95.2029 109.142 95.3168 109.493 95.2991C109.978 95.2486 110.469 95.2907 110.939 95.423C110.633 95.6581 110.27 95.6025 109.98 95.8351C111.242 95.9868 112.474 96.0222 113.701 96.0677C118.037 96.2219 122.377 96.3358 126.711 96.49C128.709 96.5457 130.701 96.7375 132.673 97.064C133.232 97.1368 133.768 97.3263 134.249 97.6203C133.597 97.7185 132.934 97.7279 132.28 97.648C129.714 97.3409 127.134 97.1637 124.55 97.1171C120.234 96.9856 115.914 96.887 111.603 96.6114C110.894 96.5658 110.199 96.7353 109.498 96.8035C109.291 96.8238 109.245 97.0109 109.354 97.1904C109.462 97.3699 109.644 97.289 109.793 97.2789C110.366 97.2359 110.926 97.1853 111.467 97.4685H111.459ZM94.6192 41.2156C94.7681 41.1195 94.9171 41.0184 95.0685 40.9248C95.8435 40.4419 96.6412 40.2295 97.5373 40.6062C97.964 40.7883 98.4107 40.9248 98.8298 41.1271C100.182 41.7785 101.244 42.9091 101.812 44.3002C102.379 45.6913 102.411 47.2438 101.902 48.6572C101.355 50.1731 100.316 51.4615 98.9509 52.316C98.2593 52.7711 97.5449 53.1909 96.8533 53.6435C94.6428 55.0455 93.057 57.2472 92.4256 59.7904C91.9409 61.659 92.062 63.5175 92.4508 65.3785C93.092 68.4508 94.4223 71.2271 96.0808 73.8619C97.1439 75.5624 98.4579 77.0919 99.9783 78.3981C101.077 79.392 102.404 80.0982 103.841 80.4538C103.936 80.474 104.093 80.5044 104.108 80.5626C104.212 80.9318 104.509 80.8382 104.749 80.8432C106.22 80.8786 107.693 80.9048 109.169 80.9216C109.492 80.9198 109.814 80.8953 110.134 80.8483C110.618 80.7851 110.681 80.6864 110.568 80.2085C110.395 79.561 110.072 78.9634 109.626 78.4639C109.081 77.8131 108.476 77.2139 107.821 76.6736C106.905 75.915 105.974 75.1565 105.075 74.3828C103.302 72.8378 101.856 70.9532 100.821 68.8401C100.357 67.9824 100.119 67.0194 100.132 66.0435C100.158 65.2991 100.424 64.5832 100.892 64.0042C101.36 63.4252 102.003 63.0147 102.725 62.8348C103.415 62.6674 104.132 62.6476 104.83 62.7766C108.243 63.2911 111.341 65.063 113.519 67.7453C115.304 69.9072 115.75 72.3094 114.683 74.9492C114.417 75.6066 114.125 76.2488 113.796 76.8759C113.456 77.4975 113.201 78.1628 113.039 78.8533C112.822 79.8647 113.261 80.469 114.279 80.5727C114.786 80.6305 115.299 80.5936 115.793 80.4639C116.205 80.3589 116.564 80.1072 116.803 79.756C117.098 79.3216 117.352 78.8601 117.56 78.3779C118.519 76.1856 118.691 73.8846 118.454 71.5508C118.284 69.4967 117.47 67.5493 116.126 65.9879C114.45 64.0687 112.464 62.5794 110.02 61.7652L106.738 60.683C106.039 60.483 105.369 60.1932 104.744 59.8208C103.929 59.2872 103.712 58.645 104.035 57.7322C104.267 57.084 104.601 56.4771 105.024 55.9344L106.9 53.4766C107.802 52.333 108.516 51.0526 109.015 49.6837C109.71 47.6761 109.907 45.6583 109.015 43.6506C108.451 42.4374 107.671 41.3373 106.713 40.4039C105.57 39.2465 104.124 38.4365 102.541 38.0675C102.132 37.9439 101.705 37.8925 101.278 37.9158C99.3582 38.0689 97.5034 38.6839 95.8713 39.7086C95.3038 40.0639 94.865 40.5921 94.6192 41.2156ZM27.6817 14.7314C27.6514 15.4268 27.6186 15.9704 27.6035 16.5014C27.5227 19.5534 27.6035 22.6054 27.6918 25.6574C27.7777 28.5045 27.8635 31.3618 27.6464 34.2039C27.3098 38.5631 27.155 42.9257 27.1819 47.2917C27.2147 52.9304 27.2476 58.5742 27.1819 64.2129C27.1138 70.0286 26.9295 75.8443 26.7932 81.6751C26.7063 86.6281 26.8749 91.5822 27.298 96.5178C27.6161 100.427 27.972 104.334 28.4188 108.228C28.6681 110.031 28.7147 111.857 28.5577 113.672C28.5375 113.853 28.5298 114.035 28.5349 114.218C28.5349 114.516 28.7874 114.62 29.007 114.708C29.2266 114.797 29.2392 114.546 29.3351 114.435C29.4916 114.251 29.633 114.053 29.7946 113.874C30.5593 112.985 31.409 112.173 32.3315 111.449C32.4587 111.369 32.5556 111.25 32.6068 111.108C32.6581 110.967 32.6607 110.813 32.6143 110.67C32.483 110.081 32.382 109.482 32.2987 108.88C31.7703 105.171 31.3496 101.456 31.0366 97.734C30.6201 92.8944 30.4938 88.0496 30.5443 83.1948C30.5821 79.675 30.7765 76.1629 30.8598 72.6456C30.9532 68.7213 31.2814 64.8071 31.65 60.9106C31.9024 58.1721 32.1977 55.4388 32.4073 52.6978C32.6799 49.1907 32.7834 45.6735 32.7884 42.1537C32.7884 40.2345 32.7682 38.3103 32.844 36.3936C33.0636 30.9395 33.1747 25.4829 33.3716 20.0262C33.386 19.9376 33.3781 19.8468 33.3485 19.762C33.319 19.6772 33.2688 19.6011 33.2024 19.5407C32.4451 18.9035 31.7862 18.1551 30.9785 17.5786C30.0992 16.9278 29.2565 16.2288 28.4541 15.4849C28.2421 15.2852 28.02 15.0576 27.6817 14.7314ZM37.2742 107.684C37.3499 107.79 37.4559 107.747 37.5493 107.737C38.9794 107.622 40.4177 107.657 41.8406 107.841C43.2038 107.982 44.5644 108.187 45.9427 108.154C48.2145 108.101 50.4612 108.175 52.7205 108.329C56.7089 108.599 60.7074 108.609 64.7034 108.685C68.5177 108.756 72.332 108.756 76.1462 108.842C78.4181 108.893 80.7152 108.875 82.9821 109.125C85.7343 109.414 88.5105 109.388 91.2568 109.047C92.2665 108.928 93.2763 108.88 94.286 108.819C96.7144 108.678 99.1251 108.984 101.541 109.13C104.663 109.32 107.786 109.489 110.916 109.325C111.783 109.272 112.653 109.279 113.519 109.345C115.594 109.514 117.671 109.593 119.751 109.583C120.8 109.59 121.849 109.65 122.892 109.762C125.409 110.01 127.943 110.037 130.465 109.843C132.537 109.671 134.607 109.535 136.69 109.78C137.694 109.903 138.707 109.946 139.719 109.909C140.708 109.864 141.683 109.669 142.675 109.676C142.771 109.676 142.892 109.676 142.927 109.56C142.963 109.444 142.864 109.381 142.766 109.34C142.667 109.3 142.581 109.262 142.485 109.229C141.251 108.84 140.102 108.218 139.1 107.396C138.593 106.993 137.989 106.731 137.348 106.637C135.993 106.406 134.612 106.363 133.244 106.508C130.75 106.732 128.245 106.785 125.744 106.667C123.162 106.571 120.582 106.47 118 106.394C116.101 106.341 114.213 106.359 112.307 106.291C107.488 106.111 102.682 105.669 97.8605 105.487C95.4775 105.396 93.0971 105.259 90.7166 105.375C86.7429 105.529 82.7637 105.467 78.7968 105.188C75.813 105.006 72.8343 104.799 69.848 104.71C67.6603 104.648 65.4809 104.597 63.31 104.559C58.9707 104.475 54.6314 104.346 50.2921 104.579C47.8536 104.71 45.4125 104.832 42.9715 104.599C42.2344 104.526 41.4721 104.574 40.7855 104.215C40.6012 104.119 40.5331 104.24 40.4346 104.339C39.4518 105.35 38.4698 106.367 37.4887 107.391C37.3751 107.469 37.254 107.535 37.2792 107.684H37.2742ZM42.2521 40.6087C42.2067 41.8022 42.1486 42.9123 42.1234 44.0223C42.0527 47.2563 42.1234 50.4904 42.1739 53.7244C42.237 57.0419 42.0679 60.3518 41.8129 63.6591C41.6715 65.5126 41.4469 67.3609 41.3711 69.222C41.2601 71.8921 41.3913 74.5598 41.3711 77.2274C41.3711 77.3008 41.351 77.3968 41.5049 77.4423C42.1158 76.8506 42.9084 76.4916 43.6632 76.0794C44.3018 75.733 44.943 75.3891 45.5893 75.068C46.9726 74.36 48.3433 73.6192 49.8125 73.1059C50.9376 72.7157 52.0291 72.2345 53.0764 71.6671C53.1959 71.6193 53.2955 71.5321 53.3588 71.4199C53.4222 71.3078 53.4454 71.1773 53.4248 71.0501C53.3819 70.3244 53.3566 69.5962 53.3415 68.868C53.2556 64.6427 53.1749 60.42 52.7735 56.21C52.4201 52.5284 52.1853 48.8367 51.7814 45.1576C51.7209 44.5988 51.7259 44.5963 51.163 44.4294C50.4284 44.2094 49.6862 44.0173 48.9718 43.7366C47.013 42.978 45.1854 41.9489 43.272 41.074C42.95 40.8854 42.6101 40.7295 42.2572 40.6087H42.2521ZM40.9748 103.737C41.1843 103.76 41.3206 103.782 41.4595 103.787C43.6581 103.886 45.8569 103.919 48.0581 103.805C50.8777 103.656 53.6974 103.464 56.5272 103.552C59.4327 103.633 62.3331 103.719 65.2436 103.729C70.5977 103.747 75.9316 104.162 81.2731 104.432C82.6817 104.503 84.0953 104.551 85.5064 104.594C85.9961 104.609 86.0112 104.594 85.9532 104.134C85.8481 103.126 85.8152 102.112 85.8548 101.1C85.8699 100.29 85.8749 99.4813 85.8977 98.6721C85.8977 98.399 85.8068 98.2625 85.5215 98.2524C85.2691 98.2524 85.0394 98.2044 84.7996 98.1816C82.2475 97.9287 79.6954 97.6936 77.1458 97.4357C76.301 97.3652 75.4639 97.2205 74.6443 97.0033C74.0965 96.8491 73.9627 96.6468 73.9753 96.093C74.0151 95.9244 74.0009 95.7475 73.9349 95.5873C73.1776 95.8528 72.3951 96.1512 71.5115 95.8022C72.2537 95.6 72.9328 95.4078 73.6143 95.2333C74.099 95.1094 74.1015 95.1195 74.1469 94.6062C74.0207 94.5026 73.8769 94.543 73.7405 94.5556C73.0968 94.6188 72.4506 94.6188 71.8044 94.6214C71.2213 94.6214 71.2238 94.6214 71.1379 95.1852C70.7719 97.5848 70.3377 99.9693 69.7597 102.326C69.7298 102.563 69.6335 102.786 69.482 102.971C69.689 100.167 70.2141 97.4079 70.782 94.6517C70.6281 94.629 70.5498 94.6088 70.4715 94.6062C69.1008 94.5911 67.7276 94.5253 66.3544 94.5809C66.0338 94.5809 65.7106 94.6012 65.3875 94.6062L64.3576 94.6239C64.0345 94.6239 63.7114 94.6441 63.3883 94.6568C63.0652 94.6694 62.7446 94.6745 62.4214 94.6922C62.0983 94.7099 61.6869 94.6416 61.4117 94.7858C61.076 94.9577 60.821 94.7503 60.5282 94.7706C59.0389 94.8793 57.5495 94.9552 56.0576 95.0411C55.573 95.0664 55.111 95.0993 54.8889 95.6556C54.8182 95.83 54.6213 95.9539 54.4825 96.1006C53.9549 96.6594 53.4248 97.2131 52.9022 97.7745C51.6047 99.1627 50.3148 100.556 49.0148 101.939C48.792 102.211 48.5309 102.448 48.2398 102.644C48.1818 102.528 48.2019 102.475 48.2398 102.425C48.467 102.116 48.6841 101.8 48.9264 101.502C50.573 99.4812 52.323 97.5476 54.1694 95.7086C54.3133 95.5645 54.5229 95.4558 54.5506 95.1676C53.71 95.2207 52.9073 95.2636 52.1046 95.3243C50.7944 95.4229 49.4894 95.5595 48.1767 95.5772C47.9878 95.5758 47.8005 95.6134 47.6268 95.6879C47.453 95.7622 47.2965 95.8718 47.167 96.0095C45.6003 97.5573 43.9431 99.0105 42.2042 100.361C41.5453 100.867 41.1944 101.357 41.2828 102.205C41.3762 102.735 41.2682 103.282 40.9799 103.737H40.9748ZM36.5598 107.32C37.1048 106.583 37.703 105.888 38.3495 105.239C38.9781 104.584 39.589 103.899 40.475 103.575C40.5087 103.566 40.5403 103.551 40.5677 103.529C40.5952 103.508 40.6179 103.481 40.6345 103.451C40.6511 103.42 40.6612 103.386 40.6641 103.352C40.6671 103.317 40.6628 103.282 40.6517 103.249C40.5229 102.237 40.4927 101.226 40.4397 100.232C40.2756 97.0817 40.1266 93.9285 40.2226 90.7754C40.2932 88.4289 40.2907 86.0849 40.3034 83.7409C40.3034 82.9116 40.3033 82.0822 40.3488 81.2554C40.4699 78.6662 40.427 76.0795 40.3614 73.4927C40.2919 71.0872 40.3703 68.6797 40.5962 66.2838C41.0112 62.1799 41.2033 58.0565 41.1717 53.9317C41.1465 51.6257 41.101 49.3222 41.0934 47.0161C41.0808 43.0943 41.3333 39.1776 41.3636 35.2532C41.3863 32.6867 41.4873 30.1203 41.2601 27.5563C41.1616 26.4488 41.1363 25.3362 41.0808 24.2262C41.0657 23.8899 41.2575 23.4524 41.0001 23.24C40.7426 23.0276 40.3412 23.2628 40.008 23.3083C39.098 23.4629 38.1769 23.5433 37.254 23.5485C37.3171 24.4107 37.3877 25.2174 37.4306 26.024C37.5341 27.9002 37.6402 29.7764 37.7134 31.6551C37.7967 33.8777 37.8825 36.0978 37.8194 38.3254C37.7235 41.6606 37.5241 44.9908 37.4105 48.3234C37.307 51.4361 37.2135 54.5462 37.0419 57.6563C36.8829 60.5616 36.7516 63.472 36.7466 66.3824C36.7297 73.0544 36.6986 79.7264 36.6532 86.3985C36.638 88.8234 36.6229 91.2483 36.4361 93.6706C36.3313 95.1229 36.3035 96.5797 36.3527 98.0349C36.431 100.703 36.484 103.37 36.4764 106.038C36.463 106.467 36.4909 106.896 36.5598 107.32ZM46.8413 119.558C46.7706 120.941 47.3815 121.917 48.0151 122.886C48.0648 122.95 48.1255 123.006 48.1944 123.05C49.2041 123.773 50.1861 124.567 51.2589 125.217C52.1049 125.736 53.0514 126.07 54.0356 126.196L55.2978 126.36C56.2588 126.491 57.2071 126.702 58.1326 126.992C58.6401 127.168 59.1793 127.232 59.7137 127.181C60.2481 127.129 60.7653 126.963 61.23 126.694C61.336 126.633 61.4496 126.59 61.5581 126.539C62.1058 126.271 62.7214 126.173 63.3252 126.259C63.7442 126.306 64.1657 126.328 64.5873 126.325C65.2934 126.339 65.9955 126.434 66.68 126.608C67.5189 126.832 68.3392 127.121 69.1336 127.472C69.6439 127.725 70.2197 127.814 70.782 127.725C71.8902 127.503 72.9984 127.275 74.0863 126.967C74.7787 126.79 75.3785 126.357 75.765 125.756C76.1389 125.203 76.5732 124.694 77.06 124.238C77.3124 123.986 77.5825 123.733 77.8173 123.457C78.3222 122.87 78.2692 122.446 77.6558 121.983C77.5286 121.882 77.3895 121.797 77.2417 121.73C76.6733 121.473 76.0816 121.27 75.4747 121.126C75.2589 121.085 75.0542 120.999 74.874 120.873C74.0483 120.282 73.0802 119.921 72.0694 119.829C71.3676 119.755 70.6583 119.776 69.9616 119.644C69.7097 119.614 69.4676 119.529 69.2531 119.393C69.0387 119.257 68.8572 119.075 68.7221 118.86C68.3754 118.315 68.091 117.732 67.874 117.123C67.3313 115.381 66.0439 114.268 64.5924 113.31C64.0648 113.254 63.8199 112.787 63.6786 112.43C63.458 111.96 63.1329 111.546 62.7281 111.221C62.3234 110.896 61.8498 110.668 61.3435 110.554C60.8372 110.441 60.3117 110.445 59.8073 110.566C59.3028 110.688 58.8327 110.923 58.433 111.254C58.0177 111.633 57.646 112.057 57.3249 112.519C56.9437 113.062 56.613 113.725 55.7573 113.588C55.7017 113.588 55.6411 113.618 55.5806 113.631C54.744 113.786 53.9523 114.125 53.2632 114.625C52.5572 115.144 51.7007 115.418 50.8247 115.404C50.4861 115.405 50.1482 115.437 49.815 115.497C48.6513 115.689 47.7501 116.324 47.3411 117.406C47.0407 118.14 46.806 118.913 46.8312 119.558H46.8413ZM143.018 108.453C143.066 107.08 143.101 105.828 143.053 104.576C142.912 100.9 142.763 97.2241 142.607 93.5492C142.554 92.3153 142.478 91.0839 142.39 89.855C142.137 86.4465 141.94 83.0279 141.93 79.6169C141.917 74.7444 141.968 69.8718 141.973 64.9993C141.973 63.1408 141.958 61.2797 141.895 59.4212C141.784 56.1088 141.582 52.799 141.365 49.4891C141.183 46.7633 141.218 44.035 141.221 41.3041C141.221 38.6946 141.079 36.0927 140.905 33.4883C140.731 30.8839 140.511 28.33 140.458 25.7408C140.431 24.4259 140.395 23.1136 140.484 21.7988C140.514 21.3436 140.484 21.3284 140.044 21.2779C139.484 21.2147 138.921 21.1742 138.358 21.1312C137.853 21.0933 137.868 21.0983 137.896 21.6066C138.065 24.8179 138.484 28.0089 138.633 31.2151C138.797 34.7551 139.067 38.2774 139.032 41.8174C139.004 44.4673 138.967 47.1274 138.901 49.7621C138.81 53.2794 138.674 56.7941 138.58 60.3113C138.505 63.0927 138.542 65.8893 138.5 68.6809C138.434 72.762 138.343 76.8481 138.656 80.9267C138.805 82.8408 138.974 84.7575 139.009 86.6766C139.11 92.0296 139.386 97.3775 139.398 102.733C139.403 102.834 139.384 102.934 139.343 103.026C139.24 103.247 139.189 103.488 139.191 103.732C139.138 104.457 139.105 105.183 139.045 105.909C139.028 106.018 139.046 106.129 139.098 106.227C139.15 106.324 139.232 106.401 139.333 106.447C139.812 106.746 140.272 107.08 140.751 107.375C141.428 107.808 142.188 108.076 143.008 108.453H143.018ZM77.1837 96.3762C78.0117 96.4673 78.7715 96.5482 79.5288 96.6291C82.0329 96.9275 84.532 97.2612 87.0412 97.5216C90.9817 97.9312 94.9373 97.9742 98.9055 97.9136C99.1868 97.887 99.4699 97.887 99.7512 97.9136C101.246 98.1664 102.73 97.9135 104.219 97.8377C104.643 97.8175 104.641 97.7922 104.59 97.3548C104.468 96.3518 104.264 95.3607 103.979 94.3913C103.475 92.6213 102.846 90.8917 102.288 89.1395C102.148 88.8249 102.068 88.4871 102.051 88.1432C102.071 87.8271 101.932 87.7639 101.677 87.7513C100.791 87.7032 99.9102 87.6375 99.0166 87.6021C96.7447 87.511 94.4981 87.5262 92.2363 87.5718C91.3488 87.6152 90.4596 87.6067 89.5731 87.5464C88.9121 87.4698 88.2468 87.4361 87.5814 87.4453C85.3827 87.5161 83.184 87.6097 80.9828 87.5718C80.3744 87.5591 80.377 87.5718 80.1776 88.1432C79.1931 90.8741 78.3322 93.6327 77.1736 96.3762H77.1837ZM110.931 84.4262C110.755 84.3681 110.742 84.2365 110.699 84.1329C110.505 83.6225 110.37 83.0913 110.298 82.55C110.217 82.0746 110.207 82.0746 109.717 82.0443C109.576 82.0342 109.434 82.0342 109.293 82.0443C108.169 82.1159 107.041 82.1092 105.918 82.0241C102.216 81.8842 98.5033 81.8311 94.7807 81.8648C94.6192 81.8648 94.4576 81.8648 94.2961 81.8648C94.0437 81.8648 93.9326 81.9558 93.9427 82.2213C93.9604 82.7068 93.9755 83.1923 93.9427 83.6753C93.925 83.9888 94.0134 84.1329 94.334 84.1076C94.4551 84.1013 94.5764 84.1013 94.6975 84.1076C97.2799 84.1885 99.8622 84.2265 102.442 84.3605C106.067 84.5476 109.692 84.8004 113.314 85.0305C116.46 85.2278 119.61 85.1266 122.755 85.2834C122.879 85.2834 123.041 85.3618 123.149 85.1519C122.25 84.1524 121.407 83.1031 120.625 82.0089C120.491 81.8193 120.332 81.8521 120.145 81.885C118.812 82.1187 117.459 82.2203 116.106 82.1884L111.628 82.105C110.76 82.0898 110.734 81.9381 110.871 82.9293C110.966 83.4225 110.983 83.9277 110.921 84.4262H110.931ZM117.853 89.4834C117.387 88.5007 117.061 87.4571 116.886 86.3833C116.79 85.8776 116.813 85.8599 116.326 85.8447C113.441 85.7537 110.563 85.5109 107.685 85.3213C102.798 84.9976 97.9084 84.8156 93.0137 84.765C91.2467 84.7448 89.4595 84.7852 87.6849 84.8257C87.2204 84.8257 87.2229 84.8409 87.2153 85.2859C87.2153 85.5059 87.1952 85.7285 87.1876 85.951C87.1699 86.3909 87.1699 86.3985 87.5965 86.4061C88.2427 86.4061 88.8865 86.4263 89.5327 86.4617C91.123 86.5502 92.7133 86.7146 94.3087 86.6792C96.409 86.6438 98.5041 86.4845 100.602 86.5022C100.887 86.5022 101.018 86.4314 100.965 86.1204C100.936 85.9 100.924 85.6776 100.93 85.4553C100.93 85.3365 100.96 85.2025 101.109 85.1772C101.258 85.1519 101.334 85.2455 101.392 85.3567C101.521 85.6099 101.591 85.8892 101.596 86.1734C101.612 86.4516 101.743 86.5603 102.008 86.5806C102.652 86.6286 103.295 86.7045 103.939 86.7474C104.344 86.7489 104.741 86.8636 105.085 87.0787C105.255 87.19 105.455 87.2449 105.658 87.2354C105.96 87.2274 106.263 87.2358 106.564 87.2607C106.968 87.3088 107.392 87.2936 107.791 87.5515C107.326 87.6689 106.849 87.7334 106.37 87.7437C106.198 87.7437 105.961 87.6653 105.865 87.8499C105.769 88.0344 105.979 88.214 106.052 88.3935C106.143 88.6135 106.337 88.568 106.516 88.5756C106.855 88.5933 107.208 88.4997 107.592 88.697C107.377 88.8588 107.142 88.8285 106.976 89.0434C110.591 89.1799 114.163 89.4277 117.843 89.4834H117.853ZM112.724 80.9317C111.875 80.0063 111.863 78.9847 112.242 77.8975C112.427 77.3845 112.646 76.8844 112.898 76.4006C113.237 75.7342 113.529 75.0447 113.771 74.3372C114.476 72.2739 114.132 70.3877 112.794 68.691C111.535 67.0736 109.907 65.7825 108.046 64.9259C107.037 64.4614 105.972 64.1283 104.878 63.9347C104.479 63.8665 104.441 63.9095 104.489 64.3014C104.604 65.1441 104.851 65.9634 105.221 66.7288C106.092 68.6848 107.074 70.5893 108.162 72.4332C109.359 74.3903 110.434 76.3854 111.088 78.5954C111.161 78.8482 111.295 79.0783 111.386 79.3235C111.544 79.6968 111.637 80.0945 111.661 80.4994C111.661 81.0051 111.676 81.0051 112.201 81.0051C112.375 81.0477 112.559 81.0214 112.714 80.9317H112.724ZM29.686 115.034C30.9734 115.696 32.3597 116.144 33.7906 116.359C36.2998 116.772 38.8392 117.027 41.3636 117.33C42.7873 117.5 44.2135 117.644 45.6549 117.684C46.1598 117.7 46.1724 117.684 46.3718 117.244C47.1291 115.545 48.4317 114.653 50.2719 114.529C50.6756 114.524 51.0786 114.493 51.4785 114.438C52.0705 114.3 52.6241 114.031 53.0991 113.651C52.8969 113.548 52.6675 113.51 52.4428 113.543C49.4363 113.462 46.4273 113.543 43.4209 113.543C41.7653 113.559 40.1102 113.483 38.4631 113.315C36.9107 113.143 35.3758 112.905 33.9572 112.21C33.7779 112.104 33.5677 112.063 33.3617 112.094C33.1557 112.124 32.9666 112.225 32.8263 112.379C32.3214 112.84 31.7812 113.267 31.2334 113.684C30.6849 114.099 30.1646 114.55 29.6759 115.034H29.686ZM96.5327 38.2774C96.7043 38.3886 96.8179 38.2597 96.9365 38.2091C97.5095 37.9563 98.0978 37.7414 98.6884 37.5391C101.798 36.4771 104.494 37.3064 106.88 39.3849C107.815 40.2235 108.611 41.2049 109.24 42.2928C110.336 44.1108 110.606 46.0856 110.25 48.1363C109.954 49.7111 109.343 51.2096 108.453 52.541C107.625 53.8382 106.685 55.0696 105.759 56.2783C105.387 56.7578 105.085 57.2883 104.863 57.8535C104.611 58.5363 104.704 58.8346 105.35 59.1987C105.866 59.4766 106.417 59.6833 106.988 59.8132C108.127 60.0964 109.238 60.463 110.346 60.8448C111.558 61.2382 112.702 61.8165 113.738 62.5592C113.807 62.6098 113.875 62.721 114.011 62.6325C113.964 62.5676 113.913 62.5051 113.86 62.4454C113.718 62.3038 113.577 62.1572 113.423 62.0282C112.236 60.9865 110.878 60.1576 109.409 59.578C108.968 59.4308 108.559 59.1999 108.205 58.8978C108.047 58.768 107.935 58.5907 107.886 58.3922C107.836 58.1936 107.852 57.9844 107.93 57.7954C108.027 57.5513 108.14 57.3139 108.268 57.0849C108.834 56.034 109.478 55.0273 110.194 54.0734C110.801 53.239 111.273 52.3139 111.593 51.3324C111.935 50.3167 112.22 49.2825 112.446 48.2349C112.91 45.9996 112.663 43.8858 111.31 41.9843C110.264 40.4661 108.97 39.1352 107.483 38.0473C106.759 37.493 105.936 37.0835 105.057 36.8412C102.45 36.1664 99.6858 36.4769 97.2925 37.7135C96.9963 37.8402 96.7329 38.033 96.5226 38.2774H96.5327ZM48.3711 94.94C48.9542 94.897 49.4338 94.8692 49.9109 94.8262C52.0793 94.629 54.2452 94.3862 56.4186 94.2497C57.8878 94.1561 59.3569 94.0575 60.8286 93.9968C61.081 93.9968 61.3007 93.9968 61.4294 93.7086C62.1185 92.1914 62.9667 90.7754 63.6331 89.2583C63.6786 89.1571 63.7644 89.0459 63.6079 88.8866C62.8506 88.922 62.0781 88.9321 61.2981 88.9978C58.5668 89.2305 55.8204 89.2886 53.1118 89.7564C52.9452 89.7717 52.7833 89.8201 52.6355 89.8987C52.4877 89.9773 52.357 90.0845 52.2509 90.2141C51.0443 91.7312 49.868 93.2737 48.525 94.6745C48.4636 94.7586 48.4088 94.8474 48.361 94.94H48.3711ZM69.4264 118.203C69.4733 118.361 69.5655 118.502 69.6916 118.608C69.8177 118.714 69.9722 118.781 70.1358 118.8C70.7703 118.922 71.4135 118.993 72.0593 119.012C73.1536 119.05 74.2242 119.342 75.187 119.864C75.5053 120.04 75.8668 120.121 76.2295 120.099C79.4202 120.013 82.6085 120.061 85.7967 120.099C89.876 120.147 93.9528 120.071 98.027 119.932C98.2586 119.964 98.4943 119.923 98.701 119.813C98.4486 119.285 98.0624 118.842 97.7923 118.329C97.7261 118.194 97.62 118.084 97.4885 118.012C97.357 117.94 97.2066 117.91 97.0577 117.927C95.7652 117.912 94.4728 117.866 93.1829 117.846C86.4 117.738 79.6197 117.889 72.8393 118.114C71.7211 118.155 70.6129 118.175 69.4163 118.205L69.4264 118.203ZM61.9469 93.8325C62.0453 93.9665 62.1514 93.9387 62.2473 93.9361C65.2941 93.8653 68.3385 93.8957 71.3828 93.9361C72.29 93.9117 73.194 93.8162 74.0863 93.6504C74.185 93.6309 74.2821 93.6038 74.3767 93.5695C74.4565 93.5491 74.5256 93.4991 74.5701 93.4297C74.6146 93.3602 74.6312 93.2765 74.6165 93.1953C74.5912 92.9778 74.3994 93.0714 74.2782 93.0714C73.8061 93.0714 73.3316 93.1118 72.7838 92.8539C73.3366 92.687 73.7936 92.7427 74.258 92.6921C74.8916 92.6188 74.9598 92.5429 74.9472 91.8248C74.253 91.8248 73.5487 91.8855 72.8848 91.6048C73.5122 91.4641 74.1528 91.3904 74.7957 91.3848C75.2652 91.352 75.2652 91.3545 75.3005 90.778C74.9976 90.7982 74.6997 90.826 74.4019 90.8386C74.1089 90.867 73.8149 90.7967 73.5664 90.6389C73.7928 90.5023 74.0459 90.4161 74.3085 90.386C74.6644 90.3152 75.0204 90.2419 75.3763 90.1737C75.6893 90.1155 75.8029 89.9208 75.7903 89.5997C75.4974 89.5567 75.2223 89.5011 74.9446 89.4732C74.0838 89.3873 73.2685 89.0636 72.3875 89.0535C70.9764 89.0358 69.5678 88.9372 68.1567 88.8765C66.9677 88.8259 65.7788 88.8436 64.5873 88.8538C64.3172 88.8538 64.138 88.8917 64.1102 89.2356C64.0375 89.7366 63.8777 90.2209 63.6382 90.6667C63.2604 91.4705 62.8391 92.253 62.376 93.0107C62.1959 93.266 62.0483 93.543 61.9368 93.835L61.9469 93.8325ZM137.512 61.1002C137.694 60.066 137.995 45.7291 137.851 45.0438C137.742 44.9958 137.656 45.059 137.565 45.097C136.836 45.3852 136.157 45.8074 135.374 45.9541C135.14 45.9971 135.175 46.1589 135.185 46.3208C135.334 48.9479 135.147 51.565 134.963 54.1846C134.837 55.9546 134.769 57.7246 134.658 59.4946C134.642 59.562 134.641 59.6318 134.653 59.6998C134.666 59.7678 134.692 59.8324 134.731 59.8898C134.769 59.9471 134.819 59.996 134.878 60.0332C134.936 60.0705 135.001 60.0954 135.069 60.1065C135.758 60.3337 136.427 60.6187 137.068 60.9586C137.192 61.0421 137.323 61.166 137.502 61.1027L137.512 61.1002ZM74.8967 87.329C75.0732 87.2484 75.2721 87.2314 75.4596 87.2809C75.6969 87.3163 75.9341 87.3619 76.1714 87.4149C76.7747 87.5439 76.7722 87.5464 77.0625 87.0306C77.1269 86.9049 77.203 86.7855 77.2897 86.6741C77.4816 86.4491 77.6608 86.4212 77.8274 86.6741C77.8724 86.7497 77.9412 86.8083 78.0229 86.8408C78.1046 86.8732 78.1947 86.8778 78.2793 86.8536C79.4001 86.7322 80.5226 86.6168 81.6467 86.5072C83.0755 86.3656 84.5068 86.4162 85.9381 86.4111C86.5389 86.4111 86.5363 86.4111 86.5918 85.8422C86.607 85.6829 86.6297 85.5236 86.6499 85.3618C86.7181 84.8561 86.7181 84.8561 86.2208 84.8561C85.6579 84.8561 85.0924 84.8713 84.527 84.8687C83.9615 84.8662 83.439 84.8561 82.8937 84.8409C82.3485 84.8257 81.7654 84.808 81.2024 84.7853C80.6395 84.7625 80.1144 84.7423 79.5692 84.7094C79.0239 84.6765 78.4888 84.7397 77.9435 84.6942C76.8379 84.6032 75.7272 84.6108 74.619 84.5728C73.7102 84.5425 72.804 84.5021 71.8978 84.4793C71.2515 84.4616 71.2642 84.4793 71.0875 85.0634C70.8123 85.9939 70.5826 86.9346 70.2393 87.8449C70.1837 87.989 70.0702 88.1281 70.1585 88.3506C71.3475 88.4239 72.5516 88.4997 73.7582 88.5705C73.8373 88.5832 73.9184 88.5745 73.993 88.5452C74.5811 88.1963 75.2097 88.3708 75.8256 88.3961C75.967 88.3961 76.1058 88.4365 76.2472 88.4365C76.3885 88.4365 76.4391 88.3075 76.4744 88.1836C76.5097 88.0597 76.4214 88.0042 76.3204 87.9688C76.0907 87.8929 75.8584 87.8271 75.6313 87.7462C75.348 87.6836 75.0892 87.5395 74.8866 87.3316L74.8967 87.329ZM59.617 88.5174C59.8315 88.5174 59.9123 88.5174 59.9906 88.5174C62.9417 88.2044 65.9131 88.13 68.8762 88.2949C69.0983 88.3075 69.3204 88.2949 69.5426 88.3151C69.7647 88.3354 69.8429 88.2519 69.8581 88.0446C69.9414 86.9902 70.2847 85.9889 70.5018 84.9623C70.5321 84.8105 70.6356 84.6613 70.5397 84.4995C70.4056 84.4512 70.2621 84.4347 70.1206 84.4515C67.4751 84.4515 64.8398 84.6513 62.2044 84.8535C61.6995 84.8915 61.4471 85.0735 61.288 85.5362C61.1838 85.7982 61.0597 86.0518 60.917 86.2948C60.538 87.0692 60.1 87.8131 59.6068 88.52L59.617 88.5174ZM86.1728 84.181C88.475 84.1506 90.7721 84.0393 93.0743 84.0924H93.3141C93.4606 84.0924 93.5388 84.0241 93.5287 83.8699L93.4303 82.1758C93.4337 82.1352 93.428 82.0943 93.4134 82.0562C93.3989 82.0181 93.376 81.9838 93.3464 81.9559C93.3168 81.9279 93.2812 81.907 93.2424 81.8948C93.2036 81.8825 93.1626 81.8792 93.1223 81.885C93.0011 81.885 92.8698 81.885 92.7588 81.885L79.4429 81.842C79.342 81.842 79.241 81.842 79.14 81.842C78.9154 81.842 78.817 81.9431 78.8069 82.1682C78.7867 82.6132 78.7437 83.0557 78.7286 83.5007C78.7109 83.9837 78.7286 84.0065 79.2158 84.0065C81.5255 84.1 83.8429 84.2264 86.1627 84.1834L86.1728 84.181ZM117.381 85.951C117.578 86.9826 117.775 87.9738 117.949 88.965C118.047 89.5187 118.03 89.5162 118.572 89.5466C119.582 89.6047 120.592 89.6376 121.602 89.7438C123.588 89.9511 125.567 90.2065 127.552 90.4341C127.693 90.4518 127.862 90.5403 127.986 90.381C127.986 90.3481 127.986 90.3228 127.963 90.3102C126.6 88.8504 125.237 87.3888 123.874 85.9257C123.81 85.8482 123.725 85.7921 123.629 85.765C123.532 85.7378 123.43 85.7409 123.336 85.7739C122.921 85.8626 122.498 85.9084 122.074 85.9105C120.741 85.9838 119.411 85.8625 118.08 85.8827C117.842 85.8478 117.599 85.8703 117.371 85.9484L117.381 85.951ZM109.573 76.7318C109.582 76.5231 109.519 76.3178 109.394 76.1503C109.086 75.4918 108.73 74.8563 108.331 74.2488C107.054 72.2368 105.906 70.1457 104.893 67.988C104.302 66.7819 103.838 65.5353 103.818 64.1674C103.818 63.8816 103.676 63.8437 103.434 63.8639C103.126 63.8872 102.825 63.9724 102.551 64.1142C102.276 64.2561 102.032 64.4518 101.835 64.6898C101.637 64.9278 101.489 65.2032 101.399 65.4996C101.31 65.796 101.281 66.1074 101.314 66.4153C101.405 67.2419 101.674 68.0389 102.101 68.7517C103.103 70.5809 104.407 72.2267 105.958 73.6192C107.097 74.6483 108.316 75.5864 109.414 76.6534C109.46 76.6856 109.51 76.7111 109.563 76.7292L109.573 76.7318ZM102.505 87.8828C103.265 89.579 103.905 91.3263 104.421 93.1118C104.853 94.4949 105.337 95.8755 105.262 97.3623C105.247 97.6531 105.385 97.7492 105.656 97.7619C106.037 97.7821 106.413 97.8554 106.797 97.8605C107.367 97.8731 107.94 97.9945 108.531 97.8605C108.41 96.9401 108.046 96.1284 107.804 95.2889C107.092 92.7983 105.953 90.4847 104.858 88.1381C104.814 88.0504 104.764 87.9659 104.709 87.8853C104.689 87.8495 104.658 87.8213 104.621 87.8049C104.583 87.7884 104.542 87.7847 104.502 87.7942C103.861 87.9889 103.202 87.8195 102.495 87.8802L102.505 87.8828ZM66.3468 83.7941C66.5437 83.9534 66.7279 83.87 66.8971 83.8649C68.8938 83.7992 70.8905 83.7764 72.8848 83.8371L77.6002 83.9812C77.7618 83.9812 77.9233 83.9812 78.0849 83.9812C78.115 83.9845 78.1454 83.981 78.1739 83.9708C78.2025 83.9606 78.2283 83.9439 78.2494 83.9222C78.2706 83.9006 78.2865 83.8744 78.2961 83.8456C78.3056 83.8168 78.3085 83.7862 78.3045 83.7561C78.3045 83.2125 78.3045 82.6663 78.2919 82.1227C78.2919 81.9229 78.1959 81.8243 77.9965 81.8269C77.8753 81.8269 77.7441 81.8269 77.633 81.8269C75.033 81.7915 72.4338 81.7072 69.8354 81.574C69.1084 81.5386 68.3839 81.5108 67.6594 81.4728C67.465 81.4728 67.301 81.4729 67.2328 81.7055C67.0282 82.4369 66.7304 83.1389 66.3468 83.7941ZM66.5992 81.4703C66.564 81.4502 66.5256 81.4365 66.4856 81.4299C64.1481 81.3262 61.8106 81.2402 59.4705 81.3515C58.8344 81.3818 58.8394 81.3919 58.6526 81.9937C58.5946 82.1808 58.5719 82.4666 58.3472 82.4666C57.9837 82.4666 57.8676 82.7194 57.6984 82.9318C57.3476 83.3718 57.0093 83.8244 56.671 84.2796C56.5928 84.3858 56.4615 84.4844 56.5448 84.6538C56.9235 84.6538 57.3021 84.6765 57.6858 84.6538C60.3439 84.4818 62.9869 84.0697 65.64 83.9534C65.9151 83.9407 66.0464 83.8295 66.0792 83.569C66.1826 83.0328 66.3295 82.506 66.5184 81.9937C66.5613 81.8117 66.6648 81.6599 66.5992 81.4703ZM60.8892 85.0836C60.5887 85.0292 60.2809 85.0292 59.9804 85.0836C58.7985 85.2151 57.6056 85.2151 56.4236 85.0836C56.1384 85.0457 56.0274 85.1974 55.9012 85.387C55.0732 86.6033 54.1922 87.7841 53.2784 88.927C53.2102 89.013 53.0891 89.0914 53.185 89.2785C53.9211 89.104 54.6684 88.9806 55.4215 88.9094C56.6054 88.8183 57.7868 88.6969 58.9707 88.6084C59.1 88.6136 59.2266 88.5708 59.3263 88.4882C59.426 88.4056 59.4917 88.2891 59.5109 88.1609C59.6723 87.6196 59.8862 87.0953 60.1496 86.5957C60.3843 86.1102 60.6166 85.6298 60.8816 85.0836H60.8892ZM79.7156 87.597C79.1053 87.5771 78.4944 87.5898 77.8855 87.635C77.6608 87.635 77.5952 87.8044 77.5119 87.9713C77.2594 88.477 77.2998 89.1041 76.8606 89.5314C76.8101 89.5794 76.8101 89.6831 76.7975 89.7615C76.5741 90.8485 76.266 91.9163 75.8761 92.9551C75.5479 93.9083 75.2298 94.8666 74.8992 95.8174C74.8159 96.0702 74.8361 96.1992 75.1516 96.2093C75.5126 96.2093 75.8736 96.2548 76.2345 96.2877C76.4087 96.3054 76.5576 96.2877 76.6081 96.0879C76.7848 95.3547 77.1635 94.7048 77.416 94.0019C78.0504 92.2369 78.6865 90.4737 79.3243 88.7121C79.4253 88.3859 79.549 88.0344 79.708 87.597H79.7156ZM97.8049 118.051C98.092 118.429 98.4086 118.783 98.7516 119.111C99.5265 119.963 99.5315 119.958 100.675 119.816H100.736C100.786 119.822 100.836 119.817 100.884 119.802C100.933 119.787 100.977 119.762 101.015 119.729C101.052 119.695 101.082 119.654 101.103 119.608C101.124 119.562 101.135 119.512 101.134 119.462C101.185 119.121 101.271 118.787 101.326 118.451C101.382 118.114 101.369 118.049 100.96 118.036C100.052 118.006 99.1453 117.988 98.2366 117.97C98.0952 117.97 97.9488 117.907 97.7974 118.051H97.8049ZM107.973 91.2331C107.824 91.2786 107.584 91.1674 107.536 91.4202C107.538 91.5491 107.586 91.6731 107.67 91.7702C107.755 91.8674 107.871 91.9316 107.998 91.9512C108.187 91.9512 108.296 91.8981 108.299 91.6781C108.296 91.3368 108.251 91.2382 107.965 91.2331H107.973ZM108.341 93.0359C108.396 92.9569 108.421 92.8612 108.412 92.7656C108.404 92.6699 108.361 92.5803 108.293 92.5126C108.233 92.4544 108.097 92.4898 108.087 92.5555C108.049 92.7528 108.059 92.9525 108.334 93.0359H108.341ZM108.695 94.8262C108.695 95.0184 108.677 95.2105 108.892 95.3319C108.909 95.3333 108.927 95.3304 108.943 95.3233C108.96 95.3163 108.974 95.3053 108.985 95.2915C109.031 95.0942 108.894 94.9703 108.788 94.8363C108.773 94.8186 108.755 94.8262 108.687 94.8262H108.695Z" fill="black" stroke="black" stroke-width="0.75"/>
        <path d="M23.4694 59.9554C23.3873 60.2246 23.3548 60.5065 23.3735 60.7873C23.2877 63.0934 23.3356 65.3969 23.3508 67.7029C23.3508 68.2896 23.376 68.8762 23.3508 69.4729C23.2587 72.2598 23.3836 75.0497 23.7244 77.8172C23.9104 79.6073 24.0031 81.4058 24.0021 83.2056C23.9777 83.4318 23.9948 83.6606 24.0526 83.8807C24.305 83.9692 24.4994 83.6076 24.7897 83.7568C24.7857 84.2002 24.6278 84.6285 24.3429 84.968C24.0799 85.3264 23.9496 85.7653 23.9743 86.2095C23.9314 90.9834 24.0703 95.7523 24.1359 100.526C24.1611 102.509 24.0804 104.488 24.0097 106.468C23.9365 108.509 23.9036 110.552 23.8557 112.593C23.843 113.215 23.9112 113.255 24.512 113.022C24.5852 112.992 24.6559 112.954 24.8654 112.853C24.7151 113.213 24.4689 113.526 24.1536 113.756C24.0333 113.827 23.9369 113.933 23.8762 114.059C23.8156 114.186 23.7935 114.327 23.8128 114.466C23.8304 115.599 23.8305 116.742 23.838 117.862C23.838 118.044 23.8506 118.226 23.8658 118.408C23.8809 118.59 23.9011 118.762 24.1737 118.646C24.1939 118.646 24.1005 119.619 23.9466 119.721C23.9053 119.751 23.8581 119.771 23.8081 119.782C23.7581 119.792 23.7065 119.791 23.6568 119.779C23.6072 119.767 23.5606 119.745 23.5205 119.713C23.4803 119.682 23.4474 119.642 23.424 119.597C23.2513 119.322 23.1458 119.01 23.1161 118.686C22.9383 117.77 22.8538 116.838 22.8636 115.905C22.8762 115.442 22.8636 114.974 22.8636 114.512C22.8636 114.287 22.7803 114.168 22.5456 114.18C22.0208 114.174 21.497 114.132 20.978 114.054C19.9354 113.963 18.9862 114.307 18.0447 114.684C17.6243 114.88 17.1898 115.044 16.7447 115.174C15.6466 115.427 15.0054 114.954 14.9776 113.842C14.9801 113.821 14.9801 113.801 14.9776 113.781C14.7807 112.486 15.1089 111.306 15.6845 110.158C16.053 109.417 16.3584 108.64 16.7396 107.907C17.0979 107.2 17.301 106.424 17.3354 105.631C17.3711 105.291 17.3393 104.948 17.2419 104.62C17.0144 104.595 16.7847 104.64 16.5831 104.749C14.6142 105.353 12.8521 106.372 11.1028 107.429C8.32602 109.101 5.625 110.86 2.77251 112.4C1.92686 112.858 1.05348 113.268 0.157349 113.652C0.248224 113.424 0.455184 113.323 0.626838 113.194C3.15116 111.306 5.85223 109.675 8.49519 107.963C9.86843 107.073 11.2543 106.193 12.7057 105.434C13.9543 104.769 15.2852 104.271 16.6639 103.955C17.1687 103.844 17.1688 103.839 17.1284 103.371C16.8128 99.7828 16.9062 96.1771 16.6462 92.5866C16.4746 90.2072 16.3029 87.8278 16.1817 85.4459C16.1817 85.365 16.1817 85.2841 16.1641 85.193C16.1514 84.9857 16.0631 84.8947 15.851 84.9832C15.639 85.0717 15.3614 85.1728 15.1215 85.2764C14.4737 85.5703 13.7563 85.6754 13.0516 85.5799C12.4086 85.5002 11.7563 85.5457 11.1306 85.7139C10.7159 85.804 10.3064 85.9163 9.90372 86.0502C8.87128 86.4345 7.92213 86.2221 6.99823 85.7139C6.1652 85.2562 6.01884 84.5558 6.60953 83.8073C7.0197 83.3328 7.48976 82.9137 8.00796 82.5608C8.87885 81.9059 8.88389 81.8174 8.13417 81.0436C7.65455 80.5379 7.65455 80.5379 7.06386 80.8464C7.03609 80.8236 6.98566 80.7933 6.98818 80.7731C7.06643 80.2041 7.07145 80.1966 6.51358 80.0019C5.50385 79.6504 4.49412 79.3141 3.48439 78.9652C3.00484 78.8061 2.54696 78.5878 2.12128 78.3153C1.5905 77.9902 1.18283 77.4975 0.962531 76.9147C0.742232 76.3318 0.721819 75.6921 0.904538 75.0965C1.086 74.4298 1.41665 73.8133 1.87137 73.2936C2.91139 72.09 4.06753 70.9875 4.90056 69.6095C6.29399 68.1985 7.87926 67.1897 9.94921 67.2149C10.5774 67.2212 11.1967 67.0672 11.749 66.7674C12.643 66.2441 13.6571 65.9618 14.6924 65.9481C14.875 65.9556 15.056 65.9123 15.2155 65.8231C15.375 65.7338 15.5067 65.6021 15.5961 65.4424C16.4821 63.9758 17.6156 62.661 18.2845 61.0579C18.7717 59.9074 19.5921 59.0729 20.8543 58.7645C21.2403 58.6409 21.648 58.6004 22.0508 58.6456C22.4017 58.7088 22.4622 58.5419 22.4774 58.2512C22.538 57.04 22.6112 55.8288 22.6768 54.6176C22.9015 50.5188 23.0782 46.4226 23.063 42.3111C23.0429 37.8634 23.1085 33.4131 22.9318 28.9679C22.7626 24.7022 22.6794 20.4365 22.7652 16.1708C22.8081 14.3098 22.8182 12.4488 22.9596 10.5928C23.005 9.98847 23.0655 9.38667 23.1615 8.78487C23.1875 8.64741 23.1986 8.50753 23.1943 8.36768C23.1766 7.95806 23.3558 7.68245 23.7345 7.70773C23.8641 7.71368 23.9929 7.68465 24.1074 7.62371C24.222 7.56278 24.3181 7.47217 24.3858 7.36132C25.0231 6.6559 25.5895 5.88942 26.0771 5.07296C26.7132 3.93005 27.7002 3.31814 28.9372 3.01976C29.9641 2.80457 31.0024 2.6484 32.0471 2.55199C34.6153 2.26541 37.1976 2.12526 39.7816 2.13224C42.2025 2.10442 44.6208 1.92743 47.0416 1.85157C49.6846 1.77066 52.33 1.74538 54.973 1.66952C60.1807 1.52034 65.3884 1.61387 70.5961 1.51778C72.8982 1.47733 75.1953 1.3054 77.4925 1.2169C82.6774 1.01714 87.8624 0.867952 93.0474 0.675782C98.2323 0.483611 103.42 0.395111 108.602 0.170069C111.245 0.0486979 113.888 0.0663843 116.534 0.187755C118.429 0.276255 120.32 0.329365 122.224 0.324308C124.813 0.324308 127.383 0.577181 129.958 0.784523C132.457 0.981751 134.921 1.42423 137.402 1.7403C140.065 2.0766 142.734 2.36232 145.422 2.43565C146.51 2.46599 147.603 2.46602 148.666 2.77703C149.175 2.90821 149.659 3.12173 150.1 3.40917C151.448 4.37003 152.851 5.255 154.098 6.35239C154.625 6.80006 155.123 7.28152 155.587 7.79369C155.279 8.29941 154.876 8.32469 154.366 8.13504C153.545 7.84268 152.673 7.71886 151.803 7.77095C150.553 7.81688 149.3 7.77545 148.055 7.64702C145.48 7.37899 142.895 7.41947 140.31 7.48522C137.362 7.55854 134.416 7.4852 131.475 7.37647C130.852 7.35625 130.213 7.32591 129.6 7.3512C126.646 7.46751 123.71 7.23488 120.764 6.99972C118.533 6.82272 116.294 6.70386 114.057 6.57238C111.477 6.41814 108.9 6.26137 106.318 6.14C100.244 5.8568 94.1707 5.79865 88.0997 6.23862C84.4747 6.49148 80.8423 6.63308 77.2098 6.74433C71.7219 6.9247 66.234 7.10339 60.7461 7.28039C55.4173 7.45739 50.0884 7.45234 44.7596 7.41188C41.1852 7.38406 37.6132 7.34106 34.0413 7.49025C30.8733 7.62173 27.7128 7.85691 24.5701 8.27413C24.4489 8.2893 24.3303 8.31963 24.2091 8.32469C24.1687 8.32271 24.1284 8.32943 24.0908 8.34441C24.0532 8.35939 24.0192 8.3823 23.9912 8.41154C23.9632 8.44078 23.9419 8.47569 23.9285 8.51393C23.9151 8.55216 23.9101 8.59282 23.9137 8.63316C23.8986 8.87338 23.8658 9.11612 23.8582 9.35886C23.6865 15.3617 23.6537 21.367 23.9087 27.3723C24.0929 31.6962 24.1611 36.0226 24.0399 40.3515C23.9692 42.6752 24.0905 45.0015 24.0198 47.3278C23.9087 51.0473 23.6865 54.7592 23.4821 58.4762C23.4593 58.8884 23.4821 59.2348 23.9011 59.432C24.0551 59.5053 24.2192 59.6621 24.1283 59.872C24.0374 60.0818 23.8304 59.9934 23.6613 59.9403C23.5969 59.9362 23.5323 59.9413 23.4694 59.9554ZM153.449 6.93904C153.228 6.61695 152.948 6.33981 152.624 6.12232C151.826 5.53569 151.016 4.96928 150.226 4.37507C149.321 3.71922 148.25 3.33188 147.136 3.25744C145.727 3.11836 144.311 3.18159 142.903 3.05264C140.651 2.84782 138.397 2.69612 136.163 2.332C132.674 1.76308 129.16 1.41411 125.636 1.1739C123.801 1.05 121.963 1.11828 120.128 1.09047C116.776 1.0399 113.429 0.837626 110.076 0.976697C107.618 1.07531 105.159 1.22954 102.698 1.31298C96.8919 1.52286 91.0733 1.56584 85.2649 1.8187C83.2706 1.9072 81.2689 1.90719 79.2747 2.00075C75.5235 2.17269 71.7724 2.3598 68.0187 2.38003C64.5857 2.39773 61.1551 2.35728 57.7245 2.41543C52.5371 2.50646 47.3495 2.55197 42.1671 2.78966C38.6002 2.95401 35.0208 2.81496 31.4665 3.28021C30.5073 3.40664 29.5379 3.46984 28.6065 3.76821C27.8171 3.97466 27.1395 4.48187 26.7183 5.18167C26.321 5.83979 25.8657 6.46096 25.3577 7.03766C25.2567 7.1565 25.1052 7.24752 25.1052 7.47762C25.3274 7.44728 25.5394 7.42452 25.7514 7.38407C27.6573 7.02248 29.5884 6.85559 31.517 6.68112C35.3212 6.33218 39.1354 6.27655 42.9522 6.30437C47.8166 6.33724 52.6834 6.39541 57.5453 6.28415C62.6722 6.16531 67.794 5.96047 72.9209 5.81634C78.6512 5.65704 84.3789 5.432 90.1015 5.05777C95.1653 4.72906 100.229 4.80491 105.293 5.05777C108.458 5.20696 111.621 5.40925 114.784 5.60395C117.422 5.76578 120.063 5.90486 122.696 6.15772C124.708 6.36973 126.732 6.43478 128.754 6.35239C129.358 6.3208 129.964 6.3208 130.569 6.35239C134.545 6.53445 138.518 6.55974 142.496 6.51676C144.454 6.45643 146.414 6.54942 148.358 6.79489C150.009 7.03005 151.67 6.77215 153.449 6.93904ZM8.57094 80.0904C8.82337 80.3761 9.04044 80.6289 9.24744 80.8995C9.86085 81.696 9.79771 82.2877 9.03032 82.9476C8.77789 83.1702 8.48002 83.3598 8.20991 83.5697C7.87852 83.8019 7.58114 84.0793 7.3264 84.394C7.13708 84.6468 7.16736 84.7885 7.44756 84.9225C8.13418 85.2487 8.8309 85.4838 9.60334 85.1753C9.98383 85.0423 10.3715 84.9308 10.7646 84.8415C11.3809 84.6378 12.03 84.552 12.678 84.5887C13.6659 84.7031 14.6655 84.5219 15.5507 84.0678C15.6248 84.035 15.7006 84.0063 15.7778 83.9819C16.0325 83.8822 16.3052 83.8372 16.5783 83.8498C16.8514 83.8624 17.1187 83.9324 17.3631 84.0552L18.0674 84.4066C18.9954 84.8999 19.9716 85.2964 20.9805 85.59C21.2633 85.6684 21.5602 85.6821 21.849 85.63C22.1379 85.5779 22.4112 85.4614 22.649 85.2891C22.7874 85.208 22.9013 85.0909 22.9786 84.9502C23.0559 84.8096 23.0938 84.6506 23.0883 84.4901C23.1158 82.2047 23.0155 79.9195 22.7879 77.6453C22.5809 75.6527 22.2704 73.6704 22.3234 71.6627C22.4269 67.7207 22.1215 63.7761 22.3739 59.8366C22.4017 59.3991 22.336 59.3309 21.9119 59.3309C21.4454 59.318 20.9826 59.4166 20.5617 59.6184C20.1407 59.8203 19.7737 60.1195 19.4911 60.4915C19.2342 60.8554 19.0159 61.2453 18.8399 61.6546C18.6076 62.2143 18.3299 62.7538 18.0093 63.2679C17.4356 64.0772 16.9129 64.9217 16.4443 65.7964C16.2927 66.1309 16.0469 66.4137 15.737 66.61C15.4271 66.8063 15.0666 66.9076 14.6999 66.9014C13.8079 66.9282 12.9364 67.1758 12.163 67.622C11.5025 67.9807 10.7581 68.1553 10.0073 68.1277C7.87168 68.0746 6.31164 69.1569 5.06967 70.7448C4.5511 71.4666 3.97264 72.1433 3.34048 72.7677C2.70743 73.3387 2.20762 74.0422 1.87643 74.8284C1.37156 76.0598 1.72997 77.0662 2.90631 77.6756C3.14065 77.7948 3.38174 77.9004 3.62829 77.9916C4.1584 78.1838 4.69604 78.3583 5.22867 78.5505C6.0617 78.8514 6.93765 79.0562 7.70505 79.5164C8.10642 79.7692 8.28314 79.395 8.55072 79.2635C8.8183 79.132 8.84604 78.9272 8.77536 78.6592C8.67033 78.2458 8.65658 77.8145 8.73505 77.3952C8.81353 76.976 8.98236 76.5789 9.22975 76.2318C9.66313 75.5729 10.144 74.9467 10.6686 74.3581C11.0722 73.8849 11.6226 73.561 12.2317 73.4381C12.8408 73.3153 13.4735 73.4006 14.0285 73.6805C14.2331 73.7693 14.4174 73.8993 14.5698 74.0624C14.7222 74.2255 14.8396 74.4183 14.9145 74.6287C15.0097 74.8474 15.0366 75.0898 14.9915 75.3241C14.9464 75.5583 14.8316 75.7734 14.6621 75.941C14.4854 75.8146 14.5434 75.6603 14.5258 75.5314C14.5116 75.2544 14.404 74.9906 14.2206 74.783C14.0371 74.5753 13.7887 74.4362 13.516 74.3884C12.6906 74.1963 11.951 74.3404 11.3653 75.0004C11.0977 75.3038 10.8251 75.6047 10.5727 75.9208C9.88609 76.783 9.37616 77.6908 9.67151 78.8691C9.78762 79.3394 9.61345 79.5467 9.16664 79.7768C8.95092 79.8448 8.74917 79.951 8.57094 80.0904ZM16.8002 84.9654C16.8507 85.3119 16.9113 85.6077 16.9365 85.9061C17.0375 87.1552 17.1107 88.4068 17.2318 89.6534C17.454 91.9291 17.5853 94.2048 17.6459 96.4805C17.6964 98.4427 17.7468 100.405 17.9184 102.359C17.9689 102.931 17.8957 103.538 18.234 104.064C18.2452 104.102 18.2486 104.142 18.2438 104.182C18.239 104.221 18.2262 104.259 18.2063 104.294C18.1463 104.467 18.1401 104.653 18.1886 104.83C18.2849 105.964 18.0794 107.104 17.5929 108.132C17.2268 108.941 16.8355 109.745 16.4872 110.56C15.8031 112.11 15.8031 112.14 15.9521 113.783C15.9849 114.155 16.0858 114.241 16.4569 114.13C16.802 114.024 17.1394 113.895 17.4666 113.743C18.9812 113.07 20.5261 112.747 22.1846 113.07C22.899 113.21 22.9166 113.172 22.9419 112.423C23.0757 106.607 23.3786 100.792 23.0958 94.9558C22.9671 92.2882 23.0959 89.618 23.0681 86.9504C23.1056 86.7385 23.0828 86.5203 23.0025 86.3208C22.9655 86.2948 22.9214 86.2808 22.8763 86.2808C22.8311 86.2808 22.787 86.2948 22.75 86.3208C21.9069 86.7051 21.0612 86.6318 20.2106 86.3486C19.2929 86.0367 18.3973 85.6633 17.5298 85.2309C17.3063 85.0955 17.0584 85.0053 16.8002 84.9654Z" fill="black" stroke="black" stroke-width="0.75"/>
        <path d="M155.816 119.576C155.68 119.375 155.602 119.14 155.589 118.898C155.405 117.311 155.304 115.716 155.286 114.119C155.147 107.709 154.842 101.307 154.685 94.902C154.658 93.6908 154.61 92.4771 154.597 91.2634C154.612 91.1045 154.578 90.945 154.499 90.8064C154.42 90.6679 154.3 90.5573 154.155 90.4897C153.852 90.3272 153.592 90.0938 153.398 89.8095C153.259 89.6072 153.125 89.3897 153.38 89.1242C153.633 89.5136 154.062 89.5743 154.473 89.6502C154.564 89.439 154.587 89.2052 154.542 88.9801C154.392 84.2686 154.24 79.5595 154.085 74.853C153.928 70.0159 154.13 65.1889 154.367 60.3593C154.491 57.8763 154.62 55.3932 154.764 52.9102C154.882 50.9328 155.044 48.9555 155.173 46.9782C155.357 44.1108 155.425 41.2408 155.339 38.381C155.155 31.7891 155.137 25.1997 155.339 18.6077C155.415 16.203 155.37 13.8034 155.498 11.3912C155.544 10.5643 155.587 9.73497 155.65 8.90813C155.67 8.65528 155.622 8.28861 155.973 8.28608C156.324 8.28356 156.311 8.6755 156.339 8.941C156.394 9.667 156.407 10.3956 156.377 11.1231C156.315 16.8461 156.253 22.5682 156.193 28.2895C156.165 31.2429 156.215 34.1937 156.304 37.1395C156.416 41.5818 156.301 46.0269 155.96 50.4575C155.781 52.9582 155.673 55.464 155.531 57.9673C155.357 60.9763 155.223 63.9853 155.112 66.9968C155.031 69.1991 155.011 71.4041 155.039 73.6065C155.017 73.8063 155.036 74.0084 155.094 74.2006C155.279 74.2942 155.405 74.1526 155.544 74.0919C156.079 73.8487 156.66 73.7212 157.248 73.7177C157.542 73.7133 157.833 73.7754 158.099 73.8993C158.366 74.0232 158.601 74.2057 158.788 74.4333C158.874 74.5194 158.948 74.6163 159.01 74.7215C159.393 75.5282 160.077 75.9479 160.88 76.2387C161.277 76.3853 161.655 76.5801 162.036 76.7621C162.605 77.038 163.252 77.1086 163.867 76.9619C164.693 76.761 165.54 76.6583 166.391 76.6559C168.092 76.6787 169.607 77.1844 170.869 78.3551C171.512 78.9416 172.234 79.4337 173.015 79.8166C173.467 80.0442 173.903 80.2996 174.332 80.5752C174.606 80.7468 174.865 80.9404 175.107 81.1542C175.572 81.5205 175.912 82.0223 176.079 82.5903C176.247 83.1583 176.235 83.7644 176.044 84.325C175.918 84.7498 175.782 85.1712 175.637 85.5893C175.454 86.1105 175.48 86.6827 175.711 87.1848C175.86 87.5161 176.011 87.8473 176.157 88.1811C176.456 88.8467 176.619 89.5654 176.637 90.295C176.665 90.863 176.575 91.4306 176.372 91.9616C176.169 92.4927 175.858 92.9757 175.458 93.3798C174.594 94.2311 173.657 95.0036 172.656 95.6884C172.363 95.9099 172.013 96.0454 171.647 96.0798C171.282 96.1142 170.913 96.0461 170.584 95.8831C169.44 95.3687 168.385 94.6757 167.459 93.8299C167 93.3938 166.685 92.8286 166.555 92.2091C166.449 91.7565 166.383 91.2963 166.302 90.8386C166.244 90.4998 166.212 90.1559 166.138 89.8272C165.944 88.9599 165.591 88.7703 164.737 89.0231C164.513 89.0889 164.427 89.19 164.518 89.4125C164.565 89.5459 164.619 89.6767 164.679 89.8045C165.101 90.661 165.32 91.6031 165.321 92.558C165.396 95.3867 165.384 98.217 165.283 101.049C165.209 102.971 165.331 104.89 165.346 106.809C165.335 107.267 165.446 107.719 165.668 108.119C165.89 108.519 166.214 108.852 166.608 109.085C166.923 109.303 167.223 109.542 167.504 109.803C167.718 109.989 167.89 110.22 168.009 110.478C168.137 110.701 168.176 110.964 168.117 111.214C168.059 111.465 167.907 111.683 167.693 111.826C167.515 111.957 167.325 112.072 167.125 112.17C166.101 112.692 165.073 113.211 164.043 113.727C162.646 114.423 161.112 114.801 159.552 114.835C158.745 114.861 157.945 114.997 157.175 115.239C157.002 115.295 156.834 115.361 156.67 115.436C156.517 115.49 156.388 115.595 156.304 115.733C156.22 115.872 156.187 116.035 156.21 116.195C156.253 116.984 156.246 117.773 156.261 118.562C156.286 118.754 156.258 118.95 156.181 119.128C156.104 119.306 155.981 119.46 155.824 119.573L155.816 119.576ZM157.079 74.5799C156.633 74.5776 156.19 74.6459 155.766 74.7822C155.092 74.9972 155.062 75.0351 155.084 75.7735C155.202 79.6927 155.322 83.612 155.443 87.5313C155.466 88.257 155.493 88.9852 155.493 89.7109C155.48 89.8303 155.509 89.9505 155.576 90.0502C155.643 90.1498 155.744 90.2222 155.859 90.2545C156.364 90.429 156.882 90.6288 157.397 90.8108C157.836 90.9655 158.301 91.0317 158.766 91.0057C159.231 90.9796 159.686 90.8618 160.105 90.6591C160.779 90.338 161.42 89.9509 162.019 89.5035C162.478 89.1748 162.932 88.8385 163.405 88.5275C164.027 88.1397 164.753 87.9534 165.485 87.994C165.77 87.9876 166.05 88.0678 166.289 88.2239C166.528 88.3801 166.714 88.6049 166.822 88.8688C166.992 89.2371 167.102 89.6296 167.151 90.032C167.224 90.6313 167.282 91.2356 167.373 91.8348C167.45 92.4029 167.725 92.9253 168.15 93.309C168.933 94.0087 169.802 94.6037 170.738 95.079C170.976 95.216 171.251 95.276 171.525 95.2506C171.799 95.2253 172.058 95.1159 172.267 94.9374C173.025 94.3356 173.797 93.744 174.514 93.0916C174.936 92.725 175.26 92.2587 175.456 91.735C175.652 91.2112 175.714 90.6467 175.637 90.0927C175.577 89.5297 175.433 88.979 175.208 88.4592C175.1 88.2064 174.984 87.9409 174.87 87.6804C174.694 87.3039 174.595 86.8962 174.577 86.4809C174.559 86.0656 174.624 85.6508 174.767 85.2606C174.89 84.9192 174.994 84.5703 175.1 84.2239C175.39 83.2807 175.1 82.5171 174.375 81.8926C173.944 81.5255 173.468 81.2138 172.959 80.9646C171.875 80.4284 170.858 79.7655 169.93 78.9898C169.352 78.5134 168.677 78.1683 167.953 77.9784C166.94 77.6805 165.868 77.6422 164.836 77.8671C163.431 78.2032 161.951 77.9898 160.698 77.2704C159.701 76.7394 158.742 76.2589 158.194 75.1919C158.09 74.9892 157.928 74.8224 157.728 74.7133C157.528 74.6042 157.3 74.5577 157.074 74.5799H157.079ZM164.248 89.2052C163.926 89.354 163.624 89.5426 163.349 89.7665C162.69 90.3009 161.986 90.7764 161.244 91.1876C160.799 91.405 160.668 91.6553 160.701 92.1636C160.888 94.9779 160.789 97.7795 160.067 100.531C159.578 102.404 159.075 104.278 158.576 106.152C158.379 106.852 158.137 107.539 157.851 108.207C157.324 109.477 156.798 110.745 156.273 112.013C156.205 112.16 156.164 112.319 156.155 112.481C156.155 113.239 156.18 113.998 156.195 114.85C157.414 114.076 158.699 113.892 160.019 113.838C160.26 113.817 160.499 113.783 160.736 113.735C162.963 113.393 164.843 112.218 166.795 111.206C167.118 111.039 167.113 110.936 166.845 110.658C166.523 110.351 166.167 110.081 165.785 109.853C165.344 109.582 164.971 109.213 164.695 108.775C164.42 108.336 164.248 107.84 164.195 107.325C164.162 107.072 164.116 106.804 164.109 106.541C164.061 104.986 163.955 103.428 163.993 101.876C164.061 99.2259 163.993 96.581 164.036 93.9336C164.058 92.5808 164.036 91.2229 164.288 89.8879C164.351 89.6618 164.335 89.4208 164.243 89.2052H164.248ZM155.521 91.185C155.723 97.5065 155.819 103.706 156.137 109.896C156.184 109.887 156.227 109.865 156.262 109.833C156.297 109.8 156.322 109.758 156.334 109.712C157.058 108.066 157.735 106.402 158.101 104.629C158.237 103.998 158.406 103.373 158.606 102.758C159.719 99.3093 160.075 95.7668 159.984 92.1636C159.984 92.0649 159.961 91.9663 159.936 91.7843C158.406 92.3153 156.993 91.8855 155.516 91.185H155.521Z" fill="black" stroke="black" stroke-width="0.75"/>
        <path d="M87.0462 11.3886C81.4548 11.4999 75.871 11.7957 70.2822 11.9677C63.0172 12.1902 55.7522 12.2686 48.4872 11.9677C44.9986 11.8235 41.5074 11.6642 38.0138 11.7907C34.7448 11.907 31.4833 12.1093 28.2774 12.8274C28.1058 12.8678 27.9442 12.8855 27.8534 12.7161C27.7423 12.5062 27.8786 12.3571 28.0452 12.2711C28.2608 12.1617 28.4855 12.0712 28.7167 12.0005C30.4837 11.4316 32.3442 11.2293 34.192 11.0371C38.299 10.6073 42.4137 10.6351 46.5308 10.8399C51.7326 11.0978 56.9386 11.1821 62.1488 11.0928C68.2451 10.9891 74.3337 10.6983 80.4249 10.4809C83.492 10.3747 86.559 10.3317 89.626 10.1951C92.9077 10.051 96.1893 9.83608 99.4709 9.64643C102.636 9.46438 105.802 9.36323 108.975 9.39358C113.799 9.45679 118.623 9.37842 123.447 9.49979C128.228 9.62116 133.007 9.87654 137.79 9.94229C140.029 9.97516 142.256 10.2963 144.48 10.577C145.54 10.711 146.605 10.802 147.668 10.9158C148.033 10.9247 148.391 11.0228 148.71 11.2015C148.864 11.3026 148.874 11.4266 148.71 11.5252C148.402 11.6772 148.059 11.7477 147.716 11.73C146.221 11.7646 144.726 11.6801 143.245 11.4771C140.245 11.0681 137.219 10.8771 134.19 10.9057C131.101 10.9385 128.019 10.668 124.931 10.5896C118.454 10.4278 111.974 10.4126 105.494 10.4682C102.185 10.4986 98.8802 10.759 95.5759 10.9613C92.7209 11.1509 89.8785 11.3077 87.0462 11.3886Z" fill="black" stroke="black" stroke-width="0.75"/>
        <path d="M191.907 127.71C191.195 126.775 190.301 126.044 189.435 125.285C184.934 121.346 180.214 117.677 175.456 114.056C173.88 112.857 172.341 111.613 170.687 110.516C169.73 109.838 168.705 109.264 167.628 108.802C167.34 108.69 167.062 108.506 166.709 108.678C166.535 108.761 166.358 108.619 166.285 108.425C166.249 108.34 166.245 108.245 166.274 108.158C166.302 108.07 166.362 107.996 166.441 107.949C166.632 107.83 166.858 107.783 167.08 107.815C167.523 107.858 167.956 107.97 168.365 108.147C169.225 108.498 170.05 108.93 170.829 109.439C171.545 109.894 172.26 110.354 172.941 110.855C177.854 114.473 182.738 118.124 187.302 122.183C188.763 123.43 190.078 124.839 191.223 126.383C191.536 126.775 191.769 127.227 191.907 127.71Z" fill="black" stroke="black" stroke-width="0.75"/>
        <path d="M34.8533 128.292C35.1058 128.264 35.2118 128.413 35.3254 128.512C35.7092 128.842 36.0486 129.221 36.3351 129.639C37.103 130.756 37.7185 131.97 38.1653 133.25C38.3505 133.682 38.3799 134.165 38.2485 134.616C38.2031 134.75 38.1602 134.909 37.9961 134.904C37.832 134.899 37.7967 134.727 37.7941 134.59C37.7765 133.718 37.4407 132.934 37.0974 132.158C36.4891 130.808 35.8378 129.485 34.8533 128.292Z" fill="black" stroke="black" stroke-width="0.75"/>
        <path d="M42.6182 127.419C41.9216 128.919 41.318 130.46 40.8108 132.034C40.5362 132.793 40.3556 133.583 40.2731 134.386C40.2731 134.502 40.2731 134.659 40.1342 134.684C39.9954 134.709 39.8819 134.56 39.8617 134.431C39.8235 134.254 39.8141 134.072 39.8339 133.892C40.1822 131.475 41.1844 129.349 42.6182 127.419Z" fill="black" stroke="black" stroke-width="0.75"/>
        <path d="M31.3243 130.041C31.685 130.001 32.0491 130.076 32.3643 130.256C33.2361 130.676 34.0576 131.194 34.813 131.799C35.1595 132.104 35.5469 132.359 35.964 132.557C36.3073 132.689 35.7773 132.863 35.9413 133.063C35.9944 133.129 35.8 133.225 35.6712 133.184C35.3892 133.078 35.1316 132.915 34.9139 132.707C33.9907 131.926 33.0267 131.195 32.0261 130.517L31.3243 130.041Z" fill="black" stroke="black" stroke-width="0.75"/>
        <path d="M131.171 128.148C131.298 128.4 131.282 128.653 131.522 128.851C131.762 129.048 131.522 129.278 131.348 129.422C131.444 129.639 131.633 129.698 131.752 129.832C131.871 129.966 132.02 130.084 131.881 130.241C131.742 130.398 131.585 130.294 131.442 130.223C131.404 130.207 131.368 130.187 131.335 130.163C130.147 129.36 129.013 128.48 127.94 127.528C129.023 127.935 129.972 128.588 130.969 129.253C131.086 128.843 130.969 128.469 131.171 128.148Z" fill="black" stroke="black" stroke-width="0.75"/>
        <path d="M138.202 124.651C137.607 125.724 136.932 126.751 136.182 127.723C136.149 127.772 136.111 127.819 136.069 127.862C135.93 127.996 135.783 128.266 135.594 128.115C135.405 127.963 135.647 127.761 135.748 127.609C136.45 126.532 137.273 125.539 138.202 124.651Z" fill="black" stroke="black" stroke-width="0.75"/>
        <path d="M133.789 126.845C133.723 127.445 133.66 128.044 133.592 128.643C133.575 128.787 133.534 128.939 133.352 128.926C133.171 128.914 133.125 128.76 133.143 128.613C133.198 127.98 133.379 127.364 133.676 126.802L133.789 126.845Z" fill="black" stroke="black" stroke-width="0.75"/>
        <path d="M73.2407 43.5747C72.957 43.3858 72.7169 43.1384 72.5364 42.849C72.3515 42.555 72.2797 42.2035 72.3344 41.8604C72.5238 40.9071 73.4174 40.634 74.2025 41.2914C74.417 41.2914 74.3565 41.0234 74.5104 40.9829C75.0153 41.1675 74.9017 42.6012 74.3312 43.4483C76.3506 44.8466 78.4913 46.0603 80.4855 47.5167C80.7379 47.4055 80.8137 47.0818 81.0712 46.9504C81.0913 46.9933 81.109 47.0161 81.1039 47.0313C80.8515 47.7367 81.104 48.3461 81.3968 48.9833C81.7527 49.7672 81.7527 50.637 81.8259 51.4815C81.9954 53.3755 82.0426 55.2784 81.9672 57.1784C81.8637 59.6463 82.0329 62.1091 82.1238 64.5745C82.1541 65.4038 82.149 66.2306 82.1111 67.06C82.1077 67.1959 82.0694 67.3287 82 67.4456C81.9306 67.5625 81.8324 67.6596 81.7148 67.7276C81.2529 68.0487 80.7354 68.0942 80.223 68.165C79.8023 68.2146 79.385 68.2897 78.9734 68.39C78.3066 68.5648 77.6124 68.6094 76.9287 68.5215C74.8537 68.2687 72.7787 68.4001 70.7012 68.5215C69.7546 68.5721 68.8105 68.6732 67.8639 68.7339C66.5209 68.8224 66.4427 68.7592 66.112 67.4494C66.0303 67.0538 65.9814 66.652 65.9656 66.2483C65.6955 62.9814 65.8268 59.6994 65.6097 56.4325C65.4961 54.6979 65.3925 52.9633 65.3774 51.2236C65.371 50.5764 65.4064 49.9294 65.4835 49.2867C65.5491 48.7431 65.6551 48.647 66.2054 48.5889C66.2255 48.5864 66.2458 48.5864 66.266 48.5889C67.1697 48.7052 67.7806 48.2576 68.4344 47.6685C69.9717 46.2525 71.5393 44.8946 73.2407 43.5747ZM69.0528 61.6438C68.9569 63.0927 68.8711 64.1724 68.8711 65.2749C68.8711 65.7806 68.8887 65.8033 69.3633 65.7957C70.734 65.773 72.1047 65.7022 73.4729 65.5909C75.1869 65.4519 76.8959 65.3912 78.5922 65.7553C78.711 65.7822 78.8317 65.7991 78.9532 65.8058C79.3293 65.821 79.4581 65.7249 79.5414 65.3507C79.5918 65.0722 79.6122 64.7891 79.602 64.5062C79.5565 63.3557 79.4859 62.2077 79.3495 61.0622C79.1779 59.578 78.9406 58.1013 78.8926 56.6019C78.8421 55.0494 78.7336 53.4968 78.7336 51.9392C78.7336 51.0441 78.4988 50.7811 77.6229 50.7204C76.2343 50.6117 74.8384 50.6396 73.4552 50.8039C72.1148 50.9733 70.7794 51.2034 69.4163 51.0567C69.1967 51.0365 68.9721 51.0239 68.755 50.9885C68.447 50.9354 68.3511 51.0745 68.3839 51.3577C68.3839 51.4386 68.3839 51.5195 68.3965 51.6105C68.5396 53.4007 68.686 55.1926 68.8358 56.9862C68.9847 58.6551 69.2043 60.3189 69.0528 61.6438ZM65.9934 49.3778C65.9934 50.0327 65.9757 50.6901 65.9934 51.345C66.0741 54.048 66.372 56.746 66.3265 59.4541C66.2836 61.922 66.3896 64.3797 66.579 66.835C66.5552 67.081 66.6081 67.3283 66.7305 67.543C66.892 67.4621 66.9374 67.2901 67.0207 67.1662C67.2367 66.7547 67.503 66.3716 67.8134 66.0259C67.9463 65.8904 68.0478 65.7273 68.1106 65.5481C68.1735 65.3689 68.1961 65.1781 68.1769 64.9891C68.1567 64.142 68.1517 63.2925 68.2022 62.4454C68.2826 60.9133 68.2454 59.3773 68.091 57.851C67.884 55.6183 67.6519 53.3881 67.6998 51.1427C67.7096 51.0435 67.6887 50.9438 67.6399 50.8569C67.5911 50.7701 67.5169 50.7003 67.4272 50.6572C66.977 50.3848 66.5884 50.0214 66.2862 49.5902C66.2281 49.5017 66.1802 49.3727 65.9934 49.3778ZM79.8241 47.9441C79.7887 47.848 79.6701 47.8101 79.5717 47.7469C78.0318 46.7101 76.444 45.7543 74.932 44.6746C74.6981 44.5184 74.4535 44.379 74.2 44.2574C74.0655 44.184 73.9119 44.1532 73.7596 44.169C73.6073 44.1848 73.4633 44.2465 73.3467 44.3459C73.2028 44.4546 73.0539 44.5609 72.9176 44.6797C71.5713 45.8395 70.2317 47.0026 68.8989 48.1691C68.8181 48.2399 68.6818 48.2981 68.7701 48.4852C70.6923 48.596 72.6194 48.5892 74.5407 48.465C76.2497 48.3461 77.941 48.0427 79.66 48.0503C79.6958 48.0578 79.7332 48.0509 79.7639 48.031C79.7946 48.0111 79.8162 47.9799 79.8241 47.9441ZM80.5814 49.0238C80.2381 49.6559 79.9074 50.2501 79.5944 50.857C79.5604 50.9726 79.5509 51.094 79.5667 51.2135C79.5187 53.0948 79.6702 54.971 79.7459 56.8472C79.8065 58.3036 80.0816 59.7398 80.1801 61.1912C80.281 62.7387 80.483 64.2938 80.064 65.8311C80.0436 65.8888 80.0467 65.9522 80.0727 66.0076C80.0987 66.063 80.1454 66.1059 80.2027 66.127C80.6339 66.3766 81.0848 66.5906 81.5508 66.7667C81.598 66.6015 81.598 66.4262 81.5508 66.261C81.3311 64.4126 81.2983 62.5516 81.1368 60.6982C80.9651 58.8017 81.1368 56.9053 81.1368 55.0013C81.155 53.3028 81.0707 51.6047 80.8844 49.9164C80.8729 49.5947 80.7656 49.2839 80.5764 49.0238H80.5814ZM81.6744 67.3407C81.3488 67.2193 81.0156 67.1131 80.6976 66.9715C80.0564 66.6883 79.4353 66.352 78.6932 66.4456C78.6119 66.4439 78.5312 66.4311 78.4534 66.4077C77.3597 66.2229 76.2481 66.1677 75.1415 66.2433C74.417 66.2989 73.6976 66.3823 72.9731 66.4279C71.5469 66.5164 70.1181 66.615 68.6818 66.4582C68.553 66.4456 68.447 66.4228 68.3662 66.5492C68.0633 67.0398 67.6644 67.4697 67.3968 67.9956C67.5944 68.0825 67.8163 68.0959 68.0229 68.0335C70.0629 67.7859 72.1148 67.6491 74.1696 67.6239C75.098 67.5975 76.0269 67.65 76.9464 67.7807C77.4467 67.8711 77.9587 67.8771 78.461 67.7984C79.5086 67.591 80.5562 67.3356 81.6694 67.3407H81.6744ZM79.6953 48.7027C78.9545 48.6919 78.2139 48.7342 77.479 48.8291C75.8963 49.0137 74.3211 49.2615 72.7181 49.2539C71.3272 49.2539 69.9414 49.2842 68.5429 49.2109C68.2805 49.1829 68.0153 49.1983 67.7579 49.2564C67.6984 49.2696 67.6432 49.2973 67.597 49.337C67.5507 49.3767 67.515 49.4272 67.4928 49.484C67.4448 49.6357 67.5837 49.6888 67.672 49.7596C68.0648 50.0484 68.5356 50.2114 69.0226 50.2274C70.5674 50.3892 72.0795 50.0731 73.6042 49.9239C75.293 49.7596 76.9843 49.6256 78.6528 50.0478C78.6888 50.0644 78.7278 50.0735 78.7674 50.0745C78.807 50.0755 78.8464 50.0685 78.8832 50.0539C78.92 50.0392 78.9535 50.0172 78.9816 49.9893C79.0097 49.9613 79.0318 49.9279 79.0466 49.8911C79.236 49.5345 79.4303 49.1932 79.6904 48.7027H79.6953ZM74.0232 42.0095C73.9896 41.8846 73.9213 41.7719 73.826 41.6846C73.7308 41.5973 73.6127 41.5389 73.4855 41.5165C73.2634 41.5165 73.0387 41.7971 73.0413 42.0753C73.0438 42.3534 73.3643 42.8161 73.5739 42.806C73.7405 42.7959 74.0358 42.2776 74.0181 42.0095H74.0232Z" fill="black" stroke="black" stroke-width="0.75"/>
        <path d="M64.9736 59.1583C64.5737 58.5491 64.3404 57.8455 64.297 57.1177C64.2465 56.6348 64.2011 56.1518 64.1733 55.6689C64.1733 55.4413 64.0749 55.3452 63.8452 55.3452C63.0374 55.3452 62.2321 55.3452 61.4269 55.3301C61.1744 55.3301 61.1139 55.4362 61.1189 55.6613C61.1366 56.3668 61.1542 57.0722 61.1466 57.7802C61.1466 58.0938 61.2779 58.1519 61.5531 58.1115C62.0125 58.0483 62.477 58.0204 62.9364 57.9522C63.3378 57.8986 63.7457 57.9226 64.138 58.023C64.0572 58.243 63.8502 58.2505 63.6937 58.3036C63.024 58.5263 62.3378 58.6954 61.6415 58.8094C61.0078 58.9231 60.7478 58.7385 60.6317 58.0938C60.4727 57.3022 60.3614 56.5017 60.2985 55.6967C60.3184 55.496 60.2742 55.2941 60.1723 55.1202C59.988 54.8825 60.1142 54.7131 60.3288 54.5766C60.4669 54.4943 60.6249 54.4514 60.7857 54.4527C61.7931 54.4145 62.8019 54.4679 63.7997 54.612C64.039 54.6489 64.2746 54.7064 64.504 54.7839C64.817 54.885 65.0089 54.9862 65.0316 55.4489C65.0745 56.4603 65.2613 57.492 65.1477 58.5262C65.1469 58.7487 65.0868 58.9669 64.9736 59.1583Z" fill="black" stroke="black" stroke-width="0.75"/>
        <path d="M95.1694 50.1162C94.6646 50.1162 94.1597 50.1162 93.6548 50.1162C93.15 50.1162 92.8976 49.9316 92.8042 49.4309C92.683 48.8569 92.6148 48.2754 92.5341 47.6963C92.5257 47.4972 92.4821 47.3012 92.4053 47.1173C92.2564 46.8341 92.3473 46.6596 92.6577 46.5686C92.8321 46.5212 93.0123 46.4991 93.1929 46.5028C93.7584 46.5028 94.3263 46.5534 94.8867 46.5155C95.6794 46.4624 96.3811 46.7684 97.1056 46.9934C97.3783 47.0768 97.4439 47.3398 97.459 47.5825C97.5369 48.1625 97.5504 48.7494 97.4994 49.3323C97.406 49.9518 97.4337 49.9695 96.8077 50.0176C96.265 50.0605 95.7197 50.0757 95.177 50.1035L95.1694 50.1162ZM97.0955 49.5144C96.866 48.9202 96.7182 48.2975 96.6563 47.6634C96.621 47.4106 96.5326 47.3044 96.2802 47.312C95.3765 47.3322 94.4728 47.3449 93.5691 47.3575C93.3494 47.3575 93.2358 47.4334 93.2459 47.6736C93.2611 48.1161 93.2686 48.5586 93.2661 49.0011C93.2661 49.2716 93.3973 49.3551 93.6422 49.3323C94.4702 49.2489 95.2855 49.388 96.1059 49.4562C96.4038 49.4815 96.7017 49.4916 97.0955 49.5144Z" fill="black" stroke="black" stroke-width="0.75"/>
        <path d="M132.108 47.5446C132.068 49.3449 131.8 51.1225 131.603 52.9076C131.406 54.6928 131.315 56.4476 131.295 58.2176C131.304 58.6213 131.271 59.0248 131.194 59.4212C131.108 59.7828 131.068 59.8132 130.714 59.712C130.578 59.6795 130.437 59.6718 130.298 59.6893C130.036 59.7021 129.774 59.6739 129.52 59.6058C128.253 59.2726 127.016 58.8319 125.822 58.2884C125.677 58.2193 125.54 58.1345 125.413 58.0356C125.315 57.9623 125.214 57.8384 125.264 57.7271C125.517 57.1733 125.338 56.6145 125.264 56.0709C125.078 54.5866 124.989 53.0973 124.893 51.6055C124.866 50.8585 124.904 50.1105 125.007 49.3702C125.027 49.173 125.088 48.9884 124.916 48.8063C124.744 48.6243 124.853 48.4599 125.02 48.3461C125.137 48.2672 125.265 48.2067 125.401 48.1666C126.608 47.7722 127.781 47.2791 128.907 46.6924C129.574 46.3565 130.257 46.0552 130.954 45.7898C131.674 45.5217 132.02 45.7316 132.095 46.5079C132.136 46.8568 132.108 47.2032 132.108 47.5446ZM131.285 46.5331C130.74 46.6582 130.218 46.8699 129.74 47.1602C128.521 47.7924 127.302 48.4245 125.954 48.7684C125.701 48.8316 125.661 48.9505 125.653 49.1932C125.562 51.8229 125.858 54.4425 125.802 57.0697C125.802 57.3504 125.898 57.4565 126.173 57.497C127.587 57.7144 128.859 58.3441 130.152 58.9054C130.27 58.956 130.366 59.1102 130.543 58.9889C130.543 58.5742 130.543 58.1519 130.543 57.7246C130.543 56.8977 130.543 56.0684 130.593 55.2415C130.709 53.0796 131.022 50.943 131.217 48.7861C131.307 48.0413 131.33 47.2897 131.285 46.5407V46.5331Z" fill="black" stroke="black" stroke-width="0.75"/>
        <path d="M133.256 66.7895C132.855 66.3344 133.004 65.8008 133.029 65.2445C131.573 65.4645 130.187 65.0245 128.768 64.9183C128.14 64.8703 128.14 64.8551 128.011 65.4443C127.849 66.1422 127.852 66.1245 128.574 66.2914C129.596 66.524 130.618 66.744 131.659 66.8932C132.241 66.9682 132.786 67.2217 133.219 67.6189C132.827 67.7883 132.479 67.6922 132.136 67.6618C130.563 67.5228 129.046 67.1005 127.501 66.8046C127.365 66.7768 127.206 66.7794 127.17 66.5999C127.135 66.4203 127.254 66.347 127.375 66.2635C127.44 66.2231 127.556 66.1649 127.554 66.1219C127.516 65.5909 127.784 65.0422 127.476 64.5315C127.387 64.3848 127.299 64.2559 127.395 64.089C127.491 63.9221 127.698 63.912 127.877 63.9474C129.541 64.2736 131.234 64.4101 132.903 64.706C133.058 64.7319 133.217 64.708 133.357 64.6377C133.65 64.5113 133.779 64.5998 133.819 64.8906C133.867 65.3052 133.554 66.3875 133.256 66.7895Z" fill="black" stroke="black" stroke-width="0.75"/>
        <path d="M112.037 97.9591C111.46 98.278 110.832 98.496 110.182 98.6038C110.06 98.6291 109.929 98.6266 109.879 98.485C109.821 98.2878 110 98.2498 110.131 98.217C110.756 98.0643 111.394 97.9779 112.037 97.9591Z" fill="black" stroke="black" stroke-width="0.75"/>
        <path d="M65.3724 120.989C65.3204 121.026 65.2602 121.049 65.1971 121.056C65.134 121.063 65.0701 121.054 65.0114 121.03C63.7493 120.625 62.4467 120.329 61.2552 119.712C60.3172 119.198 59.312 118.818 58.269 118.582C58.1891 118.573 58.111 118.552 58.0367 118.521C57.855 118.43 57.8827 118.304 58.0089 118.19C58.1547 118.083 58.3337 118.032 58.5138 118.046C59.0993 118.041 59.6801 118.152 60.2228 118.372C61.1366 118.698 61.9898 119.151 62.8733 119.55C63.4615 119.816 64.0421 120.094 64.6201 120.377C64.9348 120.487 65.2011 120.703 65.3724 120.989Z" fill="black" stroke="black" stroke-width="0.75"/>
        <path d="M55.6134 124.415C55.3281 124.802 54.9646 125.073 54.4521 124.949C54.2158 124.889 54.003 124.758 53.8414 124.575C53.6798 124.392 53.5768 124.165 53.5459 123.922C53.5435 123.902 53.5435 123.882 53.5459 123.862C53.6494 123.037 53.19 122.511 52.6145 122.023C52.3671 121.789 52.1384 121.535 51.9303 121.265C51.8072 121.129 51.7265 120.96 51.6981 120.779C51.683 120.635 51.6981 120.484 51.8471 120.418C51.996 120.352 52.0137 120.539 52.0995 120.61C52.389 120.889 52.7015 121.142 53.0335 121.369C53.2967 121.551 53.5495 121.749 53.7908 121.96C53.968 122.111 54.1097 122.3 54.2057 122.512C54.3017 122.725 54.3497 122.956 54.3461 123.189C54.3461 123.308 54.3461 123.442 54.3461 123.551C54.3588 124.431 54.7349 124.686 55.6134 124.415Z" fill="black" stroke="black" stroke-width="0.75"/>
        <path d="M53.4046 116.782C53.3746 116.609 53.3887 116.432 53.4457 116.267C53.5026 116.101 53.6005 115.953 53.7302 115.836C54.0185 115.522 54.3841 115.289 54.7904 115.161C55.5495 114.876 56.366 114.778 57.1708 114.875C57.7912 114.958 58.4052 115.083 59.0085 115.249C59.1828 115.3 59.3518 115.367 59.5134 115.449C59.5992 115.492 59.6825 115.573 59.6295 115.702C59.5765 115.831 59.4983 115.785 59.4251 115.788C58.5786 115.802 57.7328 115.73 56.9008 115.573C56.0812 115.418 55.2338 115.518 54.4723 115.859C54.0112 116.017 53.6288 116.348 53.4046 116.782Z" fill="black" stroke="black" stroke-width="0.75"/>
        <path d="M60.7731 123.697C60.8799 123.592 61.0224 123.532 61.1719 123.528C61.9485 123.428 62.7365 123.461 63.5019 123.627C63.5617 123.634 63.6203 123.649 63.676 123.672C63.8426 123.745 64.0421 123.824 63.9865 124.049C63.9411 124.231 63.7518 124.254 63.5877 124.238C62.6289 124.191 61.6815 124.008 60.7731 123.697Z" fill="black" stroke="black" stroke-width="0.75"/>
        <path d="M19.4171 70.9388C19.7263 72.3874 19.7263 73.8849 19.4171 75.3335C19.2937 75.9686 19.1361 76.5967 18.945 77.2148C18.8245 77.6443 18.6201 78.0456 18.3437 78.3954C18.0672 78.7452 17.7242 79.0366 17.3346 79.2527C17.0342 79.4196 16.7388 79.5916 16.4485 79.7762C15.3681 80.4589 15.1661 81.3742 15.8553 82.4463C15.9083 82.5298 15.9991 82.6082 15.9057 82.6992C15.8664 82.7319 15.818 82.7518 15.7671 82.7563C15.7161 82.7608 15.665 82.7497 15.6205 82.7245C15.4795 82.6687 15.3509 82.5854 15.2421 82.4795C15.1334 82.3736 15.0466 82.2471 14.9869 82.1075C14.7945 81.7038 14.7252 81.2522 14.7876 80.8092C14.85 80.3662 15.0414 79.9515 15.3378 79.6169C15.6494 79.269 16.0226 78.9818 16.4384 78.7698C16.8973 78.5336 17.2984 78.1988 17.6131 77.7892C17.9277 77.3796 18.1481 76.9054 18.2584 76.4006C18.6717 74.8186 18.9962 73.2146 19.2303 71.5963C19.2258 71.3634 19.2908 71.1344 19.4171 70.9388Z" fill="black" stroke="black" stroke-width="0.75"/>
        <path d="M158.878 85.8574C158.507 85.4983 158.454 85.3213 158.679 84.9496C158.868 84.6122 159.148 84.3349 159.487 84.1493C159.825 83.9637 160.209 83.8774 160.595 83.9003C160.777 83.9024 160.957 83.9279 161.133 83.9761C162.261 84.315 163.405 84.229 164.556 84.1582C166.022 84.0672 167.489 83.9508 168.966 83.9938C168.459 84.1914 167.933 84.3339 167.395 84.4186C165.782 84.7839 164.135 84.9788 162.481 85.0002C162.036 85.0154 161.592 84.9642 161.163 84.8485C160.932 84.7775 160.696 84.7275 160.456 84.6993C159.671 84.6234 159.141 85.0052 158.878 85.8574Z" fill="black" stroke="black" stroke-width="0.75"/>
    </g>
    <defs>
        <clipPath id="clip0">
            <rect width="192" height="135" fill="white"/>
        </clipPath>
    </defs>
</svg>
