<svg width="218" height="108" viewBox="0 0 218 108" fill="none" xmlns="http://www.w3.org/2000/svg">
    <g clip-path="url(#clip0)">
        <path d="M53.7901 15.2869C53.839 15.2938 53.8856 15.312 53.9263 15.3401C53.9669 15.3681 54.0005 15.4054 54.0243 15.4487C54.4121 15.942 54.4121 15.942 54.9327 15.6575C58.4697 13.7313 62.1682 12.1732 65.9187 10.722C72.1105 8.32599 78.2789 5.86475 84.5645 3.71931C87.6877 2.65965 90.7901 1.60259 93.9888 0.816973C95.121 0.537701 96.2688 0.341947 97.4166 0.154026C97.6073 0.106139 97.8076 0.113375 97.9944 0.174903C97.4921 0.344554 97.0548 0.4855 96.6228 0.636881C86.493 4.19956 76.3894 7.85358 66.3872 11.7686C62.6653 13.225 58.9538 14.7049 55.3751 16.498C54.6177 16.879 54.6177 16.879 54.8884 17.7169C54.9145 17.7728 54.9346 17.8315 54.9483 17.8917C55.107 19.5856 55.7109 21.1725 56.0961 22.8116C56.4813 24.4507 57.0174 26.0637 57.5328 27.6715C58.7196 31.3672 60.0704 35.0056 61.2703 38.6962C63.5788 45.8007 65.6064 52.9886 67.6235 60.1792C68.0399 61.6643 68.55 63.126 68.8727 64.6372C68.9378 64.9399 69.0654 64.9869 69.3465 64.9425C70.5667 64.7277 71.8236 64.9251 72.92 65.5037C72.9727 65.5435 73.0331 65.5721 73.0973 65.5877C73.1615 65.6033 73.2282 65.6055 73.2933 65.5942C73.3584 65.583 73.4205 65.5585 73.4758 65.5223C73.5311 65.4861 73.5785 65.4389 73.6149 65.3836C74.1612 64.8087 74.7828 64.3108 75.4628 63.9037C78.1219 62.1858 80.8679 60.6073 83.69 59.1744C89.1426 56.3947 94.5458 53.5133 100.038 50.8223C100.842 50.4282 101.649 50.0393 102.455 49.6556C102.994 49.3946 103.067 49.332 102.997 48.7578C102.927 48.1836 102.95 47.6355 102.924 47.0743C102.915 46.2825 102.956 45.4909 103.049 44.7044C103.196 42.8931 103.337 41.0826 103.471 39.273C103.562 38.0019 103.679 36.7334 103.674 35.4598C103.674 34.849 103.642 34.8099 103.038 34.8621C102.666 34.8934 102.299 34.9691 101.93 35.0291C101.233 35.1596 100.515 35.1019 99.8475 34.8621C99.6354 34.8032 99.4426 34.6891 99.2886 34.5314C99.1346 34.3738 99.0248 34.1781 98.9704 33.9642C98.9385 33.8215 98.8771 33.6872 98.7901 33.5698C98.7031 33.4525 98.5926 33.3548 98.4655 33.283C98.3776 33.2271 98.2948 33.1633 98.2182 33.0925C97.6508 32.5705 97.6066 31.9493 98.1245 31.3881C98.613 30.8639 99.2481 30.4999 99.9464 30.3441C100.045 30.3206 100.152 30.3154 100.254 30.2945C100.514 30.2449 100.743 30.1797 100.816 29.8795C100.847 29.7465 100.837 29.607 100.787 29.4797C100.738 29.3525 100.65 29.2434 100.537 29.167C100.163 28.8659 99.7427 28.6262 99.2932 28.4571C98.7336 28.2326 98.1662 28.0264 97.604 27.8098C97.2518 27.6808 96.9134 27.5164 96.5942 27.3191C96.308 27.1471 96.0585 26.92 95.8602 26.6509C95.752 26.5159 95.6718 26.3607 95.624 26.1943C95.5763 26.0279 95.5621 25.8536 95.5822 25.6816C95.6023 25.5096 95.6563 25.3434 95.7411 25.1925C95.826 25.0417 95.9399 24.9093 96.0762 24.8031C96.4384 24.4857 96.8658 24.2522 97.3281 24.1192C99.0069 23.6416 100.683 23.1379 102.448 23.0752C103.002 23.0543 103.002 23.0569 102.942 22.5115C102.315 16.6911 101.347 10.9386 99.6836 5.31664C99.3296 4.11603 98.9548 2.92326 98.5748 1.73048C98.4437 1.37761 98.3648 1.00742 98.3406 0.631656C98.3226 0.52742 98.3416 0.420152 98.3944 0.328566C98.4472 0.23698 98.5304 0.166896 98.6295 0.130537C98.8689 0.0626761 99.0173 0.240158 99.1162 0.4333C99.1763 0.565781 99.2284 0.701744 99.2723 0.840462C100.337 3.68016 101.045 6.62166 101.761 9.56054C102.541 12.7082 102.966 15.9133 103.361 19.1236C103.497 20.2172 103.621 21.3135 103.752 22.3836C103.806 22.4058 103.865 22.4136 103.924 22.4063C103.982 22.399 104.037 22.3768 104.085 22.3418C105.646 21.6058 107.122 21.9294 108.53 22.7959C108.668 22.8821 108.848 23.0021 108.882 23.1379C108.975 23.5398 109.264 23.5555 109.582 23.5998C110.219 23.6912 110.854 23.806 111.489 23.9183C111.695 23.9544 111.897 24.0077 112.093 24.0775C113.038 24.4168 113.395 25.0249 113.251 26.048C113.465 26.1271 113.694 26.1566 113.92 26.1342C114.857 26.2089 115.756 26.5353 116.523 27.079C116.862 27.3056 117.151 27.5998 117.372 27.9433C117.593 28.2869 117.741 28.6723 117.806 29.0757C117.865 29.3319 117.856 29.5992 117.781 29.851C117.705 30.1029 117.565 30.3304 117.374 30.5112C117.246 30.6479 117.107 30.7736 116.958 30.887C116.386 31.2878 115.878 31.7716 115.448 32.3225C114.735 33.2569 113.644 33.6745 112.471 33.6562C111.637 33.6429 110.819 33.8871 110.128 34.3557C109.887 34.5252 109.625 34.6613 109.347 34.7603C108.986 34.8777 108.941 35.097 108.978 35.4258C109.199 37.3546 109.399 39.286 109.618 41.2122C109.678 41.7319 109.81 42.2406 110.011 42.7234C110.37 43.55 110.532 44.4489 110.485 45.3491C110.452 45.5121 110.484 45.6815 110.573 45.8215C115.487 43.6761 120.271 41.207 125.307 39.3643C125.351 39.2391 125.263 39.1947 125.216 39.1321C124.805 38.5683 124.82 38.0646 125.318 37.5661C125.597 37.2686 125.933 37.0296 126.305 36.863C126.677 36.6963 127.078 36.6053 127.486 36.5951C127.901 36.5908 128.313 36.5239 128.709 36.3968C129.057 36.2505 129.434 36.1896 129.81 36.2193C130.354 36.308 130.828 36.0888 131.327 35.9583C131.569 35.8956 131.614 35.7547 131.588 35.5485C131.593 35.0891 131.561 34.63 131.494 34.1756C131.374 33.7049 131.407 33.2081 131.588 32.7575C131.77 32.3068 132.089 31.9259 132.501 31.67C133.849 30.7252 135.32 30.5347 136.822 31.2106C137.496 31.5134 138.058 31.6204 138.75 31.2655C139.343 30.9957 140.005 30.9155 140.645 31.0358C140.827 31.0718 141.015 31.0671 141.195 31.022C141.375 30.9769 141.542 30.8925 141.686 30.7748C141.733 30.734 141.785 30.7005 141.842 30.6756C142.652 30.3624 143.453 30.0361 144.255 29.7073C144.822 29.475 145.397 29.6838 145.996 30.057C146.053 29.2166 146.181 28.4675 146.098 27.708C146.074 27.4705 145.975 27.3269 145.702 27.34C144.9 27.3765 144.203 27.0503 143.518 26.6875C143.37 26.6092 143.222 26.5361 143.078 26.45C142.821 26.2892 142.527 26.1957 142.223 26.178C141.92 26.1602 141.617 26.2187 141.342 26.3482C140.903 26.5335 140.458 26.7162 140.012 26.8858C138.576 27.4392 137.105 27.3661 135.648 27.032C134.672 26.8075 134.406 25.988 135.049 25.2285C136.038 24.0097 137.269 23.0107 138.664 22.2948C139.043 22.1214 139.444 22.0036 139.856 21.9451C139.992 21.919 140.158 21.9451 140.242 21.7624C139.985 21.5573 139.685 21.4152 139.364 21.3474C138.584 21.0864 137.821 20.841 137.058 20.5644C136.504 20.3788 135.983 20.1047 135.515 19.7527C135.111 19.4687 134.81 19.06 134.659 18.5888C134.507 18.1177 134.514 17.6098 134.677 17.1426C134.901 16.2846 135.447 15.5463 136.2 15.0815C136.954 14.6167 137.857 14.4612 138.722 14.6475C139.855 14.917 141.016 15.0458 142.181 15.0311C142.886 15.0389 143.587 15.146 144.263 15.3496C144.492 15.4204 144.733 15.4396 144.97 15.4057C145.208 15.3719 145.434 15.2858 145.634 15.1538C146.073 14.8682 146.574 14.6944 147.094 14.6475C147.574 14.5956 148.024 14.3938 148.383 14.0707C149.023 13.5319 149.79 13.167 150.611 13.011C151.123 12.9112 151.653 12.9353 152.154 13.0815C152.675 13.2276 153.195 13.4077 153.7 13.5747C153.721 13.5769 153.74 13.584 153.757 13.5956C154.2 14.0863 154.772 13.9219 155.319 13.9088C155.548 13.9088 155.777 13.9088 156.006 13.8879C157.864 13.6844 159.278 14.5692 160.472 15.8324C161.565 16.9808 161.654 18.3824 161.045 19.797C160.561 20.9246 160.462 20.6818 161.212 21.812C161.469 22.1929 161.662 22.6135 161.784 23.0569C161.916 23.4904 161.913 23.9536 161.775 24.3852C161.638 24.8169 161.374 25.1965 161.016 25.4738C160.433 25.9542 159.716 26.2422 158.963 26.2986C158.736 26.3273 158.505 26.3247 158.281 26.3717C157.253 26.5937 156.179 26.4283 155.264 25.9071C154.687 25.5939 154.674 25.62 154.197 26.0846C153.901 26.3769 153.606 26.6744 153.297 26.9511C152.859 27.3563 152.344 27.6681 151.782 27.8673C151.221 28.0665 150.625 28.1491 150.03 28.1099C149.843 28.1099 149.656 28.0917 149.471 28.0734C149.286 28.0551 149.145 28.0995 149.138 28.3344C149.138 28.8747 149.101 29.4176 149.088 29.9605C149.088 30.1875 149.2 30.2502 149.411 30.1771C149.758 30.0619 150.125 30.0206 150.489 30.0556C150.853 30.0907 151.205 30.2014 151.524 30.3807C151.644 30.4469 151.778 30.4817 151.915 30.4817C152.051 30.4817 152.186 30.4469 152.305 30.3807C152.547 30.2587 152.812 30.193 153.083 30.1885C153.353 30.1839 153.621 30.2407 153.867 30.3546C153.991 30.4125 154.128 30.4376 154.265 30.4276C154.401 30.4175 154.533 30.3726 154.647 30.2971C155.514 29.8169 156.41 29.6812 157.336 30.117C157.554 30.189 157.791 30.1788 158.002 30.0883C160.605 29.4776 163.158 28.7494 165.722 28.0264C168.827 27.1495 171.953 26.3586 175.17 25.9984C177.156 25.774 179.139 25.5365 181.156 25.56C181.427 25.5482 181.698 25.5719 181.963 25.6304C182.055 25.6489 182.141 25.6937 182.208 25.7594C182.276 25.8251 182.324 25.909 182.345 26.001C182.366 26.1044 182.355 26.2116 182.314 26.3085C182.272 26.4054 182.203 26.4875 182.114 26.5439C182.051 26.5994 181.976 26.6396 181.895 26.6614C180.628 26.8937 179.654 27.8098 178.431 28.1465C178.375 28.1729 178.323 28.2062 178.275 28.2457C178.376 28.4231 178.556 28.4101 178.709 28.444C180.5 28.8512 182.327 29.0026 184.149 29.1931C186.388 29.3865 188.613 29.7177 190.812 30.1849C191.136 30.26 191.456 30.3524 191.77 30.4616C192.054 30.5634 192.309 30.7226 192.316 31.0723C192.314 31.2097 192.268 31.3428 192.186 31.4528C192.104 31.5628 191.989 31.6442 191.858 31.6857C191.46 31.8684 191.059 32.0432 190.653 32.2077C188.808 32.9228 186.911 33.484 185.039 34.1182C183.074 34.803 181.145 35.5871 179.259 36.4672C177.763 37.1476 176.27 37.8357 174.779 38.5317C174.574 38.6257 174.373 38.7353 174.103 38.8737C174.308 38.9907 174.544 39.0426 174.779 39.0224C177.018 39.1964 179.259 39.3704 181.502 39.5444C184.16 39.7402 186.799 40.1056 189.435 40.4814C192.257 40.8851 195.077 41.2958 197.897 41.7134C198.659 41.8296 199.412 42.0041 200.148 42.2354C200.42 42.3436 200.722 42.3436 200.994 42.2354C201.284 42.1152 201.602 42.0782 201.913 42.1284C202.157 42.1597 202.173 42.3006 202.077 42.4807C201.901 42.7673 201.641 42.9918 201.332 43.1228C200.521 43.5488 199.688 43.9321 198.836 44.2712C195.947 45.3961 193.024 46.4375 190.154 47.6146L189.922 47.7086C189.464 47.9017 189.469 47.9017 189.498 48.3872C189.539 49.0762 189.594 49.7627 189.61 50.4517C189.61 50.7754 189.701 50.9372 190.047 50.9737C193.102 51.3626 196.135 51.9107 199.195 52.2787C201.03 52.4954 202.883 52.6311 204.674 53.1426C204.882 53.1795 205.083 53.2473 205.27 53.3436C205.067 53.5133 204.828 53.4637 204.609 53.4793C203.299 53.539 201.987 53.4953 200.684 53.3488C197.561 53.0878 194.451 52.5658 191.346 52.0778C190.934 52.0151 190.523 51.9551 190.109 51.9081C189.623 51.8559 189.612 51.8611 189.589 52.3388C189.511 54.0248 189.433 55.7135 189.373 57.4022C189.31 57.9296 189.283 58.4606 189.29 58.9917C189.55 59.0726 189.774 58.916 189.992 58.8455C194.289 57.457 198.55 55.9562 202.813 54.4685C203.334 54.2832 203.883 54.1266 204.424 53.9726C204.726 53.8891 205.057 53.8395 205.304 54.0875C205.424 54.2049 205.101 54.6408 204.734 54.8313C204.174 55.1067 203.592 55.3362 202.995 55.5178L200.702 56.2877C200.702 56.52 200.866 56.4809 200.963 56.5043C204.117 57.2012 207.326 57.5249 210.53 57.8981C212.245 58.0991 213.945 58.4044 215.634 58.7672C215.998 58.8455 216.345 58.9943 216.704 59.0935C216.79 59.117 216.857 59.1196 216.863 59.2292C216.865 59.271 216.856 59.3127 216.837 59.3498C216.817 59.387 216.789 59.4184 216.753 59.4406C216.504 59.596 216.213 59.669 215.92 59.6494C215.359 59.6231 214.801 59.5427 214.255 59.4093C211.392 58.7881 208.456 58.5297 205.546 58.1643C203.87 57.9555 202.233 57.5562 200.577 57.2378C200.21 57.1647 199.838 57.1125 199.469 57.0629C199.195 57.0237 198.925 57.0107 198.732 57.2717C198.545 57.0342 198.318 57.1125 198.084 57.1882L191.028 59.5137C190.877 59.5633 190.695 59.5633 190.57 59.8139C198.146 60.4553 205.622 61.9785 212.847 64.3527C212.693 64.335 212.538 64.3594 212.397 64.4233C212.256 64.4872 212.136 64.5882 212.048 64.7155C211.837 64.9947 211.444 65.0652 211.108 65.1774C209.609 65.6812 208.091 66.1275 206.566 66.5451C206.227 66.6118 205.896 66.7169 205.58 66.8583C205.795 66.9876 206.043 67.0511 206.293 67.041C209.195 67.3167 212.061 67.9002 214.84 68.7819C215.06 68.8457 215.276 68.9206 215.488 69.0063C216.092 69.2673 216.67 69.6066 217.375 69.437C217.463 69.4232 217.553 69.431 217.637 69.4596C217.722 69.4882 217.798 69.5369 217.859 69.6014C217.727 70.0112 217.378 70.1991 217.016 70.3479C216.519 70.5608 216.012 70.7481 215.496 70.909C210.233 72.4959 205.046 74.3021 199.843 76.0664C194.497 77.8778 189.027 79.2585 183.582 80.7279C176.971 82.5132 170.415 84.4864 163.874 86.5091C159.189 87.9603 154.434 89.2288 149.754 90.7139C148.505 91.1106 147.266 91.5465 146.03 91.9771C145.939 92.0084 145.585 91.9458 145.832 92.2851C145.918 92.4025 145.676 92.4313 145.572 92.4417C144.806 92.5265 144.032 92.5265 143.266 92.4417C139.622 92.0659 136.017 91.3977 132.389 90.9018C129.526 90.5129 126.663 90.1188 123.8 89.7299C121.369 89.388 118.941 89.0226 116.513 88.665C112.83 88.1221 109.155 87.5062 105.441 87.2008C101.537 86.8771 97.6743 86.2794 93.8145 85.6348C90.509 85.0945 87.1984 84.5699 83.8643 84.2384C82.3704 84.0896 80.8686 84.1627 79.3721 84.1523C79.1628 84.1609 78.9607 84.2318 78.7917 84.3559C78.5106 84.5333 78.2295 84.716 77.9458 84.8779C76.9847 85.4395 75.8732 85.6876 74.7653 85.5878C74.3172 85.5535 73.8702 85.6671 73.4925 85.9114C72.6389 86.4334 71.7279 86.8458 70.8352 87.2974C69.461 87.9916 68.0867 88.6859 66.7047 89.3671C66.5592 89.422 66.4278 89.5088 66.3202 89.6213C66.2125 89.7338 66.1314 89.869 66.0826 90.017C66.028 90.1739 65.939 90.3166 65.8224 90.4346C65.6194 90.6538 65.3747 90.6512 65.281 90.3772C65.1665 90.0379 65.0025 90.1501 64.8177 90.231C63.7298 90.7078 62.6041 91.0928 61.4524 91.382C60.4965 91.6635 59.5237 91.884 58.54 92.0424C57.4273 92.196 56.3076 92.2936 55.1851 92.3347C53.2513 92.3608 51.3149 92.4078 49.3811 92.4652C47.3915 92.5147 45.4549 93.1184 43.7879 94.2087C43.6753 94.2621 43.5779 94.3429 43.5043 94.4436C43.4307 94.5443 43.3832 94.6618 43.3662 94.7855C43.3494 94.888 43.3224 94.9886 43.2856 95.0856C43.0904 95.7016 42.916 95.7382 42.4605 95.2423C42.2053 95.4165 41.9787 95.6296 41.789 95.8739C40.4096 97.372 39.509 99.1547 38.7829 101.031C38.546 101.645 38.6371 102.313 38.5226 102.95C38.4732 103.237 38.4575 103.532 38.3899 103.816C38.2753 104.289 38.0984 104.32 37.7366 103.954C37.6833 103.909 37.6278 103.866 37.57 103.827C36.9011 105.236 36.3077 106.677 35.2849 107.896C35.1495 107.791 35.2224 107.635 35.238 107.512C35.3537 106.642 35.5912 105.794 35.9433 104.991C36.4353 103.816 36.9297 102.642 37.4165 101.47C37.5469 101.253 37.6162 101.005 37.6169 100.752C36.7375 101.41 35.9815 102.22 35.3838 103.143C35.3265 102.903 35.5321 102.746 35.5477 102.443C34.7851 102.882 34.0668 103.307 33.338 103.707C32.6038 104.118 31.8152 104.423 30.9956 104.612C31.0867 104.377 31.2559 104.315 31.4068 104.21C32.4948 103.399 33.6946 102.764 34.832 102.031C36.3468 101.057 36.3546 101.065 37.138 99.4522C37.5206 98.6692 37.9552 97.8862 38.14 97.0301C38.278 96.3854 38.4367 95.7486 38.6345 95.1196C38.8323 94.4906 39.0171 93.8433 39.2097 93.1908C39.1004 93.0159 38.8636 93.1281 38.7256 93.0002C38.6293 92.9141 38.5382 92.8254 38.559 92.687C38.5675 92.6346 38.5918 92.5861 38.6285 92.5478C38.6653 92.5096 38.7128 92.4835 38.7647 92.473C40.8885 91.8284 42.3148 90.2388 43.8061 88.7355C43.8634 88.6754 43.9154 88.6076 43.9753 88.5502C44.0105 88.5025 44.0558 88.4633 44.1079 88.4354C44.1601 88.4075 44.2178 88.3916 44.2769 88.3888C44.336 88.3861 44.3949 88.3966 44.4494 88.4195C44.5039 88.4424 44.5527 88.4773 44.5921 88.5215C45.2971 89.0812 46.1525 89.4175 47.0491 89.4872C48.1309 89.6187 49.227 89.4128 50.1879 88.8973C50.594 88.6859 50.9687 88.4327 51.3696 88.1952C52.002 87.8063 52.546 87.2713 53.3008 87.0364C53.304 87.1172 53.325 87.1964 53.3624 87.2681C53.3997 87.3399 53.4525 87.4025 53.5168 87.4513C53.8065 87.6905 54.1291 87.8865 54.4746 88.0334C55.3665 88.3906 56.32 88.5679 57.2803 88.5554C58.2667 88.5267 59.1022 88.2161 59.6227 87.2713C59.831 86.8772 60.1433 86.7884 60.7081 86.9789C61.7752 87.3469 62.8397 87.2399 63.9094 87.0207C64.6521 86.886 65.338 86.5325 65.8796 86.0054C66.0435 85.8464 66.2173 85.6982 66.4002 85.5617C66.4751 85.4859 66.576 85.4417 66.6824 85.4378C66.7887 85.4339 66.8925 85.4707 66.9728 85.5408C67.3736 85.9558 67.8577 85.8827 68.3184 85.7783C69.1294 85.5692 69.9098 85.2551 70.64 84.8439C70.5775 84.6351 70.4005 84.6638 70.286 84.6221C67.7637 83.7047 65.1884 82.9412 62.5742 82.3357C61.4623 82.0648 60.3665 81.7311 59.2922 81.3361C59.1612 81.2785 59.019 81.2514 58.8761 81.2569C58.7332 81.2623 58.5934 81.3001 58.4671 81.3674C57.8581 81.6832 57.2231 81.9546 56.601 82.2417C56.5311 82.2875 56.4535 82.3202 56.372 82.3383C55.979 82.3618 56.0336 83.0691 55.4975 82.889C55.1175 82.7611 54.8468 83.0874 54.5266 83.2048C54.2065 83.3223 53.8447 83.5181 53.5012 83.6642C53.1576 83.8104 52.8401 83.9252 52.5121 84.0479C51.3363 84.4626 50.1112 84.7206 48.8684 84.8152C47.0777 85.011 45.2896 84.8492 43.5042 84.7604C40.9249 84.6299 38.3482 84.4994 35.7663 84.6926C35.389 84.7213 35.0532 84.7108 34.8892 85.1911C34.7669 85.5486 34.4494 85.5199 34.275 85.1363C34.2466 85.0399 34.1815 84.9586 34.0939 84.9098C34.0063 84.8609 33.9031 84.8486 33.8065 84.8753C30.423 85.2876 27.2763 86.3082 24.5175 88.3936C22.8023 89.6986 21.4437 91.3194 20.1579 93.0159C20.046 93.1702 19.9728 93.3492 19.9445 93.5379C19.9406 93.6425 19.9022 93.7428 19.8353 93.8231C19.7684 93.9034 19.6768 93.9591 19.5749 93.9816C19.3433 94.0338 19.2756 94.2609 19.1663 94.4305C18.3699 95.6311 17.6724 96.8918 16.9384 98.1289C16.6625 98.5935 16.371 99.0529 16.0769 99.507C15.9706 99.6615 15.8522 99.8072 15.7229 99.9429C15.6396 100.032 15.5355 100.136 15.4002 100.063C15.2648 99.9899 15.2675 99.802 15.3143 99.6793C15.3875 99.4608 15.4744 99.2472 15.5746 99.0398C16.5225 96.9719 17.6284 94.9806 18.8826 93.0838C19.0263 92.9056 19.1166 92.6902 19.1429 92.4626C19.2631 90.3842 19.5556 88.3196 20.0174 86.2899C17.4407 88.1169 14.7157 89.4793 11.6341 90.0118L11.5742 89.8787C11.8345 89.7743 12.0947 89.6803 12.3316 89.5629C13.7449 88.8973 15.1607 88.2396 16.5636 87.5557C17.8261 86.9575 18.9941 86.1766 20.0304 85.238C20.2178 85.0606 20.4286 84.9509 20.6238 85.1363C20.9257 85.4181 21.2719 85.3842 21.6207 85.3581C22.098 85.3037 22.5565 85.1403 22.9611 84.8805C23.5921 84.5106 24.1448 84.0202 24.5877 83.4371L27.56 79.5691C27.586 79.5378 27.6095 79.5012 27.6355 79.4699C27.9504 79.0758 28.0675 79.0575 28.4684 79.3681C28.6505 79.5121 28.8242 79.6663 28.9889 79.8301C29.9883 80.8062 31.2012 81.0046 32.5182 80.7984C32.9518 80.7033 33.3359 80.4527 33.5983 80.0937C33.9341 79.697 34.2412 79.2742 34.5691 78.8696C34.9413 78.4129 35.1131 78.4024 35.4904 78.854C36.3434 79.8613 37.4405 80.6315 38.6762 81.0907C39.2228 81.3286 39.8182 81.4318 40.4126 81.3919C41.0071 81.3519 41.5835 81.1699 42.0935 80.861C43.0513 80.2973 43.8608 79.5404 44.6962 78.8305C44.9097 78.6504 45.0762 78.345 45.4328 78.4859C45.7373 78.6086 45.7998 78.867 45.8596 79.1776C46.1511 80.694 47.9262 81.9181 49.5347 81.7876C49.9934 81.7709 50.443 81.6544 50.8524 81.4462C51.2618 81.238 51.6212 80.9431 51.9057 80.5818C52.166 80.2373 52.4679 79.911 52.7698 79.5926C53.0717 79.2741 53.1654 79.2742 53.4908 79.5665C54.1232 80.1381 54.6802 80.1485 55.3855 79.65C55.6042 79.5122 55.7896 79.3274 55.9282 79.1089C56.0669 78.8904 56.1553 78.6437 56.1872 78.3867C56.234 78.0527 56.1559 77.9352 55.8644 77.8647C54.9824 77.6163 54.0786 77.4538 53.1654 77.3793C51.3204 77.236 49.4914 76.9304 47.6997 76.4658C46.3411 76.1474 44.9357 76.0769 43.5901 75.7037C40.1025 74.7406 36.5315 74.075 33.0934 72.9475C29.7099 71.8356 26.2118 71.1544 22.7867 70.1939C20.6088 69.562 18.3905 69.0798 16.1472 68.7506C14.9499 68.5887 13.7475 68.4896 12.5528 68.3147C11.4139 68.1725 10.3114 67.8185 9.30203 67.2707C9.00445 67.118 8.73928 66.9088 8.52122 66.6547C8.00068 66.0153 8.05534 65.5167 8.6878 64.9869C9.46861 64.3318 10.2494 63.6819 11.0302 63.0242C11.2137 62.9074 11.3635 62.7445 11.4649 62.5518C7.64673 63.7028 4.068 65.4019 0.135315 66.2058C0.165463 66.1367 0.209079 66.0743 0.263607 66.0223C0.318135 65.9703 0.382468 65.9297 0.452837 65.903C1.21618 65.4754 2.00549 65.0963 2.81611 64.7677C5.80402 63.614 8.77108 62.3847 11.9047 61.6722C12.5714 61.5377 13.1856 61.2143 13.6746 60.7404C14.2134 60.2184 14.7989 59.7538 15.4184 59.2188C14.2316 58.4775 12.9589 57.9555 11.8657 57.1595C11.8181 57.1754 11.7726 57.1973 11.7304 57.2247C11.5898 57.3683 11.4701 57.5927 11.2098 57.4492C10.9496 57.3056 10.9808 57.0237 11.0563 56.781C11.1308 56.5645 11.224 56.3549 11.3348 56.1546C11.8512 55.198 12.5055 54.3229 13.2764 53.5576C14.0762 52.7654 14.9302 52.0302 15.8322 51.3574C16.7276 50.6736 17.6333 50.008 18.5365 49.3372C19.2562 48.8277 20.0242 48.3906 20.8294 48.0322C20.8581 48.241 20.7409 48.3376 20.6681 48.4498C20.172 49.1989 19.5565 49.8611 18.8462 50.4099L15.6448 52.9156C14.5251 53.7523 13.522 54.7354 12.6621 55.8388C12.5398 56.0032 12.4227 56.1755 12.3082 56.3347C12.4227 56.5435 12.6257 56.5644 12.7845 56.6531C13.7874 57.2082 14.7903 57.7606 15.7932 58.3105C15.9728 58.4097 16.142 58.5715 16.358 58.5428C16.574 58.5141 16.6859 58.5845 16.7744 58.7907C16.8629 58.9969 17.0711 59.0074 17.2351 59.0935C19.5203 60.2967 21.8679 61.372 24.2155 62.4447C30.4256 65.2818 36.7424 67.8762 43.0721 70.4366C46.1954 71.6999 49.2848 73.0467 52.4419 74.2525C54.0035 74.8423 55.5651 75.3748 57.1814 75.9516C57.3246 75.5731 57.4729 75.2104 57.6031 74.8423C57.8975 73.9949 58.256 73.1712 58.6754 72.3785C59.3312 71.1726 60.3411 70.3087 61.3796 69.4657C61.6867 69.2178 61.9834 68.9594 62.3296 68.667C61.5298 67.8927 60.7877 67.0604 60.1095 66.1771C58.4255 64.1073 56.7259 62.0428 55.068 59.9574C52.3508 56.5487 49.4774 53.2731 46.5936 50.0054C43.7957 46.829 41.0915 43.5743 38.5252 40.1996C37.0755 38.289 35.441 36.5299 33.9653 34.6376C33.8247 34.4575 33.705 34.3766 33.5202 34.5906C33.4812 34.6376 33.4317 34.6794 33.3901 34.7237C31.615 36.6343 29.7463 38.443 27.8385 40.223C27.5981 40.4546 27.3745 40.7032 27.1696 40.9669C26.8391 41.3819 26.8521 41.4889 27.2555 41.8439C27.4259 41.9983 27.6049 42.143 27.7917 42.2771C29.6864 43.6422 31.5057 45.1038 33.2938 46.6019C34.2386 47.3849 35.2614 48.0766 36.2635 48.7891C37.251 49.4853 38.1982 50.2373 39.1004 51.0416C44.3897 55.7588 49.921 60.1958 55.6718 64.3344C56.4813 64.9191 57.2725 65.5324 58.0741 66.1327C59.0722 66.9213 59.9925 67.8041 60.8226 68.7688C60.996 68.9516 61.1227 69.1736 61.1922 69.4161C60.8798 69.5492 60.6534 69.377 60.44 69.2177C60.1709 69.0214 59.9168 68.805 59.68 68.5705C58.2407 67.1036 56.5568 65.9396 54.9093 64.7416C49.7299 60.9831 44.6181 57.1386 39.8344 52.8816C38.0011 51.2414 36.0689 49.716 34.0486 48.3141C33.4135 47.8782 32.8071 47.4006 32.2267 46.9073C30.7197 45.6545 29.1945 44.4278 27.6017 43.2846C27.2971 43.068 27.0056 42.8305 26.7193 42.5903C26.1754 42.1336 25.785 41.6142 26.1181 40.8129C23.911 42.178 22.1542 44.0624 20.0616 45.4744C20.0616 45.6989 20.2152 45.7354 20.3219 45.8268C28.0962 51.4696 35.972 56.9611 44.1523 62.0089C48.0875 64.4336 51.9604 66.9836 55.8384 69.484C56.4943 69.8883 57.1143 70.3485 57.6915 70.8595C57.9225 71.04 58.1101 71.2701 58.2407 71.5328C58.2823 71.632 58.3006 71.7442 58.2017 71.8173C58.165 71.8373 58.1234 71.8462 58.0818 71.8429C58.0403 71.8397 58.0006 71.8244 57.9674 71.7991L57.8112 71.6999C55.448 70.0921 52.9208 68.761 50.4924 67.2628C41.0368 61.4373 31.6359 55.5178 22.6956 48.917C21.592 48.1001 20.5067 47.2544 19.4292 46.3983C18.5781 45.7224 18.5885 45.3335 19.4552 44.7097C20.2698 44.125 21.0559 43.5091 21.7976 42.8513C23.6294 41.2723 25.5842 39.8426 27.6433 38.5761C29.1507 37.6838 30.5209 36.577 31.7113 35.2901C32.1298 34.8248 32.5879 34.3969 33.0804 34.0112C33.1224 33.991 33.1589 33.9608 33.1868 33.9234C33.2147 33.8859 33.2332 33.8422 33.2406 33.7961C33.248 33.7499 33.2442 33.7027 33.2294 33.6583C33.2147 33.6139 33.1894 33.5738 33.1558 33.5414C32.9511 33.2508 32.7585 32.9533 32.578 32.6488C32.4106 32.3927 32.3328 32.0882 32.3568 31.783C32.3808 31.4778 32.5054 31.1892 32.7108 30.9627C32.9868 30.622 33.2945 30.3082 33.6295 30.0257C34.5587 29.2166 35.5711 28.5171 36.5472 27.7706C36.8575 27.5606 37.1532 27.3295 37.4321 27.079C38.4867 26.0397 39.7215 25.2021 41.0759 24.6073C42.5854 23.9156 43.9675 23.0126 45.438 22.2583C48.0199 20.9533 50.6096 19.6483 53.2669 18.5051C53.4206 18.4426 53.5709 18.372 53.7172 18.2937C53.755 18.275 53.7849 18.2435 53.8016 18.2048C53.8183 18.166 53.8206 18.1226 53.8083 18.0823C53.7797 17.9778 53.6886 17.97 53.6105 17.9831C53.3242 18.0353 53.0379 18.0927 52.7568 18.1605C52.6792 18.1924 52.5933 18.1982 52.5121 18.1771C52.431 18.1559 52.3588 18.1089 52.3066 18.0431C52.166 17.85 52.2727 17.6829 52.3872 17.5211C52.5908 17.2558 52.8371 17.0265 53.116 16.8425C53.2748 16.765 53.4058 16.6401 53.4911 16.4849C53.5764 16.3298 53.6117 16.152 53.5923 15.976C53.5974 15.7329 53.6656 15.4955 53.7901 15.2869ZM156.248 58.1826C155.674 58.8422 154.98 59.386 154.202 59.7851C153.815 60.007 153.237 59.9913 153.042 60.4089C152.846 60.8265 152.878 61.3016 152.844 61.7583C152.761 62.2276 152.738 62.7057 152.776 63.1808C153.906 62.6953 154.986 62.2255 156.069 61.7635C156.259 61.6826 156.277 61.5338 156.269 61.3564C156.235 60.4403 156.269 59.5294 156.313 58.6132C156.337 58.4678 156.31 58.3186 156.238 58.1904C156.343 58.0101 156.398 57.8044 156.396 57.5953C156.451 56.8463 156.514 56.0972 156.568 55.3481C156.568 55.2098 156.636 55.0636 156.527 54.9331C156.383 54.8992 156.292 54.9984 156.188 55.0584C155.733 55.3194 155.285 55.5804 154.827 55.8257C154.563 55.9943 154.264 56.0989 153.953 56.1311C153.804 56.1311 153.645 56.1311 153.593 55.9562C153.541 55.7814 153.656 55.6952 153.778 55.5961C154.003 55.4442 154.252 55.3321 154.515 55.2646C154.936 55.1393 155.322 54.9122 155.738 54.8C156.493 54.5964 156.813 54.1397 156.779 53.3697C156.761 52.9939 156.878 52.6076 156.792 52.1822C156.592 52.2552 156.459 52.31 156.324 52.3518C155.47 52.6128 154.681 53.0878 153.789 53.2001C153.422 53.2444 153.344 53.3958 153.331 53.7064C153.255 55.5334 153.172 57.3761 153.094 59.2083C153.086 59.2588 153.093 59.3104 153.115 59.3568C153.136 59.4032 153.17 59.4423 153.213 59.4693C154.198 58.9796 155.212 58.5499 156.248 58.1826ZM147.284 54.2519C146.431 54.7269 145.587 55.2228 144.721 55.6718C144.067 56.0084 143.419 56.4548 142.615 56.1938C142.574 56.1863 142.532 56.1863 142.49 56.1938C140.687 56.3321 138.888 56.5513 137.095 56.7888C134.7 57.1046 132.335 57.5718 129.958 58.0025C128.592 58.2452 127.231 58.5088 125.867 58.762L125.846 58.8925C130.246 59.891 134.58 61.161 138.823 62.6953C138.701 62.7227 138.575 62.7227 138.453 62.6953C137.673 62.523 136.866 62.356 136.077 62.1733C132.941 61.4268 129.807 60.6673 126.671 59.9261C125.841 59.7277 124.977 59.6442 124.175 59.3754C123.727 59.2307 123.248 59.2082 122.788 59.3101C119.986 59.8321 117.182 60.3437 114.376 60.8448C107.64 62.0585 100.891 63.1938 94.1737 64.4988C90.051 65.3079 85.9205 66.091 81.8394 67.1089C80.3663 67.4743 78.888 67.8188 77.4148 68.1737C77.2483 68.2129 77.0661 68.2834 76.9932 68.0641C76.9203 67.8449 77.0843 67.7509 77.2378 67.6831C77.5218 67.5548 77.8129 67.4433 78.1097 67.349C80.2414 66.7095 82.3834 66.0988 84.5566 65.6159C91.8078 63.9977 99.111 62.6483 106.419 61.3538C111.885 60.3828 117.351 59.3727 122.816 58.4149C127.324 57.6319 131.809 56.6844 136.35 56.0371C138.677 55.7057 141.007 55.3716 143.362 55.3116C143.612 55.3078 143.855 55.2365 144.067 55.1054C144.713 54.7191 145.369 54.3537 146.004 53.957C150.569 51.1277 155.038 48.1366 159.751 45.5475C159.87 45.4878 159.965 45.3901 160.021 45.27C160.078 45.1498 160.093 45.0141 160.064 44.8845C159.947 42.4259 159.842 39.9647 159.637 37.5112C159.598 37.044 159.58 36.5768 159.548 36.0392C157.347 37.0388 155.178 37.9053 152.995 39.1268C154.643 39.3593 156.267 39.7411 157.846 40.2674C157.764 40.3031 157.674 40.3148 157.586 40.3013C155.915 40.0821 154.241 39.8785 152.594 39.5183C152.332 39.4518 152.054 39.4834 151.813 39.6071C150.348 40.3013 148.875 40.9904 147.407 41.6951C147.322 41.7175 147.243 41.7574 147.175 41.8122C147.107 41.8671 147.051 41.9356 147.011 42.0135C149.95 42.2197 152.874 42.6041 155.767 43.1645C155.558 43.188 155.35 43.1854 155.145 43.188C152.997 43.2193 150.858 43.0784 148.721 42.8957C147.724 42.8532 146.73 42.753 145.744 42.5955C145.536 42.5717 145.326 42.6157 145.145 42.7208C143.604 43.4047 142.063 44.0902 140.523 44.7775C140.39 44.8376 140.208 44.8532 140.156 45.1012C143.279 45.2369 146.363 45.584 149.434 46.0068C147.724 46.0956 146.02 46.1426 144.312 46.0878C142.545 46.0329 140.778 45.9703 139.01 45.8894C138.387 45.8466 137.763 45.9718 137.204 46.2522C136.133 46.8152 134.997 47.2421 133.821 47.5233C133.04 47.6955 132.282 47.8861 131.512 48.0635C131.473 48.0828 131.429 48.0887 131.387 48.0802C131.345 48.0717 131.306 48.0493 131.278 48.0166C131.395 47.8286 131.671 47.8365 131.798 47.5937C129.552 48.3767 127.33 49.0527 125.115 49.7992C127.345 49.7183 129.526 50.1098 131.712 50.3604C133.899 50.6109 136.137 50.9085 138.336 51.2269C140.489 51.5401 142.633 51.9029 144.781 52.2448C144.406 52.2775 144.029 52.2775 143.654 52.2448C141.181 52.1117 138.709 51.9368 136.246 51.6862C132.439 51.2974 128.644 50.7649 124.815 50.59C124.555 50.59 124.206 50.59 124.034 50.4021C123.774 50.0837 123.514 50.1907 123.215 50.2768C118.777 51.561 114.423 53.1087 110.061 54.6277C109.956 54.6643 109.813 54.6695 109.761 54.8887C111.44 54.8887 113.103 54.8679 114.764 54.8887C116.424 54.9096 118.053 54.967 119.691 55.1184C121.328 55.2698 122.952 55.4133 124.571 55.6926C123.696 55.7161 122.822 55.6926 121.947 55.7187C117.057 55.7996 112.166 55.7892 107.276 55.7187C106.984 55.716 106.695 55.7628 106.419 55.8571C101.263 57.624 96.0945 59.3623 90.9489 61.1632C85.8632 62.9433 80.7723 64.7129 75.7205 66.5895C75.5955 66.6364 75.429 66.6312 75.3743 66.8505C75.9624 67.2413 76.4487 67.7675 76.7928 68.3851C76.85 68.5173 76.9518 68.625 77.0803 68.6894C77.2088 68.7539 77.3558 68.7709 77.4955 68.7375C78.7422 68.6357 79.9889 68.5626 81.233 68.4765C86.2545 68.078 91.2812 67.7648 96.3131 67.5369C102.367 67.2759 108.421 67.1741 114.48 67.2211C123.306 67.2916 132.132 67.2524 140.949 66.8139C141.384 66.793 141.821 66.8348 142.251 66.8452C142.901 66.8452 143.552 67.0645 144.213 66.8165C144.609 66.6678 144.939 66.4198 145.319 66.2528C147.342 65.368 149.377 64.5145 151.438 63.7263C151.92 63.541 152.232 63.3243 152.159 62.7579C152.156 62.6329 152.171 62.5081 152.204 62.3873C152.483 60.8048 152.65 59.2043 152.703 57.5979C152.768 55.3664 152.859 53.1348 153.128 50.9137C153.128 50.8249 153.182 50.7049 153.044 50.6527C152.827 50.7236 152.625 50.8342 152.448 50.9789C150.704 52.0786 148.962 53.1801 147.222 54.2832L147.284 54.2519ZM162 63.969C161.919 63.969 161.836 63.969 161.755 63.969C159.96 63.7471 158.166 63.5018 156.386 63.186C156.061 63.122 155.723 63.1603 155.42 63.2956C153.981 63.9037 152.537 64.4962 151.095 65.0965C150.954 65.1566 150.769 65.1592 150.676 65.3993C152.697 65.6687 154.686 66.1463 156.61 66.8244C156.527 66.8541 156.438 66.8648 156.35 66.8557C154.119 66.5947 151.881 66.3885 149.661 66.0335C149.208 65.9507 148.742 66.0081 148.323 66.198C147.472 66.5842 146.597 66.9261 145.736 67.2889C144.862 67.6809 143.964 68.0174 143.047 68.2964C142.831 68.3688 142.608 68.4187 142.381 68.4452C141.92 68.4791 141.741 68.1842 141.946 67.777C141.994 67.6952 142.046 67.6159 142.102 67.5395C141.21 67.7039 140.366 67.8005 139.518 67.8814C135.97 68.1946 132.41 68.2259 128.847 68.252C122.767 68.299 116.69 68.2338 110.612 68.2338C110.377 68.2007 110.137 68.2313 109.917 68.3225C116.13 69.5805 122.364 70.7133 128.628 72.0705C128.233 72.201 127.939 72.0522 127.639 72.0079C125.068 71.6242 122.499 71.2379 119.933 70.8203C115.969 70.1782 112.028 69.4187 108.085 68.6592C107.211 68.4922 106.341 68.252 105.436 68.2781C103.614 68.333 101.815 68.3721 100.004 68.4347C92.8281 68.6801 85.668 69.2465 78.5001 69.6797C78.1561 69.6743 77.8132 69.72 77.4825 69.8155C77.6892 70.3879 77.863 70.9717 78.0031 71.5641C78.18 72.4437 78.3883 73.3155 78.5574 74.1977C78.6147 74.4952 78.7214 74.5944 79.0415 74.6048C81.3111 74.6727 83.578 74.6414 85.8476 74.5631C94.6057 74.2603 103.314 74.9989 112.02 75.8315C114.548 76.0734 117.077 76.3092 119.605 76.5388C121.656 76.7268 123.712 76.8729 125.76 77.0896C128.969 77.4263 132.181 77.7134 135.39 77.9169C137.61 78.0553 139.838 78.1257 142.04 78.5016C142.265 78.538 142.496 78.5004 142.698 78.3946C143.62 77.9587 144.552 77.5463 145.478 77.1209C150.455 74.8371 155.553 72.8378 160.574 70.6585C161.849 70.1025 163.138 69.5701 164.421 69.0272C164.16 68.5679 164.21 68.4661 164.655 68.4086C164.82 68.3826 164.987 68.3826 165.152 68.4086C165.654 68.5104 166.089 68.3408 166.534 68.1476C172.731 65.4906 178.892 62.7397 185.242 60.4585C185.312 60.446 185.378 60.4197 185.438 60.3812C185.498 60.3427 185.549 60.2928 185.589 60.2343C185.629 60.1758 185.657 60.11 185.672 60.0405C185.687 59.971 185.687 59.8993 185.674 59.8295C185.595 58.2644 185.6 56.696 185.69 55.1315C185.742 54.0457 185.724 52.9625 185.758 51.882C185.758 51.5584 185.648 51.4409 185.331 51.4226C184.271 51.3704 183.212 51.2974 182.153 51.2269C181.903 51.2207 181.656 51.282 181.437 51.4044C178.189 52.9704 174.899 54.4268 171.625 55.9275C171.487 55.9902 171.297 56.0032 171.232 56.2433C173.61 56.5449 175.955 57.0692 178.236 57.8094C177.075 57.7102 175.922 57.564 174.769 57.4179C173.244 57.2247 171.716 57.0368 170.188 56.8384C169.899 56.8012 169.604 56.8502 169.342 56.9794C167.437 57.8668 165.527 58.7464 163.616 59.6338C163.502 59.6886 163.317 59.6886 163.325 59.9313C164.76 60.3958 166.135 61.0283 167.422 61.8157C167.295 61.8343 167.166 61.8245 167.044 61.787C165.496 61.3799 163.944 60.9805 162.398 60.5629C162.059 60.4612 161.695 60.4901 161.376 60.6438C160.09 61.2337 158.791 61.7975 157.5 62.3795C157.38 62.4317 157.211 62.4343 157.151 62.677C158.81 62.9275 160.436 63.3608 162 63.969ZM68.2351 65.0913C68.2222 64.8432 68.1631 64.5998 68.0607 64.3736C66.8843 61.0484 65.8588 57.6763 64.8906 54.2858C62.9993 47.6738 60.9493 41.1035 58.7404 34.575C57.0252 29.5376 55.2684 24.5159 54.144 19.3011C54.1398 19.2524 54.1193 19.2065 54.0857 19.1709C54.0522 19.1354 54.0076 19.1123 53.9593 19.1054C53.8031 19.1732 53.6131 19.2515 53.4387 19.3377C50.1958 20.8567 47.0048 22.4854 43.8608 24.1975C40.446 26.0559 37.2369 28.217 34.5431 31.0697C34.5014 31.1141 34.4572 31.1585 34.4104 31.2002C34.2854 31.3151 34.1501 31.4351 33.9731 31.3124C33.8534 31.2315 33.7857 31.3124 33.7128 31.3934C33.4109 31.6883 33.3771 31.8814 33.6191 32.2781C34.1915 33.176 34.8328 34.0277 35.5373 34.8255C36.9011 36.4281 38.3014 38.0019 39.5845 39.6749C41.7942 42.546 44.1132 45.3439 46.4765 48.0949C48.8397 50.8458 51.3253 53.495 53.5845 56.3347C56.6114 60.1349 59.6774 63.9038 62.4649 67.8893C62.5002 67.9654 62.5508 68.0335 62.6134 68.0892C62.6761 68.1449 62.7496 68.187 62.8293 68.2129C64.2468 66.6131 66.1437 65.5177 68.2351 65.0913ZM78.3856 81.8894C78.6745 81.8894 78.9634 81.8737 79.2523 81.8894C80.7879 81.9938 82.3261 82.0799 83.8591 82.2235C85.452 82.3749 87.0396 82.6019 88.6351 82.7638C91.8859 83.09 95.108 83.6225 98.338 84.1027C100.706 84.455 103.072 84.8178 105.456 85.024C108.257 85.2668 111.042 85.6139 113.806 86.1124C116.695 86.6344 119.584 87.1355 122.486 87.5557C124.69 87.8742 126.91 88.1691 129.097 88.498C132.165 88.9547 135.237 89.3593 138.321 89.6855C139.768 89.8395 141.233 89.8839 142.665 90.124C143.779 90.3093 144.778 90.077 145.764 89.7142C146.751 89.3514 147.706 88.9704 148.677 88.5998C152.193 87.253 155.704 85.914 159.325 84.8361C162.396 83.92 165.48 83.0639 168.515 82.0251C171.378 81.0411 174.311 80.219 177.262 79.4908C179.816 78.8887 182.335 78.1508 184.81 77.2801C187.236 76.3953 189.709 75.6697 192.205 75.0094C195.039 74.2577 197.881 73.5452 200.676 72.6604C204.512 71.4671 208.417 70.5144 212.37 69.8076C212.924 69.6977 213.489 69.6652 214.052 69.711C213.721 69.9823 213.333 70.1742 212.917 70.2722C212.258 70.4575 211.592 70.635 210.921 70.7733C208.071 71.3632 205.24 72.0392 202.425 72.8013C200.479 73.3233 198.592 74.0515 196.632 74.5448C193.709 75.2834 190.778 76.0038 187.905 76.9225C186.083 77.5072 184.285 78.1675 182.46 78.7495C180.336 79.4203 178.163 79.9058 176.008 80.4591C173.145 81.1925 170.324 82.0695 167.531 83.0274C163.83 84.2958 160.046 85.2955 156.339 86.5587C153.82 87.42 151.35 88.4197 148.82 89.2523C147.756 89.6046 146.675 89.9074 145.637 90.3459C144.955 90.6356 144.247 90.8992 143.461 90.8078C141.624 90.5912 139.768 90.5625 137.93 90.3198C135.991 90.0588 134.044 89.8708 132.105 89.6098C129.302 89.234 126.504 88.8268 123.701 88.4249C120.674 87.9942 117.65 87.5349 114.641 86.9894C111.518 86.4204 108.364 85.9454 105.191 85.6557C103.658 85.5173 102.128 85.3451 100.605 85.1102C98.0751 84.7187 95.5531 84.2854 93.018 83.9409C89.2051 83.4189 85.3817 82.9856 81.5427 82.6959C81.0222 82.6567 80.5016 82.5915 79.9811 82.5497C79.8926 82.5497 79.6896 82.5132 79.7208 82.6176C79.9108 83.0613 79.5386 82.8786 79.4215 82.8786C79.0478 82.8577 78.6757 82.8133 78.3075 82.7455C77.9666 82.6854 77.787 82.4845 77.8937 82.1791C77.9457 82.0478 77.9629 81.9053 77.9438 81.7654C77.9246 81.6254 77.8697 81.4928 77.7844 81.3804C77.7045 81.2098 77.6484 81.0288 77.6179 80.8428C77.1468 78.8957 76.7433 76.9277 76.3581 74.9702C76.181 74.0048 75.8928 73.0633 75.4993 72.1645C75.4442 71.961 75.3289 71.779 75.1687 71.6425C73.4093 72.6003 71.4833 73.1693 69.6666 73.9915C67.8499 74.8136 66.0228 75.5183 64.1671 76.2126C62.3113 76.9069 60.3645 77.3845 58.3292 77.9039C58.9583 78.3208 59.659 78.6172 60.3957 78.7782C62.3087 79.2637 64.2399 79.6735 66.1217 80.3286C69.0055 81.3387 71.8997 82.3279 74.9006 82.9621C75.861 83.1657 76.8084 83.3876 77.8 83.1892C78.0037 83.1409 78.2158 83.1409 78.4195 83.1892C78.6973 83.2648 78.9902 83.2648 79.268 83.1892C79.6662 83.0952 79.7156 83.1631 79.7156 83.6277C80.0042 83.6586 80.2955 83.6515 80.5823 83.6068C81.4134 83.5507 82.2473 83.5507 83.0783 83.6068C86.5061 83.8365 89.9052 84.335 93.2939 84.8805C97.8357 85.6113 102.385 86.256 106.966 86.684C110.3 86.9972 113.613 87.5035 116.924 88.0073C119.969 88.4719 123.017 88.9069 126.067 89.3123C129.326 89.7473 132.583 90.1901 135.838 90.6408L144.31 91.8023C144.45 91.8231 144.596 91.8623 144.703 91.7083C144.945 91.3586 145.338 91.2437 145.699 91.0949C147.087 90.5259 148.495 90.0196 149.924 89.5629C154.028 88.2578 158.195 87.1564 162.299 85.8514C170.334 83.2962 178.402 80.8663 186.554 78.7156C192.491 77.1496 198.412 75.5288 204.182 73.4042C207.641 72.1305 211.209 71.1805 214.708 70.0425C214.892 69.9799 215.072 69.9094 215.244 69.8468C215.21 69.6954 215.121 69.6849 215.043 69.6641C213.391 69.2386 211.743 68.7871 210.054 68.5261C208.039 68.2155 206.017 67.9441 204.021 67.5343C203.596 67.4433 203.155 67.4631 202.74 67.5917C197.483 69.1856 192.225 70.7768 186.968 72.3654C178.959 74.798 171.076 77.5855 163.218 80.4721C158.919 82.0382 154.593 83.552 150.366 85.3163C148.331 86.1672 146.324 87.0885 144.304 87.9733C144.017 88.0961 143.724 88.2024 143.425 88.2918C143.232 88.3492 142.993 88.3257 142.974 88.096C142.948 87.7776 142.735 87.8115 142.542 87.7698C142.35 87.728 142.134 87.6941 141.931 87.6471C137.004 86.517 132.064 85.4469 127.072 84.6247C123.026 83.96 118.957 83.478 114.865 83.1787C112.955 83.0378 111.044 82.9177 109.139 82.7664C106.297 82.5393 103.452 82.3383 100.605 82.2026C97.1303 82.0356 93.6713 81.7302 90.2097 81.3935C86.6492 81.0455 83.0922 80.6975 79.5387 80.3495C79.0546 80.3025 79.0545 80.3103 78.9765 80.8402C78.9062 81.2395 78.8515 81.6571 78.3856 81.8894ZM156.495 76.0978C155.147 75.9385 153.807 76.0821 152.485 75.9177C151.411 75.767 150.317 75.9626 149.361 76.4762C149.101 76.6145 148.825 76.7059 148.557 76.8181C147.079 77.4393 145.608 78.0788 144.096 78.6086C143.703 78.7469 143.289 78.9505 142.888 78.8696C142.256 78.7443 141.647 78.8696 141.028 78.8905C137.406 78.9524 133.784 78.8078 130.179 78.4572C127.837 78.2536 125.495 77.99 123.152 77.7812C120.456 77.5411 117.759 77.3375 115.063 77.1078C110.917 76.7581 106.771 76.364 102.622 76.0638C97.0991 75.6515 91.5657 75.4609 86.0246 75.5732C83.7368 75.6175 81.4464 75.688 79.1665 75.3565C78.7943 75.3043 78.7578 75.3409 78.8021 75.7115C78.9742 76.9728 79.0673 78.2438 79.0806 79.5169C79.0806 79.804 79.2003 79.864 79.4632 79.8405C79.837 79.8075 80.2127 79.8005 80.5875 79.8196C83.3932 79.9684 86.1911 80.2112 88.9891 80.4748C91.7011 80.7358 94.4131 81.0176 97.1355 81.1769C99.3791 81.31 101.625 81.4144 103.866 81.5736C108.291 81.8894 112.715 82.14 117.14 82.5315C120.084 82.7925 123.014 83.1605 125.934 83.612C130.419 84.3063 134.862 85.2119 139.315 86.068C140.705 86.329 142.084 86.6553 143.362 87.2974C143.602 87.42 143.755 87.2791 143.935 87.1877C146.506 85.9036 149.106 84.6873 151.785 83.6407C158.164 81.1508 164.595 78.8044 171.045 76.4997C171.586 76.304 171.646 76.411 171.565 75.7167C171.383 73.9941 171.195 72.2715 171.021 70.5489C171.025 70.4355 170.983 70.3253 170.906 70.2423C170.829 70.1592 170.723 70.1099 170.61 70.1052C169.34 69.8703 168.074 69.6214 166.813 69.3587C166.508 69.293 166.191 69.3297 165.909 69.4631C163.999 70.2905 162.086 71.11 160.183 71.9374C160.066 71.9896 159.882 71.9922 159.879 72.2219C160.92 72.5038 161.961 72.7439 163.002 73.0858C164.033 73.4129 165.038 73.8177 166.008 74.2969C165.986 74.326 165.955 74.3473 165.92 74.3577C165.885 74.368 165.847 74.3668 165.813 74.3543C163.58 73.7618 161.31 73.3311 159.067 72.7882C158.684 72.6892 158.278 72.7261 157.919 72.8927C156.316 73.5947 154.702 74.2655 153.096 74.9546C152.958 75.0146 152.753 75.0068 152.719 75.2443C154.003 75.3963 155.268 75.6824 156.493 76.0978H156.495ZM73.9402 65.9839C74.2734 66.164 74.4764 66.3937 74.8512 66.2188C76.9646 65.2322 79.1404 64.3918 81.3345 63.6088C89.0177 60.8631 96.7243 58.1896 104.454 55.5882C104.837 55.4577 105.279 55.4342 105.555 55.0662C105.619 55.0125 105.701 54.9862 105.784 54.9931C106.284 54.9693 106.775 54.8506 107.231 54.6434C114.779 51.9864 122.356 49.4834 130.039 47.2831C131.037 46.989 132.054 46.7683 133.084 46.6228C133.247 46.5879 133.414 46.58 133.579 46.5993C133.935 46.6776 133.933 46.6959 134.003 46.662C135.78 45.845 137.548 45.002 139.336 44.2112C144.021 42.1414 148.687 40.0351 153.299 37.8062C153.484 37.7148 153.752 37.6522 153.82 37.5008C153.984 37.1719 154.249 37.1354 154.538 37.1119C154.827 37.0701 155.105 36.9764 155.361 36.8352C160.826 34.2905 166.349 31.8344 171.971 29.629C174.332 28.7024 176.633 27.6193 179.04 26.8075C179.285 26.7584 179.503 26.6198 179.652 26.4187L177.291 26.6797C174.785 26.9279 172.298 27.3394 169.845 27.9116C167.294 28.5249 164.79 29.3079 162.26 29.9996C161.034 30.3302 159.804 30.6469 158.572 30.9496C158.507 30.9546 158.442 30.9736 158.384 31.0053C158.326 31.037 158.276 31.0807 158.236 31.1335C158.196 31.1864 158.168 31.2471 158.153 31.3117C158.138 31.3763 158.138 31.4433 158.151 31.5082C158.184 31.8607 158.272 32.2058 158.411 32.5313C158.635 33.1969 158.51 33.5597 157.89 33.8885C157.214 34.2588 156.572 34.6895 155.972 35.1753C155.406 35.6404 154.722 35.9394 153.997 36.0392C153.562 36.0936 153.137 36.2023 152.729 36.3628C151.753 36.7244 150.739 36.9773 149.708 37.1171C149.385 37.1693 148.971 37.0936 148.856 37.5713C148.833 37.6626 148.739 37.6469 148.651 37.6026C148.591 37.583 148.529 37.576 148.466 37.5818C148.404 37.5876 148.344 37.6063 148.289 37.6365C147.482 37.9106 146.631 38.0358 145.858 38.4195C145.733 38.4978 145.592 38.5452 145.445 38.5579C145.299 38.5707 145.151 38.5483 145.015 38.4926C144.912 38.4449 144.799 38.4239 144.686 38.4317C144.574 38.4394 144.465 38.4757 144.369 38.537C144.048 38.7117 143.694 38.8177 143.33 38.8483C142.966 38.8788 142.599 38.8333 142.253 38.7145C141.857 38.5818 141.43 38.5673 141.025 38.6727C140.725 38.7629 140.41 38.7922 140.098 38.7588C139.311 38.6264 138.503 38.793 137.831 39.226C137.611 39.3443 137.383 39.448 137.15 39.5366C136.304 39.9172 135.344 39.9546 134.471 39.641C134.306 39.5772 134.129 39.5518 133.953 39.5667C133.776 39.5816 133.606 39.6365 133.454 39.7271C133.053 39.95 132.631 40.1319 132.194 40.27C131.673 40.4214 131.153 40.4501 130.705 40.0978C130.588 40.0133 130.454 39.9544 130.312 39.9247C130.17 39.8951 130.024 39.8953 129.883 39.9255C129.368 40.0303 128.838 40.0365 128.321 39.9438C127.335 39.6828 126.432 39.8942 125.534 40.2726C125.457 40.3042 125.377 40.3304 125.297 40.3509C124.021 40.7372 122.788 41.2488 121.551 41.7369C120.609 42.1101 119.73 42.6373 118.798 43.0549C112.607 45.8389 106.458 48.71 100.352 51.668C94.8452 54.3354 89.4445 57.2195 83.971 59.9574C81.1081 61.3825 78.3518 62.9589 75.6424 64.6554C75.0182 65.0209 74.4449 65.4676 73.9376 65.9839H73.9402ZM156.826 61.359C157.037 61.3555 157.243 61.2951 157.422 61.1841C159.02 60.4794 160.621 59.7825 162.208 59.0569C166.581 57.0577 170.95 55.0488 175.316 53.0304C177.083 52.2083 178.933 51.5531 180.589 50.4856C180.661 50.4449 180.741 50.4183 180.823 50.4073C181.187 50.3313 181.538 50.2011 181.864 50.0211C184.583 48.7578 187.335 47.572 190.12 46.4636C193.155 45.2525 196.234 44.1511 199.242 42.8748C199.383 42.8148 199.568 42.8096 199.64 42.5929C198.696 42.5094 197.761 42.4442 196.835 42.3319C194.753 42.1022 192.691 41.9378 190.632 41.622C188.29 41.2618 185.948 40.9304 183.577 40.7111C180.013 40.3849 176.443 40.1265 172.874 39.8629C172.42 39.8197 171.963 39.9104 171.56 40.1239C168.733 41.5959 165.977 43.1959 163.174 44.7071C163.057 44.7697 162.888 44.7932 162.872 45.0229C166.3 46.0004 169.653 47.2215 172.908 48.6769C172.825 48.7094 172.734 48.7158 172.648 48.6952C169.423 47.9487 166.256 47.0091 163.122 45.9442C162.844 45.8581 162.576 45.7398 162.325 45.5919C162.206 45.5098 162.064 45.4675 161.92 45.4713C161.775 45.4751 161.636 45.5246 161.521 45.6127C160.553 46.1817 159.569 46.7272 158.593 47.2831C157.617 47.8391 157.669 47.8234 157.635 48.9118C157.613 49.0531 157.646 49.1975 157.726 49.3157C157.806 49.434 157.928 49.5172 158.067 49.5486C160.764 50.5954 163.405 51.7837 165.977 53.1087C166.237 53.2497 166.529 53.3697 166.828 53.5341C166.636 53.6516 166.508 53.5341 166.378 53.5054C165.11 53.1035 163.853 52.665 162.617 52.1717C161.089 51.561 159.572 50.9293 158.047 50.3186C157.609 50.1411 157.581 50.1594 157.555 50.6005C157.365 53.6829 156.862 56.7392 156.873 59.8373C156.886 60.3306 156.758 60.837 156.826 61.359ZM142.857 25.4399C143.172 25.5913 143.427 25.6852 143.656 25.8236C144.601 26.4152 145.718 26.6673 146.824 26.5387C147.115 26.5075 147.409 26.5368 147.688 26.6248C148.13 26.7606 148.516 27.126 149.039 26.9615C149.078 26.9485 149.156 27.0059 149.192 27.0503C149.346 27.2356 149.564 27.2199 149.765 27.2408C150.322 27.3163 150.889 27.2717 151.427 27.1102C151.966 26.9486 152.464 26.6737 152.888 26.3038C153.263 25.9749 153.619 25.6252 153.981 25.2807C154.107 25.1397 154.269 25.0355 154.449 24.9795C154.629 24.9234 154.821 24.9174 155.004 24.9623C155.228 25.0194 155.442 25.1072 155.642 25.2233C157.037 26.0376 158.473 25.7661 159.869 25.3094C161.053 24.9179 161.43 23.8478 160.871 22.7281C160.676 22.3637 160.454 22.0147 160.207 21.6841C160.03 21.45 159.922 21.1707 159.896 20.8781C159.87 20.5854 159.926 20.2913 160.059 20.0293C160.191 19.7686 160.307 19.5002 160.407 19.2254C160.769 18.0796 160.602 17.0435 159.712 16.1795C159.347 15.8381 158.95 15.5314 158.528 15.2634C157.993 14.8967 157.371 14.6796 156.724 14.6344C156.079 14.59 155.423 14.6083 154.791 14.6344C153.802 14.6527 152.813 14.6344 151.748 14.6344C152.245 14.3317 152.789 14.3029 153.388 14.0576C152.948 13.9114 152.641 13.7966 152.347 13.7079C151.565 13.4591 150.719 13.5036 149.968 13.8331C149.524 14.0158 149.112 14.2677 148.747 14.5796C148.322 14.9542 147.786 15.1797 147.222 15.2217C146.763 15.2573 146.322 15.4179 145.947 15.6863C145.674 15.879 145.361 16.0084 145.032 16.0653C144.703 16.1222 144.366 16.105 144.044 16.0151C143.379 15.8394 142.691 15.7612 142.004 15.7828C140.902 15.8304 139.799 15.7116 138.732 15.4305C137.196 15.0598 135.903 15.8376 135.432 17.3384C135.304 17.6601 135.288 18.0157 135.388 18.3474C135.487 18.6791 135.695 18.9674 135.978 19.1654C136.409 19.4979 136.888 19.7619 137.399 19.9484C138.097 20.2094 138.807 20.4521 139.51 20.7131C139.845 20.8254 140.172 20.9597 140.489 21.1151C140.822 21.29 141.181 21.4988 141.121 21.9529C141.061 22.407 140.65 22.488 140.283 22.5741C140.119 22.6106 139.955 22.6341 139.791 22.6576C139.378 22.722 138.983 22.8694 138.628 23.0909C137.594 23.7183 136.656 24.4938 135.846 25.3929C135.291 26.0141 135.364 26.2516 136.171 26.3978C137.584 26.6588 138.979 26.6797 140.335 26.0402C140.883 25.7373 141.479 25.5332 142.097 25.4373C142.3 25.4216 142.358 25.2755 142.454 25.1319C142.625 24.8568 142.853 24.6215 143.123 24.4415C143.392 24.2615 143.696 24.141 144.015 24.0879C144.401 23.996 144.798 23.9608 145.194 23.9835C145.517 24.009 145.842 23.9572 146.141 23.8325C146.44 23.7077 146.705 23.5134 146.915 23.2657C147.141 23.023 147.383 22.7907 147.623 22.561C147.999 22.1652 148.475 21.8784 149 21.7311C149.367 21.6805 149.709 21.5163 149.979 21.2613C150.249 21.0063 150.432 20.6732 150.504 20.3086C150.764 19.3873 151.787 18.7817 152.68 18.8392C153.425 18.8864 154.138 19.1588 154.726 19.6205C155.314 20.0822 155.748 20.7115 155.972 21.4257C156.03 21.5593 156.058 21.7039 156.054 21.8495C156.051 21.9951 156.016 22.1381 155.951 22.2687C155.897 22.2244 155.853 22.2087 155.845 22.18C155.434 20.6766 154.325 19.9589 152.919 19.57C152.635 19.4949 152.335 19.515 152.063 19.6274C151.805 19.7163 151.575 19.8712 151.396 20.0768C151.217 20.2824 151.094 20.5314 151.04 20.7993C150.868 21.6423 150.361 22.0912 149.528 22.2348C148.889 22.355 148.303 22.6736 147.854 23.1457C147.594 23.4067 147.334 23.6364 147.074 23.8739C146.835 24.1092 146.549 24.2914 146.235 24.4088C145.921 24.5261 145.586 24.576 145.252 24.5551C144.835 24.5247 144.417 24.5573 144.01 24.6517C143.541 24.7528 143.129 25.0302 142.857 25.4268V25.4399ZM188.181 68.3121C188.004 68.3956 187.92 68.3121 187.829 68.2755C184.558 67.1741 181.323 65.9918 177.939 65.2192C177.63 65.1726 177.331 65.0738 177.054 64.9269C176.986 64.8816 176.906 64.8558 176.824 64.8521C176.742 64.8484 176.661 64.8671 176.588 64.906C176.242 65.0548 175.901 65.2062 175.547 65.3445C175.36 65.4202 175.326 65.522 175.357 65.7281C175.823 68.7494 175.962 71.812 175.774 74.8632C179.657 73.5582 183.548 72.3028 187.468 71.1257C191.387 69.9485 195.307 68.8837 199.18 67.5995C203.053 66.3154 207.071 65.4619 211.02 64.23C210.849 64.1044 210.643 64.0351 210.431 64.0316C208.638 63.7863 206.858 63.4496 205.088 63.079C201.525 62.3273 197.943 61.6852 194.328 61.2337C192.452 60.9962 190.562 60.8291 188.712 60.4142C188.571 60.3763 188.423 60.3763 188.282 60.4142C186.905 60.8813 185.518 61.3224 184.186 61.9149C184.173 61.9149 184.167 61.9488 184.139 62.0089C184.92 62.1681 185.7 62.3195 186.463 62.4839C187.226 62.6483 187.967 62.8075 188.712 63.0059C189.456 63.2043 190.239 63.4183 190.992 63.6558C191.73 63.8577 192.446 64.1313 193.131 64.4727C192.733 64.4284 192.35 64.3318 191.97 64.2561C188.909 63.648 185.833 63.1364 182.765 62.5883C182.538 62.5549 182.306 62.5884 182.098 62.6849C181.382 62.9641 180.664 63.2486 179.951 63.5357C179.337 63.7811 178.725 64.0369 178.007 64.3187C181.541 65.4541 184.99 66.4903 188.181 68.299V68.3121ZM190.877 31.1089C190.617 31.0488 190.445 30.9992 190.263 30.9653C188.092 30.5634 185.901 30.3076 183.709 30.0675C181.455 29.8221 179.199 29.5872 177.002 28.9895C176.828 28.9425 176.679 28.9138 176.562 29.0913C176.534 29.1331 176.497 29.214 176.422 29.1435C176.187 28.9295 175.987 29.1435 175.794 29.2114C174.517 29.7151 173.246 30.2345 171.974 30.7539C171.825 30.8139 171.643 30.8244 171.526 31.0436C172.544 31.2727 173.538 31.6005 174.493 32.0224C173.4 31.8786 172.319 31.6606 171.255 31.3699C170.96 31.2726 170.64 31.2846 170.352 31.4038C169.184 31.9023 168.01 32.3721 166.833 32.8628C166.714 32.9124 166.534 32.9098 166.5 33.1525C168.449 33.4155 170.373 33.8345 172.255 34.4053C171.745 34.4359 171.234 34.4132 170.73 34.3374C168.948 34.2008 167.177 33.9497 165.428 33.5858C165.307 33.5572 165.181 33.5664 165.066 33.6119C164.759 33.7398 164.457 33.8729 164.147 34.006C164.069 34.0306 164.002 34.0824 163.958 34.1523C163.914 34.2221 163.896 34.3053 163.908 34.387C163.957 36.0131 163.809 37.6391 163.934 39.2626C164.004 40.1996 164.103 41.1339 164.166 42.0709C164.233 43.0836 164.223 43.0862 165.097 42.5929C168.562 40.6824 172.031 38.7849 175.625 37.1276C178.801 35.6659 181.968 34.1809 185.302 33.1003C186.944 32.5653 188.592 32.0563 190.211 31.4482C190.462 31.3966 190.693 31.2744 190.877 31.0958V31.1089ZM108.371 23.4928C107.804 23.149 107.174 22.9218 106.518 22.8247C105.792 22.7255 105.066 22.7255 104.397 23.1222C103.647 23.5633 102.898 24.007 101.974 23.9417C101.828 23.9419 101.682 23.963 101.542 24.0044C100.464 24.2393 99.3895 24.4716 98.3145 24.7221C97.8063 24.8401 97.321 25.0411 96.8779 25.3172C96.3573 25.6435 96.3573 25.9358 96.7894 26.3612C97.0671 26.6142 97.388 26.8149 97.7367 26.9537C98.3093 27.2147 98.8845 27.4444 99.4571 27.6923C99.9991 27.9095 100.507 28.203 100.967 28.5641C101.2 28.726 101.378 28.9546 101.48 29.2201C101.581 29.4855 101.6 29.7754 101.534 30.0518C101.391 30.6808 100.954 30.9235 100.368 30.9992C99.8491 31.0683 99.3615 31.2878 98.9652 31.6309C98.4759 32.0485 98.4603 32.286 98.947 32.6749C99.2964 32.907 99.5541 33.254 99.6758 33.6562C99.7141 33.7872 99.7875 33.9051 99.888 33.9971C99.9885 34.0891 100.112 34.1518 100.246 34.1782C100.799 34.3741 101.398 34.4049 101.969 34.267C102.721 34.0791 103.502 34.1547 104.251 33.959C104.28 33.9501 104.31 33.9476 104.34 33.9517C104.369 33.9558 104.398 33.9663 104.423 33.9825C104.683 34.1939 104.944 34.0712 105.204 34.0008C105.545 33.9068 105.878 33.7841 106.209 33.6588C106.382 33.5861 106.569 33.5546 106.757 33.5669C106.944 33.5791 107.126 33.6347 107.289 33.7293C107.453 33.8181 107.622 33.9016 107.786 33.9903C108.028 34.1363 108.305 34.2148 108.588 34.2175C108.871 34.2203 109.149 34.1473 109.394 34.006C109.688 33.852 109.99 33.7084 110.269 33.5257C110.878 33.1176 111.595 32.9029 112.328 32.9098C113.145 32.9179 113.948 32.6935 114.644 32.2625C114.812 32.1775 114.961 32.0599 115.083 31.9165C115.205 31.7731 115.297 31.6068 115.354 31.4273C115.391 31.3075 115.451 31.1966 115.533 31.1014C115.614 31.0062 115.713 30.9288 115.826 30.874C116.003 30.7669 116.185 30.6625 116.346 30.5399C117.267 29.8561 117.372 29.1174 116.692 28.1909C116.539 27.9917 116.357 27.8159 116.153 27.6689C114.641 26.5257 111.773 26.2881 110.29 28.1752C110.212 28.2718 110.115 28.3527 110.029 28.4362C109.815 28.6808 109.548 28.8728 109.249 28.9972C108.949 29.1217 108.625 29.1753 108.301 29.1539C107.281 29.107 106.263 29.1879 105.243 29.1774C105.07 29.1999 104.894 29.1737 104.735 29.1018C105.137 28.9232 105.569 28.8205 106.008 28.799C106.755 28.7442 107.499 28.6868 108.249 28.6476C108.54 28.6453 108.828 28.5822 109.094 28.4622C109.36 28.3422 109.598 28.168 109.792 27.9507C110.159 27.5215 110.585 27.1471 111.057 26.8389C111.164 26.771 111.271 26.7031 111.284 26.5622C111.307 26.2647 111.518 26.1472 111.75 26.0402C111.879 25.9711 111.997 25.8832 112.101 25.7792C112.403 25.4973 112.385 25.3224 112.028 25.1006C111.734 24.9423 111.413 24.8422 111.081 24.8057L109.118 24.4403C108.831 24.3901 108.557 24.2799 108.314 24.1166C107.929 23.8608 107.932 23.8321 108.358 23.4798L108.371 23.4928ZM52.9598 75.2051C52.33 74.9781 51.7704 74.7849 51.2186 74.5761C46.2995 72.6995 41.4272 70.7055 36.5498 68.7218C29.7229 65.9474 22.9558 63.0372 16.4126 59.6259C16.2868 59.5384 16.1326 59.5019 15.981 59.5237C15.8294 59.5454 15.6917 59.6239 15.5954 59.7434C13.8776 61.3224 12.1338 62.8754 10.3327 64.3579C10.2572 64.4205 10.1609 64.4753 10.1688 64.6189C10.2374 64.6541 10.3088 64.6838 10.3822 64.7076L19.1897 66.7669C21.4385 67.2889 23.721 67.6778 25.9359 68.3329C32.1434 70.16 38.4289 71.726 44.6754 73.3337C47.2104 73.9889 49.7403 74.6831 52.3117 75.1921C52.52 75.2703 52.7486 75.2749 52.9598 75.2051ZM133.011 37.0988C133.925 37.1008 134.823 36.8604 135.614 36.402C136.176 36.0841 136.774 35.8327 137.394 35.6529C137.723 35.548 138.071 35.5207 138.412 35.5732C138.753 35.6257 139.077 35.7566 139.359 35.9557C139.872 36.2836 140.29 36.7408 140.572 37.2816C140.801 37.7514 141.056 37.9993 141.613 37.8505C141.882 37.8106 142.157 37.8403 142.412 37.9367C142.967 38.0417 143.54 37.9939 144.07 37.7983C144.14 37.7848 144.205 37.7501 144.254 37.6987C144.304 37.6474 144.337 37.5819 144.349 37.5112C144.57 36.5786 144.943 35.6889 145.452 34.8777C145.549 34.7143 145.585 34.5224 145.556 34.3348C145.535 34.2131 145.535 34.0885 145.556 33.9668C145.798 33.1603 145.668 32.2938 145.91 31.5004C146.152 30.7069 145.322 30.0779 144.497 30.3598C144.285 30.447 144.083 30.5582 143.896 30.6913C143.646 30.8803 143.354 31.0057 143.045 31.0567C142.669 31.0892 142.314 31.2462 142.037 31.503C141.89 31.6372 141.713 31.7347 141.521 31.7877C141.328 31.8408 141.127 31.8478 140.931 31.8083C140.064 31.6371 139.165 31.7913 138.404 32.2416C138.24 32.3347 138.055 32.3836 137.867 32.3836C137.678 32.3836 137.493 32.3347 137.329 32.2416C137.032 32.0954 136.733 31.9441 136.423 31.824C135.882 31.5975 135.292 31.5141 134.71 31.5817C134.128 31.6494 133.572 31.8658 133.097 32.2103C132.779 32.3957 132.527 32.6781 132.38 33.0166C132.232 33.355 132.196 33.7318 132.277 34.0921C132.341 34.6719 132.374 35.2548 132.376 35.8382C132.397 36.1227 132.337 36.4307 132.04 36.5168C131.483 36.6786 130.939 36.9736 130.362 36.9501C129.717 36.925 129.074 37.0252 128.467 37.245C128.186 37.3236 127.894 37.3544 127.603 37.3364C127.034 37.3507 126.492 37.5789 126.083 37.9758C125.695 38.3282 125.752 38.5135 126.252 38.7223C126.549 38.8476 126.892 38.7458 127.158 38.9076C127.509 39.0891 127.897 39.1856 128.293 39.1895C128.417 39.1861 128.541 39.2139 128.652 39.2704C129.102 39.5679 129.565 39.4948 130.023 39.2965C130.189 39.2078 130.376 39.1669 130.563 39.1784C130.751 39.1899 130.932 39.2534 131.085 39.3617C131.232 39.4633 131.404 39.5245 131.582 39.5392C131.76 39.5538 131.939 39.5215 132.1 39.4453C132.525 39.2782 132.946 39.0955 133.355 38.8945C133.746 38.6857 134.203 38.6398 134.627 38.7667C135.616 39.0674 136.682 38.9671 137.597 38.4874C138.357 38.1194 139.128 37.8323 139.994 37.9654C140.02 37.9654 140.054 37.9236 140.14 37.8662C139.811 37.4165 139.409 37.0256 138.951 36.71C138.754 36.5714 138.526 36.4836 138.287 36.4545C138.048 36.4253 137.806 36.4557 137.582 36.5429C137.152 36.7047 136.728 36.8718 136.301 37.044C135.705 37.2916 135.081 37.4669 134.443 37.5661C134.183 37.6204 133.914 37.6046 133.662 37.5202C133.411 37.4358 133.186 37.2859 133.011 37.0858V37.0988ZM9.83821 64.9739C9.77314 64.9739 9.67424 64.9739 9.61438 65.0104C9.35411 65.2009 9.01315 65.3836 8.9637 65.7255C8.91945 66.0153 9.22396 66.1797 9.43477 66.3337C9.55853 66.4116 9.68626 66.483 9.8174 66.5477C10.8079 67.0379 11.8717 67.3624 12.9667 67.5082C14.4606 67.7692 15.9858 67.8579 17.4615 68.2155C22.7554 69.4944 28.0623 70.7211 33.2599 72.3707C36.6721 73.4512 40.2014 74.0802 43.6526 75.0172C45.3755 75.4844 47.1818 75.5888 48.9178 76.0325C50.1268 76.3421 51.3611 76.5422 52.6058 76.6302C53.6432 76.6999 54.6716 76.8686 55.677 77.1339C56.3355 77.3114 56.3329 77.2984 56.9107 76.9069C57.0435 76.8181 57.1554 76.7477 57.1137 76.5702C57.0721 76.3927 56.9003 76.4057 56.7624 76.4214C55.4324 76.5623 54.144 76.2883 52.8765 75.9673C45.9247 74.2055 38.9781 72.4229 32.0549 70.5645C29.0045 69.7476 25.988 68.8001 22.8986 68.1137C18.8826 67.2185 14.8666 66.3076 10.8897 65.2427C10.5435 65.1513 10.1948 65.0678 9.83821 64.9739ZM78.1878 79.851C78.2762 78.9939 78.2815 78.1303 78.2035 77.2723C78.0603 75.7976 77.8157 74.3386 77.5736 72.8796C77.4228 71.8523 77.1484 70.847 76.7563 69.8859C76.4961 69.3143 76.3373 68.701 75.874 68.2494C75.2839 67.6901 74.6125 67.2237 73.8829 66.8661C73.7943 66.7954 73.6851 66.7557 73.5719 66.7529C73.4587 66.75 73.3477 66.7843 73.2557 66.8505C73.0657 66.9888 72.8549 66.9079 72.8679 66.6599C72.8679 66.3285 72.6753 66.2345 72.4463 66.1379C71.5417 65.6979 70.5258 65.5415 69.5312 65.689C69.2475 65.7308 68.9899 65.7725 69.0107 66.1562C69.0167 66.1981 69.0074 66.2408 68.9844 66.2763C68.9614 66.3118 68.9264 66.3378 68.8858 66.3493C68.861 66.3577 68.8348 66.3607 68.8088 66.3582C68.7828 66.3558 68.7576 66.3479 68.7348 66.3352C68.712 66.3224 68.6921 66.305 68.6765 66.284C68.6608 66.2631 68.6496 66.2391 68.6437 66.2136C68.5292 65.8169 68.2585 65.8587 67.9514 65.9317C66.6478 66.2324 65.446 66.8714 64.4664 67.7848C63.4826 68.7166 62.4753 69.6119 61.4082 70.4549C60.4144 71.2502 59.6135 72.2613 59.0658 73.412C58.7336 74.1546 58.3355 74.8656 57.8763 75.5366C57.7801 75.674 57.7251 75.8361 57.7176 76.0038C57.6811 76.3979 57.9336 76.6067 58.3266 76.6302C58.8628 76.6641 59.1725 76.3979 59.4302 75.9751C59.8232 75.3382 60.2552 74.7275 60.6482 74.0881C62.0146 71.8591 63.7975 70.0086 65.7885 68.346C67.5402 66.8766 69.4844 66.78 71.5379 67.4455C72.5998 67.7875 73.4405 68.547 74.4009 69.0977C74.8381 69.3587 75.0333 69.8207 75.3509 70.1782C75.4784 70.3166 75.6112 70.4575 75.7283 70.5958C75.8558 70.733 75.9603 70.8899 76.038 71.0604C76.553 72.1543 76.9274 73.3093 77.152 74.4978C77.3316 75.4844 77.4851 76.4736 77.6725 77.4576C77.7761 78.272 77.9485 79.0762 78.1878 79.8614V79.851ZM106.266 47.8339C107.375 47.3119 108.483 46.7899 109.597 46.2861C109.646 46.2694 109.691 46.2432 109.729 46.209C109.767 46.1749 109.799 46.1334 109.821 46.087C109.843 46.0406 109.856 45.9903 109.859 45.9389C109.861 45.8875 109.854 45.8361 109.837 45.7876C109.642 44.788 109.548 43.7674 109.137 42.8122C108.895 42.2295 108.742 41.6136 108.684 40.9852C108.486 39.119 108.28 37.2528 108.233 35.3736C108.233 35.2196 108.317 34.9952 108.096 34.943C107.671 34.8464 107.315 34.5541 106.846 34.4549C106.94 36.3185 106.648 38.1089 106.586 39.9359C106.547 41.2984 106.367 42.619 105.654 43.851C105.122 44.7474 104.671 45.6899 104.306 46.6672C104.016 47.4605 103.766 48.268 103.556 49.0867C104.077 48.8492 104.48 48.6534 104.894 48.4759C104.989 48.441 105.071 48.3782 105.13 48.2959C105.189 48.2135 105.222 48.1153 105.225 48.014C105.446 46.4949 107.359 45.4039 108.788 45.9729C108.708 46.1431 108.594 46.2951 108.454 46.4199C108.313 46.5446 108.149 46.6394 107.971 46.6985C107.609 46.8603 107.242 47.0091 106.888 47.1814C106.739 47.2336 106.604 47.3212 106.496 47.4366C106.388 47.552 106.309 47.6918 106.266 47.8443V47.8339ZM149.179 36.5377C150.171 36.3386 151.149 36.077 152.107 35.7547C152.715 35.5374 153.347 35.398 153.989 35.3397C154.406 35.3112 154.807 35.1666 155.147 34.9221C155.879 34.3368 156.663 33.8212 157.49 33.3822C157.553 33.3574 157.611 33.3197 157.659 33.2714C157.707 33.2231 157.744 33.1653 157.768 33.1017C157.793 33.0381 157.804 32.9701 157.801 32.902C157.798 32.8339 157.78 32.7672 157.75 32.7062C157.626 32.4179 157.557 32.1089 157.547 31.7953C157.578 31.2733 157.258 30.994 156.849 30.8009C156.658 30.7124 156.444 30.6877 156.238 30.7305C156.032 30.7732 155.845 30.8811 155.704 31.0384C155.42 31.3129 155.163 31.6154 154.939 31.9415L153.638 33.7163C153.651 33.1713 153.766 32.6338 153.979 32.132C154.166 31.6282 154.551 31.2341 154.817 30.6756C154.126 30.8368 153.422 30.932 152.714 30.9601C152.63 30.9585 152.547 30.9773 152.472 31.0149C152.227 31.1324 151.959 31.191 151.687 31.186C151.416 31.181 151.15 31.1126 150.91 30.9862C150.692 30.8834 150.456 30.8266 150.216 30.8194C149.975 30.8122 149.736 30.8548 149.512 30.9444C149.377 30.9992 149.192 31.041 149.182 31.2054C149.153 31.6178 148.922 31.9884 149 32.4269C149.174 33.6035 149.213 34.7962 149.117 35.9818C149.074 36.1688 149.096 36.3649 149.179 36.5377ZM61.6372 74.4952C65.5595 72.8848 69.5469 71.4937 73.4795 69.6902C72.6311 69.0481 71.8476 68.4843 70.9263 68.2259C69.2918 67.764 67.7171 67.8188 66.3742 69.0638C65.6584 69.7293 64.9193 70.3688 64.2087 71.0396C63.1546 72.0314 62.3712 73.232 61.6372 74.4952ZM35.3499 79.7413C35.2094 79.8405 35.2614 79.9763 35.264 80.0911C35.3157 81.1353 35.294 82.1819 35.1989 83.2231C35.1495 83.7451 35.1651 83.7451 35.6909 83.7112C37.5128 83.6198 39.3347 83.5494 41.1748 83.6407C42.2159 83.6929 43.2569 83.7416 44.298 83.7869C44.7977 83.8078 44.8185 83.7999 44.8628 83.2962C44.9498 82.1958 45.1141 81.103 45.3547 80.0258C45.3854 79.8874 45.3815 79.7434 45.3433 79.6068C45.3052 79.4702 45.234 79.3452 45.1361 79.2428C44.7483 79.5769 44.3865 79.8849 44.0299 80.1981C43.5655 80.6147 43.0666 80.9911 42.5386 81.323C41.3153 82.0643 40.0192 82.1269 38.6944 81.7145C37.617 81.3845 36.6241 80.8234 35.7846 80.0702C35.6388 79.9528 35.5347 79.7857 35.3473 79.7413H35.3499ZM27.4976 80.5479C27.3778 80.7071 27.2529 80.8636 27.1384 81.0255C26.5398 81.8528 25.9411 82.6776 25.3451 83.5076C24.9146 84.1246 24.3872 84.6676 23.7835 85.1154C23.1748 85.5564 22.4746 85.8535 21.7352 85.9845C21.3864 86.0471 21.048 85.9062 20.655 85.9428C20.793 87.6445 20.4338 89.2731 20.3193 90.9566C20.5274 90.8598 20.7009 90.7012 20.8164 90.5024C21.87 89.2091 23.0961 88.0674 24.4602 87.1094C25.2105 86.5841 26.0067 86.1281 26.8391 85.747C27.0421 85.6583 27.1748 85.5617 27.1462 85.2876C27.1128 84.6429 27.1381 83.9964 27.2217 83.3562C27.305 82.4349 27.4377 81.5136 27.4949 80.5479H27.4976ZM57.4495 78.3241C56.9836 78.9975 56.9914 79.0654 57.5718 79.5613C57.8186 79.7547 58.0796 79.9292 58.3526 80.0833C58.6415 80.2607 58.9643 80.1746 59.2584 80.2607C59.5525 80.3469 59.6488 80.6862 59.9845 80.7827C61.1245 81.109 62.2411 81.5135 63.3967 81.7772C65.3072 82.193 67.1851 82.7469 69.0159 83.4345C69.7967 83.7321 70.5775 83.9565 71.3922 84.194C71.5286 84.2411 71.673 84.2602 71.817 84.2504C71.9609 84.2405 72.1014 84.2018 72.2302 84.1366C72.7285 83.8733 73.273 83.7093 73.8335 83.6538C73.9142 83.6538 73.9923 83.6172 73.9871 83.4893C73.8352 83.432 73.6806 83.3823 73.5238 83.3406C71.9489 82.9533 70.3955 82.4828 68.8701 81.9312C66.4444 81.122 64.0187 80.3051 61.4941 79.8431C60.1303 79.6458 58.8237 79.161 57.6603 78.4207C57.5933 78.3818 57.5227 78.3495 57.4495 78.3241ZM148.357 30.2998C148.336 29.5455 148.411 28.8825 148.453 28.2117C148.453 28.0499 148.518 27.8646 148.32 27.7733C147.981 27.5727 147.617 27.4166 147.238 27.3087C146.717 27.2199 146.657 27.3087 146.738 27.8098C146.949 29.1774 147.05 30.5399 146.478 31.8579C146.453 31.9381 146.442 32.022 146.446 32.1059C146.405 33.5858 145.98 34.9769 145.442 36.3315C145.348 36.5638 145.257 36.7961 145.181 37.0336C145.116 37.2267 144.986 37.4434 145.153 37.6235C145.358 37.8427 145.58 37.6522 145.777 37.5661C146.514 37.2265 147.296 36.9969 148.099 36.8848C148.581 36.8274 148.62 36.8039 148.57 36.3628C148.461 35.0578 148.555 33.7528 148.391 32.4478C148.302 31.7299 148.291 31.0045 148.357 30.2841V30.2998ZM34.806 79.7544C34.3505 80.1746 34.1266 80.634 33.7362 80.9472C33.3331 81.2798 32.8401 81.4843 32.3204 81.5344C31.8243 81.5958 31.3225 81.5958 30.8264 81.5344C30.3138 81.4493 29.8171 81.2865 29.3533 81.0516C28.9108 80.8349 28.6193 80.4173 28.117 80.1041C28.2732 81.8555 28.0337 83.4972 28.0285 85.1493C28.2583 85.1833 28.4928 85.1392 28.6948 85.024C29.3845 84.7891 30.082 84.5908 30.79 84.4185C31.7577 84.1753 32.7414 84.0009 33.7336 83.8965C33.9783 83.8704 34.2542 83.8756 34.2542 83.5102C34.3091 82.2426 34.494 80.984 34.806 79.7544ZM43.6812 93.1177C44.5144 92.6772 45.3855 92.313 46.2839 92.0293C47.8247 91.5961 49.4071 91.523 50.9688 91.5334C52.0489 91.5334 52.0619 91.5204 52.1946 90.4607C52.295 89.6579 52.4524 88.8633 52.6657 88.083C52.2129 88.3962 51.8849 88.6311 51.5335 88.866C50.6655 89.4842 49.6687 89.8965 48.6185 90.0718C47.0569 90.3093 45.602 90.0718 44.1939 89.0565C44.095 90.4268 43.918 91.7135 43.6812 93.1177ZM103.632 46.2209C103.856 46.1191 103.869 45.9599 103.931 45.8294C104.368 44.9524 104.787 44.0676 105.233 43.1933C105.461 42.7479 105.596 42.2601 105.628 41.7603C105.74 39.9907 105.821 38.2212 106.042 36.462C106.123 35.8278 106.128 35.1857 106.17 34.5097C105.68 34.5932 105.29 34.8281 104.85 34.8412C104.519 34.8412 104.441 35.0291 104.447 35.3293C104.447 35.8513 104.447 36.3733 104.407 36.8953C104.23 39.9881 104.041 43.0888 103.632 46.2209ZM66.3612 86.5039C65.6638 87.1693 64.7801 87.6047 63.8287 87.7515C62.8371 87.9264 61.8402 88.0464 60.872 87.715C60.3697 87.5427 60.4088 87.561 60.047 87.9551C59.894 88.1244 59.7936 88.3349 59.7581 88.5606C59.654 89.1113 59.5134 89.6568 59.4067 90.2075C59.3677 90.4216 59.2427 90.633 59.3208 90.8496C59.3755 90.8652 59.3963 90.8783 59.4145 90.8757C61.4362 90.4941 63.399 89.8473 65.2524 88.9521C65.3316 88.9272 65.404 88.8843 65.464 88.8268C65.524 88.7693 65.57 88.6988 65.5985 88.6206C65.7964 87.8977 66.0983 87.2191 66.3663 86.4987L66.3612 86.5039ZM53.2747 88.19C53.1993 89.1818 53.1264 90.0953 53.0665 91.0114C53.0379 91.429 53.0509 91.4421 53.4647 91.4421C54.7139 91.4696 55.9634 91.4015 57.2022 91.2385C58.4619 91.0506 58.1522 91.322 58.5036 90.0614C58.6025 89.7168 58.7638 89.3749 58.7248 89.0043C56.804 89.4428 55.029 89.1192 53.28 88.1848L53.2747 88.19ZM39.0302 97.8288C39.2184 97.6977 39.367 97.5171 39.4596 97.3068C40.1875 96.0871 41.1271 95.0078 42.2341 94.1199C42.3818 94.0099 42.5045 93.8698 42.5943 93.7087C42.684 93.5477 42.7386 93.3694 42.7546 93.1856C42.8773 92.2762 43.0722 91.3781 43.3376 90.4999C43.3766 90.3746 43.4781 90.2388 43.3636 90.0796C42.8223 90.6016 42.2913 91.1236 41.7526 91.6456C41.2479 92.1751 40.6378 92.5922 39.9619 92.8697C39.8246 92.9099 39.7036 92.9927 39.6161 93.1062C39.5287 93.2197 39.4794 93.358 39.4752 93.5014C39.3216 94.5115 39.2436 95.5294 39.1421 96.5473C39.116 96.9388 39.0848 97.3459 39.0354 97.8236L39.0302 97.8288ZM162.823 38.6257C162.638 38.8017 162.418 38.9354 162.177 39.0172C161.683 39.2339 161.185 39.4426 160.681 39.641C160.504 39.7089 160.405 39.7924 160.42 39.9986C160.475 40.7189 160.517 41.4393 160.569 42.2223C161.378 41.8566 162.213 41.5522 163.067 41.3114C163.413 41.2175 163.437 40.9721 163.406 40.6798C163.309 39.6213 163.265 38.5585 163.275 37.4956C163.304 37.3307 163.284 37.1613 163.218 37.0075C163.18 36.9937 163.139 36.9857 163.098 36.984C162.5 37.057 161.907 37.1686 161.323 37.3181C160.99 37.4121 160.519 37.2763 160.334 37.5452C160.15 37.814 160.314 38.2681 160.306 38.6414C160.306 38.704 160.306 38.7667 160.319 38.8293C160.319 39.0903 160.412 39.213 160.701 39.106C161.092 38.965 161.482 38.8449 161.888 38.7275C162.193 38.6518 162.471 38.4926 162.828 38.6205L162.823 38.6257ZM74.7106 70.9639C74.6961 70.8531 74.6426 70.7513 74.5597 70.6768C74.1511 70.1861 74.1458 70.1756 73.5888 70.4758C73.018 70.7729 72.4234 71.0218 71.8112 71.2196C68.1414 72.4464 64.6642 74.1533 61.0464 75.5079C60.682 75.6436 60.5467 75.9464 60.3645 76.3509C60.6404 76.2752 60.8174 76.2335 60.9892 76.1735C63.7298 75.2025 66.4809 74.2525 69.1486 73.0858C70.3858 72.5464 71.6412 72.0496 72.9147 71.5955L74.7106 70.9639ZM172.052 76.1343C173.171 75.748 174.207 75.3826 175.248 75.0407C175.542 74.9441 175.581 74.7797 175.493 74.5187C175.303 73.8592 175.193 73.1792 175.165 72.4933C175.136 72.1723 175.089 71.8512 175.05 71.5328C174.987 71.5325 174.924 71.5404 174.863 71.5563C173.947 72.1201 173.09 72.7857 172.125 73.2711C172.067 73.2952 172.019 73.337 171.986 73.3905C171.954 73.444 171.94 73.5064 171.945 73.5687C171.928 74.4251 171.962 75.2818 172.047 76.1343H172.052ZM45.9299 80.6366C45.8336 81.6675 45.7503 82.5941 45.6697 83.5076C45.6436 83.7686 45.779 83.8365 45.9976 83.8417C46.4739 83.8417 46.9528 83.873 47.4291 83.8626C48.6348 83.8452 49.8352 83.6999 51.0104 83.4293C51.2889 83.3614 51.4529 83.2544 51.4815 82.9491C51.5205 82.5393 51.5934 82.1295 51.6585 81.6806C49.4956 82.7611 47.6009 82.4479 45.9247 80.6366H45.9299ZM157.081 48.2723C157.019 48.2723 156.969 48.2567 156.94 48.2723L153.893 50.0994C153.827 50.1313 153.771 50.1791 153.729 50.2383C153.687 50.2975 153.66 50.3664 153.651 50.4387C153.586 51.1407 153.518 51.8402 153.453 52.5267C153.496 52.5509 153.544 52.5651 153.594 52.5683C153.643 52.5715 153.693 52.5635 153.739 52.5449C154.7 52.3805 155.637 52.083 156.602 52.0229C156.821 52.0073 156.891 51.9081 156.901 51.715C156.927 51.2765 156.943 50.838 156.993 50.4099C157.034 50.0785 156.974 49.841 156.618 49.7418C156.48 49.6936 156.35 49.6231 156.235 49.533C156.191 49.5078 156.157 49.4679 156.139 49.4203C156.121 49.3727 156.12 49.3202 156.136 49.272C156.18 49.1598 156.279 49.1389 156.396 49.1284C156.6 49.1049 156.8 49.2172 157.037 49.1284C157.104 48.8446 157.117 48.5506 157.076 48.2619L157.081 48.2723ZM174.613 65.7412L171.75 66.9627C171.714 66.9719 171.681 66.9887 171.652 67.0119C171.623 67.0352 171.599 67.0643 171.582 67.0974C171.566 67.1305 171.556 67.1668 171.555 67.2039C171.553 67.241 171.559 67.278 171.573 67.3124C171.693 68.0726 171.765 68.8398 171.786 69.6092C171.807 69.8963 171.968 69.9694 172.203 69.9225C172.363 69.8812 172.517 69.8188 172.661 69.7371C173.293 69.4213 173.915 69.0872 174.553 68.7897C174.642 68.7608 174.718 68.7004 174.766 68.6197C174.813 68.539 174.83 68.4435 174.813 68.3512C174.73 67.5134 174.686 66.6834 174.608 65.7308L174.613 65.7412ZM188.779 54.2336C188.036 54.5287 187.311 54.8687 186.609 55.2515C186.554 55.2819 186.51 55.3273 186.48 55.3823C186.45 55.4374 186.437 55.4998 186.442 55.5621C186.398 56.4365 186.354 57.3082 186.307 58.2374L188.441 57.4283C188.511 57.409 188.573 57.3667 188.617 57.308C188.66 57.2493 188.682 57.1777 188.68 57.1047C188.691 56.1598 188.811 55.228 188.774 54.2232L188.779 54.2336ZM160.592 45.0829L163.494 43.4725C163.543 43.4508 163.584 43.4135 163.61 43.3663C163.636 43.3191 163.645 43.2647 163.637 43.2115C163.538 42.6112 163.557 41.9926 163.377 41.3375C162.521 42.0553 161.688 42.6817 160.579 42.7339L160.592 45.0829ZM186.533 54.5155C187.314 54.3537 187.949 54.0222 188.615 53.8473C188.687 53.8311 188.749 53.7891 188.792 53.7294C188.834 53.6697 188.853 53.5965 188.844 53.5237C188.863 53.0461 188.878 52.571 188.897 52.0934C188.897 51.8794 188.847 51.7411 188.6 51.7202C188.001 51.6732 187.405 51.6106 186.807 51.5531C186.635 51.5349 186.523 51.5923 186.523 51.7828L186.533 54.5155ZM52.3768 82.9177C52.6246 82.931 52.8703 82.8662 53.0795 82.7324C53.5558 82.5262 54.0217 82.2992 54.4902 82.0773C55.4506 81.6232 55.4506 81.6232 55.5651 80.5844C55.5651 80.5531 55.5313 80.5139 55.5053 80.4617C54.7244 80.7488 53.9645 80.7018 53.3008 80.1198C53.2357 80.0624 53.1498 80.0023 53.0848 80.0676C52.8245 80.3286 52.4627 80.5583 52.4627 80.9576C52.4653 81.5997 52.3586 82.2391 52.3768 82.9177ZM171.927 72.5012C172.045 72.5253 172.169 72.5049 172.273 72.4437C172.971 72.1618 173.593 71.7312 174.274 71.4258C174.837 71.1648 175.076 70.8464 174.936 70.2304C174.852 69.8624 174.936 69.4474 174.772 69.0611L173.036 70.1913C173.337 70.4862 173.759 70.4523 174.144 70.8073C173.642 70.7002 173.283 70.6167 172.918 70.5462C172.473 70.4653 171.854 70.8073 171.854 71.1596C171.851 71.6137 171.901 72.0601 171.927 72.5012ZM163.434 34.3531C163.231 34.4262 163.093 34.4627 162.963 34.5202C162.182 34.8621 161.402 35.204 160.636 35.5642C160.16 35.7808 160.142 35.8434 160.191 36.3733C160.217 36.6343 160.314 36.7543 160.582 36.6995C161.053 36.6322 161.531 36.6181 162.005 36.6578C162.336 36.6578 162.666 36.6238 162.997 36.6108C163.153 36.6108 163.283 36.5821 163.296 36.3837C163.341 35.7181 163.385 35.0656 163.434 34.3531ZM72.8757 85.3712C72.7371 85.2584 72.5663 85.1928 72.388 85.1839C72.2097 85.175 72.0332 85.2232 71.8841 85.3216C71.2161 85.6648 70.5194 85.9486 69.8019 86.1698C68.9456 86.4308 68.0919 86.7075 67.181 86.4308C67.0404 86.3891 66.9207 86.4308 66.9207 86.59C66.9207 87.112 66.7359 87.6001 66.7698 88.19C68.8207 87.2295 70.7675 86.1777 72.8757 85.3712ZM187.603 50.5431L187.634 50.6736C187.996 50.6997 188.355 50.7336 188.717 50.7519C188.936 50.7519 188.923 50.5874 188.923 50.4439C188.923 49.841 188.923 49.238 188.923 48.6351C188.923 48.4811 188.98 48.3037 188.795 48.1366C188.217 48.3794 187.621 48.6143 187.036 48.8779C186.406 49.1624 186.406 48.9797 186.468 49.8357C186.468 49.9532 186.468 50.0967 186.604 50.1855C187.301 50.0602 187.944 49.6139 188.756 49.6635C188.462 50.1359 187.993 50.3029 187.603 50.5509V50.5431ZM170.815 67.3333L167.692 68.6879L167.713 68.8262L170.917 69.5701C170.932 68.8257 170.898 68.0811 170.815 67.3411V67.3333ZM73.5264 84.6377C74.7054 85.0919 76.5065 84.8831 77.2717 84.0896C76.3743 84.0067 75.4854 83.8487 74.6143 83.6172C74.5556 83.5983 74.4925 83.5982 74.4337 83.6169C74.3749 83.6356 74.3234 83.6722 74.2864 83.7216C74.0287 84.0453 73.7632 84.3611 73.5264 84.6456V84.6377ZM186.205 60.1036C186.679 59.8687 187.153 59.9522 187.322 59.438C187.379 59.2657 187.582 59.2788 187.762 59.3023C187.964 59.3502 188.173 59.3616 188.379 59.3362C188.558 59.2971 188.68 59.2083 188.678 59.0047V57.6005L188.558 57.5353C187.949 58.1245 187.228 58.5836 186.437 58.8847C186.379 58.91 186.331 58.9523 186.298 59.0059C186.265 59.0595 186.249 59.1219 186.252 59.1848C186.239 59.4693 186.224 59.7329 186.205 60.1244V60.1036ZM183.967 50.2455L183.99 50.3995C184.295 50.4178 184.597 50.4361 184.901 50.4491C185.833 50.4909 185.833 50.4882 185.747 49.5591C185.747 49.5434 185.724 49.5304 185.69 49.486C185.098 49.7042 184.522 49.965 183.967 50.2664V50.2455ZM57.5952 80.6026L56.3824 79.59V81.1795C56.8056 81.0302 57.2121 80.8369 57.5952 80.6026ZM37.3098 100.248C37.6273 100.342 37.8147 100.28 37.8303 99.9272C37.8785 99.7122 37.8855 99.4899 37.8511 99.2721C37.6077 99.5581 37.4236 99.89 37.3098 100.248ZM53.6599 17.4637C53.5871 17.5028 53.4647 17.5107 53.47 17.6412C53.47 17.7064 53.5402 17.7299 53.6053 17.7351C53.725 17.7351 53.8031 17.696 53.7849 17.5629C53.7719 17.5107 53.751 17.4376 53.6599 17.4637Z" fill="black" stroke="black" stroke-width="0.75"/>
        <path d="M75.0646 55.6168C74.9195 55.3634 74.8125 55.0899 74.7471 54.8051C72.6649 48.5567 70.843 42.2301 68.9795 35.9112C67.9383 32.2617 66.6335 28.693 65.0754 25.2336C64.6514 24.3048 64.2786 23.3534 63.9589 22.3835C63.8868 22.1662 63.8277 21.9448 63.7819 21.7205C63.7618 21.66 63.7644 21.5942 63.7894 21.5356C63.8143 21.4769 63.8598 21.4294 63.9172 21.4021C63.974 21.3746 64.0388 21.3687 64.0996 21.3855C64.1604 21.4023 64.2131 21.4407 64.2478 21.4935C64.3754 21.6573 64.4886 21.832 64.5861 22.0155C66.3664 25.5546 68.0269 29.1356 69.1487 32.9619C71.1423 39.7636 73.0137 46.5966 74.6299 53.4975C74.7731 54.1056 74.9371 54.7086 75.088 55.3245C75.1096 55.3711 75.1188 55.4225 75.1147 55.4738C75.1106 55.525 75.0934 55.5743 75.0646 55.6168Z" fill="black" stroke="black" stroke-width="0.75"/>
        <path d="M81.4725 15.1616C81.5688 15.3913 81.6651 15.6184 81.7588 15.8481C83.6431 20.5461 85.1423 25.3955 86.5556 30.2606C87.8127 34.5854 89.1817 38.8736 90.5403 43.1697C90.9477 44.4206 91.1772 45.7227 91.2222 47.0378C91.2506 47.3094 91.2149 47.5838 91.1181 47.8391C91.027 48.0322 90.8448 48.0453 90.7381 47.8652C90.6738 47.7575 90.6297 47.639 90.608 47.5154C89.9183 43.7022 88.3905 40.1343 87.339 36.4254C85.5015 29.9474 83.6484 23.4745 81.8733 16.9756C81.712 16.3779 81.5272 15.7854 81.3528 15.1903L81.4725 15.1616Z" fill="black" stroke="black" stroke-width="0.75"/>
        <path d="M91.1572 17.1191C91.3612 17.4953 91.5135 17.8974 91.6101 18.3145C92.9275 22.6464 93.9707 27.0574 94.7333 31.5212C95.2981 34.6846 95.8707 37.8453 96.2949 41.0321C96.5552 43.0184 96.727 45.015 96.5083 47.0352C96.4994 47.244 96.4518 47.4494 96.3678 47.6407C96.3514 47.6786 96.3246 47.711 96.2905 47.7342C96.2564 47.7573 96.2164 47.7701 96.1752 47.7712C96.1329 47.7689 96.0926 47.7529 96.0602 47.7256C96.0278 47.6983 96.0051 47.6612 95.9956 47.6198C95.9384 47.419 95.8974 47.2139 95.8733 47.0065C95.4724 41.2644 94.3741 35.6346 93.4397 29.9761C92.9192 26.8667 92.3986 23.7599 91.8781 20.6557C91.7011 19.6117 91.4643 18.5677 91.2014 17.5393C91.1423 17.4076 91.1267 17.2604 91.1572 17.1191Z" fill="black" stroke="black" stroke-width="0.75"/>
        <path d="M70.5568 20.9611C70.6594 21.139 70.7365 21.3305 70.7858 21.53C73.1777 28.4675 75.3249 35.4858 77.6283 42.452C78.2738 44.4121 78.9869 46.3513 79.4294 48.3741C79.6773 49.4735 79.822 50.5937 79.8614 51.7201C79.8872 51.9704 79.8588 52.2232 79.7781 52.4614C79.7443 52.5423 79.6975 52.6102 79.6038 52.6154C79.5619 52.6176 79.5204 52.6061 79.4856 52.5826C79.4509 52.559 79.4247 52.5247 79.4111 52.4849C79.3392 52.2897 79.2801 52.0901 79.2342 51.8872C78.8576 49.9208 78.3789 47.9754 77.8001 46.059C76.1916 40.9904 74.5831 35.9243 73.0814 30.8243C72.1618 27.7027 71.3306 24.5585 70.588 21.3917C70.5542 21.2534 70.4787 21.1177 70.5568 20.9611Z" fill="black" stroke="black" stroke-width="0.75"/>
        <path d="M77.3784 18.1108C77.5646 18.3397 77.698 18.6071 77.7688 18.8938C79.4606 23.4744 80.8322 28.1568 82.0997 32.8705C83.1287 36.6985 84.1507 40.5266 85.1657 44.3546C85.4482 45.4457 85.6226 46.5621 85.6863 47.6876C85.7193 47.9986 85.7131 48.3125 85.668 48.622C85.629 48.8125 85.668 49.1022 85.3895 49.1022C85.1579 49.1022 85.1631 48.8412 85.1293 48.6663C85.1052 48.5649 85.0878 48.4621 85.0772 48.3584C84.7415 45.8893 84.0049 43.5168 83.3777 41.1156C81.4959 33.9328 79.5126 26.7787 77.7532 19.5646C77.6413 19.1157 77.519 18.6589 77.3784 18.1108Z" fill="black" stroke="black" stroke-width="0.75"/>
        <path d="M46.9268 52.8502C46.1251 51.9733 45.3183 51.1067 44.449 50.2976C41.1566 47.2309 37.7366 44.3129 34.2256 41.5045C33.8664 41.22 33.5098 40.9329 33.1611 40.6353C33.0257 40.5231 32.7967 40.4109 32.9477 40.1916C33.0986 39.9724 33.2912 40.1081 33.4682 40.1916C33.6598 40.2714 33.8452 40.3656 34.0226 40.4735C34.439 40.7345 34.8659 41.0112 35.2563 41.3192C38.8324 44.1563 42.2627 47.1552 45.2741 50.6056C45.7946 51.185 46.2631 51.788 46.7524 52.383C46.8539 52.5057 46.9346 52.644 47.0127 52.7745L46.9268 52.8502Z" fill="black" stroke="black" stroke-width="0.75"/>
        <path d="M76.1161 90.8077C76.5456 91.3297 77.0036 91.8517 77.3993 92.4051C78.1384 93.4491 78.8464 94.4931 79.5621 95.5371C79.7517 95.8121 79.9089 96.1081 80.0306 96.4193C80.1042 96.5921 80.1363 96.7799 80.1243 96.9674C80.1262 97.0409 80.1048 97.1131 80.0632 97.1736C80.0216 97.2341 79.9619 97.2798 79.8927 97.3041C79.7183 97.3589 79.6168 97.2545 79.5439 97.1162C78.5627 95.3022 77.3368 93.6318 76.3946 91.7917C76.2082 91.4979 76.1114 91.1559 76.1161 90.8077Z" fill="black" stroke="black" stroke-width="0.75"/>
        <path d="M9.41397 80.6731C9.52328 79.0549 9.28905 77.575 9.52329 76.1082C9.52329 76.056 9.59096 76.0116 9.64822 75.9281C9.88767 77.4445 9.96053 78.9348 10.0568 80.4226C10.0829 80.861 9.79656 81.1038 9.59875 81.4013C9.58073 81.4276 9.55727 81.4497 9.52997 81.466C9.50266 81.4824 9.47215 81.4927 9.44053 81.4961C9.40891 81.4996 9.37693 81.4962 9.34674 81.4861C9.31655 81.4761 9.28889 81.4596 9.26563 81.4379C9.18009 81.379 9.1045 81.3067 9.04177 81.2238C8.15164 79.9684 7.19645 78.7574 6.4729 77.3793C7.61028 78.2693 8.37289 79.5038 9.41397 80.6731Z" fill="black" stroke="black" stroke-width="0.75"/>
        <path d="M90.6184 90.8757C89.2051 92.092 88.1406 93.5484 87.1308 95.0517C86.7751 95.5891 86.4544 96.1487 86.1704 96.7274C86.1093 96.8596 86.0397 96.9878 85.9622 97.111C85.9353 97.1538 85.8958 97.1872 85.8491 97.2063C85.8024 97.2255 85.751 97.2296 85.7019 97.218C85.652 97.2031 85.6076 97.1735 85.5747 97.133C85.5418 97.0925 85.5217 97.043 85.5171 96.991C85.4962 96.7615 85.5433 96.5308 85.6524 96.328C85.9262 95.7216 86.2574 95.143 86.6415 94.6002C87.6302 93.1558 88.8803 91.9101 90.3269 90.9279C90.3653 90.892 90.4133 90.868 90.465 90.8588C90.5167 90.8495 90.5699 90.8554 90.6184 90.8757Z" fill="black" stroke="black" stroke-width="0.75"/>
        <path d="M84.0492 90.7531C83.6504 92.462 83.3575 94.194 83.1721 95.9392C83.0831 96.5384 83.0892 97.148 83.1903 97.7453C83.2137 97.868 83.2476 98.0063 83.0862 98.0559C83.0244 98.0696 82.9599 98.0634 82.9019 98.038C82.844 98.0127 82.7955 97.9696 82.7634 97.915C82.5923 97.7023 82.5003 97.4365 82.5031 97.1633C82.5031 95.01 82.8832 92.935 83.88 91.001C83.9303 90.9144 83.9869 90.8315 84.0492 90.7531Z" fill="black" stroke="black" stroke-width="0.75"/>
        <path d="M12.7715 73.9575C12.7799 74.5608 12.7407 75.1639 12.6544 75.761C12.5828 76.9251 12.3766 78.0769 12.0401 79.1932C11.9817 79.4371 11.8706 79.6652 11.7148 79.8614C11.6851 79.9053 11.6403 79.9368 11.5889 79.9498C11.5376 79.9628 11.4833 79.9564 11.4363 79.9319C11.327 79.8666 11.3426 79.7674 11.3713 79.6709C11.5196 79.128 11.681 78.5903 11.8085 78.0422C12.1026 76.7659 12.3785 75.4844 12.6674 74.2055C12.683 74.1193 12.67 74.0254 12.7715 73.9575Z" fill="black" stroke="black" stroke-width="0.75"/>
        <path d="M145.809 59.7433C144.869 59.5971 143.95 59.451 143.029 59.3126C140.606 58.942 138.198 58.4722 135.762 58.1773C135.351 58.1251 134.937 58.0912 134.523 58.0363C134.359 58.0155 134.177 57.9659 134.177 57.7492C134.177 57.5326 134.354 57.4882 134.518 57.4491C134.859 57.3641 135.212 57.3463 135.559 57.3969C138.962 57.8228 142.32 58.5548 145.593 59.5841C145.676 59.6076 145.765 59.6076 145.809 59.7433Z" fill="black" stroke="black" stroke-width="0.75"/>
        <path d="M147.266 54.2676C147.386 54.2376 147.511 54.2376 147.631 54.2676C148.792 54.6407 149.977 54.9329 151.178 55.1419C151.1 55.3011 150.952 55.2411 150.835 55.2411C149.819 55.2624 148.805 55.1412 147.823 54.8809C147.493 54.7817 147.266 54.6199 147.287 54.2415L147.266 54.2676Z" fill="black" stroke="black" stroke-width="0.75"/>
        <path d="M147.844 70.5724C146.996 70.5123 146.15 70.4288 145.301 70.3975C141.397 70.254 137.493 69.9616 133.605 69.6745C132.465 69.591 131.325 69.5127 130.187 69.4135C129.982 69.3979 129.628 69.4657 129.638 69.1525C129.649 68.8393 130.003 68.8915 130.242 68.8628C131.217 68.8058 132.195 68.8233 133.167 68.915C135.487 69.089 137.806 69.2804 140.124 69.4892C142.61 69.7006 145.07 70.0373 147.547 70.3766C147.675 70.3949 147.808 70.4106 147.841 70.5593L147.844 70.5724Z" fill="black" stroke="black" stroke-width="0.75"/>
        <path d="M183.941 54.1657C182.439 53.9725 180.924 54.0169 179.423 53.8603C179.217 53.8444 179.011 53.8165 178.808 53.7768C178.647 53.7429 178.462 53.675 178.475 53.4688C178.488 53.2626 178.681 53.2313 178.848 53.2261C179.136 53.2261 179.428 53.2261 179.717 53.2261C181.166 53.3109 182.592 53.6281 183.941 54.1657Z" fill="black" stroke="black" stroke-width="0.75"/>
        <path d="M147.841 70.5724C148.024 70.53 148.213 70.5229 148.398 70.5515C148.211 70.6664 148.026 70.5515 147.844 70.5724H147.841Z" fill="black" stroke="black" stroke-width="0.75"/>
        <path d="M45.3313 34.7889C46.8908 36.2947 48.3335 37.9176 49.6466 39.6436C53.2268 44.2016 56.5362 48.967 59.5577 53.9151C60.2597 55.0521 60.8515 56.2538 61.3249 57.5039C61.4463 57.8136 61.5336 58.1357 61.5852 58.4644C61.606 58.6132 61.6086 58.7828 61.4577 58.8533C61.3067 58.9238 61.213 58.7567 61.1376 58.6393C61.1037 58.5871 61.0751 58.5297 61.0465 58.4749C59.3937 55.2358 57.4313 52.1847 55.396 49.1806C52.7048 45.2134 50.0604 41.2122 47.2703 37.3102C46.6483 36.4463 45.9742 35.6268 45.3313 34.7889Z" fill="black" stroke="black" stroke-width="0.75"/>
        <path d="M60.0731 46.9595C59.3573 45.3804 58.691 43.9006 57.9493 42.4546C55.4585 37.5974 53.0484 32.6984 50.3181 27.9664C50.0995 27.5879 49.9043 27.1964 49.7091 26.8049C49.6344 26.6558 49.5785 26.498 49.5425 26.3351C49.5239 26.2633 49.5309 26.1873 49.5623 26.1201C49.5936 26.0529 49.6474 25.9988 49.7143 25.9671C49.7703 25.9386 49.8332 25.9264 49.8958 25.932C49.9583 25.9375 50.0181 25.9605 50.0682 25.9984C50.2547 26.1327 50.4152 26.2999 50.542 26.4917C51.1723 27.3468 51.7378 28.248 52.2337 29.1879C55.1761 34.5634 57.713 40.1523 59.8232 45.9077C59.9221 46.1817 60.0184 46.4584 60.1095 46.735C60.1225 46.7664 60.0991 46.8107 60.0731 46.9595Z" fill="black" stroke="black" stroke-width="0.75"/>
        <path d="M192.605 72.843C191.624 72.6655 190.656 72.5559 189.688 72.4462C189.585 72.4341 189.482 72.4167 189.381 72.3941C189.253 72.3627 189.141 72.3001 189.159 72.1331C189.178 71.966 189.3 71.9321 189.42 71.9164C189.543 71.9007 189.668 71.9007 189.792 71.9164C190.774 72.0693 191.724 72.3823 192.605 72.843Z" fill="black" stroke="black" stroke-width="0.75"/>
        <path d="M125.083 46.2861L121.877 46.7089C118.514 47.1448 115.133 47.4423 111.776 47.92C111.159 48.0087 110.534 48.0348 109.912 48.0792C109.746 48.0954 109.579 48.0892 109.415 48.0609C109.241 48.0296 109.21 47.8521 109.347 47.7346C109.552 47.5917 109.789 47.502 110.037 47.4736C111.179 47.2428 112.334 47.0859 113.496 47.0038C115.859 46.7924 118.223 46.5836 120.589 46.4088C121.89 46.3096 123.191 46.2757 124.516 46.2182C124.708 46.186 124.905 46.2096 125.083 46.2861Z" fill="black" stroke="black" stroke-width="0.75"/>
        <path d="M133.542 43.0158C131.694 43.2429 129.852 43.4882 128.001 43.6892C125.52 43.9589 123.047 44.2799 120.583 44.6523C120.297 44.6967 120.006 44.7175 119.717 44.7515C119.566 44.7671 119.41 44.7828 119.36 44.6001C119.311 44.4174 119.438 44.3391 119.566 44.253C119.823 44.1142 120.099 44.0156 120.386 43.9606C121.36 43.748 122.348 43.5989 123.342 43.5143C126.421 43.1776 129.503 42.8853 132.608 42.9558C132.92 42.9558 133.23 42.9558 133.542 42.9558V43.0158Z" fill="black" stroke="black" stroke-width="0.75"/>
        <path d="M143.714 19.0061C144.001 18.7776 144.337 18.6198 144.696 18.5455C145.055 18.4712 145.426 18.4823 145.78 18.5781C146.125 18.6539 146.459 18.7695 146.777 18.9226C147.314 19.1943 147.869 19.4297 148.438 19.6273C148.834 19.7641 149.171 20.0355 149.39 20.3946C149.424 20.4285 149.443 20.4737 149.445 20.5213C149.447 20.569 149.431 20.6156 149.4 20.652C149.37 20.6884 149.326 20.7119 149.279 20.7179C149.232 20.7239 149.184 20.7119 149.145 20.6843C148.313 20.1623 147.285 20.1623 146.423 19.6403C145.599 19.1741 144.659 18.954 143.714 19.0061Z" fill="black" stroke="black" stroke-width="0.75"/>
        <path d="M101.313 26.9067C101.93 26.1863 102.685 25.8105 103.655 25.9384C103.82 25.9478 103.979 26.0012 104.117 26.0929C104.254 26.1847 104.364 26.3116 104.436 26.4604C104.512 26.63 104.392 26.818 104.262 26.7449C103.239 26.1394 102.281 26.5021 101.313 26.9067Z" fill="black" stroke="black" stroke-width="0.75"/>
        <path d="M143.508 33.5465L139.484 35.3918C139.389 35.4311 139.288 35.4549 139.185 35.4623C139.144 35.4688 139.102 35.4619 139.065 35.4427C139.028 35.4234 138.998 35.3928 138.979 35.3553C138.964 35.3164 138.961 35.2737 138.971 35.2331C138.981 35.1925 139.003 35.1558 139.034 35.1282C139.11 35.0506 139.198 34.9854 139.294 34.935C140.614 34.2512 141.983 33.6718 143.508 33.5465Z" fill="black" stroke="black" stroke-width="0.75"/>
        <path d="M154.091 34.1468C152.768 34.3095 151.426 34.0932 150.22 33.5231C150.09 33.4839 149.972 33.4128 149.876 33.3162C149.78 33.2196 149.71 33.1005 149.671 32.9697C149.627 32.7661 149.773 32.5991 149.931 32.6878C151.233 33.3952 152.662 33.6509 154.044 34.079C154.062 34.0842 154.07 34.1129 154.091 34.1468Z" fill="black" stroke="black" stroke-width="0.75"/>
    </g>
    <defs>
        <clipPath id="clip0">
            <rect width="218" height="108" fill="white"/>
        </clipPath>
    </defs>
</svg>
