<svg width="23" height="22" viewBox="0 0 23 22" fill="none" xmlns="http://www.w3.org/2000/svg">
    <rect x="0.845459" width="21.5727" height="21.5727" rx="10.7864" fill="black"/>
    <path d="M13.1644 4.1091C13.3242 4.1091 13.4695 4.1091 13.6293 4.1091C13.6438 4.1091 13.6584 4.1091 13.6729 4.1091C13.7891 4.1091 13.9198 4.1091 14.0361 4.1241C14.1523 4.1241 14.2685 4.13909 14.3847 4.13909C14.5736 4.15409 14.7624 4.16909 14.9513 4.18408C15.0384 4.19908 15.1256 4.19908 15.2128 4.21408C15.2128 4.97891 15.2128 5.74374 15.2128 6.49357C15.1982 6.49357 15.1837 6.49357 15.1692 6.49357C14.7769 6.49357 14.3847 6.49357 13.978 6.49357C13.8617 6.49357 13.7455 6.49357 13.6293 6.50857C13.484 6.52357 13.3533 6.55356 13.2225 6.59855C13.0046 6.68853 12.8594 6.8385 12.7722 7.06345C12.7432 7.13843 12.7141 7.22841 12.6996 7.31839C12.6705 7.46836 12.6705 7.60333 12.6705 7.7533C12.6705 8.32317 12.6705 8.87805 12.6705 9.44792C12.6705 9.50791 12.656 9.49291 12.7141 9.49291C13.455 9.49291 14.1813 9.49291 14.9222 9.49291C14.9367 9.49291 14.9367 9.49291 14.9513 9.49291C14.9803 9.49291 14.9803 9.49291 14.9803 9.5229C14.9658 9.68787 14.9367 9.83783 14.9222 10.0028C14.8932 10.1978 14.8786 10.4077 14.8496 10.6027C14.8205 10.8276 14.7915 11.0376 14.7624 11.2625C14.7334 11.5175 14.7043 11.7574 14.6753 12.0124C14.6753 12.0423 14.6753 12.0423 14.6462 12.0423C14.6317 12.0423 14.6317 12.0423 14.6171 12.0423C13.9925 12.0423 13.3533 12.0423 12.7286 12.0423C12.685 12.0573 12.685 12.0573 12.685 12.1173C12.685 14.2169 12.685 16.3314 12.685 18.4309C12.685 18.4459 12.685 18.4759 12.685 18.4909C11.8279 18.4909 10.9854 18.4909 10.1283 18.4909C10.1283 18.4759 10.1283 18.4459 10.1283 18.4309C10.1283 16.3164 10.1283 14.2169 10.1283 12.1023C10.1283 12.0423 10.1283 12.0573 10.0847 12.0573C9.41645 12.0573 8.76273 12.0573 8.09449 12.0573C8.03638 12.0573 8.03638 12.0723 8.03638 12.0124C8.03638 11.2025 8.03638 10.3777 8.03638 9.56789C8.03638 9.50791 8.03638 9.50791 8.09449 9.50791C8.76273 9.50791 9.41645 9.50791 10.0847 9.50791C10.1428 9.50791 10.1283 9.50791 10.1283 9.46292C10.1283 8.81806 10.1283 8.1732 10.1283 7.51335C10.1283 7.22841 10.1428 6.95847 10.1864 6.68853C10.23 6.3886 10.3171 6.10366 10.4333 5.83372C10.6077 5.4588 10.8401 5.12888 11.1452 4.85893C11.4502 4.58899 11.7844 4.40903 12.1621 4.28906C12.4671 4.19908 12.7722 4.13909 13.0773 4.1241C13.1209 4.1091 13.1354 4.1241 13.1644 4.1091Z" fill="white"/>
</svg>
