<svg width="29" height="29" viewBox="0 0 29 29" fill="none" xmlns="http://www.w3.org/2000/svg">
    <rect x="0.360229" width="28.0182" height="28.0182" rx="14.0091" fill="white"/>
    <path d="M16.3599 5.33691C16.5674 5.33691 16.7561 5.33691 16.9636 5.33691C16.9825 5.33691 17.0014 5.33691 17.0202 5.33691C17.1712 5.33691 17.341 5.33691 17.4919 5.35639C17.6428 5.35639 17.7938 5.37587 17.9447 5.37587C18.19 5.39535 18.4353 5.41482 18.6806 5.4343C18.7938 5.45378 18.907 5.45378 19.0202 5.47326C19.0202 6.4666 19.0202 7.45995 19.0202 8.43381C19.0013 8.43381 18.9824 8.43381 18.9636 8.43381C18.4541 8.43381 17.9447 8.43381 17.4164 8.43381C17.2655 8.43381 17.1146 8.43381 16.9636 8.45329C16.7749 8.47277 16.6051 8.51172 16.4353 8.57016C16.1523 8.68702 15.9636 8.88179 15.8504 9.17395C15.8127 9.27134 15.775 9.38821 15.7561 9.50507C15.7184 9.69984 15.7184 9.87514 15.7184 10.0699C15.7184 10.8101 15.7184 11.5307 15.7184 12.2709C15.7184 12.3488 15.6995 12.3293 15.775 12.3293C16.7372 12.3293 17.6806 12.3293 18.6428 12.3293C18.6617 12.3293 18.6617 12.3293 18.6806 12.3293C18.7183 12.3293 18.7183 12.3293 18.7183 12.3682C18.6994 12.5825 18.6617 12.7773 18.6428 12.9915C18.6051 13.2447 18.5862 13.5174 18.5485 13.7706C18.5108 14.0628 18.473 14.3355 18.4353 14.6276C18.3975 14.9587 18.3598 15.2704 18.3221 15.6015C18.3221 15.6404 18.3221 15.6404 18.2843 15.6404C18.2655 15.6404 18.2655 15.6404 18.2466 15.6404C17.4353 15.6404 16.6051 15.6404 15.7938 15.6404C15.7372 15.6599 15.7372 15.6599 15.7372 15.7378C15.7372 18.4647 15.7372 21.211 15.7372 23.9378C15.7372 23.9573 15.7372 23.9962 15.7372 24.0157C14.6241 24.0157 13.5297 24.0157 12.4166 24.0157C12.4166 23.9962 12.4166 23.9573 12.4166 23.9378C12.4166 21.1915 12.4166 18.4647 12.4166 15.7183C12.4166 15.6404 12.4166 15.6599 12.36 15.6599C11.4921 15.6599 10.643 15.6599 9.77512 15.6599C9.69965 15.6599 9.69965 15.6794 9.69965 15.6015C9.69965 14.5497 9.69965 13.4785 9.69965 12.4267C9.69965 12.3488 9.69965 12.3488 9.77512 12.3488C10.643 12.3488 11.4921 12.3488 12.36 12.3488C12.4354 12.3488 12.4166 12.3488 12.4166 12.2903C12.4166 11.4528 12.4166 10.6153 12.4166 9.75828C12.4166 9.38821 12.4354 9.03761 12.492 8.68702C12.5486 8.29747 12.6618 7.9274 12.8128 7.57681C13.0392 7.08988 13.3411 6.66137 13.7373 6.31078C14.1335 5.96019 14.5675 5.72646 15.058 5.57064C15.4542 5.45378 15.8504 5.37587 16.2467 5.35639C16.3033 5.33691 16.3221 5.35639 16.3599 5.33691Z" fill="black"/>
</svg>
