<svg width="22" height="22" viewBox="0 0 22 22" fill="none" xmlns="http://www.w3.org/2000/svg">
    <rect width="21.5727" height="21.5727" rx="10.7864" fill="black"/>
    <path d="M11.1547 4.1091C9.49562 4.1091 9.28154 4.1091 8.62147 4.14478C7.9614 4.18046 7.51541 4.2875 7.12293 4.43022C6.71262 4.59077 6.37366 4.80485 6.03471 5.14381C5.69575 5.48276 5.48167 5.83956 5.32112 6.23203C5.16056 6.62451 5.07136 7.0705 5.03568 7.73057C5.01784 8.39064 5 8.60472 5 10.2638C5 11.9408 5 12.137 5.03568 12.7971C5.07136 13.475 5.1784 13.921 5.32112 14.3134C5.48167 14.7238 5.69575 15.0627 6.03471 15.4017C6.37366 15.7406 6.73046 15.9547 7.12293 16.1153C7.51541 16.2758 7.9614 16.365 8.62147 16.4007C9.28154 16.4364 9.49562 16.4364 11.1547 16.4364C12.8317 16.4364 13.0279 16.4364 13.688 16.4007C14.348 16.365 14.794 16.2758 15.1865 16.1153C15.5968 15.9547 15.9358 15.7406 16.2747 15.4017C16.6137 15.0627 16.8278 14.7059 16.9883 14.3134C17.131 13.921 17.2381 13.475 17.2738 12.8149C17.3094 12.1548 17.3094 11.9408 17.3094 10.2817C17.3094 8.60472 17.3094 8.40848 17.2738 7.74841C17.2381 7.08834 17.131 6.64235 16.9883 6.24987C16.8278 5.83956 16.6137 5.5006 16.2747 5.16165C15.9358 4.82269 15.5968 4.60861 15.1865 4.44806C14.8119 4.2875 14.348 4.18046 13.7058 4.14478C13.0457 4.1091 12.8317 4.1091 11.1547 4.1091ZM10.6195 5.21517C10.7801 5.21517 10.9585 5.21517 11.1726 5.21517C12.8138 5.21517 13.0101 5.21517 13.6523 5.25085C14.2588 5.28652 14.58 5.37572 14.794 5.46492C15.0795 5.57196 15.2935 5.71468 15.5076 5.92876C15.7217 6.14283 15.8644 6.35691 15.9715 6.64235C16.0607 6.85642 16.1499 7.19538 16.1855 7.78409C16.2212 8.42632 16.2212 8.62256 16.2212 10.2638C16.2212 11.9051 16.2212 12.1013 16.1855 12.7435C16.1499 13.3501 16.0607 13.6712 15.9715 13.8853C15.8644 14.1707 15.7217 14.3848 15.5076 14.5989C15.2935 14.813 15.0973 14.9557 14.794 15.0627C14.58 15.1519 14.241 15.2411 13.6523 15.2768C13.0101 15.3125 12.8138 15.3125 11.1726 15.3125C9.5313 15.3125 9.33506 15.3125 8.69283 15.2768C8.08628 15.2411 7.76516 15.1519 7.55109 15.0627C7.26565 14.9557 7.05157 14.813 6.8375 14.5989C6.62342 14.3848 6.4807 14.1707 6.37366 13.8853C6.28446 13.6712 6.19526 13.3323 6.15958 12.7435C6.12391 12.1013 6.12391 11.9051 6.12391 10.2638C6.12391 8.62256 6.12391 8.42632 6.15958 7.78409C6.19526 7.17754 6.28446 6.85642 6.37366 6.64235C6.4807 6.35691 6.62342 6.14283 6.8375 5.92876C7.05157 5.71468 7.26565 5.57196 7.55109 5.46492C7.76516 5.37572 8.10412 5.28652 8.69283 5.25085C9.24586 5.23301 9.45994 5.21517 10.6195 5.21517ZM14.4551 6.24987C14.0448 6.24987 13.7236 6.58883 13.7236 6.9813C13.7236 7.37378 14.0626 7.71273 14.4551 7.71273C14.8654 7.71273 15.1865 7.37378 15.1865 6.9813C15.1865 6.57099 14.8654 6.24987 14.4551 6.24987ZM11.1547 7.10618C9.40642 7.10618 7.99708 8.51552 7.99708 10.2638C7.99708 12.0121 9.40642 13.4215 11.1547 13.4215C12.903 13.4215 14.3124 12.0121 14.3124 10.2638C14.3302 8.51552 12.903 7.10618 11.1547 7.10618ZM11.1547 8.21225C12.2965 8.21225 13.2063 9.12207 13.2063 10.2638C13.2063 11.4056 12.2965 12.3154 11.1547 12.3154C10.013 12.3154 9.10315 11.4056 9.10315 10.2638C9.10315 9.12207 10.0308 8.21225 11.1547 8.21225Z" fill="white"/>
</svg>