<svg width="29" height="29" viewBox="0 0 29 29" fill="none" xmlns="http://www.w3.org/2000/svg">
    <rect width="28.0182" height="28.0182" rx="14.0091" fill="white"/>
    <path d="M14.6646 5.33691C12.5098 5.33691 12.2318 5.33691 11.3745 5.38325C10.5172 5.42959 9.93797 5.56861 9.42824 5.75397C8.89533 5.9625 8.4551 6.24054 8.01487 6.68077C7.57465 7.121 7.29661 7.58439 7.08808 8.09413C6.87955 8.60387 6.7637 9.18312 6.71736 10.0404C6.69419 10.8977 6.67102 11.1757 6.67102 13.3305C6.67102 15.5085 6.67102 15.7634 6.71736 16.6206C6.7637 17.5011 6.90272 18.0804 7.08808 18.5901C7.29661 19.123 7.57465 19.5632 8.01487 20.0035C8.4551 20.4437 8.9185 20.7217 9.42824 20.9302C9.93797 21.1388 10.5172 21.2546 11.3745 21.301C12.2318 21.3473 12.5098 21.3473 14.6646 21.3473C16.8426 21.3473 17.0975 21.3473 17.9548 21.301C18.812 21.2546 19.3913 21.1388 19.901 20.9302C20.4339 20.7217 20.8742 20.4437 21.3144 20.0035C21.7546 19.5632 22.0327 19.0998 22.2412 18.5901C22.4265 18.0804 22.5656 17.5011 22.6119 16.6438C22.6582 15.7865 22.6582 15.5085 22.6582 13.3537C22.6582 11.1757 22.6582 10.9209 22.6119 10.0636C22.5656 9.20628 22.4265 8.62704 22.2412 8.1173C22.0327 7.58439 21.7546 7.14417 21.3144 6.70394C20.8742 6.26371 20.4339 5.98567 19.901 5.77714C19.4145 5.56861 18.812 5.42959 17.9779 5.38325C17.1206 5.33691 16.8426 5.33691 14.6646 5.33691ZM13.9695 6.77345C14.1781 6.77345 14.4098 6.77345 14.6878 6.77345C16.8194 6.77345 17.0743 6.77345 17.9084 6.81979C18.6962 6.86613 19.1132 6.98198 19.3913 7.09783C19.762 7.23684 20.04 7.4222 20.3181 7.70024C20.5961 7.97828 20.7815 8.25632 20.9205 8.62704C21.0364 8.90508 21.1522 9.3453 21.1985 10.1099C21.2449 10.944 21.2449 11.1989 21.2449 13.3305C21.2449 15.4622 21.2449 15.717 21.1985 16.5511C21.1522 17.3389 21.0364 17.756 20.9205 18.034C20.7815 18.4047 20.5961 18.6828 20.3181 18.9608C20.04 19.2388 19.7852 19.4242 19.3913 19.5632C19.1132 19.6791 18.673 19.7949 17.9084 19.8413C17.0743 19.8876 16.8194 19.8876 14.6878 19.8876C12.5562 19.8876 12.3013 19.8876 11.4672 19.8413C10.6794 19.7949 10.2624 19.6791 9.98431 19.5632C9.6136 19.4242 9.33556 19.2388 9.05752 18.9608C8.77948 18.6828 8.59412 18.4047 8.4551 18.034C8.33925 17.756 8.2234 17.3157 8.17706 16.5511C8.13072 15.717 8.13072 15.4622 8.13072 13.3305C8.13072 11.1989 8.13072 10.944 8.17706 10.1099C8.2234 9.32213 8.33925 8.90508 8.4551 8.62704C8.59412 8.25632 8.77948 7.97828 9.05752 7.70024C9.33556 7.4222 9.6136 7.23684 9.98431 7.09783C10.2624 6.98198 10.7026 6.86613 11.4672 6.81979C12.1855 6.79662 12.4635 6.77345 13.9695 6.77345ZM18.9511 8.1173C18.4182 8.1173 18.0011 8.55753 18.0011 9.06727C18.0011 9.577 18.4413 10.0172 18.9511 10.0172C19.484 10.0172 19.901 9.577 19.901 9.06727C19.901 8.53436 19.484 8.1173 18.9511 8.1173ZM14.6646 9.22945C12.394 9.22945 10.5636 11.0599 10.5636 13.3305C10.5636 15.6012 12.394 17.4316 14.6646 17.4316C16.9353 17.4316 18.7657 15.6012 18.7657 13.3305C18.7889 11.0599 16.9353 9.22945 14.6646 9.22945ZM14.6646 10.666C16.1475 10.666 17.3292 11.8477 17.3292 13.3305C17.3292 14.8134 16.1475 15.9951 14.6646 15.9951C13.1818 15.9951 12.0001 14.8134 12.0001 13.3305C12.0001 11.8477 13.2049 10.666 14.6646 10.666Z" fill="black"/>
</svg>
