<svg width="22" height="22" viewBox="0 0 22 22" fill="none" xmlns="http://www.w3.org/2000/svg">
    <rect x="0.427246" width="21.5727" height="21.5727" rx="10.7864" fill="black"/>
    <path d="M11.9809 14.0679C11.2644 14.0148 10.9574 13.6434 10.3945 13.2897C10.0874 14.9876 9.69508 16.6147 8.56925 17.4636C8.22809 14.8992 9.08099 12.9714 9.47333 10.9374C8.79101 9.75247 9.55862 7.36483 10.9915 7.94848C12.7655 8.67361 9.45627 12.37 11.6738 12.8299C13.9937 13.3074 14.9319 8.67361 13.499 7.17029C11.435 4.95951 7.47754 7.09954 7.95516 10.2123C8.07457 10.9728 8.84218 11.2027 8.26221 12.2639C6.93168 11.9632 6.53935 10.8667 6.59052 9.43412C6.67581 7.06417 8.63748 5.41935 10.6162 5.18943C13.1067 4.88877 15.4607 6.1268 15.7848 8.56749C16.143 11.3089 14.659 14.2801 11.9809 14.0679Z" fill="white"/>
</svg>
