<svg width="23" height="22" viewBox="0 0 23 22" fill="none" xmlns="http://www.w3.org/2000/svg">
    <rect x="0.636475" width="21.5727" height="21.5727" rx="10.7864" fill="black"/>
    <path d="M8.94568 15.4148C13.9907 15.4148 16.7464 11.4688 16.7464 8.03123C16.7464 7.92422 16.7464 7.80383 16.7323 7.69683C17.2693 7.33568 17.7357 6.86752 18.1031 6.35923C17.6085 6.55987 17.0856 6.707 16.5345 6.77388C17.0997 6.45286 17.5378 5.94458 17.7357 5.34266C17.2128 5.63693 16.6192 5.85094 15.9974 5.97133C15.5028 5.46304 14.7821 5.1554 13.9907 5.1554C12.4786 5.1554 11.2492 6.31911 11.2492 7.75033C11.2492 7.95097 11.2774 8.15161 11.3198 8.33887C9.0446 8.23186 7.02376 7.20192 5.6671 5.62355C5.42686 6.01146 5.29967 6.45286 5.29967 6.92102C5.29967 7.81721 5.78016 8.61977 6.51501 9.07455C6.06279 9.06117 5.63884 8.94079 5.27141 8.75353C5.27141 8.76691 5.27141 8.78028 5.27141 8.78028C5.27141 10.0376 6.21824 11.0809 7.47597 11.3217C7.24986 11.3752 7.00963 11.4153 6.75525 11.4153C6.58567 11.4153 6.40195 11.402 6.2465 11.3752C6.5998 12.4052 7.60316 13.1542 8.80436 13.181C7.87167 13.8765 6.68459 14.2912 5.39859 14.2912C5.17249 14.2912 4.96051 14.2778 4.74854 14.251C5.96387 14.9867 7.40532 15.4148 8.94568 15.4148Z" fill="white"/>
</svg>
