<svg width="29" height="29" viewBox="0 0 29 29" fill="none" xmlns="http://www.w3.org/2000/svg">
    <rect x="0.0518799" width="28.0182" height="28.0182" rx="14.0091" fill="white"/>
    <path d="M10.8436 20.0204C17.396 20.0204 20.975 14.8956 20.975 10.4309C20.975 10.2919 20.975 10.1355 20.9566 9.99655C21.6541 9.5275 22.2598 8.91947 22.737 8.25932C22.0946 8.5199 21.4155 8.71099 20.6997 8.79786C21.4338 8.38092 22.0028 7.72078 22.2598 6.93902C21.5807 7.32121 20.8098 7.59916 20.0022 7.75551C19.3598 7.09536 18.4238 6.6958 17.396 6.6958C15.4321 6.6958 13.8353 8.2072 13.8353 10.066C13.8353 10.3266 13.872 10.5872 13.927 10.8304C10.972 10.6914 8.3474 9.35378 6.58541 7.30383C6.27339 7.80763 6.1082 8.38092 6.1082 8.98896C6.1082 10.1529 6.73224 11.1952 7.68665 11.7859C7.09932 11.7685 6.5487 11.6122 6.0715 11.369C6.0715 11.3864 6.0715 11.4037 6.0715 11.4037C6.0715 13.0367 7.30122 14.3918 8.93473 14.7045C8.64106 14.774 8.32905 14.8261 7.99868 14.8261C7.77843 14.8261 7.53982 14.8087 7.33792 14.774C7.79677 16.1116 9.09992 17.0845 10.66 17.1192C9.44865 18.0226 7.9069 18.5611 6.23668 18.5611C5.94301 18.5611 5.66771 18.5438 5.3924 18.509C6.97085 19.4645 8.84296 20.0204 10.8436 20.0204Z" fill="black"/>
</svg>
