<svg width="29" height="29" viewBox="0 0 29 29" fill="none" xmlns="http://www.w3.org/2000/svg">
    <rect x="0.743774" width="28.0182" height="28.0182" rx="14.0091" fill="white"/>
    <g clip-path="url(#clip0)">
        <path d="M24.5883 9.1896C24.4745 8.7676 24.2519 8.38285 23.9427 8.07379C23.6336 7.76474 23.2487 7.54219 22.8266 7.4284C21.261 7 15.0014 7 15.0014 7C15.0014 7 8.73897 7 7.17337 7.4116C6.75166 7.53165 6.36801 7.75833 6.05944 8.06977C5.75087 8.3812 5.52778 8.76688 5.41171 9.1896C5 10.7548 5 14 5 14C5 14 5 17.262 5.41171 18.8104C5.52604 19.2321 5.74882 19.6166 6.05788 19.9256C6.36693 20.2346 6.75151 20.4573 7.17337 20.5716C8.75578 21 15.0154 21 15.0154 21C15.0154 21 21.275 21 22.8406 20.5884C23.2625 20.4741 23.6471 20.2514 23.9561 19.9424C24.2652 19.6334 24.488 19.2489 24.6023 18.8272C25.014 17.262 25.014 14.0168 25.014 14.0168C25.014 14.0168 25.0168 10.7548 24.5883 9.1896Z" fill="black"/>
        <path d="M18.2138 14L13.0073 11.0012V16.9988L18.2138 14Z" fill="white"/>
    </g>
    <defs>
        <clipPath id="clip0">
            <rect width="20" height="14" fill="white" transform="translate(5 7)"/>
        </clipPath>
    </defs>
</svg>
