<svg width="21" height="18" viewBox="0 0 21 18" fill="none" xmlns="http://www.w3.org/2000/svg">
    <path d="M20 6.27319C20 7.25153 19.4679 8.36964 18.452 9.34798C16.3718 11.3512 14.2916 13.4011 12.2599 15.451C11.8245 15.8702 11.3891 16.3361 10.9053 16.7554C10.5667 17.0815 10.3248 17.0815 10.0346 16.7554C7.51902 14.2397 4.9551 11.7705 2.43955 9.20822C-0.317872 6.41296 1.08503 1.94054 4.9551 1.10197C6.59988 0.775852 8.09953 1.24173 9.35731 2.35983C9.69594 2.68595 10.0346 3.01206 10.3248 3.33817C10.47 3.47794 10.5667 3.47794 10.6635 3.33817C10.9053 3.05865 11.1956 2.82571 11.4375 2.59277C12.8887 1.14855 15.0173 0.682677 16.8556 1.38149C18.7906 2.12689 20 3.85064 20 6.27319ZM19.0325 5.85391C19.0325 4.22334 18.0166 2.82571 16.4686 2.22007C15.0173 1.66102 13.3725 2.03372 12.2115 3.19841C11.7761 3.57111 11.3891 3.9904 10.9537 4.40969C10.6635 4.68921 10.4216 4.68921 10.0829 4.40969C9.59918 3.94381 9.1638 3.47794 8.68004 3.05865C7.66415 2.08031 6.40638 1.70761 5.00348 2.08031C1.95579 2.82571 0.988277 6.45955 3.21357 8.64916C5.58399 10.9785 7.90603 13.2613 10.2764 15.5907C10.47 15.7771 10.5667 15.8237 10.7602 15.5907C13.1306 13.2613 15.501 10.932 17.8715 8.60258C18.6455 7.85717 19.0325 6.92542 19.0325 5.85391Z" fill="#929292" stroke="#929292" stroke-miterlimit="10"/>
</svg>
