<svg version="1.1" id="Ebene_1" xmlns="http://www.w3.org/2000/svg" xmlns:xlink="http://www.w3.org/1999/xlink" x="0px" y="0px"
     width="30px" height="30px" viewBox="0 0 30 30" style="enable-background:new 0 0 30 30;" xml:space="preserve">
<style type="text/css">
	.st0{fill-rule:evenodd;clip-rule:evenodd;fill:#929292;}
</style>
    <path class="st0" d="M15,3.6C8.7,3.6,3.6,8.7,3.6,15S8.7,26.4,15,26.4c6.1,0,11.4-4.7,11.4-11.4C26.4,8.7,21.3,3.6,15,3.6z M15,25
	c-2.5,0-4.8-0.9-6.5-2.5c3.1-5.7,10.4-5.2,13.1,0C19.8,24,17.5,25,15,25z M11.7,13.7c0-1.8,1.5-3.3,3.3-3.3c1.8,0,3.3,1.5,3.3,3.3
	S16.8,17,15,17C13.2,17,11.7,15.5,11.7,13.7z M22.6,21.5c-1-1.9-2.7-3.3-4.8-4c1.2-0.9,1.9-2.2,1.9-3.8c0-2.6-2.1-4.7-4.7-4.7
	c-2.6,0-4.7,2.1-4.7,4.7c0,1.6,0.8,2.9,1.9,3.8c-2,0.7-3.7,2.1-4.8,4C5.9,19.7,5,17.5,5,15C5,9.5,9.5,5,15,5c5.5,0,10,4.4,10,10
	C25,17.5,24.1,19.7,22.6,21.5z"/>
</svg>
