<svg width="26" height="15" viewBox="0 0 26 15" fill="none" xmlns="http://www.w3.org/2000/svg">
    <path d="M25.8094 7.65957C25.7298 7.5 25.7298 7.34043 25.6501 7.18085C25.4111 6.46277 25.0128 5.90426 24.4552 5.34574L20.7909 1.35638C20.4723 0.957447 19.9943 0.638298 19.5164 0.398936H19.4367C18.9588 0.159574 18.4012 0.0797872 17.8436 0.0797872C16.808 0.0797872 15.8521 0.478723 15.1352 1.19681C14.8165 1.51596 14.5776 1.83511 14.4182 2.23404C14.0199 1.91489 13.542 1.75532 13.064 1.75532C12.5064 1.75532 12.0285 1.91489 11.7098 2.23404C11.5505 1.83511 11.2319 1.51596 10.9929 1.19681C10.1963 0.398936 9.24041 0 8.20485 0C7.64724 0 7.08963 0.159574 6.61168 0.319149H6.53202C6.05406 0.558511 5.65577 0.957447 5.25748 1.35638L1.59317 5.42553C1.11522 5.90426 0.716929 6.54255 0.398294 7.18085C0.318635 7.42021 0.238976 7.73936 0.159317 7.97872C0.0796587 8.45745 0 8.85638 0 9.33511C0 10.9309 0.63727 12.367 1.67283 13.3245C2.7084 14.3617 4.14225 15 5.65577 15C7.16929 15 8.44383 14.4415 9.47939 13.484C10.1167 12.8457 10.6743 12.1277 10.9929 11.25C11.5505 11.7287 12.2674 12.0479 12.9844 12.0479C13.781 12.0479 14.4182 11.7287 14.9758 11.25C15.2945 12.1277 15.7724 12.8457 16.4894 13.4043C17.5249 14.3617 18.8791 14.9202 20.313 14.9202C21.9062 14.9202 23.34 14.2819 24.2959 13.2447C25.2518 12.2872 25.8094 11.0904 25.9688 9.65426C26.0484 9.01596 25.9688 8.29787 25.8094 7.65957ZM5.65577 13.3245C3.50498 13.3245 1.67283 11.5691 1.67283 9.33511C1.67283 7.18085 3.42533 5.34574 5.65577 5.34574C7.88622 5.34574 9.63871 7.10106 9.63871 9.33511C9.63871 11.4894 7.88622 13.3245 5.65577 13.3245ZM10.8336 4.06915C10.7539 4.86702 10.6743 5.66489 10.5946 6.38298C9.55905 4.78723 7.7269 3.67021 5.65577 3.67021C5.33714 3.67021 5.0185 3.67021 4.69987 3.75L6.13372 2.15426L6.21338 2.07447C6.3727 1.83511 6.69133 1.59574 7.08963 1.43617H7.16929C7.48792 1.2766 7.88622 1.19681 8.28451 1.19681C9.00144 1.19681 9.71837 1.51596 10.1963 1.99468C10.6743 2.4734 10.9929 3.19149 10.9929 3.90957C10.8336 3.90957 10.8336 3.98936 10.8336 4.06915ZM13.7013 9.89362C13.542 10.0532 13.303 10.2128 12.9844 10.2128C12.7454 10.2128 12.4268 10.133 12.2674 9.89362C12.1081 9.73404 11.9488 9.49468 11.9488 9.17553C11.9488 8.93617 12.0285 8.61702 12.2674 8.45745C12.4268 8.29787 12.6657 8.1383 12.9844 8.1383C13.2234 8.1383 13.542 8.21809 13.7013 8.45745C13.8606 8.61702 14.0199 8.85638 14.0199 9.17553C14.0199 9.49468 13.9403 9.73404 13.7013 9.89362ZM13.064 6.2234C12.6657 6.2234 12.2674 6.30319 11.8692 6.46277L12.1081 3.82979C12.1081 3.59043 12.1878 3.35106 12.4268 3.19149C12.5861 3.03191 12.8251 2.87234 13.064 2.87234C13.303 2.87234 13.542 2.95213 13.7013 3.1117C13.8606 3.27128 13.9403 3.51064 13.9403 3.75V3.82979V3.90957C14.0199 4.70745 14.0996 5.58511 14.1793 6.38298C13.8606 6.30319 13.4623 6.2234 13.064 6.2234ZM15.4538 6.46277C15.3741 5.58511 15.2148 4.70745 15.1352 3.90957C15.1352 3.19149 15.4538 2.4734 15.9317 1.99468C16.4097 1.51596 17.047 1.19681 17.8436 1.19681C18.2419 1.19681 18.6401 1.2766 18.9588 1.43617H19.0384C19.3571 1.59574 19.6757 1.83511 19.9147 2.07447V2.15426L21.3485 3.75C21.0299 3.67021 20.7113 3.67021 20.313 3.67021C18.2419 3.67021 16.4097 4.78723 15.4538 6.46277ZM20.313 13.3245C18.1622 13.3245 16.33 11.5691 16.33 9.33511C16.33 7.18085 18.0825 5.34574 20.313 5.34574C22.5434 5.34574 24.2959 7.10106 24.2959 9.33511C24.2959 11.4894 22.5434 13.3245 20.313 13.3245Z" fill="#929292"/>
</svg>
