<svg width="21" height="20" viewBox="0 0 21 20" fill="none" xmlns="http://www.w3.org/2000/svg">
    <path d="M20.792 6.53987L14.2039 0.219459C13.9017 -0.0731529 13.3577 -0.0731529 13.0555 0.219459L0 12.8603V19.2392C0 19.6489 0.362652 20 0.785746 20H7.37393H7.43437H7.49481H7.55525L20.6107 7.35918C21.0943 7.35918 21.0943 6.83248 20.792 6.53987ZM13.6599 1.91661L14.627 2.85296L2.71989 14.3819L1.75282 13.4455L13.6599 1.91661ZM1.39017 19.0051V15.3767L5.13757 19.0051H1.39017ZM3.38475 15.0841L15.3523 3.49671L17.4073 5.48647L5.43978 17.0154L3.38475 15.0841ZM7.13216 18.654L6.16509 17.7176L18.0722 6.18874L19.0392 7.12509L7.13216 18.654Z" fill="#929292"/>
</svg>
