<svg width="21" height="11" viewBox="0 0 21 11" fill="none" xmlns="http://www.w3.org/2000/svg">
    <path d="M19.0095 0.363389C19.2282 0.158014 19.5248 0.0426357 19.834 0.0426357C20.1433 0.0426357 20.4398 0.158014 20.6585 0.363389C20.8772 0.568764 21 0.847309 21 1.13775C21 1.4282 20.8772 1.70674 20.6585 1.91212L11.3245 10.6788C11.2163 10.7806 11.0878 10.8614 10.9463 10.9165C10.8048 10.9716 10.6532 11 10.5 11C10.3468 11 10.1952 10.9716 10.0537 10.9165C9.91223 10.8614 9.78371 10.7806 9.67552 10.6788L0.34151 1.86949C0.122845 1.66412 -7.03404e-08 1.38557 -4.78696e-08 1.09513C-2.53987e-08 0.804684 0.122845 0.526139 0.34151 0.320764C0.560175 0.115389 0.856747 4.66306e-08 1.16599 5.09669e-08C1.47523 5.53032e-08 1.7718 0.115389 1.99046 0.320764L10.4924 8.30597L19.0095 0.363389Z" fill="#C4C4C4"/>
</svg>
