<svg width="10" height="16" viewBox="0 0 10 16" fill="none" xmlns="http://www.w3.org/2000/svg">
    <path d="M8.73572 13.673C8.88508 13.8188 8.96899 14.0165 8.96899 14.2227C8.96899 14.4288 8.88508 14.6265 8.73572 14.7723C8.58635 14.9181 8.38378 15 8.17254 15C7.96131 15 7.75873 14.9181 7.60937 14.7723L1.2336 8.54965C1.15955 8.47752 1.1008 8.39184 1.06071 8.29753C1.02063 8.20321 1 8.1021 1 8C1 7.89789 1.02063 7.79679 1.06071 7.70247C1.1008 7.60816 1.15955 7.52248 1.2336 7.45035L7.64037 1.22767C7.78973 1.0819 7.99231 1 8.20354 1C8.41478 1 8.61735 1.0819 8.76672 1.22767C8.91608 1.37345 9 1.57116 9 1.77732C9 1.98348 8.91608 2.1812 8.76672 2.32698L2.95929 7.99496L8.73572 13.673Z" fill="white" stroke="white" stroke-width="0.5" stroke-miterlimit="10"/>
</svg>
