<?xml version="1.0" encoding="UTF-8" standalone="no"?>
<svg
   xmlns:dc="http://purl.org/dc/elements/1.1/"
   xmlns:cc="http://creativecommons.org/ns#"
   xmlns:rdf="http://www.w3.org/1999/02/22-rdf-syntax-ns#"
   xmlns:svg="http://www.w3.org/2000/svg"
   xmlns="http://www.w3.org/2000/svg"
   xmlns:sodipodi="http://sodipodi.sourceforge.net/DTD/sodipodi-0.dtd"
   xmlns:inkscape="http://www.inkscape.org/namespaces/inkscape"
   width="19"
   height="33"
   viewBox="0 0 19 33"
   fill="none"
   version="1.1"
   id="svg4"
   sodipodi:docname="arrow_right.svg"
   inkscape:version="0.92.3 (2405546, 2018-03-11)">
  <metadata
     id="metadata10">
    <rdf:RDF>
      <cc:Work
         rdf:about="">
        <dc:format>image/svg+xml</dc:format>
        <dc:type
           rdf:resource="http://purl.org/dc/dcmitype/StillImage" />
        <dc:title></dc:title>
      </cc:Work>
    </rdf:RDF>
  </metadata>
  <defs
     id="defs8" />
  <sodipodi:namedview
     pagecolor="#ffffff"
     bordercolor="#666666"
     borderopacity="1"
     objecttolerance="10"
     gridtolerance="10"
     guidetolerance="10"
     inkscape:pageopacity="0"
     inkscape:pageshadow="2"
     inkscape:window-width="3840"
     inkscape:window-height="2066"
     id="namedview6"
     showgrid="false"
     inkscape:zoom="7.1515152"
     inkscape:cx="9.5"
     inkscape:cy="16.5"
     inkscape:window-x="-11"
     inkscape:window-y="-11"
     inkscape:window-maximized="1"
     inkscape:current-layer="svg4" />
  <path
     d="M 1.5616,3.9383 C 1.2442,3.6155 1.0659,3.1777 1.0659,2.7212 1.0659,2.2647 1.2442,1.8269 1.5616,1.5041 1.879,1.1813 2.3095,1 2.7583,1 3.2072,1 3.6377,1.1813 3.9551,1.5041 l 13.5485,13.7788 c 0.15736,0.1597 0.28221,0.3494 0.36739,0.5583 C 17.95616,16.05 18,16.2739 18,16.5 c 0,0.2261 -0.04384,0.45 -0.12901,0.6588 -0.08518,0.2089 -0.21003,0.3986 -0.36739,0.5583 L 3.8892,31.49587 C 3.5718,31.81866 3.1413,32 2.6925,32 2.2436,32 1.8131,31.81866 1.4957,31.49587 1.1783,31.17307 1,30.73528 1,30.27878 1,29.82229 1.1783,29.38449 1.4957,29.0617 L 13.83651,16.5112 Z"
     stroke-miterlimit="10"
     id="path2"
     inkscape:connector-curvature="0"
     style="fill:#00c1d4;stroke:#00c1d4;stroke-width:0.5;stroke-miterlimit:10" />
</svg>
