<svg width="19" height="33" viewBox="0 0 19 33" fill="none" xmlns="http://www.w3.org/2000/svg">
    <path d="M17.4384 29.0617C17.7558 29.3845 17.9341 29.8223 17.9341 30.2788C17.9341 30.7353 17.7558 31.1731 17.4384 31.4959C17.121 31.8187 16.6905 32 16.2417 32C15.7928 32 15.3623 31.8187 15.0449 31.4959L1.4964 17.7171C1.33904 17.5574 1.21419 17.3677 1.12901 17.1588C1.04384 16.95 1 16.7261 1 16.5C1 16.2739 1.04384 16.05 1.12901 15.8412C1.21419 15.6323 1.33904 15.4426 1.4964 15.2829L15.1108 1.50413C15.4282 1.18134 15.8587 1 16.3075 1C16.7564 1 17.1869 1.18134 17.5043 1.50413C17.8217 1.82693 18 2.26472 18 2.72122C18 3.17771 17.8217 3.61551 17.5043 3.9383L5.16349 16.4888L17.4384 29.0617Z" fill="#00C1D4" stroke="#00C1D4" stroke-width="0.5" stroke-miterlimit="10"/>
</svg>
