<svg version="1.1" id="Ebene_1" xmlns="http://www.w3.org/2000/svg" xmlns:xlink="http://www.w3.org/1999/xlink" x="0px" y="0px"
     width="80.9px" height="97.2px" viewBox="0 0 80.9 97.2" style="enable-background:new 0 0 80.9 97.2;" xml:space="preserve">
<style type="text/css">
	.st0{fill:#00C1D4;}
</style>
    <g id="GgVhHc_1_">
	<g>
		<path class="st0" d="M65.1,79.5c-3.4,0-6.7,0.1-10.1,0c-1.4,0-1.9,0.1-1.8,1.8c0.4,7.1-4.5,12.6-11.5,13.5
			c-6.3,0.8-12.3-3.6-13.8-10.1c-0.2-0.7-0.2-1.4-0.2-2c-0.1-3.2-0.1-3.2-3.2-3.2c-6.2,0-12.4,0-18.6,0c-1.6,0-3.2,0-3.8-1.8
			c-0.6-1.7,0.6-2.7,1.7-3.6c5.6-4.7,8.3-10.8,8.4-18.1c0.1-6.3-0.5-12.7,0.4-19c1.5-10.7,7.5-18.2,17.4-22.4c2.3-1,3.1-2,2.9-4.4
			C32.6,7,34.1,4.4,37.2,3c2.9-1.3,5.7-0.9,8.2,1.1c2.3,1.8,2.9,4.4,2.8,7.2c-0.1,1.7,0.4,2.5,2.1,3.1c11.2,4.1,18.3,14.3,18.5,26.4
			c0.1,5.5,0,11,0.1,16.5C69,64.1,71.9,69.6,77,74c0.3,0.3,0.6,0.5,0.9,0.8c1,0.8,1.4,1.8,1,3c-0.5,1.2-1.5,1.7-2.7,1.7
			C72.5,79.6,68.8,79.5,65.1,79.5z M69.6,74.3c0.2-0.7-0.3-1.1-0.6-1.5c-3.2-4.6-5-9.7-5.3-15.3c-0.3-6.6,0.4-13.1-0.4-19.7
			c-1.2-11-11.1-20-22-20.2c-12-0.2-22.1,8-23.8,19.4c-0.9,6.4-0.3,12.8-0.4,19.2c-0.1,5.6-1.6,10.7-4.5,15.4
			c-0.5,0.8-1.4,1.4-1.5,2.6C30.7,74.3,50.2,74.3,69.6,74.3z M40.5,79.5c-2,0-4,0.1-5.9,0c-1.1,0-1.7,0.3-1.8,1.5
			c-0.3,3.1,0.8,5.7,3.4,7.5c2.7,1.8,5.6,1.9,8.4,0.2c2.7-1.7,3.9-4.2,3.7-7.3c-0.1-1.2-0.5-1.9-2-1.8
			C44.3,79.6,42.4,79.5,40.5,79.5z M40.4,12.6c2.7,0,2.7,0,2.7-1.7c0-2.2-1.1-3.7-2.7-3.5c-1.9,0.2-2.5,1.6-2.6,3.4
			C37.6,13.1,39.1,12.6,40.4,12.6z"/>
	</g>
</g>
</svg>
