<svg width="24" height="24" viewBox="0 0 24 24" fill="none" xmlns="http://www.w3.org/2000/svg">
    <path d="M8.69565 11.6522C8.95652 11.913 9.3913 12.087 9.82609 12.087C10.2609 12.087 10.6087 11.913 10.9565 11.6522C11.2174 11.3913 11.3913 10.9565 11.3913 10.5217C11.3913 10.087 11.2174 9.73913 10.9565 9.3913C10.6957 9.13043 10.2609 8.95652 9.82609 8.95652C9.3913 8.95652 9.04348 9.13043 8.69565 9.3913C8.43478 9.65217 8.26087 10.087 8.26087 10.5217C8.26087 10.9565 8.43478 11.3043 8.69565 11.6522ZM9.47826 10.1739C9.56522 10.087 9.65217 10 9.82609 10C9.91304 10 10.087 10.087 10.1739 10.1739C10.2609 10.2609 10.3478 10.3478 10.3478 10.5217C10.3478 10.6087 10.2609 10.7826 10.1739 10.8696C10.087 10.9565 10 11.0435 9.82609 11.0435C9.73913 11.0435 9.56522 10.9565 9.47826 10.8696C9.3913 10.7826 9.30435 10.6957 9.30435 10.5217C9.3913 10.3478 9.3913 10.2609 9.47826 10.1739ZM8.69565 15.7391C8.95652 16 9.3913 16.1739 9.82609 16.1739C10.2609 16.1739 10.6087 16 10.9565 15.7391C11.2174 15.4783 11.3913 15.0435 11.3913 14.6087C11.3913 14.1739 11.2174 13.8261 10.9565 13.4783C10.6957 13.2174 10.2609 13.0435 9.82609 13.0435C9.3913 13.0435 9.04348 13.2174 8.69565 13.4783C8.43478 13.7391 8.26087 14.1739 8.26087 14.6087C8.26087 15.1304 8.43478 15.4783 8.69565 15.7391ZM9.47826 14.3478C9.56522 14.2609 9.65217 14.1739 9.82609 14.1739C9.91304 14.1739 10.087 14.2609 10.1739 14.3478C10.2609 14.4348 10.3478 14.5217 10.3478 14.6957C10.3478 14.7826 10.2609 14.9565 10.1739 15.0435C10.087 15.1304 10 15.2174 9.82609 15.2174C9.73913 15.2174 9.56522 15.1304 9.47826 15.0435C9.3913 14.9565 9.30435 14.8696 9.30435 14.6957C9.3913 14.5217 9.3913 14.4348 9.47826 14.3478ZM17.2174 11.6522C17.4783 11.913 17.913 12.087 18.3478 12.087C18.7826 12.087 19.1304 11.913 19.4783 11.6522C19.7391 11.3913 19.913 10.9565 19.913 10.5217C19.913 10.087 19.7391 9.73913 19.4783 9.3913C19.2174 9.13043 18.7826 8.95652 18.3478 8.95652C17.913 8.95652 17.5652 9.13043 17.2174 9.3913C16.9565 9.65217 16.7826 10.087 16.7826 10.5217C16.6957 10.9565 16.9565 11.3043 17.2174 11.6522ZM18 10.1739C18.087 10.087 18.1739 10 18.3478 10C18.4348 10 18.6087 10.087 18.6957 10.1739C18.7826 10.2609 18.8696 10.3478 18.8696 10.5217C18.8696 10.6087 18.7826 10.7826 18.6957 10.8696C18.6087 10.9565 18.5217 11.0435 18.3478 11.0435C18.2609 11.0435 18.087 10.9565 18 10.8696C17.913 10.7826 17.8261 10.6957 17.8261 10.5217C17.8261 10.3478 17.913 10.2609 18 10.1739ZM12.9565 11.6522C13.2174 11.913 13.6522 12.087 14.087 12.087C14.5217 12.087 14.8696 11.913 15.2174 11.6522C15.4783 11.3913 15.6522 10.9565 15.6522 10.5217C15.6522 10.087 15.4783 9.73913 15.2174 9.3913C14.9565 9.13043 14.5217 8.95652 14.087 8.95652C13.6522 8.95652 13.3043 9.13043 12.9565 9.3913C12.6957 9.65217 12.5217 10.087 12.5217 10.5217C12.5217 10.9565 12.6957 11.3043 12.9565 11.6522ZM13.7391 10.1739C13.8261 10.087 13.913 10 14.087 10C14.1739 10 14.3478 10.087 14.4348 10.1739C14.5217 10.2609 14.6087 10.3478 14.6087 10.5217C14.6087 10.6087 14.5217 10.7826 14.4348 10.8696C14.3478 10.9565 14.2609 11.0435 14.087 11.0435C14 11.0435 13.8261 10.9565 13.7391 10.8696C13.6522 10.7826 13.5652 10.6957 13.5652 10.5217C13.5652 10.3478 13.6522 10.2609 13.7391 10.1739ZM8.69565 19.913C8.95652 20.1739 9.3913 20.3478 9.82609 20.3478C10.2609 20.3478 10.6087 20.1739 10.9565 19.913C11.2174 19.6522 11.3913 19.2174 11.3913 18.7826C11.3913 18.3478 11.2174 18 10.9565 17.6522C10.6957 17.3913 10.2609 17.2174 9.82609 17.2174C9.3913 17.2174 9.04348 17.3913 8.69565 17.6522C8.43478 17.913 8.26087 18.3478 8.26087 18.7826C8.26087 19.2174 8.43478 19.6522 8.69565 19.913ZM9.47826 18.5217C9.56522 18.4348 9.65217 18.3478 9.82609 18.3478C9.91304 18.3478 10.087 18.4348 10.1739 18.5217C10.2609 18.6087 10.3478 18.6957 10.3478 18.8696C10.3478 18.9565 10.2609 19.1304 10.1739 19.2174C10.087 19.3043 10 19.3913 9.82609 19.3913C9.73913 19.3913 9.56522 19.3043 9.47826 19.2174C9.3913 19.1304 9.30435 19.0435 9.30435 18.8696C9.3913 18.6957 9.3913 18.6087 9.47826 18.5217ZM22.9565 0H0.956522C0.434783 0 0 0.434783 0 0.956522V23.0435C0 23.5652 0.434783 24 0.956522 24H23.0435C23.5652 24 24 23.5652 24 23.0435V0.956522C23.913 0.434783 23.4783 0 22.9565 0ZM22.087 22.087H1.82609V7.21739H22V22.087H22.087ZM22.087 6.08696H1.82609V1.82609H3.65217V3.21739C3.65217 3.73913 4.08696 4.17391 4.6087 4.17391C5.13043 4.17391 5.56522 3.73913 5.56522 3.21739V1.82609H8.6087V3.21739C8.6087 3.73913 9.04348 4.17391 9.56522 4.17391C10.087 4.17391 10.5217 3.73913 10.5217 3.21739V1.82609H13.5652V3.21739C13.5652 3.73913 14 4.17391 14.5217 4.17391C15.0435 4.17391 15.4783 3.73913 15.4783 3.21739V1.82609H18.5217V3.21739C18.5217 3.73913 18.9565 4.17391 19.4783 4.17391C20 4.17391 20.4348 3.73913 20.4348 3.21739V1.82609H22.2609V6.08696H22.087ZM12.9565 19.913C13.2174 20.1739 13.6522 20.3478 14.087 20.3478C14.5217 20.3478 14.8696 20.1739 15.2174 19.913C15.4783 19.6522 15.6522 19.2174 15.6522 18.7826C15.6522 18.3478 15.4783 18 15.2174 17.6522C14.9565 17.3913 14.5217 17.2174 14.087 17.2174C13.6522 17.2174 13.3043 17.3913 12.9565 17.6522C12.6957 17.913 12.5217 18.3478 12.5217 18.7826C12.5217 19.2174 12.6957 19.6522 12.9565 19.913ZM13.7391 18.5217C13.8261 18.4348 13.913 18.3478 14.087 18.3478C14.1739 18.3478 14.3478 18.4348 14.4348 18.5217C14.5217 18.6087 14.6087 18.6957 14.6087 18.8696C14.6087 18.9565 14.5217 19.1304 14.4348 19.2174C14.3478 19.3043 14.2609 19.3913 14.087 19.3913C14 19.3913 13.8261 19.3043 13.7391 19.2174C13.6522 19.1304 13.5652 19.0435 13.5652 18.8696C13.5652 18.6957 13.6522 18.6087 13.7391 18.5217ZM4.52174 15.7391C4.78261 16 5.21739 16.1739 5.65217 16.1739C6.08696 16.1739 6.43478 16 6.78261 15.7391C7.04348 15.4783 7.21739 15.0435 7.21739 14.6087C7.21739 14.1739 7.04348 13.8261 6.78261 13.4783C6.52174 13.2174 6.08696 13.0435 5.65217 13.0435C5.21739 13.0435 4.86957 13.2174 4.52174 13.4783C4.26087 13.7391 4.08696 14.1739 4.08696 14.6087C4 15.1304 4.17391 15.4783 4.52174 15.7391ZM5.21739 14.3478C5.30435 14.2609 5.3913 14.1739 5.56522 14.1739C5.65217 14.1739 5.82609 14.2609 5.91304 14.3478C6 14.4348 6.08696 14.5217 6.08696 14.6957C6.08696 14.7826 6 14.9565 5.91304 15.0435C5.82609 15.1304 5.73913 15.2174 5.56522 15.2174C5.3913 15.2174 5.30435 15.1304 5.21739 15.0435C5.13043 14.9565 5.04348 14.8696 5.04348 14.6957C5.13044 14.5217 5.13043 14.4348 5.21739 14.3478ZM4.52174 19.913C4.78261 20.1739 5.21739 20.3478 5.65217 20.3478C6.08696 20.3478 6.43478 20.1739 6.78261 19.913C7.04348 19.6522 7.21739 19.2174 7.21739 18.7826C7.21739 18.3478 7.04348 18 6.78261 17.6522C6.52174 17.3913 6.08696 17.2174 5.65217 17.2174C5.21739 17.2174 4.86957 17.3913 4.52174 17.6522C4.26087 17.913 4.08696 18.3478 4.08696 18.7826C4 19.2174 4.17391 19.6522 4.52174 19.913ZM5.21739 18.5217C5.30435 18.4348 5.3913 18.3478 5.56522 18.3478C5.65217 18.3478 5.82609 18.4348 5.91304 18.5217C6 18.6087 6.08696 18.6957 6.08696 18.8696C6.08696 18.9565 6 19.1304 5.91304 19.2174C5.82609 19.3043 5.73913 19.3913 5.56522 19.3913C5.3913 19.3913 5.30435 19.3043 5.21739 19.2174C5.13043 19.1304 5.04348 19.0435 5.04348 18.8696C5.13044 18.6957 5.13043 18.6087 5.21739 18.5217ZM12.9565 15.7391C13.2174 16 13.6522 16.1739 14.087 16.1739C14.5217 16.1739 14.8696 16 15.2174 15.7391C15.4783 15.4783 15.6522 15.0435 15.6522 14.6087C15.6522 14.1739 15.4783 13.8261 15.2174 13.4783C14.9565 13.2174 14.5217 13.0435 14.087 13.0435C13.6522 13.0435 13.3043 13.2174 12.9565 13.4783C12.6957 13.7391 12.5217 14.1739 12.5217 14.6087C12.5217 15.1304 12.6957 15.4783 12.9565 15.7391ZM13.7391 14.3478C13.8261 14.2609 13.913 14.1739 14.087 14.1739C14.1739 14.1739 14.3478 14.2609 14.4348 14.3478C14.5217 14.4348 14.6087 14.5217 14.6087 14.6957C14.6087 14.7826 14.5217 14.9565 14.4348 15.0435C14.3478 15.1304 14.2609 15.2174 14.087 15.2174C14 15.2174 13.8261 15.1304 13.7391 15.0435C13.6522 14.9565 13.5652 14.8696 13.5652 14.6957C13.5652 14.5217 13.6522 14.4348 13.7391 14.3478ZM17.2174 15.7391C17.4783 16 17.913 16.1739 18.3478 16.1739C18.7826 16.1739 19.1304 16 19.4783 15.7391C19.7391 15.4783 19.913 15.0435 19.913 14.6087C19.913 14.1739 19.7391 13.8261 19.4783 13.4783C19.2174 13.2174 18.7826 13.0435 18.3478 13.0435C17.913 13.0435 17.5652 13.2174 17.2174 13.4783C16.9565 13.7391 16.7826 14.1739 16.7826 14.6087C16.6957 15.1304 16.9565 15.4783 17.2174 15.7391ZM18 14.3478C18.087 14.2609 18.1739 14.1739 18.3478 14.1739C18.4348 14.1739 18.6087 14.2609 18.6957 14.3478C18.7826 14.4348 18.8696 14.5217 18.8696 14.6957C18.8696 14.7826 18.7826 14.9565 18.6957 15.0435C18.6087 15.1304 18.5217 15.2174 18.3478 15.2174C18.2609 15.2174 18.087 15.1304 18 15.0435C17.913 14.9565 17.8261 14.8696 17.8261 14.6957C17.8261 14.5217 17.913 14.4348 18 14.3478Z" fill="#929292"/>
</svg>
