<svg width="19" height="15" viewBox="0 0 19 15" fill="none" xmlns="http://www.w3.org/2000/svg">
    <path d="M6.72427 15C6.32468 14.9531 5.96948 14.8592 5.65868 14.5776C4.01589 13.2167 2.3731 11.8089 0.774714 10.448C-0.11328 9.69711 -0.246479 8.66469 0.419516 7.81999C1.04111 7.02221 2.06231 6.97528 2.9059 7.6792C4.01589 8.61777 5.17028 9.55633 6.23588 10.4949C6.59108 10.7765 6.72427 10.7295 6.99067 10.401C9.96545 7.16299 12.9846 3.92495 15.9594 0.686903C16.6698 -0.110876 17.6022 -0.204733 18.3126 0.358406C19.0674 0.921544 19.2006 1.90704 18.7122 2.70482C18.6234 2.89253 18.4902 3.03331 18.357 3.1741C14.9382 6.88142 11.5638 10.5888 8.14506 14.2961C7.74547 14.7184 7.30147 14.9531 6.72427 15Z" fill="#A7CE8D"/>
</svg>
