<svg width="24" height="24" viewBox="0 0 24 24" fill="none" xmlns="http://www.w3.org/2000/svg">
    <g clip-path="url(#clip0)">
        <path d="M12 0C15.3333 0 18.3333 1.33333 20.4444 3.55556C22.6667 5.77778 24 8.77778 24 12C24 15.3333 22.6667 18.3333 20.4444 20.4444C18.2222 22.6667 15.2222 24 12 24C8.66667 24 5.66667 22.6667 3.55556 20.4444C1.33333 18.2222 0 15.2222 0 12C0 8.66667 1.33333 5.66667 3.55556 3.55556C5.66667 1.33333 8.66667 0 12 0ZM12.5556 11.6667L21.1111 16.5556C21.7778 15.2222 22.2222 13.6667 22.2222 12C22.2222 9.22222 21.1111 6.66667 19.2222 4.77778C17.5556 3.11111 15.2222 2 12.5556 1.77778V11.6667ZM20.5556 17.5556L11.7778 12.5556C11.5556 12.4444 11.4444 12.2222 11.4444 12.1111V1.88889C8.88889 2 6.55556 3.11111 4.77778 4.77778C3 6.66667 1.88889 9.22222 1.88889 12C1.88889 14.7778 3 17.3333 4.88889 19.2222C6.66667 21 9.22222 22.2222 12 22.2222C14.7778 22.2222 17.3333 21.1111 19.2222 19.2222C19.6667 18.6667 20.1111 18.1111 20.5556 17.5556Z" fill="#929292"/>
    </g>
    <defs>
        <clipPath id="clip0">
            <rect width="24" height="24" fill="white"/>
        </clipPath>
    </defs>
</svg>
