<svg width="24" height="22" viewBox="0 0 24 22" fill="none" xmlns="http://www.w3.org/2000/svg">
    <path d="M11.7851 21.9717C8.3578 21.9717 4.9305 21.9717 1.5032 21.9717C1.18252 21.9717 0.841793 21.9717 0.561195 21.7653C0.200427 21.5177 0.0200427 21.1875 0.0200427 20.7335C0 17.1224 0 13.4905 0 9.85871C0 9.15711 0.501067 8.64122 1.16248 8.64122C1.84393 8.62059 2.34499 9.13647 2.34499 9.87934C2.34499 12.8921 2.34499 15.9049 2.34499 18.897C2.34499 19.7018 2.34499 19.7018 3.12666 19.7018C8.99917 19.7018 14.8717 19.7018 20.7442 19.7018C21.2653 19.7018 21.2653 19.7018 21.2653 19.1446C21.2653 16.07 21.2653 13.0159 21.2653 9.94125C21.2653 9.01266 21.9067 8.49677 22.7484 8.68249C23.2696 8.8063 23.6103 9.26028 23.6103 9.85871C23.6103 11.7984 23.6103 13.7588 23.6103 15.6985C23.6103 17.2874 23.6103 18.897 23.6103 20.4859C23.6103 21.4764 23.1493 21.951 22.1672 21.9717C20.2431 21.9717 18.299 21.9717 16.3749 21.9717C14.8516 21.9717 13.3083 21.9717 11.7851 21.9717Z" fill="#929292"/>
    <path d="M13.0076 4.16332C13.0076 5.17445 13.0076 6.14431 13.0076 7.11417C13.0076 10.0444 13.0076 12.954 13.0076 15.8842C13.0076 16.7096 12.5466 17.2461 11.825 17.2668C11.0835 17.2874 10.5824 16.7302 10.5824 15.9048C10.5824 12.1905 10.5824 8.47611 10.5824 4.76175C10.5824 4.59666 10.5824 4.43158 10.5824 4.2665C10.402 4.24586 10.3419 4.39031 10.2617 4.47285C9.56022 5.17445 8.87877 5.87605 8.17728 6.57766C7.63613 7.11417 6.91459 7.15545 6.45361 6.6602C5.95254 6.14431 5.99263 5.46335 6.53378 4.90619C7.99689 3.37918 9.48005 1.89344 10.9632 0.407691C11.5044 -0.149463 12.2059 -0.128828 12.747 0.428326C14.1901 1.89344 15.6331 3.37918 17.0562 4.86492C17.6374 5.46335 17.6775 6.14431 17.1764 6.6602C16.6954 7.15545 15.9739 7.11417 15.4127 6.55702C14.7312 5.85542 14.0498 5.15382 13.3683 4.47285C13.2882 4.34904 13.208 4.22523 13.0076 4.16332Z" fill="#929292"/>
</svg>
