<svg width="35" height="35" viewBox="0 0 35 35" fill="none" xmlns="http://www.w3.org/2000/svg">
    <path d="M14.2666 17.1208C14.2666 17.1208 14.2665 17.1209 14.2665 17.1209L14.1783 17.0323C13.9737 17.237 13.9111 17.362 14.1783 17.6008C14.96 18.3551 15.7202 19.1175 16.4811 19.8805C16.8269 20.2274 17.173 20.5745 17.5212 20.9209C17.5355 20.9352 17.5494 20.9541 17.5646 20.9748C17.6161 21.0448 17.682 21.1344 17.8225 21.1256M14.2666 17.1208C14.2167 17.1707 14.1811 17.2103 14.1574 17.2448C14.134 17.2788 14.1272 17.3005 14.1259 17.315C14.1238 17.338 14.1326 17.3923 14.2616 17.5076L14.2652 17.5108L14.2651 17.5109C15.0477 18.266 15.8093 19.0299 16.5706 19.7934C16.9163 20.14 17.2619 20.4866 17.6094 20.8323L17.6096 20.8325C17.6311 20.854 17.651 20.8812 17.665 20.9003C17.6667 20.9026 17.6682 20.9047 17.6697 20.9067C17.6866 20.9296 17.7004 20.9475 17.7155 20.9626C17.7338 20.9809 17.7525 20.9941 17.7789 20.999M14.2666 17.1208C18.0947 13.3117 21.9208 9.4931 25.7451 5.66505C25.8663 5.54382 25.928 5.53694 25.9624 5.54285C25.9848 5.5467 26.0134 5.55868 26.0527 5.5866C26.0919 5.61456 26.1353 5.6537 26.1882 5.70509C26.3069 5.82583 26.4256 5.94668 26.5443 6.06757C27.4359 6.97542 28.3292 7.88493 29.2535 8.75903C29.4445 8.9502 29.5115 9.06458 29.5142 9.16047C29.5168 9.25387 29.4587 9.37511 29.2525 9.58135C26.3149 12.4811 23.4009 15.3966 20.4847 18.3144C19.9016 18.8979 19.3183 19.4815 18.7348 20.065C18.7348 20.065 18.7347 20.065 18.7347 20.065L17.9562 20.8379L17.9559 20.8382C17.8984 20.8957 17.8366 20.9502 17.7789 20.999M14.2666 17.1208L17.8225 21.1256M17.7789 20.999C17.7666 21.0095 17.7544 21.0197 17.7425 21.0296L17.8225 21.1256M17.7789 20.999C17.7895 21.001 17.8012 21.0017 17.8147 21.0008L17.8225 21.1256M29.5718 0.875209V0.875182L29.5692 0.875159C29.0154 0.870265 28.4666 0.978563 27.9562 1.1934C27.4462 1.40809 26.9854 1.72463 26.602 2.12365C21.8233 6.90616 17.0408 11.6849 12.2545 16.4598C11.9915 16.7136 11.8014 17.0333 11.7042 17.3856L11.7041 17.3861C11.4666 18.2608 11.2213 19.136 10.9759 20.0117C10.6117 21.3111 10.2473 22.6114 9.90781 23.9117C9.76808 24.3773 9.82212 24.7779 10.0739 25.0271C10.3247 25.2753 10.7299 25.3312 11.1979 25.2031C12.1015 24.9582 13.0014 24.7068 13.9005 24.4556C15.1547 24.1053 16.4072 23.7554 17.6656 23.4242C18.0221 23.3369 18.3473 23.1523 18.6048 22.8908C23.4179 18.0777 28.231 13.2665 33.0441 8.45717C33.5561 7.96012 33.9232 7.33318 34.1063 6.64346L34.1067 6.64157C34.3792 5.54574 34.0398 4.29195 33.3501 3.24184C32.6601 2.19121 31.6068 1.32453 30.4204 1.01052C30.1445 0.929218 29.8593 0.883739 29.5718 0.875209ZM29.5284 2.7904L29.5284 2.79104L29.541 2.7909C29.7558 2.78854 29.9679 2.83756 30.1598 2.93381C30.6851 3.27007 31.1855 3.62142 31.5724 4.00282C31.9583 4.38315 32.221 4.78335 32.2913 5.21704V5.21854H32.2912L32.2915 5.22431C32.3245 5.93932 32.164 6.42357 31.9203 6.80247C31.7031 7.14019 31.4185 7.39808 31.1216 7.66709C31.0799 7.70486 31.0379 7.74284 30.9959 7.7813L30.9959 7.78127L30.9935 7.78358C30.9762 7.80031 30.9657 7.80548 30.9617 7.80695C30.9595 7.8061 30.955 7.80391 30.9479 7.79865C30.9316 7.78659 30.9131 7.76715 30.8887 7.73839C30.8841 7.73297 30.8791 7.72685 30.8736 7.7203C30.8549 7.69775 30.8319 7.67009 30.8105 7.64867L30.8105 7.6486L27.4279 4.27169C27.4129 4.25671 27.3973 4.24233 27.3832 4.22952L27.3768 4.22366C27.3648 4.2127 27.354 4.20287 27.3436 4.19287C27.3183 4.16865 27.304 4.15174 27.2966 4.13873C27.2933 4.13304 27.2925 4.12996 27.2923 4.12906L27.2923 4.12902C27.2922 4.12856 27.2921 4.12842 27.2923 4.12762C27.2926 4.12568 27.2962 4.10934 27.3267 4.07776C27.4015 4.00162 27.4745 3.92515 27.5468 3.84944C27.7924 3.59211 28.0296 3.34373 28.2997 3.14804C28.6421 2.89997 29.0278 2.74537 29.5284 2.7904ZM12.1549 22.7983L12.1554 22.7967C12.3238 22.1963 12.4908 21.598 12.6557 21.0067C12.8165 20.4303 12.9755 19.8605 13.1322 19.3017L15.7842 21.9639C15.387 22.0741 14.9832 22.1846 14.5756 22.2962C13.8331 22.4994 13.0777 22.7062 12.3257 22.9211C12.2596 22.9389 12.2077 22.9499 12.1681 22.9534C12.1488 22.9551 12.1363 22.9545 12.1288 22.9537C12.1287 22.9532 12.1287 22.9527 12.1286 22.9521C12.1264 22.9272 12.131 22.8796 12.1549 22.7983Z" fill="#929292" stroke="#929292" stroke-width="0.25"/>
    <path d="M5.49696 4.09292L5.49671 4.09292C4.06207 4.09581 2.9031 4.52439 2.10265 5.32483C1.30218 6.12531 0.875 7.28294 0.875 8.71488V29.3236C0.875 30.8164 1.29842 32.0045 2.11106 32.8194C2.92375 33.6343 4.10909 34.0592 5.59929 34.0592H16.6512C17.9141 34.0592 19.1772 34.0605 20.4411 34.0618C22.9707 34.0643 25.5039 34.0668 28.047 34.0592C28.6421 34.0897 29.2371 33.9953 29.7935 33.782C30.3511 33.5682 30.8576 33.2399 31.2804 32.8183C31.7032 32.3966 32.0328 31.8909 32.248 31.3339C32.4628 30.7779 32.5588 30.1831 32.5298 29.5877V29.5776V29.5645V29.5514V29.5383V29.5251V29.512V29.4989V29.4858V29.4726V29.4595V29.4464V29.4333V29.4201V29.407V29.3939V29.3808V29.3676V29.3545V29.3414V29.3283V29.3151V29.302V29.2889V29.2758V29.2626V29.2495V29.2364V29.2233V29.2101V29.197V29.1839V29.1708V29.1577V29.1445V29.1314V29.1183V29.1052V29.092V29.0789V29.0658V29.0527V29.0395V29.0264V29.0133V29.0002V28.987V28.9739V28.9608V28.9477V28.9345V28.9214V28.9083V28.8952V28.882V28.8689V28.8558V28.8427V28.8295V28.8164V28.8033V28.7902V28.777V28.7639V28.7508V28.7377V28.7245V28.7114V28.6983V28.6852V28.672V28.6589V28.6458V28.6327V28.6195V28.6064V28.5933V28.5802V28.567V28.5539V28.5408V28.5277V28.5145V28.5014V28.4883V28.4752V28.462V28.4489V28.4358V28.4227V28.4095V28.3964V28.3833V28.3702V28.357V28.3439V28.3308V28.3177V28.3045V28.2914V28.2783V28.2652V28.252V28.2389V28.2258V28.2127V28.1995V28.1864V28.1733V28.1602V28.147V28.1339V28.1208V28.1077V28.0946V28.0814V28.0683V28.0552V28.0421V28.0289V28.0158V28.0027V27.9896V27.9764V27.9633V27.9502V27.9371V27.9239V27.9108V27.8977V27.8846V27.8714V27.8583V27.8452V27.8321V27.8189V27.8058V27.7927V27.7796V27.7664V27.7533V27.7402V27.7271V27.7139V27.7008V27.6877V27.6746V27.6614V27.6483V27.6352V27.6221V27.6089V27.5958V27.5827V27.5696V27.5564V27.5433V27.5302V27.5171V27.5039V27.4908V27.4777V27.4646V27.4514V27.4383V27.4252V27.4121V27.3989V27.3858V27.3727V27.3596V27.3464V27.3333V27.3202V27.3071V27.2939V27.2808V27.2677V27.2546V27.2414V27.2283V27.2152V27.2021V27.1889V27.1758V27.1627V27.1496V27.1364V27.1233V27.1102V27.0971V27.0839V27.0708V27.0577V27.0446V27.0315V27.0183V27.0052V26.9921V26.979V26.9658V26.9527V26.9396V26.9265V26.9133V26.9002V26.8871V26.874V26.8608V26.8477V26.8346V26.8215V26.8083V26.7952V26.7821V26.769V26.7558V26.7427V26.7296V26.7165V26.7033V26.6902V26.6771V26.664V26.6508V26.6377V26.6246V26.6115V26.5983V26.5852V26.5721V26.559V26.5458V26.5327V26.5196V26.5065V26.4933V26.4802V26.4671V26.454V26.4408V26.4277V26.4146V26.4015V26.3883V26.3752V26.3621V26.349V26.3358V26.3227V26.3096V26.2965V26.2833V26.2702V26.2571V26.244V26.2308V26.2177V26.2046V26.1915V26.1783V26.1652V26.1521V26.139V26.1258V26.1127V26.0996V26.0865V26.0733V26.0602V26.0471V26.034V26.0208V26.0077V25.9946V25.9815V25.9683V25.9552V25.9421V25.929V25.9158V25.9027V25.8896V25.8765V25.8634V25.8502V25.8371V25.824V25.8109V25.7977V25.7846V25.7715V25.7584V25.7452V25.7321V25.719V25.7059V25.6927V25.6796V25.6665V25.6534V25.6402V25.6271V25.614V25.6009V25.5877V25.5746V25.5615V25.5484V25.5352V25.5221V25.509V25.4959V25.4827V25.4696V25.4565V25.4434V25.4302V25.4171V25.404V25.3909V25.3777V25.3646V25.3515V25.3384V25.3252V25.3121V25.299V25.2859V25.2727V25.2596V25.2465V25.2334V25.2202V25.2071V25.194V25.1809V25.1677V25.1546V25.1415V25.1284V25.1152V25.1021V25.089V25.0759V25.0627V25.0496V25.0365V25.0234V25.0102V24.9971V24.984V24.9709V24.9577V24.9446V24.9315V24.9184V24.9052V24.8921V24.879V24.8659V24.8527V24.8396V24.8265V24.8134V24.8003V24.7871V24.774V24.7609V24.7478V24.7346V24.7215V24.7084V24.6953V24.6821V24.669V24.6559V24.6428V24.6296V24.6165V24.6034V24.5903V24.5771V24.564V24.5509V24.5378V24.5246V24.5115V24.4984V24.4853V24.4721V24.459V24.4459V24.4328V24.4196V24.4065V24.3934V24.3803V24.3671V24.354V24.3409V24.3278V24.3146V24.3015V24.2884V24.2753V24.2621V24.249V24.2359V24.2228V24.2096V24.1965V24.1834V24.1703V24.1571V24.144V24.1309V24.1178V24.1046V24.0915V24.0784V24.0653V24.0521V24.039V24.0259V24.0128V23.9996V23.9865V23.9734V23.9603V23.9471V23.934V23.9209V23.9078V23.8946V23.8815V23.8684V23.8553V23.8421V23.829V23.8159V23.8028V23.7896V23.7765V23.7634V23.7503V23.7372V23.724V23.7109V23.6978V23.6847V23.6715V23.6584V23.6453V23.6322V23.619V23.6059V23.5928V23.5797V23.5665V23.5534V23.5403V23.5272V23.514V23.5009V23.4878V23.4747V23.4615V23.4484V23.4353V23.4222V23.409V23.3959V23.3828V23.3697V23.3565V23.3434V23.3303V23.3172V23.304V23.2909V23.2778V23.2647V23.2515V23.2384V23.2253V23.2122V23.199V23.1859V23.1728V23.1597V23.1465V23.1334V23.1203V23.1072V23.094V23.0809V23.0678V23.0547V23.0415V23.0284V23.0153V23.0022V22.989V22.9759V22.9628V22.9497V22.9365V22.9234V22.9103V22.8972V22.884L32.5298 22.8709L32.5298 22.87C32.5269 22.4569 32.4467 22.1213 32.2794 21.8896C32.1067 21.6502 31.8512 21.536 31.5398 21.5522C31.2392 21.5679 30.9982 21.674 30.8384 21.9025C30.6843 22.1228 30.6197 22.4382 30.6197 22.8425V29.3634C30.6197 30.3106 30.383 31.0012 29.9325 31.4556C29.4822 31.9099 28.7976 32.1492 27.8567 32.1492H5.55381C4.60016 32.1492 3.91608 31.9163 3.46924 31.4675C3.02229 31.0186 2.79075 30.3315 2.79075 29.3747V8.76604C2.79075 7.7819 3.01603 7.09484 3.46361 6.65189C3.91146 6.20867 4.60601 5.98593 5.59929 5.98593H11.9894C12.4296 5.98593 12.7799 5.90931 13.0221 5.7465C13.2726 5.57807 13.3944 5.32607 13.3878 5.0169C13.3814 4.71154 13.2625 4.46991 13.0183 4.31135C12.7835 4.15894 12.4475 4.09292 12.0235 4.09292L5.49696 4.09292Z" fill="#929292" stroke="#929292" stroke-width="0.25"/>
</svg>
