<svg width="37" height="31" viewBox="0 0 37 31" fill="none" xmlns="http://www.w3.org/2000/svg">
    <path d="M36 10.5577C36 12.3309 35.0198 14.3575 33.1484 16.1307C29.3165 19.7616 25.4846 23.477 21.7418 27.1924C20.9398 27.9523 20.1378 28.7967 19.2467 29.5567C18.6229 30.1478 18.1773 30.1478 17.6426 29.5567C13.0087 24.9969 8.28571 20.5216 3.65181 15.8774C-1.42766 10.811 1.15663 2.70473 8.28571 1.18481C11.3156 0.593732 14.0781 1.43813 16.395 3.4647C17.0188 4.05578 17.6426 4.64686 18.1773 5.23794C18.4446 5.49126 18.6229 5.49126 18.8011 5.23794C19.2467 4.7313 19.7813 4.3091 20.2269 3.8869C22.9003 1.26925 26.8213 0.424852 30.2076 1.69145C33.7722 3.0425 36 6.16678 36 10.5577ZM34.2177 9.7977C34.2177 6.8423 32.3463 4.3091 29.4947 3.21138C26.8213 2.19809 23.7915 2.87361 21.6527 4.98462C20.8507 5.66014 20.1378 6.4201 19.3358 7.18006C18.8011 7.6867 18.3555 7.6867 17.7317 7.18006C16.8406 6.33566 16.0386 5.49126 15.1474 4.7313C13.2761 2.95806 10.9591 2.28253 8.37482 2.95806C2.76067 4.3091 0.978405 10.8954 5.07762 14.8641C9.44419 19.0861 13.7216 23.2237 18.0882 27.4457C18.4446 27.7834 18.6229 27.8679 18.9793 27.4457C23.3459 23.2237 27.7124 19.0017 32.079 14.7797C33.5048 13.4286 34.2177 11.7398 34.2177 9.7977Z" fill="black" stroke="black" stroke-miterlimit="10"/></svg>
