<?xml version="1.0" encoding="utf-8"?>
<!-- Generator: Adobe Illustrator 25.3.1, SVG Export Plug-In . SVG Version: 6.00 Build 0)  -->
<svg version="1.1" id="Ebene_1" xmlns="http://www.w3.org/2000/svg" xmlns:xlink="http://www.w3.org/1999/xlink" x="0px" y="0px"
	 viewBox="0 0 30 30" style="enable-background:new 0 0 30 30;" xml:space="preserve">
<style type="text/css">
	.st0{clip-path:url(#SVGID_2_);fill:#00C1D4;}
</style>
<g>
	<defs>
		<rect id="SVGID_1_" x="0.5" y="0.5" width="29" height="29"/>
	</defs>
	<clipPath id="SVGID_2_">
		<use xlink:href="#SVGID_1_"  style="overflow:visible;"/>
	</clipPath>
	<path class="st0" d="M23.7,6.3c-2.2-2.2-5.3-3.6-8.7-3.6c-3.4,0-6.5,1.4-8.7,3.6l0,0C4.1,8.5,2.7,11.6,2.7,15
		c0,3.4,1.4,6.5,3.6,8.7h0l0,0c2.2,2.2,5.3,3.6,8.7,3.6c3.4,0,6.4-1.4,8.6-3.5l0-0.1c2.2-2.2,3.6-5.3,3.6-8.7
		C27.3,11.6,25.9,8.6,23.7,6.3L23.7,6.3z M21.3,13.9h-5.2V5c0-0.6-0.5-1.1-1.1-1.1c-0.6,0-1.1,0.5-1.1,1.1v10v0
		c0,0.6,0.5,1.1,1.1,1.1h6.3c0.6,0,1.1-0.5,1.1-1.1S21.9,13.9,21.3,13.9 M15,0.5c4,0,7.6,1.6,10.3,4.2l0.1,0.1
		c2.6,2.6,4.2,6.2,4.2,10.2c0,4-1.6,7.6-4.2,10.3l-0.1,0.1c-2.6,2.6-6.2,4.2-10.2,4.2c-4,0-7.6-1.6-10.2-4.3l0,0
		C2.1,22.6,0.5,19,0.5,15c0-4,1.6-7.6,4.2-10.2l0,0v0C7.4,2.1,11,0.5,15,0.5"/>
</g>
</svg>
