<?xml version="1.0" encoding="utf-8"?>
<!-- Generator: Adobe Illustrator 25.3.1, SVG Export Plug-In . SVG Version: 6.00 Build 0)  -->
<svg version="1.1" id="Ebene_1" xmlns="http://www.w3.org/2000/svg" xmlns:xlink="http://www.w3.org/1999/xlink" x="0px" y="0px"
	 viewBox="0 0 30 30" style="enable-background:new 0 0 30 30;" xml:space="preserve">
<style type="text/css">
	.st0{clip-path:url(#SVGID_2_);fill:#00C1D4;}
</style>
<g>
	<defs>
		<rect id="SVGID_1_" x="1.1" y="0.5" width="27.8" height="29"/>
	</defs>
	<clipPath id="SVGID_2_">
		<use xlink:href="#SVGID_1_"  style="overflow:visible;"/>
	</clipPath>
	<path class="st0" d="M22.6,7c-2-2-4.7-3.3-7.6-3.3C12,3.7,9.4,5,7.4,7L7.4,7c-2,2-3.2,4.9-3.2,8c0,3.1,1.2,5.9,3.2,8
		c2,2,4.7,3.3,7.6,3.3c2.9,0,5.6-1.2,7.6-3.2l0.1-0.1c1.9-2,3.2-4.9,3.2-8C25.8,11.9,24.6,9.1,22.6,7L22.6,7z M18.7,8.9L15,12.7
		l-3.7-3.8c-0.6-0.6-1.6-0.6-2.2,0c-0.6,0.6-0.6,1.7,0,2.3l3.7,3.8l-3.7,3.8c-0.6,0.6-0.6,1.7,0,2.3c0.6,0.6,1.6,0.6,2.2,0l3.7-3.8
		l3.7,3.8c0.6,0.6,1.6,0.6,2.2,0c0.6-0.6,0.6-1.6,0-2.3L17.2,15l3.7-3.8c0.6-0.6,0.6-1.6,0-2.3C20.2,8.3,19.2,8.3,18.7,8.9 M15,0.5
		c3.8,0,7.3,1.6,9.8,4.2l0,0v0c2.5,2.6,4.1,6.3,4.1,10.3s-1.6,7.6-4.1,10.3l-0.1,0.1c-2.5,2.6-5.9,4.2-9.7,4.2
		c-3.8,0-7.3-1.6-9.8-4.2l0,0v0C2.7,22.6,1.1,19,1.1,15S2.7,7.4,5.2,4.7l0.1-0.1C7.8,2.1,11.2,0.5,15,0.5"/>
</g>
</svg>
