<?xml version="1.0" encoding="utf-8"?>
<!-- Generator: Adobe Illustrator 25.3.1, SVG Export Plug-In . SVG Version: 6.00 Build 0)  -->
<svg version="1.1" id="Ebene_1" xmlns="http://www.w3.org/2000/svg" xmlns:xlink="http://www.w3.org/1999/xlink" x="0px" y="0px"
	 viewBox="0 0 30 30" style="enable-background:new 0 0 30 30;" xml:space="preserve">
<style type="text/css">
	.st0{clip-path:url(#SVGID_2_);fill:#00C1D4;}
</style>
<g>
	<defs>
		<rect id="SVGID_1_" x="1.1" y="0.5" width="27.8" height="29"/>
	</defs>
	<clipPath id="SVGID_2_">
		<use xlink:href="#SVGID_1_"  style="overflow:visible;"/>
	</clipPath>
	<path class="st0" d="M22.6,23L22.6,23c-2,2.1-4.7,3.3-7.6,3.3c-3,0-5.7-1.3-7.6-3.3c-2-2-3.2-4.9-3.2-8c0-3.1,1.2-5.9,3.2-8L7.4,7
		C9.4,5,12,3.7,15,3.7c3,0,5.7,1.3,7.6,3.3v0c2,2,3.2,4.9,3.2,8C25.8,18.1,24.6,20.9,22.6,23 M24.8,4.7L24.8,4.7L24.8,4.7
		c-2.5-2.6-6-4.2-9.8-4.2c-3.8,0-7.2,1.6-9.7,4.2L5.2,4.7C2.7,7.4,1.1,11,1.1,15s1.6,7.6,4.1,10.3l0,0l0,0c2.5,2.6,6,4.2,9.8,4.2
		c3.8,0,7.2-1.6,9.7-4.2l0.1-0.1c2.5-2.6,4.1-6.3,4.1-10.3S27.3,7.4,24.8,4.7 M23.3,10.2c-0.6-0.6-1.6-0.6-2.2,0l-8.7,9.1l-3.6-3.8
		c-0.6-0.6-1.6-0.6-2.2,0c-0.6,0.6-0.6,1.6,0,2.3l4.6,4.8l0.1,0.1c0.6,0.6,1.6,0.6,2.2,0l9.8-10.3C23.9,11.8,23.9,10.8,23.3,10.2"/>
</g>
</svg>
