<?xml version="1.0" encoding="utf-8"?>
<!-- Generator: Adobe Illustrator 25.3.1, SVG Export Plug-In . SVG Version: 6.00 Build 0)  -->
<svg version="1.1" id="Ebene_1" xmlns="http://www.w3.org/2000/svg" xmlns:xlink="http://www.w3.org/1999/xlink" x="0px" y="0px"
	 viewBox="0 0 30 30" style="enable-background:new 0 0 30 30;" xml:space="preserve">
<style type="text/css">
	.st0{clip-path:url(#SVGID_2_);fill:#00C1D4;}
</style>
<g>
	<defs>
		<rect id="SVGID_1_" x="1.1" y="0.5" width="27.8" height="29"/>
	</defs>
	<clipPath id="SVGID_2_">
		<use xlink:href="#SVGID_1_"  style="overflow:visible;"/>
	</clipPath>
	<path class="st0" d="M17.4,17.5c-0.6,0.6-1.5,1-2.4,1c-0.9,0-1.8-0.4-2.4-1s-1-1.5-1-2.5c0-1,0.4-1.9,1-2.5c0.6-0.6,1.5-1,2.4-1
		c0.9,0,1.8,0.4,2.4,1c0.6,0.6,1,1.5,1,2.5C18.4,16,18,16.9,17.4,17.5 M15,10c-1.3,0-2.5,0.6-3.4,1.5c-0.9,0.9-1.4,2.1-1.4,3.5
		c0,1.4,0.5,2.6,1.4,3.5c0.9,0.9,2.1,1.5,3.4,1.5s2.5-0.6,3.4-1.5c0.9-0.9,1.4-2.1,1.4-3.5c0-1.4-0.5-2.6-1.4-3.5
		C17.5,10.6,16.3,10,15,10 M26.6,16.1h-2.4c-0.6,0-1,0.4-1.1,1c-0.1,0.4-0.2,0.9-0.4,1.3c-0.2,0.4-0.4,0.9-0.6,1.3
		c-0.3,0.5-0.2,1.1,0.2,1.5h0l1.7,1.8l-1.4,1.5l-1.7-1.8c-0.4-0.4-1-0.5-1.5-0.1c-0.4,0.2-0.7,0.4-1.2,0.6c-0.4,0.2-0.9,0.3-1.3,0.4
		c-0.5,0.1-0.9,0.6-0.9,1.1v2.5h-2v-2.5c0-0.6-0.4-1.1-0.9-1.2c-0.4-0.1-0.8-0.2-1.2-0.4l-0.1,0c-0.4-0.2-0.8-0.4-1.2-0.6
		c-0.5-0.3-1-0.2-1.4,0.2l0,0l-1.7,1.8l-1.4-1.5l1.7-1.8c0.4-0.4,0.4-1,0.2-1.5c-0.2-0.4-0.5-0.8-0.6-1.3l0-0.1
		C7.1,17.9,7,17.4,6.9,17c-0.1-0.5-0.6-0.9-1.1-0.9v0H3.4V14h2.4c0.6,0,1-0.4,1.1-1c0.1-0.4,0.2-0.9,0.4-1.3l0-0.1
		c0.2-0.4,0.4-0.8,0.6-1.2c0.3-0.5,0.2-1.1-0.2-1.4l0,0L6.1,7.2l1.4-1.5l1.7,1.8c0.4,0.4,1,0.5,1.4,0.2c0.4-0.2,0.8-0.5,1.2-0.7
		c0.4-0.2,0.9-0.3,1.3-0.4C13.6,6.4,14,5.9,14,5.4h0V2.9h2v2.5c0,0.6,0.4,1.1,0.9,1.2c0.4,0.1,0.8,0.2,1.2,0.4
		c0.4,0.2,0.8,0.4,1.2,0.7c0.5,0.3,1.1,0.2,1.4-0.2l1.7-1.7l1.4,1.5l-1.7,1.8c-0.4,0.4-0.4,1.1-0.1,1.5c0.2,0.4,0.4,0.8,0.6,1.2
		l0,0.1c0.2,0.4,0.3,0.8,0.4,1.3c0.1,0.5,0.6,0.9,1.1,0.9v0h2.4L26.6,16.1z M27.8,11.6h-2.7c-0.1-0.3-0.2-0.5-0.3-0.8l0-0.1
		c-0.1-0.3-0.2-0.5-0.4-0.8l1.9-2l0,0c0.4-0.5,0.4-1.2,0-1.7l-3-3.2v0c-0.4-0.5-1.1-0.5-1.6,0l-1.9,2c-0.3-0.1-0.5-0.3-0.8-0.4
		c-0.3-0.1-0.5-0.2-0.8-0.3V1.7c0-0.6-0.5-1.2-1.1-1.2h-4.3c-0.6,0-1.1,0.5-1.1,1.2v2.8c-0.3,0.1-0.5,0.2-0.8,0.3
		c-0.3,0.1-0.5,0.2-0.8,0.4L8.3,3.2L8.3,3.2c-0.4-0.5-1.2-0.5-1.6,0l-3,3.1l0,0C3.2,6.8,3.2,7.5,3.7,8l1.9,2
		c-0.1,0.2-0.2,0.5-0.3,0.7l0,0.1C5.1,11,5,11.3,4.9,11.6H2.2c-0.6,0-1.1,0.5-1.1,1.2v4.5c0,0.6,0.5,1.2,1.1,1.2h2.7
		c0.1,0.3,0.2,0.5,0.3,0.8l0,0.1c0.1,0.3,0.2,0.5,0.4,0.8L3.7,22L3.7,22c-0.4,0.5-0.4,1.2,0,1.7l3,3.1l0,0c0.4,0.5,1.2,0.5,1.6,0
		l1.9-2c0.2,0.1,0.5,0.2,0.7,0.3l0.1,0c0.3,0.1,0.5,0.2,0.8,0.3v2.8c0,0.6,0.5,1.2,1.1,1.2h4.3c0.6,0,1.1-0.5,1.1-1.2v-2.8
		c0.3-0.1,0.5-0.2,0.8-0.3c0.3-0.1,0.5-0.2,0.8-0.4l1.9,2l0,0c0.4,0.5,1.2,0.5,1.6,0l3-3.1l0,0c0.4-0.5,0.4-1.2,0-1.7l-1.9-2
		c0.1-0.3,0.2-0.5,0.4-0.8c0.1-0.3,0.2-0.5,0.3-0.8h2.7v0c0.6,0,1.1-0.5,1.1-1.2l0-4.4l0-0.1C28.9,12.1,28.4,11.6,27.8,11.6"/>
</g>
</svg>
