<?xml version="1.0" encoding="utf-8"?>
<!-- Generator: Adobe Illustrator 25.3.1, SVG Export Plug-In . SVG Version: 6.00 Build 0)  -->
<svg version="1.1" id="Ebene_1" xmlns="http://www.w3.org/2000/svg" xmlns:xlink="http://www.w3.org/1999/xlink" x="0px" y="0px"
	 viewBox="0 0 30 30" style="enable-background:new 0 0 30 30;" xml:space="preserve">
<style type="text/css">
	.st0{clip-path:url(#SVGID_2_);fill:#00C1D4;}
</style>
<g>
	<defs>
		<rect id="SVGID_1_" x="0.9" y="0.5" width="28.1" height="29"/>
	</defs>
	<clipPath id="SVGID_2_">
		<use xlink:href="#SVGID_1_"  style="overflow:visible;"/>
	</clipPath>
	<path class="st0" d="M24.6,16.4H5.4L7,27.3h16L24.6,16.4z M24.5,0.9L15,11.7L5.5,0.9C5.1,0.4,4.5,0.4,4,0.8
		C3.6,1.2,3.5,1.8,3.9,2.3l10.3,11.8c0,0,0.1,0.1,0.1,0.1c0.4,0.4,1.1,0.3,1.5-0.1L26.1,2.3c0.4-0.4,0.3-1.1-0.1-1.5
		C25.5,0.4,24.9,0.4,24.5,0.9 M20.3,19.1v6.2c0,0.4,0.3,0.7,0.7,0.7c0.4,0,0.6-0.3,0.6-0.7v-6.2c0-0.4-0.3-0.7-0.6-0.7
		C20.6,18.4,20.3,18.7,20.3,19.1 M16.3,19.1v6.2c0,0.4,0.3,0.7,0.7,0.7c0.4,0,0.6-0.3,0.6-0.7v-6.2c0-0.4-0.3-0.7-0.6-0.7
		C16.6,18.4,16.3,18.7,16.3,19.1 M12.4,19.1v6.2c0,0.4,0.3,0.7,0.7,0.7c0.4,0,0.6-0.3,0.6-0.7v-6.2c0-0.4-0.3-0.7-0.6-0.7
		C12.7,18.4,12.4,18.7,12.4,19.1 M8.4,19.1v6.2c0,0.4,0.3,0.7,0.6,0.7c0.4,0,0.7-0.3,0.7-0.7v-6.2c0-0.4-0.3-0.7-0.7-0.7
		C8.7,18.4,8.4,18.7,8.4,19.1 M2,10.8L2,10.8h7.5c0.6,0,1.1,0.5,1.1,1.1c0,0.6-0.5,1.1-1.1,1.1H3.1v2.2h23.8V13h-6.4
		c-0.6,0-1.1-0.5-1.1-1.1c0-0.6,0.5-1.1,1.1-1.1H28c0.6,0,1.1,0.5,1.1,1.1v0v4.3c0,0.6-0.5,1.1-1.1,1.1h0h-1.3L25,28.6
		c-0.1,0.5-0.5,0.9-1.1,0.9v0H6c-0.6,0-1-0.4-1.1-1L3.4,17.3H2c-0.6,0-1.1-0.5-1.1-1.1v0v-4.3C0.9,11.3,1.4,10.8,2,10.8"/>
</g>
</svg>
