<?xml version="1.0" encoding="utf-8"?>
<!-- Generator: Adobe Illustrator 25.3.1, SVG Export Plug-In . SVG Version: 6.00 Build 0)  -->
<svg version="1.1" id="Ebene_1" xmlns="http://www.w3.org/2000/svg" xmlns:xlink="http://www.w3.org/1999/xlink" x="0px" y="0px"
	 viewBox="0 0 30 30" style="enable-background:new 0 0 30 30;" xml:space="preserve">
<style type="text/css">
	.st0{clip-path:url(#SVGID_2_);fill:#00C1D4;}
</style>
<g>
	<defs>
		<rect id="SVGID_1_" x="0.5" y="6.6" width="29" height="16.7"/>
	</defs>
	<clipPath id="SVGID_2_">
		<use xlink:href="#SVGID_1_"  style="overflow:visible;"/>
	</clipPath>
	<path class="st0" d="M23.2,21.4c-2.4,0-4.4-2-4.4-4.4c0-2.4,2-4.4,4.4-4.4c2.4,0,4.4,2,4.4,4.4C27.6,19.5,25.6,21.4,23.2,21.4
		 M17.7,13.8c-0.1-0.9-0.2-1.9-0.3-2.8v0c0-0.8,0.3-1.6,0.9-2.1c0.5-0.5,1.3-0.9,2.1-0.9c0.4,0,0.9,0.1,1.2,0.3l0,0
		c0.4,0.2,0.7,0.4,1,0.7L22.7,9l1.6,1.7c-0.4-0.1-0.7-0.1-1.1-0.1C20.9,10.7,18.8,11.9,17.7,13.8 M15,13.6c-0.5,0-0.9,0.1-1.3,0.3
		l0.2-2.9v-0.1c0-0.3,0.1-0.6,0.3-0.7c0.2-0.2,0.5-0.3,0.7-0.3c0.3,0,0.6,0.1,0.7,0.3c0.2,0.2,0.3,0.5,0.3,0.7v0.1l0,0.1v0
		c0.1,0.9,0.2,1.9,0.2,2.8C15.9,13.7,15.5,13.6,15,13.6 M15.8,17.6L15.8,17.6L15.8,17.6C15.6,17.9,15.3,18,15,18
		c-0.3,0-0.6-0.1-0.8-0.3c-0.2-0.2-0.3-0.5-0.3-0.8c0-0.3,0.1-0.6,0.3-0.8l0,0c0.2-0.2,0.5-0.3,0.8-0.3c0.3,0,0.6,0.1,0.8,0.3
		c0.2,0.2,0.3,0.5,0.3,0.8C16.1,17.2,16,17.4,15.8,17.6 M12.6,11.2c-0.1,0.9-0.2,1.7-0.3,2.6c-1.1-1.9-3.1-3.1-5.4-3.1
		c-0.4,0-0.7,0-1.1,0.1L7.3,9L7.4,9c0.3-0.3,0.6-0.6,1-0.7l0,0C8.8,8,9.2,7.9,9.6,7.9c0.8,0,1.6,0.3,2.1,0.9
		c0.5,0.5,0.9,1.3,0.9,2.1C12.6,11,12.6,11.1,12.6,11.2 M6.8,21.4c-2.4,0-4.4-2-4.4-4.4c0-2.4,2-4.4,4.4-4.4c2.4,0,4.4,2,4.4,4.4
		C11.3,19.5,9.3,21.4,6.8,21.4 M29.2,15.1L29.2,15.1c-0.1-0.2-0.1-0.3-0.2-0.5c-0.3-0.8-0.8-1.4-1.3-2l-4.1-4.5l0,0
		c-0.4-0.5-0.9-0.8-1.4-1.1l-0.1,0c-0.5-0.2-1.1-0.4-1.8-0.4c-1.2,0-2.3,0.5-3,1.3C17,8.2,16.7,8.6,16.5,9c-0.4-0.3-0.9-0.5-1.5-0.5
		c-0.6,0-1.1,0.2-1.5,0.6c-0.2-0.4-0.5-0.8-0.8-1.2l0,0v0c-0.8-0.8-1.8-1.3-3-1.3C9,6.6,8.4,6.8,7.9,7L7.8,7c-0.5,0.3-1,0.6-1.4,1.1
		l0,0l-4.1,4.5c-0.5,0.6-1,1.3-1.3,2c-0.1,0.3-0.2,0.6-0.3,0.9l0,0C0.6,16,0.5,16.5,0.5,17c0,1.7,0.7,3.3,1.9,4.5
		c1.1,1.2,2.7,1.9,4.5,1.9c1.6,0,3.1-0.6,4.3-1.7c0.7-0.7,1.3-1.5,1.7-2.4c0.6,0.6,1.4,0.9,2.3,0.9c0.9,0,1.6-0.3,2.2-0.9
		c0.4,0.9,0.9,1.8,1.7,2.4c1.1,1,2.6,1.7,4.3,1.7c1.7,0,3.3-0.7,4.5-1.9h0c1-1,1.7-2.4,1.8-4C29.5,16.7,29.4,15.9,29.2,15.1"/>
</g>
</svg>
