<?xml version="1.0" encoding="utf-8"?>
<!-- Generator: Adobe Illustrator 25.3.1, SVG Export Plug-In . SVG Version: 6.00 Build 0)  -->
<svg version="1.1" id="Ebene_1" xmlns="http://www.w3.org/2000/svg" xmlns:xlink="http://www.w3.org/1999/xlink" x="0px" y="0px"
     viewBox="0 0 30 30" style="enable-background:new 0 0 30 30;" xml:space="preserve">
<style type="text/css">

</style>
    <g>
	<defs>
		<rect id="SVGID_1_" x="0.5" y="0.5" width="29" height="29"/>
	</defs>
        <clipPath id="SVGID_2_">
		<use xlink:href="#SVGID_1_"  style="overflow:visible;"/>
	</clipPath>
        <path class="st0" d="M22.3,17.9L22.3,17.9c0.1-0.1,0.2-0.2,0.4-0.2s0.3,0.1,0.4,0.2v0c0.1,0.1,0.2,0.2,0.2,0.4
		c0,0.2-0.1,0.3-0.2,0.4v0c-0.1,0.1-0.2,0.2-0.4,0.2s-0.3-0.1-0.4-0.2v0c-0.1-0.1-0.2-0.2-0.2-0.4C22.2,18.1,22.2,18,22.3,17.9
		 M21.4,19.6c0.3,0.3,0.8,0.6,1.3,0.6c0.5,0,1-0.2,1.3-0.6l0,0c0.3-0.3,0.6-0.8,0.6-1.3c0-0.5-0.2-1-0.6-1.3h0
		c-0.3-0.3-0.8-0.6-1.3-0.6c-0.5,0-1,0.2-1.3,0.6h0c-0.3,0.3-0.6,0.8-0.6,1.3C20.8,18.8,21,19.3,21.4,19.6L21.4,19.6z M17.2,17.9
		L17.2,17.9c0.1-0.1,0.2-0.2,0.4-0.2s0.3,0.1,0.4,0.2l0,0c0.1,0.1,0.2,0.2,0.2,0.4c0,0.2-0.1,0.3-0.2,0.4l0,0
		c-0.1,0.1-0.2,0.2-0.4,0.2s-0.3-0.1-0.4-0.2v0c-0.1-0.1-0.2-0.2-0.2-0.4C17,18.1,17.1,18,17.2,17.9 M16.2,19.6
		c0.3,0.3,0.8,0.6,1.3,0.6c0.5,0,1-0.2,1.3-0.6l0,0c0.3-0.3,0.6-0.8,0.6-1.3c0-0.5-0.2-1-0.6-1.3h0c-0.3-0.3-0.8-0.6-1.3-0.6
		c-0.5,0-1,0.2-1.3,0.6h0c-0.3,0.3-0.6,0.8-0.6,1.3C15.7,18.8,15.9,19.3,16.2,19.6L16.2,19.6z M6.9,23L6.9,23
		c0.1-0.1,0.2-0.2,0.4-0.2c0.2,0,0.3,0.1,0.4,0.2l0,0c0.1,0.1,0.2,0.2,0.2,0.4c0,0.2-0.1,0.3-0.2,0.4l0,0c-0.1,0.1-0.2,0.2-0.4,0.2
		c-0.2,0-0.3-0.1-0.4-0.2v0c-0.1-0.1-0.2-0.2-0.2-0.4C6.7,23.2,6.8,23.1,6.9,23 M5.9,24.7c0.3,0.3,0.8,0.6,1.3,0.6
		c0.5,0,1-0.2,1.3-0.6h0c0.3-0.3,0.6-0.8,0.6-1.3c0-0.5-0.2-1-0.6-1.3h0c-0.3-0.3-0.8-0.6-1.3-0.6c-0.5,0-1,0.2-1.3,0.6h0
		c-0.3,0.3-0.6,0.8-0.6,1.3C5.4,23.9,5.6,24.4,5.9,24.7L5.9,24.7z M6.9,17.9L6.9,17.9c0.1-0.1,0.2-0.2,0.4-0.2
		c0.2,0,0.3,0.1,0.4,0.2l0,0c0.1,0.1,0.2,0.2,0.2,0.4c0,0.2-0.1,0.3-0.2,0.4l0,0c-0.1,0.1-0.2,0.2-0.4,0.2c-0.2,0-0.3-0.1-0.4-0.2v0
		c-0.1-0.1-0.2-0.2-0.2-0.4C6.7,18.1,6.8,18,6.9,17.9 M5.9,19.6c0.3,0.3,0.8,0.6,1.3,0.6c0.5,0,1-0.2,1.3-0.6l0,0
		c0.3-0.3,0.6-0.8,0.6-1.3c0-0.5-0.2-1-0.6-1.3h0c-0.3-0.3-0.8-0.6-1.3-0.6c-0.5,0-1,0.2-1.3,0.6h0c-0.3,0.3-0.6,0.8-0.6,1.3
		C5.4,18.8,5.6,19.3,5.9,19.6L5.9,19.6z M17.2,23L17.2,23c0.1-0.1,0.2-0.2,0.4-0.2s0.3,0.1,0.4,0.2l0,0c0.1,0.1,0.2,0.2,0.2,0.4
		c0,0.2-0.1,0.3-0.2,0.4l0,0c-0.1,0.1-0.2,0.2-0.4,0.2s-0.3-0.1-0.4-0.2v0c-0.1-0.1-0.2-0.2-0.2-0.4C17,23.2,17.1,23.1,17.2,23
		 M16.2,24.7c0.3,0.3,0.8,0.6,1.3,0.6c0.5,0,1-0.2,1.3-0.6h0c0.3-0.3,0.6-0.8,0.6-1.3c0-0.5-0.2-1-0.6-1.3h0
		c-0.3-0.3-0.8-0.6-1.3-0.6c-0.5,0-1,0.2-1.3,0.6h0c-0.3,0.3-0.6,0.8-0.6,1.3C15.7,23.9,15.9,24.4,16.2,24.7L16.2,24.7z M27.3,7.9
		H2.7V2.7h2.2v1.7C4.9,5,5.4,5.5,6,5.5c0.6,0,1.1-0.5,1.1-1.1V2.7h3.7v1.7c0,0.6,0.5,1.1,1.1,1.1c0.6,0,1.1-0.5,1.1-1.1V2.7h3.7v1.7
		c0,0.6,0.5,1.1,1.1,1.1c0.6,0,1.1-0.5,1.1-1.1V2.7h3.7v1.7c0,0.6,0.5,1.1,1.1,1.1c0.6,0,1.1-0.5,1.1-1.1V2.7h2.2V7.9z M27.3,27.3
		H2.7v-18h24.5V27.3z M28.4,0.5H1.6C1,0.5,0.5,1,0.5,1.6v26.8c0,0.6,0.5,1.1,1.1,1.1h26.8c0.6,0,1.1-0.5,1.1-1.1V1.6
		C29.5,1,29,0.5,28.4,0.5 M12,23L12,23c0.1-0.1,0.2-0.2,0.4-0.2c0.2,0,0.3,0.1,0.4,0.2v0c0.1,0.1,0.2,0.2,0.2,0.4
		c0,0.2-0.1,0.3-0.2,0.4v0c-0.1,0.1-0.2,0.2-0.4,0.2c-0.2,0-0.3-0.1-0.4-0.2v0c-0.1-0.1-0.2-0.2-0.2-0.4C11.9,23.2,11.9,23.1,12,23
		 M11.1,24.7c0.3,0.3,0.8,0.6,1.3,0.6c0.5,0,1-0.2,1.3-0.6h0c0.3-0.3,0.6-0.8,0.6-1.3c0-0.5-0.2-1-0.6-1.3h0
		c-0.3-0.3-0.8-0.6-1.3-0.6c-0.5,0-1,0.2-1.3,0.6h0c-0.3,0.3-0.6,0.8-0.6,1.3C10.5,23.9,10.7,24.4,11.1,24.7L11.1,24.7z M17.2,12.9
		L17.2,12.9c0.1-0.1,0.2-0.2,0.4-0.2s0.3,0.1,0.4,0.2l0,0c0.1,0.1,0.2,0.2,0.2,0.4c0,0.2-0.1,0.3-0.2,0.4c-0.1,0.1-0.2,0.2-0.4,0.2
		s-0.3-0.1-0.4-0.2c-0.1-0.1-0.2-0.2-0.2-0.4C17,13.1,17.1,13,17.2,12.9 M16.2,14.6c0.3,0.3,0.8,0.6,1.3,0.6c0.5,0,1-0.2,1.3-0.6
		c0.3-0.3,0.6-0.8,0.6-1.3c0-0.5-0.2-1-0.6-1.3h0c-0.3-0.3-0.8-0.6-1.3-0.6c-0.5,0-1,0.2-1.3,0.6h0c-0.3,0.3-0.6,0.8-0.6,1.3
		C15.7,13.8,15.9,14.2,16.2,14.6L16.2,14.6z M22.3,12.9L22.3,12.9c0.1-0.1,0.2-0.2,0.4-0.2s0.3,0.1,0.4,0.2v0
		c0.1,0.1,0.2,0.2,0.2,0.4c0,0.2-0.1,0.3-0.2,0.4c-0.1,0.1-0.2,0.2-0.4,0.2s-0.3-0.1-0.4-0.2c-0.1-0.1-0.2-0.2-0.2-0.4
		C22.2,13.1,22.2,13,22.3,12.9 M21.4,14.6c0.3,0.3,0.8,0.6,1.3,0.6c0.5,0,1-0.2,1.3-0.6c0.3-0.3,0.6-0.8,0.6-1.3
		c0-0.5-0.2-1-0.6-1.3h0c-0.3-0.3-0.8-0.6-1.3-0.6c-0.5,0-1,0.2-1.3,0.6h0c-0.3,0.3-0.6,0.8-0.6,1.3C20.8,13.8,21,14.2,21.4,14.6
		L21.4,14.6z M12,17.9L12,17.9c0.1-0.1,0.2-0.2,0.4-0.2c0.2,0,0.3,0.1,0.4,0.2v0c0.1,0.1,0.2,0.2,0.2,0.4c0,0.2-0.1,0.3-0.2,0.4v0
		c-0.1,0.1-0.2,0.2-0.4,0.2c-0.2,0-0.3-0.1-0.4-0.2v0c-0.1-0.1-0.2-0.2-0.2-0.4C11.9,18.1,11.9,18,12,17.9 M11.1,19.6
		c0.3,0.3,0.8,0.6,1.3,0.6c0.5,0,1-0.2,1.3-0.6l0,0c0.3-0.3,0.6-0.8,0.6-1.3c0-0.5-0.2-1-0.6-1.3h0c-0.3-0.3-0.8-0.6-1.3-0.6
		c-0.5,0-1,0.2-1.3,0.6h0c-0.3,0.3-0.6,0.8-0.6,1.3C10.5,18.8,10.7,19.3,11.1,19.6L11.1,19.6z M12,12.9L12,12.9
		c0.1-0.1,0.2-0.2,0.4-0.2c0.2,0,0.3,0.1,0.4,0.2v0c0.1,0.1,0.2,0.2,0.2,0.4c0,0.2-0.1,0.3-0.2,0.4c-0.1,0.1-0.2,0.2-0.4,0.2
		c-0.2,0-0.3-0.1-0.4-0.2c-0.1-0.1-0.2-0.2-0.2-0.4C11.9,13.1,11.9,13,12,12.9 M11.1,14.6c0.3,0.3,0.8,0.6,1.3,0.6
		c0.5,0,1-0.2,1.3-0.6c0.3-0.3,0.6-0.8,0.6-1.3c0-0.5-0.2-1-0.6-1.3h0c-0.3-0.3-0.8-0.6-1.3-0.6c-0.5,0-1,0.2-1.3,0.6h0
		c-0.3,0.3-0.6,0.8-0.6,1.3C10.5,13.8,10.7,14.2,11.1,14.6L11.1,14.6z"/>
</g>
</svg>
