<?xml version="1.0" encoding="utf-8"?>
<!-- Generator: Adobe Illustrator 25.3.1, SVG Export Plug-In . SVG Version: 6.00 Build 0)  -->
<svg version="1.1" id="Ebene_1" xmlns="http://www.w3.org/2000/svg" xmlns:xlink="http://www.w3.org/1999/xlink" x="0px" y="0px"
	 viewBox="0 0 30 30" style="enable-background:new 0 0 30 30;" xml:space="preserve">
<style type="text/css">
	.st0{clip-path:url(#SVGID_2_);fill:#00C1D4;}
</style>
<g>
	<defs>
		<rect id="SVGID_1_" x="0.5" y="2.4" width="29" height="25.2"/>
	</defs>
	<clipPath id="SVGID_2_">
		<use xlink:href="#SVGID_1_"  style="overflow:visible;"/>
	</clipPath>
	<path class="st0" d="M27.3,4.7H2.7v17.8h24.5V4.7z M25.3,19.2c-0.6,0-1.1,0.5-1.1,1.2c0,0.6,0.5,1.2,1.1,1.2c0.6,0,1.1-0.5,1.1-1.2
		C26.4,19.7,25.9,19.2,25.3,19.2 M1.6,2.4L1.6,2.4h26.8c0.6,0,1.1,0.5,1.1,1.2v0v20.1c0,0.6-0.5,1.2-1.1,1.2h0H16.1v1.3l0,0.1h6.2
		c0.4,0,0.7,0.3,0.7,0.7c0,0.4-0.3,0.7-0.7,0.7H7.7c-0.4,0-0.7-0.3-0.7-0.7c0-0.4,0.3-0.7,0.7-0.7h6.2l0-0.1v-1.3H1.6
		c-0.6,0-1.1-0.5-1.1-1.2v0V3.6C0.5,2.9,1,2.4,1.6,2.4"/>
</g>
</svg>
