<?xml version="1.0" encoding="utf-8"?>
<!-- Generator: Adobe Illustrator 25.3.1, SVG Export Plug-In . SVG Version: 6.00 Build 0)  -->
<svg version="1.1" id="Ebene_1" xmlns="http://www.w3.org/2000/svg" xmlns:xlink="http://www.w3.org/1999/xlink" x="0px" y="0px"
	 viewBox="0 0 30 30" style="enable-background:new 0 0 30 30;" xml:space="preserve">
<style type="text/css">
	.st0{clip-path:url(#SVGID_2_);fill:#00C1D4;}
</style>
<g>
	<defs>
		<rect id="SVGID_1_" x="2.8" y="0.5" width="24.4" height="29"/>
	</defs>
	<clipPath id="SVGID_2_">
		<use xlink:href="#SVGID_1_"  style="overflow:visible;"/>
	</clipPath>
	<path class="st0" d="M15,2.7c-3,0-5.7,1.8-6.8,4.5c-0.4,0.9-0.6,1.8-0.6,2.8c0,2.9,1.8,5.6,4.5,6.8c1.8,0.8,3.9,0.8,5.7,0
		c2.7-1.1,4.5-3.8,4.5-6.8C22.3,6.1,19.1,2.7,15,2.7 M19.9,18.3c0.3,0,0.6,0.1,0.9,0.1c0.5,0.1,1,0.3,1.5,0.5c3,1.2,5,4.2,5,7.4v2
		c0,0.6-0.5,1.1-1.1,1.1h0H3.9c-0.6,0-1.1-0.5-1.1-1.1v0v-2c0-3.2,2-6.2,5-7.4c0.8-0.3,1.6-0.5,2.4-0.6c-2.9-1.7-4.7-4.9-4.7-8.3
		c0-5.3,4.3-9.6,9.6-9.6c5.3,0,9.6,4.3,9.6,9.6C24.6,13.4,22.8,16.6,19.9,18.3 M19.2,20.5h-8.3c-0.8,0-1.5,0.2-2.2,0.4
		C6.4,21.9,5,24,5,26.3v0.9h20v-0.9c0-1.9-1-3.8-2.6-4.8c-0.3-0.2-0.6-0.4-1-0.5c-0.3-0.1-0.7-0.3-1.1-0.3
		C19.9,20.6,19.5,20.5,19.2,20.5"/>
</g>
</svg>
