<svg width="29" height="24" viewBox="0 0 29 24" fill="none" xmlns="http://www.w3.org/2000/svg">
    <path d="M21.5687 15.7363V1.05495C21.5687 0.439561 21.025 0 20.4813 0H1.0875C0.453125 0 0 0.439561 0 1.05495V15.6484C0 16.2637 0.453125 16.7033 1.0875 16.7033H20.3906C21.025 16.7912 21.5687 16.3516 21.5687 15.7363ZM19.3031 14.5934H2.26562V2.1978H19.3937V14.5934H19.3031ZM27.9125 7.20879C27.2781 7.20879 26.825 7.73626 26.825 8.26374V21.8022H8.51875C7.88437 21.8022 7.43125 22.3297 7.43125 22.8571C7.43125 23.4725 7.975 23.9121 8.51875 23.9121H27.8219C28.4563 23.9121 28.9094 23.4725 28.9094 22.8571V8.26374C29 7.64835 28.4562 7.20879 27.9125 7.20879ZM24.1969 20.3956C24.8313 20.3956 25.2844 19.8681 25.2844 19.3407V4.65934C25.2844 4.04396 24.7406 3.6044 24.1969 3.6044C23.5625 3.6044 23.1094 4.13187 23.1094 4.65934V18.1978H4.80313C4.16875 18.1978 3.71562 18.7253 3.71562 19.2527C3.71562 19.8681 4.25938 20.3077 4.80313 20.3077H24.1969V20.3956Z" fill="#929292"/>
</svg>
