<svg width="16" height="16" viewBox="0 0 16 16" fill="none" xmlns="http://www.w3.org/2000/svg">
    <path d="M8 0C3.57062 0 0 3.57062 0 8C0 12.4294 3.57062 16 8 16C12.4294 16 16 12.4294 16 8C16 3.57062 12.3842 0 8 0ZM8 14.6441C4.33898 14.6441 1.35593 11.661 1.35593 8C1.35593 4.33898 4.33898 1.35593 8 1.35593C11.661 1.35593 14.6441 4.33898 14.6441 8C14.6441 11.661 11.661 14.6441 8 14.6441Z" fill="#00C1D4"/>
    <path d="M8.76844 6.50854H7.18652V11.9775H8.76844V6.50854Z" fill="#00C1D4"/>
    <path d="M7.9999 3.97729C7.72872 3.97729 7.54792 4.06769 7.36713 4.24848C7.18634 4.42927 7.09595 4.65526 7.09595 4.88125C7.09595 5.15244 7.18634 5.33323 7.36713 5.51402C7.54792 5.69481 7.77391 5.7852 7.9999 5.7852C8.27109 5.7852 8.45188 5.69481 8.63267 5.51402C8.81346 5.33323 8.90386 5.10724 8.90386 4.88125C8.90386 4.61006 8.81346 4.42927 8.63267 4.24848C8.45188 4.06769 8.22589 3.97729 7.9999 3.97729Z" fill="#00C1D4"/>
</svg>
