<svg width="21" height="24" viewBox="0 0 21 24" fill="none" xmlns="http://www.w3.org/2000/svg">
    <path d="M19.7618 8.28914C19.2855 5.54297 17.4993 3.15498 14.9985 1.8416C12.4978 0.528206 9.52076 0.289408 7.02003 1.364C3.92389 2.55799 1.8995 5.06537 1.185 8.28914C0.589592 11.3935 1.42317 14.6173 3.80481 16.8859C5.11472 18.3187 6.5437 19.632 7.97269 21.0648C8.5681 21.6618 9.04443 22.1394 9.63984 22.7364C9.99709 23.0946 10.2353 23.214 10.5925 23.214C10.9497 23.214 11.1879 23.0946 11.5452 22.7364L12.6169 21.6618C14.165 20.1096 15.713 18.5575 17.2611 17.0053C19.0473 15.2143 20 12.9457 20 10.3189C20 9.60253 19.8809 9.00554 19.7618 8.28914ZM19.0473 10.1995C19.0473 12.5875 18.2138 14.6173 16.5466 16.2889C14.9985 17.8411 13.4505 19.3933 11.9024 20.9454L10.7116 22.02C10.4734 22.2588 10.4734 22.2588 10.1162 22.02C9.52076 21.423 9.04443 20.9454 8.44902 20.3484C7.13912 19.0351 5.71013 17.6023 4.28114 16.1695C2.37583 14.1397 1.42317 11.2741 2.01858 8.40854C2.61399 5.54297 4.51931 3.27438 7.2582 2.19979C8.32994 1.7222 9.40168 1.6028 10.4734 1.6028C11.9024 1.6028 13.3314 1.96099 14.6413 2.67739C16.9039 3.87138 18.4519 6.02056 18.9283 8.52794C19.0473 9.12494 19.0473 9.72193 19.0473 10.1995Z" fill="#00C1D4" stroke="#00C1D4" stroke-width="0.5" stroke-miterlimit="10"/>
    <path d="M10.5928 5.42358C8.09203 5.42358 6.06763 7.45337 6.06763 9.84134C6.06763 11.0353 6.54396 12.1099 7.37753 13.0651C8.21111 13.9009 9.40193 14.3785 10.5928 14.3785C13.0935 14.3785 15.1179 12.3487 15.1179 9.96074C15.1179 8.76675 14.6416 7.57276 13.808 6.73697C12.8553 5.90118 11.7836 5.42358 10.5928 5.42358ZM10.5928 13.5427C9.6401 13.5427 8.68744 13.1845 7.97294 12.4681C7.37753 11.7517 6.9012 10.9159 6.9012 9.96074C6.9012 8.05036 8.56836 6.37878 10.4737 6.37878C11.4263 6.37878 12.379 6.73697 12.9744 7.45337C13.6889 8.16976 14.0461 9.00555 14.0461 9.96074C14.1652 11.9905 12.6172 13.5427 10.5928 13.5427Z" fill="#00C1D4" stroke="#00C1D4" stroke-width="0.5" stroke-miterlimit="10"/>
</svg>
