<svg width="20" height="23" viewBox="0 0 20 23" fill="none" xmlns="http://www.w3.org/2000/svg">
    <path d="M17.8236 15.5889C16.9325 14.6944 15.7866 14.0556 14.5135 13.6722C14.7682 13.4167 15.0228 13.2889 15.2774 13.0333C16.6778 11.6278 17.4417 9.83889 17.4417 7.66667C17.4417 5.49444 16.5505 3.70556 15.2774 2.3C14.0043 0.894444 12.0946 0 10.0576 0C8.02064 0 6.11096 0.894444 4.71053 2.17222C3.3101 3.57778 2.54623 5.49444 2.54623 7.53889C2.54623 9.58333 3.43742 11.5 4.71053 12.9056C4.96516 13.1611 5.21978 13.4167 5.4744 13.5444C4.20129 13.9278 3.05548 14.5667 2.1643 15.4611C0.76387 16.8667 0 18.6556 0 20.7V22.1056C0 22.6167 0.381935 23 0.891182 23H19.0968C19.606 23 19.9879 22.6167 19.9879 22.1056V20.7C20.1152 18.7833 19.2241 16.8667 17.8236 15.5889ZM4.3286 7.53889C4.3286 6.00556 4.96516 4.47222 5.98365 3.45C7.00214 2.42778 8.40257 1.78889 10.0576 1.78889C11.7127 1.78889 13.1131 2.42778 14.1316 3.45C15.1501 4.6 15.7866 6.00556 15.7866 7.53889C15.7866 9.07222 15.1501 10.6056 14.1316 11.6278C13.1131 12.65 11.5854 13.4167 10.0576 13.4167C8.52988 13.4167 7.00214 12.65 5.98365 11.6278C4.96516 10.6056 4.3286 9.2 4.3286 7.53889ZM18.3329 21.3389H1.78236V20.8278C1.78236 19.2944 2.41892 17.8889 3.43742 16.8667C4.45591 15.8444 5.85634 15.2056 7.38408 15.2056H9.93031H12.4765C14.0043 15.2056 15.4047 15.8444 16.4232 16.8667C17.4417 17.8889 18.0783 19.2944 18.0783 20.8278V21.3389H18.3329Z" fill="#00C1D4"/>
</svg>
