<svg width="15" height="25" viewBox="0 0 15 25" fill="none" xmlns="http://www.w3.org/2000/svg">
    <path d="M12.5955 1C9.31008 1 6.07302 1 2.78763 1C1.57977 1 1 1.62976 1 2.84083C1 6.08651 1 9.38063 1 12.6263C1 15.9204 1 19.1661 1 22.4602C1 23.6713 1.57977 24.3011 2.83595 24.3011C6.07301 24.3011 9.31008 24.3011 12.5955 24.3011C13.8033 24.3011 14.4314 23.6713 14.4314 22.4602C14.4314 15.9204 14.4314 9.42907 14.4314 2.88928C14.4314 1.62976 13.8516 1 12.5955 1ZM13.8033 22.6056C13.8033 23.2838 13.4651 23.6229 12.7887 23.6229C9.45502 23.6229 6.12133 23.6229 2.78763 23.6229C2.11123 23.6229 1.72472 23.2353 1.72472 22.5571C1.72472 21.782 1.72472 20.9585 1.72472 20.135C1.96629 20.0381 2.11123 20.0865 2.25618 20.0865C5.92807 20.0865 9.59997 20.0865 13.2719 20.0865C13.8516 20.0865 13.8516 20.0865 13.8516 20.6678C13.8033 21.346 13.8033 21.9758 13.8033 22.6056ZM13.8033 18.8755C13.8033 19.4568 13.8033 19.4568 13.2719 19.4568C9.59997 19.4568 5.87976 19.4568 2.20786 19.4568C1.6764 19.4568 1.6764 19.4568 1.6764 18.9239C1.6764 14.1765 1.6764 9.47752 1.6764 4.73011C1.6764 4.24568 1.6764 4.19724 2.20786 4.19724C5.87976 4.19724 9.59997 4.19724 13.2719 4.19724C13.8033 4.19724 13.8033 4.19724 13.8033 4.77855C13.8033 7.15226 13.8033 9.47752 13.8033 11.8512C13.8033 14.2249 13.8033 16.5502 13.8033 18.8755ZM12.8853 3.61592C9.3584 3.61592 5.83144 3.61592 2.25618 3.61592C2.06292 3.61592 1.86966 3.66436 1.62809 3.56748C1.62809 3.22838 1.62809 2.93772 1.62809 2.59862C1.6764 2.0173 2.0146 1.6782 2.59438 1.62976C3.22246 1.62976 3.89887 1.62976 4.52695 1.62976C7.08762 1.62976 9.6966 1.62976 12.2573 1.62976C12.4022 1.62976 12.5471 1.62976 12.6921 1.62976C13.4168 1.6782 13.755 1.96886 13.755 2.6955C13.8033 3.80969 13.9 3.61592 12.8853 3.61592Z" fill="#00C1D4" stroke="#00C1D4" stroke-width="0.5" stroke-miterlimit="10"/>
    <path d="M7.71592 20.7163C7.03952 20.7163 6.50806 21.2976 6.50806 21.9758C6.50806 22.654 7.08783 23.1868 7.76423 23.1868C8.44063 23.1868 8.97209 22.6055 8.97209 21.9273C8.92378 21.2491 8.34401 20.7163 7.71592 20.7163ZM7.71592 22.5087C7.37772 22.5087 7.08783 22.2664 7.08783 21.9273C7.08783 21.6367 7.37772 21.346 7.71592 21.346C8.0058 21.346 8.24738 21.5882 8.29569 21.9273C8.29569 22.218 8.10243 22.5087 7.71592 22.5087Z" fill="#00C1D4" stroke="#00C1D4" stroke-width="0.5" stroke-miterlimit="10"/>
</svg>
