<svg width="22" height="19" viewBox="0 0 22 19" fill="none" xmlns="http://www.w3.org/2000/svg">
    <g clip-path="url(#clip0)">
        <path d="M16.8176 5.91223C17.2087 5.50798 17.5509 5.15425 17.8931 4.80053C17.9909 4.69947 18.0887 4.69947 18.2354 4.80053C19.4576 5.60904 20.5331 6.51862 21.3642 7.78191C22.1954 9.09574 22.1954 10.0559 21.3154 11.3191C20.5331 12.4309 19.5554 13.3404 18.4798 14.0984C16.622 15.3617 14.6176 16.1702 12.4176 16.4229C10.7554 16.625 9.14202 16.4734 7.52868 16.0186C7.43091 15.9681 7.33313 15.9681 7.23535 15.867C7.33313 15.7154 7.4798 15.5638 7.62646 15.4122C8.11535 14.9069 8.65313 14.4016 9.09313 13.8457C9.33757 13.5931 9.53313 13.5426 9.82646 13.6436C12.1242 14.3005 14.422 12.9362 15.0576 10.5612C15.2531 9.75266 15.2531 8.94415 15.0087 8.18617C14.9598 7.93351 14.9598 7.83245 15.1554 7.63032C15.4976 7.27659 15.8398 6.92287 16.182 6.51862C16.8665 7.78191 17.062 8.99468 16.8665 10.3085C16.6709 11.6223 16.1331 12.734 15.2531 13.7447C15.742 13.5931 16.182 13.3404 16.622 13.1383C17.7465 12.4814 18.7731 11.7234 19.6042 10.6622C20.4354 9.55053 20.4354 9.5 19.6042 8.33776C18.9687 7.42819 18.0887 6.77127 17.1598 6.16489C17.1109 6.11436 16.9642 6.06383 16.8176 5.91223Z" fill="#C4C4C4"/>
        <path d="M5.13321 13.0878C4.7421 13.4415 4.39988 13.7952 4.05766 14.1995C3.95988 14.3005 3.8621 14.3005 3.71544 14.1995C2.5421 13.391 1.46655 12.5319 0.684325 11.3192C-0.244563 9.90426 -0.244563 8.89362 0.733214 7.52926C2.05321 5.71011 3.81321 4.49735 5.81766 3.58777C7.77321 2.72873 9.77766 2.37501 11.8799 2.5266C12.7599 2.57713 13.6399 2.77926 14.471 3.03192C14.5199 3.03192 14.6177 3.08245 14.6665 3.13298C14.6665 3.28458 14.5688 3.33511 14.471 3.38564C13.8843 3.99203 13.2977 4.59841 12.711 5.20479C12.5643 5.35639 12.4177 5.40692 12.1732 5.30586C9.72877 4.54788 7.33321 6.0133 6.79544 8.59043C6.64877 9.29788 6.64877 10.0559 6.89321 10.7633C6.99099 11.016 6.9421 11.1676 6.74655 11.3192C6.40433 11.6729 6.0621 12.0266 5.67099 12.3803C5.03544 11.1676 4.79099 9.90426 4.98655 8.59043C5.1821 7.2766 5.71988 6.1649 6.59988 5.20479C5.6221 5.55852 4.69321 6.06384 3.8621 6.72075C3.12877 7.2766 2.44433 7.93352 1.90655 8.74203C1.51544 9.29788 1.51544 9.75267 1.90655 10.258C2.63988 11.3192 3.56877 12.0771 4.59544 12.7846C4.88877 12.8856 5.03544 12.9362 5.13321 13.0878Z" fill="#C4C4C4"/>
        <path d="M1.75977 18.0904C1.75977 17.8883 1.85754 17.7367 1.95532 17.5346C2.0531 17.4335 2.15088 17.3324 2.24865 17.2314C7.67532 11.6223 13.102 6.06383 18.5775 0.454787C18.7731 0.202128 19.0175 0 19.3598 0C19.702 0 19.9464 0.151596 20.0931 0.454787C20.2398 0.757979 20.2398 1.06117 20.0442 1.31383C19.9464 1.41489 19.8975 1.51596 19.7998 1.61702C14.3242 7.32713 8.84865 12.9362 3.3731 18.5957C3.07977 18.8989 2.78643 19.0505 2.39532 18.9495C2.00421 18.8484 1.75977 18.4947 1.75977 18.0904Z" fill="#C4C4C4"/>
    </g>
    <defs>
        <clipPath id="clip0">
            <rect width="22" height="19" fill="white"/>
        </clipPath>
    </defs>
</svg>
