<svg width="19" height="33" viewBox="0 0 19 33" fill="none" xmlns="http://www.w3.org/2000/svg">
    <path d="M1.5616 29.0617C1.2442 29.3845 1.06589 29.8223 1.06589 30.2788C1.06589 30.7353 1.2442 31.1731 1.5616 31.4959C1.879 31.8187 2.30948 32 2.75834 32C3.20721 32 3.63769 31.8187 3.95509 31.4959L17.5036 17.7171C17.661 17.5574 17.7858 17.3677 17.871 17.1588C17.9562 16.95 18 16.7261 18 16.5C18 16.2739 17.9562 16.05 17.871 15.8412C17.7858 15.6323 17.661 15.4426 17.5036 15.2829L3.88922 1.50413C3.57182 1.18134 3.14134 1 2.69247 1C2.2436 1 1.81312 1.18134 1.49573 1.50413C1.17833 1.82693 1 2.26472 1 2.72122C1 3.17771 1.17833 3.61551 1.49573 3.9383L13.8365 16.4888L1.5616 29.0617Z" fill="#C4C4C4" stroke="#C4C4C4" stroke-width="0.5" stroke-miterlimit="10"/>
</svg>
