<svg width="21" height="21" viewBox="0 0 21 21" fill="none" xmlns="http://www.w3.org/2000/svg">
    <path d="M17.9477 3.05233C15.9942 1.22093 13.4302 0 10.5 0C7.56977 0 5.00581 1.22093 3.05233 3.05233C1.22093 5.00581 0 7.56977 0 10.5C0 13.4302 1.22093 15.9942 3.05233 17.9477C5.00581 19.9012 7.56977 21 10.5 21C13.4302 21 15.9942 19.7791 17.9477 17.9477C19.9012 15.9942 21 13.4302 21 10.5C21 7.56977 19.7791 5.00581 17.9477 3.05233ZM6.9593 2.31977C6.71512 2.68605 6.47093 3.05233 6.34884 3.4186C6.22674 3.5407 6.10465 3.78488 6.10465 3.90698C5.73837 3.78488 5.49419 3.5407 5.25 3.4186C5.73837 2.93023 6.34884 2.56395 6.9593 2.31977ZM4.15116 4.27326C4.27326 4.15116 4.27326 4.15116 4.39535 4.02907C4.76163 4.27326 5.25 4.63953 5.61628 4.76163C5.12791 6.22674 4.76163 8.05814 4.63953 10.0116H1.58721C1.7093 7.69186 2.68605 5.73837 4.15116 4.27326ZM4.15116 16.7267C2.68605 15.2616 1.7093 13.186 1.58721 10.9884H4.63953C4.63953 12.9419 5.00581 14.6512 5.61628 16.2384C5.12791 16.4826 4.76163 16.7267 4.39535 16.9709L4.15116 16.7267ZM5.25 17.5814C5.49419 17.4593 5.73837 17.2151 6.10465 17.093C6.22674 17.2151 6.22674 17.4593 6.34884 17.5814C6.59302 17.9477 6.83721 18.314 7.0814 18.6802C6.34884 18.436 5.73837 18.0698 5.25 17.5814ZM10.0116 19.4128C9.64535 19.4128 9.40116 19.4128 9.03488 19.2907C8.30233 18.8023 7.69186 18.0698 7.20349 17.093C7.0814 16.9709 7.0814 16.8488 6.9593 16.6047C7.0814 16.6047 7.20349 16.4826 7.32558 16.4826C8.18023 16.1163 9.03488 15.9942 10.0116 15.8721V19.4128ZM10.0116 15.0174C8.91279 15.0174 7.93605 15.2616 6.9593 15.6279C6.83721 15.6279 6.71512 15.75 6.59302 15.75C5.98256 14.407 5.73837 12.6977 5.61628 10.9884H10.0116V15.0174ZM10.0116 10.0116H5.61628C5.61628 8.18023 5.98256 6.59302 6.47093 5.25C6.59302 5.25 6.71512 5.37209 6.83721 5.37209C7.81395 5.73837 8.7907 5.98256 9.88953 5.98256V10.0116H10.0116ZM10.0116 5.00581C9.03488 5.00581 8.18023 4.76163 7.32558 4.51744C7.20349 4.51744 7.0814 4.39535 6.9593 4.39535C7.0814 4.27326 7.0814 4.15116 7.20349 3.90698C7.69186 2.93023 8.42442 2.19767 9.03488 1.7093C9.40116 1.7093 9.64535 1.58721 10.0116 1.58721V5.00581ZM16.7267 4.27326C18.1919 5.73837 19.1686 7.81395 19.2907 10.0116H16.2384C16.2384 8.05814 15.8721 6.34884 15.2616 4.76163C15.75 4.51744 16.1163 4.27326 16.4826 4.02907C16.6047 4.02907 16.7267 4.15116 16.7267 4.27326ZM15.75 3.4186C15.5058 3.66279 15.1395 3.78488 14.8953 3.90698C14.7733 3.78488 14.7733 3.5407 14.6512 3.4186C14.407 3.05233 14.1628 2.68605 13.9186 2.31977C14.6512 2.56395 15.2616 2.93023 15.75 3.4186ZM10.9884 1.58721C11.3547 1.58721 11.5988 1.58721 11.9651 1.7093C12.6977 2.19767 13.3081 2.93023 13.7965 3.90698C13.9186 4.02907 13.9186 4.15116 14.0407 4.39535C13.9186 4.39535 13.7965 4.51744 13.6744 4.51744C12.8198 4.76163 11.9651 5.00581 10.9884 5.00581V1.58721ZM10.9884 5.98256C12.0872 5.98256 13.064 5.73837 14.0407 5.37209C14.1628 5.37209 14.2849 5.25 14.407 5.25C14.8953 6.59302 15.2616 8.30233 15.2616 10.0116H10.9884V5.98256ZM10.9884 10.9884H15.3837C15.3837 12.8198 15.0174 14.407 14.5291 15.75C14.407 15.75 14.2849 15.6279 14.1628 15.6279C13.186 15.2616 12.2093 15.0174 11.1105 15.0174V10.9884H10.9884ZM11.9651 19.2907C11.5988 19.2907 11.3547 19.4128 10.9884 19.4128V15.9942C11.9651 15.9942 12.8198 16.2384 13.6744 16.6047C13.7965 16.6047 13.9186 16.7267 14.0407 16.7267C13.9186 16.8488 13.9186 16.9709 13.7965 17.2151C13.3081 18.0698 12.6977 18.8023 11.9651 19.2907ZM13.9186 18.6802C14.1628 18.314 14.407 17.9477 14.6512 17.5814C14.7733 17.4593 14.7733 17.2151 14.8953 17.093C15.1395 17.2151 15.5058 17.4593 15.75 17.5814C15.2616 18.0698 14.6512 18.436 13.9186 18.6802ZM16.7267 16.7267L16.4826 16.9709C16.1163 16.7267 15.6279 16.3605 15.2616 16.2384C15.8721 14.6512 16.2384 12.9419 16.2384 10.9884H19.2907C19.1686 13.186 18.314 15.2616 16.7267 16.7267Z" fill="#00C1D4"/>
</svg>