<svg width="9" height="15" viewBox="0 0 9 15" fill="none" xmlns="http://www.w3.org/2000/svg">
    <path d="M1.14178 14.5289C0.991229 14.5289 0.842165 14.4995 0.703198 14.4424C0.564231 14.3854 0.43811 14.3017 0.33212 14.1964C0.22613 14.091 0.142359 13.966 0.0856604 13.8286C0.0289617 13.6912 0.000462364 13.544 0.00178299 13.3957C0.00187964 13.0974 0.120294 12.811 0.331769 12.5975L5.69176 7.31587L0.331769 2.03421C0.226149 1.92913 0.142626 1.80453 0.0859961 1.66756C0.0293662 1.53059 0.000757535 1.38395 0.00178299 1.23605C-0.0115134 1.00202 0.0498132 0.769749 0.177183 0.571781C0.304552 0.373813 0.491582 0.220065 0.712063 0.132075C0.932544 0.0440856 1.17543 0.0262643 1.4067 0.0811042C1.63798 0.135944 1.84606 0.260693 2.00178 0.437888L8.17177 6.51771C8.2788 6.62216 8.36375 6.74647 8.42174 6.88347C8.47972 7.02047 8.50958 7.16744 8.50958 7.31587C8.50958 7.46431 8.47972 7.61127 8.42174 7.74827C8.36375 7.88527 8.2788 8.00958 8.17177 8.11403L2.01177 14.1939C1.89861 14.3066 1.76271 14.3946 1.61285 14.4523C1.46299 14.51 1.30251 14.5361 1.14178 14.5289Z" fill="#00C1D4"/>
</svg>
