<svg width="580" height="3" viewBox="0 0 580 3" fill="none" xmlns="http://www.w3.org/2000/svg">
    <path d="M0 0.59875C3.17069 1.9894 10.3768 2.81348 15.277 2.73622C32.8599 2.4787 50.5389 2.0409 68.2178 2.63321C69.3708 2.65897 70.5238 2.76198 71.5807 2.68472C84.6478 1.65461 98.0031 2.5302 111.07 2.4787C125.675 2.40144 140.663 1.91214 155.364 2.76198C159.207 2.99375 162.474 2.29843 166.125 2.37569C185.629 2.81348 205.134 2.09241 224.542 2.45294C235.015 2.65897 245.68 2.91649 256.057 2.65897C266.626 2.40144 277.387 3.25128 287.86 2.22117C288.821 2.11816 290.166 2.09241 291.127 2.16966C300.447 3.09676 310.343 2.06665 319.663 2.73622C320.72 2.81348 321.873 2.81348 323.026 2.76198C346.278 1.86063 369.529 2.76198 392.781 2.63321C402.677 2.58171 412.574 2.89074 422.374 2.40144C425.064 2.27268 427.755 2.40144 430.445 2.4787C437.939 2.68472 445.434 2.76198 453.12 2.45294C460.903 2.14391 468.878 2.34993 476.852 2.34993C477.813 2.34993 478.774 2.50445 479.639 2.4787C489.055 2.22117 498.663 2.60746 508.175 2.50445C518.552 2.40144 528.929 2.37569 539.113 2.89074C540.651 2.968 542.284 3.04526 543.821 2.968C549.778 2.73622 555.639 2.58171 561.788 2.89074C567.553 3.17402 572.934 2.32418 578.411 1.91214C579.275 1.86063 580.236 1.68036 579.948 1.34558C579.66 1.1138 578.699 1.08805 577.93 1.08805C571.012 1.1138 564.287 0.0579436 557.177 0.88203C556.216 0.985041 554.967 0.907783 553.814 0.88203C538.825 0.418481 523.836 0.624503 508.751 0.469987C506.349 0.444234 503.947 0.572998 501.641 0.624503C500.2 0.650256 498.375 0.88203 497.414 0.701761C491.457 -0.379852 485.404 0.727514 479.543 0.469987C472.241 0.160954 465.323 0.88203 458.117 0.753267C450.814 0.59875 443.416 0.676008 436.114 0.779019C429.772 0.88203 423.335 0.676008 416.994 0.59875C415.937 0.572998 414.688 0.495739 413.823 0.341223C411.709 -0.122325 410.172 -0.0965726 407.578 0.315471C403.927 0.88203 399.122 0.933535 394.991 0.804772C387.401 0.547245 379.81 0.547245 372.124 0.521492C368.761 0.521492 365.398 0.521492 362.131 0.315471C358.768 0.109449 355.501 0.0836961 352.235 0.469987C350.217 0.701761 348.103 0.676008 346.086 0.572998C339.456 0.263965 332.634 0.907783 326.197 0.160954C316.877 1.60311 306.884 -0.251089 297.372 0.495739C296.123 0.59875 294.49 0.495739 293.145 0.418481C290.07 0.21246 286.899 -0.431358 284.497 0.779019C284.209 0.933535 282.383 0.907783 281.327 0.88203C275.466 0.701761 269.605 0.547245 263.744 0.366976C258.555 0.186707 253.175 0.572997 247.89 0.779019C243.374 0.959288 238.955 0.985041 234.631 0.547245C233.862 0.469987 233.094 0.392729 232.325 0.392729C221.468 0.650255 210.611 -0.0193145 199.849 0.59875C195.334 0.856277 190.626 0.88203 186.206 0.289718C185.918 0.238212 185.437 0.160954 185.341 0.186707C180.249 1.39708 174.1 -0.225336 168.911 0.650255C168.047 0.779019 166.701 0.727514 165.644 0.701761C155.172 0.469987 144.603 0.624503 134.13 0.753267C131.151 0.779019 127.116 0.959288 124.233 0.289718C124.041 0.238212 123.657 0.21246 123.369 0.238213C114.625 0.676008 105.786 0.289718 97.1384 0.547245C88.5871 0.779019 80.3241 0.418481 71.965 0.444234C64.7589 0.469987 57.3606 -0.328347 50.2506 0.624503C48.6172 0.830525 46.4074 0.959288 44.6779 0.88203C36.1266 0.521492 27.2871 0.959288 18.832 0.572998C12.5867 0.315471 6.82179 1.39708 0 0.59875Z" fill="black"/>
</svg>
