<?xml version="1.0" encoding="UTF-8" standalone="no"?>
<svg
   xmlns:dc="http://purl.org/dc/elements/1.1/"
   xmlns:cc="http://creativecommons.org/ns#"
   xmlns:rdf="http://www.w3.org/1999/02/22-rdf-syntax-ns#"
   xmlns:svg="http://www.w3.org/2000/svg"
   xmlns="http://www.w3.org/2000/svg"
   xmlns:sodipodi="http://sodipodi.sourceforge.net/DTD/sodipodi-0.dtd"
   xmlns:inkscape="http://www.inkscape.org/namespaces/inkscape"
   width="37"
   height="31"
   viewBox="0 0 37 31"
   fill="none"
   version="1.1"
   id="svg4"
   sodipodi:docname="heart-selected.svg"
   inkscape:version="0.92.3 (2405546, 2018-03-11)">
  <metadata
     id="metadata10">
    <rdf:RDF>
      <cc:Work
         rdf:about="">
        <dc:format>image/svg+xml</dc:format>
        <dc:type
           rdf:resource="http://purl.org/dc/dcmitype/StillImage" />
      </cc:Work>
    </rdf:RDF>
  </metadata>
  <defs
     id="defs8" />
  <sodipodi:namedview
     pagecolor="#ffffff"
     bordercolor="#666666"
     borderopacity="1"
     objecttolerance="10"
     gridtolerance="10"
     guidetolerance="10"
     inkscape:pageopacity="0"
     inkscape:pageshadow="2"
     inkscape:window-width="3840"
     inkscape:window-height="2126"
     id="namedview6"
     showgrid="false"
     inkscape:zoom="30.451613"
     inkscape:cx="12.303638"
     inkscape:cy="12.210764"
     inkscape:window-x="3829"
     inkscape:window-y="-11"
     inkscape:window-maximized="1"
     inkscape:current-layer="svg4" />
  <path
     d="m 36,10.5577 c 0,1.7732 -0.9802,3.7998 -2.8516,5.573 -3.8319,3.6309 -7.6638,7.3463 -11.4066,11.0617 -0.802,0.7599 -1.604,1.6043 -2.4951,2.3643 -0.6238,0.5911 -1.0694,0.5911 -1.6041,0 C 13.0087,24.9969 8.28571,20.5216 3.65181,15.8774 -1.42766,10.811 1.15663,2.70473 8.28571,1.18481 11.3156,0.593732 14.0781,1.43813 16.395,3.4647 c 0.6238,0.59108 1.2476,1.18216 1.7823,1.77324 0.2673,0.25332 0.4456,0.25332 0.6238,0 C 19.2467,4.7313 19.7813,4.3091 20.2269,3.8869 22.9003,1.26925 26.8213,0.424852 30.2076,1.69145 33.7722,3.0425 36,6.16678 36,10.5577 Z m -15.968741,1.046144 c 0,-2.9553999 -0.26229,0.192544 -3.11389,-0.905176 C 14.243969,9.6853781 23.7915,2.87361 21.6527,4.98462 20.8507,5.66014 20.1378,6.4201 19.3358,7.18006 18.8011,7.6867 18.3555,7.6867 17.7317,7.18006 16.8406,6.33566 16.0386,5.49126 15.1474,4.7313 13.2761,2.95806 10.9591,2.28253 8.37482,2.95806 2.76067,4.3091 11.027134,1.142222 15.126349,5.110922 c 4.36657,4.222 9.918636,16.987763 6.081554,9.724608 0.3564,0.3377 -2.585003,13.03237 -2.228603,12.61017 4.3666,-4.222 -4.8294,-9.166458 -0.4628,-13.388458 1.4258,-1.3511 1.514759,-0.511298 1.514759,-2.453398 z"
     stroke-miterlimit="10"
     id="path2"
     inkscape:connector-curvature="0"
     style="fill:#929292;stroke:#929292;stroke-miterlimit:10"
     sodipodi:nodetypes="scccccccccccssccccccccccs" />
</svg>
