<svg width="101" height="35" viewBox="0 0 101 35" fill="none" xmlns="http://www.w3.org/2000/svg">
    <g clip-path="url(#clip0)">
        <path d="M4.64936 34.9877C6.68964 34.9877 7.36974 34.3704 7.36974 32.5186V2.5309C7.36974 0.65436 6.68964 0.0617676 4.64936 0.0617676H2.72037C0.680094 0.0617676 0 0.691397 0 2.5309V32.4939C0 34.3704 0.680094 34.963 2.72037 34.963L4.64936 34.9877Z" fill="#00609C"/>
        <path d="M37.7268 34.9876C39.7548 34.9876 40.4348 34.3703 40.4348 32.5185V10.0123C40.4343 9.24536 40.7317 8.50808 41.2644 7.95551C41.7971 7.40293 42.5236 7.07811 43.2912 7.04935H51.6997C53.5792 7.04935 54.1727 6.37034 54.1727 4.34565V2.72836C54.1727 0.703669 53.5545 0.0246582 51.6997 0.0246582H40.9418C36.5398 0.0246582 33.0898 3.16046 33.0898 8.92589V32.4938C33.0898 34.3703 33.7699 34.9629 35.7978 34.9629L37.7268 34.9876Z" fill="#00609C"/>
        <path d="M49.4241 14.9014C51.3036 14.9014 51.8972 15.5804 51.8972 17.6174V18.9137C51.8972 20.9384 51.2665 21.6174 49.4241 21.6174H45.4301C43.5506 21.6174 42.957 20.9384 42.957 18.9137V17.6174C42.957 15.5804 43.5753 14.9014 45.4301 14.9014H49.4241Z" fill="#00609C"/>
        <path d="M88.3381 34.9629C90.0445 34.9629 90.6752 34.5432 91.2563 32.8271L100.753 2.91354C100.89 2.51534 100.969 2.09959 100.988 1.67898C100.988 0.691323 100.407 0.0246582 99.0465 0.0246582H96.2272C94.6692 0.0246582 94.2858 0.382681 93.7541 1.88885C93.7541 1.88885 87.8806 21.3456 87.25 24.2592C86.6193 21.3456 80.7458 1.88885 80.7458 1.88885C80.2512 0.382681 79.8679 0.0246582 78.2727 0.0246582H75.54C74.1922 0.0246582 73.5986 0.691323 73.5986 1.67898C73.6163 2.10083 73.6997 2.51736 73.8459 2.91354L83.3425 32.8271C83.9237 34.5432 84.579 34.9629 86.2484 34.9629H88.3381Z" fill="#00609C"/>
        <path d="M77.4933 23.2346C77.4589 22.6431 77.3208 22.0623 77.0852 21.5185L75.1315 15.6173C75.0683 15.403 74.9383 15.2144 74.7604 15.0789C74.5825 14.9435 74.366 14.8683 74.1423 14.8642C73.8891 14.8788 73.6466 14.9707 73.4475 15.1275C73.2485 15.2842 73.1025 15.4983 73.0294 15.7407C73.0294 15.7407 70.8654 23.2346 70.6552 24.2593C70.0741 21.321 64.1387 1.8642 64.1387 1.8642C63.6564 0.358025 63.2731 0 61.6656 0H58.9453C57.5851 0 57.0039 0.666667 57.0039 1.65432C57.0216 2.07618 57.105 2.4927 57.2512 2.88889L66.7478 32.8025C67.329 34.5185 67.9843 34.9383 69.6536 34.9383H71.7434C73.4374 34.9383 74.0681 34.5185 74.6616 32.8025L77.1347 25.037C77.3124 24.4492 77.4325 23.8456 77.4933 23.2346Z" fill="#00609C"/>
        <path d="M26.7953 34.9877C28.0319 34.9877 28.7243 34.4691 28.7243 33.679C28.6678 33.1406 28.4478 32.6322 28.0937 32.2222L17.2246 17.4074C17.1619 17.3355 17.1275 17.2434 17.1275 17.1481C17.1275 17.0529 17.1619 16.9608 17.2246 16.8889L27.3147 3C27.735 2.52031 27.9906 1.91901 28.0442 1.28395C28.0442 0.444442 27.3641 -0.0246934 26.004 -0.0246934H22.8137C22.2094 -0.0865661 21.5998 0.0231202 21.0551 0.29175C20.5105 0.56038 20.0528 0.977043 19.7347 1.49382L11.0048 13.6543C10.1072 14.5819 9.58717 15.8096 9.54571 17.0988C9.52313 17.8051 9.64039 18.5089 9.89077 19.1699C10.1412 19.8309 10.5197 20.436 11.0048 20.9506L19.9449 33.4198C20.2474 33.9683 20.7097 34.4121 21.2707 34.6922C21.8317 34.9722 22.4647 35.0753 23.0857 34.9877H26.7953Z" fill="#00609C"/>
    </g>
    <defs>
        <clipPath id="clip0">
            <rect width="101" height="35" fill="white"/>
        </clipPath>
    </defs>
</svg>
