<svg width="123" height="63" viewBox="0 0 123 63" fill="none" xmlns="http://www.w3.org/2000/svg">
    <g clip-path="url(#clip0)">
        <path d="M104.685 21.2273H101.944V38.2623H104.685V21.2273Z" fill="white"/>
        <path d="M119.665 27.6646C118.376 27.6646 117.005 28.247 116.371 29.4944C115.777 28.2077 114.734 27.6646 113.26 27.6646C112.237 27.6646 110.989 28.0866 110.13 29.3537H110.089V27.9056H107.532V38.2623H110.273V33.2345C110.273 31.8878 110.498 29.756 112.32 29.756C113.895 29.756 113.895 31.1234 113.895 32.0885V38.2623H116.636V33.2345C116.636 31.8878 116.862 29.756 118.683 29.756C120.259 29.756 120.259 31.1234 120.259 32.0885V38.2623H123V31.7264C123 29.4137 122.263 27.6646 119.665 27.6646Z" fill="white"/>
        <path d="M96.314 32.9733C96.314 34.3012 95.8847 36.4123 93.9002 36.4123C92.1406 36.4123 92.1197 34.7026 92.1197 33.4366V27.906H89.3781V34.4419C89.3781 36.7744 90.463 38.5037 92.9591 38.5037C94.3919 38.5037 95.5774 37.8604 96.4172 36.8544H96.4572V38.2627H99.0564V27.906H96.314V32.9733Z" fill="white"/>
        <path d="M79.9303 27.7649C78.4781 27.7649 77.0858 28.4683 76.5134 29.6349H76.4723V28.0059H74.6107V38.2637H76.534V33.5167C76.534 31.023 77.5158 29.2935 79.7047 29.2935C81.3828 29.3939 81.9147 30.5606 81.9147 32.9531V38.2637H83.838V32.169C83.8386 29.4137 82.6316 27.7649 79.9303 27.7649Z" fill="white"/>
        <path d="M32.0936 0H32.0033C14.3239 0.0241051 0 14.1177 0 31.4999C0 48.8871 14.332 62.984 32.0184 63H32.0787C49.765 62.984 64.0979 48.8871 64.0979 31.4999C64.0979 14.1177 49.7732 0.0241051 32.0936 0ZM11.8202 38.2627L7.15515 32.9939V38.2627H5.23186V23.1789H7.15515V32.1682L11.3488 28.0051H13.9681L9.11884 32.5509L14.5825 38.2624L11.8202 38.2627ZM25.8383 38.2627H23.9757V36.6337H23.9355C23.3622 37.8009 21.9709 38.5038 20.5187 38.5038C17.8173 38.5038 16.6102 36.8545 16.6102 34.0997V28.0054H18.5335V33.3157C18.5335 35.7091 19.066 36.8749 20.7435 36.9762C22.9333 36.9762 23.9153 35.2458 23.9153 32.7521V28.0054H25.8385L25.8383 38.2627ZM31.2846 38.2627H29.3613V23.1789H31.2846V38.2627ZM40.5138 38.223C40.0834 38.3432 39.4899 38.5044 38.8764 38.5044C36.891 38.5047 35.6647 37.5793 35.6647 35.5273V29.5351H33.3116V28.0058H35.6647V25.6333L37.588 25.0303V28.0062H40.3503V29.5351H37.588V35.1462C37.588 36.3327 38.3247 36.976 39.2045 36.976C39.7983 36.976 40.2273 36.795 40.5145 36.614L40.5138 38.223ZM51.9941 38.263H50.1314V36.634H50.0912C49.5177 37.8012 48.1265 38.504 46.6742 38.504C43.973 38.504 42.7659 36.8548 42.7659 34.0999V28.0054H44.6892V33.3157C44.6892 35.7091 45.2217 36.8749 46.9001 36.9762C49.089 36.9762 50.0708 35.2458 50.0708 32.7521V28.0054H51.9941V38.263ZM55.2704 28.0063H57.0711V29.5949H57.1121C57.6235 28.5292 58.7285 27.7652 59.8334 27.7652C60.406 27.7652 60.6932 27.8252 61.1016 27.9059V29.5949C60.7542 29.4542 60.3649 29.414 60.0386 29.414C58.3191 29.414 57.1941 31.0234 57.1941 33.5968V38.2636H55.2708L55.2704 28.0063Z" fill="white"/>
        <path d="M71.2131 23.5823H69.0441V25.7141H71.2131V23.5823Z" fill="white"/>
        <path d="M71.0908 28.0061H69.1671V38.2633H71.0908V28.0061Z" fill="white"/>
    </g>
    <defs>
        <clipPath id="clip0">
            <rect width="123" height="63" fill="white"/>
        </clipPath>
    </defs>
</svg>
