<svg width="17" height="17" viewBox="0 0 17 17" fill="none" xmlns="http://www.w3.org/2000/svg">
    <path d="M0.358154 7.11329C0.376911 4.08135 2.21507 1.31217 4.84102 0.382379C7.61702 -0.608056 10.6744 0.362166 12.325 2.86857C13.9943 5.39519 14.1069 8.0633 12.7001 10.7921C12.5876 11.0144 12.5876 11.1357 12.7751 11.3176C13.863 12.4091 14.9322 13.5208 16.02 14.6123C16.0951 14.6932 16.1889 14.774 16.2639 14.8751C16.714 15.441 16.714 16.1485 16.2264 16.6538C15.795 17.1187 15.0822 17.1187 14.5945 16.6336C13.6942 15.724 12.7939 14.7942 11.8936 13.8846C11.631 13.6219 11.3496 13.3389 11.1058 13.0559C10.9932 12.9346 10.937 12.9346 10.8057 13.0155C9.99913 13.6017 9.0988 14.0059 8.14221 14.1676C5.30994 14.6932 2.49642 13.1974 1.12718 10.4686C0.601992 9.41757 0.358154 8.28565 0.358154 7.11329ZM12.0249 7.13351C11.9873 4.12178 9.75529 1.71643 7.0168 1.75686C4.18453 1.77707 1.95248 4.18242 1.98999 7.21436C2.00875 10.1452 4.27832 12.5506 7.0168 12.5304C9.7928 12.5102 12.0436 10.0846 12.0249 7.13351Z" fill="black"/>
</svg>
