<svg width="58" height="60" viewBox="0 0 58 60" fill="none" xmlns="http://www.w3.org/2000/svg">
    <g clip-path="url(#clip0)">
        <path d="M26.295 0C26.295 0.14362 26.295 0.287239 26.295 0.430859V32.0052H21.5102C21.5053 31.9058 21.5053 31.8062 21.5102 31.7069V0.165725C21.5102 0.165725 21.5102 0.0552384 21.5102 0H26.295Z" fill="white"/>
        <path d="M46.566 15.71C46.8893 15.2791 47.1695 14.8261 47.5143 14.4505C48.194 13.7413 49.0173 13.1937 49.9259 12.8463C50.8346 12.4989 51.8066 12.3601 52.7733 12.4398C53.5898 12.4458 54.3966 12.6225 55.1442 12.9591C55.8566 13.3059 56.4727 13.8305 56.9359 14.4848C57.3991 15.1392 57.6946 15.9024 57.7952 16.7043C57.9244 17.4073 57.9893 18.1211 57.9892 18.8365C57.9892 23.0898 57.9892 27.3542 57.9892 31.6076V31.9501H53.4092V31.5523C53.4092 27.6856 53.4092 23.819 53.4092 19.9523C53.4373 19.2195 53.3275 18.4881 53.0858 17.798C52.9558 17.4349 52.735 17.1133 52.4457 16.8651C52.1563 16.617 51.8085 16.451 51.437 16.3839C50.6886 16.1838 49.8943 16.2796 49.2115 16.652C48.5288 17.0245 48.0076 17.6465 47.7514 18.3946C47.3018 19.5463 47.0784 20.7777 47.094 22.0182C47.094 25.1889 47.094 28.3596 47.094 31.5303V31.9501H42.2337V31.5523C42.2337 27.7298 42.2337 23.9184 42.2337 20.1069C42.2317 19.4325 42.1484 18.7609 41.9859 18.1073C41.8896 17.5966 41.6206 17.1372 41.2264 16.8098C40.8321 16.4824 40.3378 16.3081 39.8305 16.3176C39.1475 16.2256 38.4543 16.376 37.8661 16.7438C37.278 17.1116 36.8303 17.6746 36.5975 18.3393C36.1263 19.5161 35.8953 20.7794 35.9186 22.0513C35.9186 25.222 35.9186 28.3817 35.9186 31.5413V31.9501H31.026V12.8928H35.5307V15.5774C35.7354 15.3012 35.8863 15.0913 36.0479 14.8924C36.7157 14.0434 37.5774 13.3763 38.5568 12.9504C39.5362 12.5245 40.603 12.3529 41.6626 12.4509C42.8542 12.4782 44.0075 12.8878 44.9602 13.6219C45.5137 14.08 45.9717 14.6473 46.3073 15.2902L46.5229 15.71" fill="white"/>
        <path d="M0.0212106 12.8374H4.83838V13.2462C4.83838 16.6378 4.83838 20.0294 4.83838 23.4211C4.84498 24.2273 4.9062 25.032 5.02158 25.8295C5.45265 28.6466 7.58643 28.9781 9.33225 28.3483C9.89788 28.1153 10.4028 27.7504 10.8068 27.2825C11.2109 26.8146 11.503 26.2565 11.66 25.6527C12.0147 24.6051 12.1898 23.5025 12.1773 22.3936C12.1773 19.3555 12.1773 16.3174 12.1773 13.2793V12.8484H17.016V32.0272H12.4575V29.3979L12.1342 29.7625C11.1796 30.9248 9.91203 31.7731 8.48993 32.2015C7.06782 32.6298 5.55414 32.6191 4.1379 32.1709C3.18638 31.8894 2.32891 31.3445 1.65971 30.5961C0.99051 29.8477 0.535454 28.9247 0.344514 27.9285C0.0932697 26.9667 -0.0299781 25.9745 -0.0218888 24.9788V13.1688C-0.0218888 13.0694 -0.0218888 12.981 -0.0218888 12.8374" fill="white"/>
        <path d="M0.0217113 39.5176C0.377341 39.5176 0.700639 39.5176 1.01316 39.5176C1.07536 39.5317 1.13414 39.5586 1.18599 39.5966C1.23783 39.6345 1.28167 39.6828 1.31491 39.7385C2.65121 41.9481 3.96598 44.0913 5.28073 46.2788C5.97044 47.3835 6.66015 48.4883 7.33908 49.6704L7.53305 49.9466V39.5176H8.61071V51.4049C8.21198 51.4049 7.80247 51.4049 7.40373 51.4049C7.31752 51.4049 7.22053 51.2502 7.15587 51.1508L1.41191 41.6608C1.3257 41.5062 1.23948 41.3625 1.08861 41.1305V51.3938H0.0109406L0.0217113 39.5176Z" fill="white"/>
        <path d="M57.9677 59.735H57.0193C57.0193 59.6024 57.0193 59.4809 57.0193 59.3484C57.0193 57.7133 57.0193 56.0341 57.0193 54.4432C57.0219 54.1137 56.9746 53.7857 56.8792 53.471C56.7786 53.1188 56.5767 52.806 56.2998 52.5734C56.0229 52.3408 55.684 52.1993 55.3274 52.1674C54.9527 52.094 54.5658 52.1238 54.2061 52.2538C53.8463 52.3839 53.5267 52.6095 53.2798 52.9075C52.8458 53.4813 52.6209 54.1925 52.644 54.9182C52.644 56.3986 52.644 57.879 52.644 59.3373V59.7129H51.6849C51.6849 59.6025 51.6849 59.4809 51.6849 59.3705C51.6849 57.6802 51.6849 55.9899 51.6849 54.2996C51.7231 53.8814 51.6297 53.4616 51.4183 53.1017C51.2069 52.7419 50.8887 52.4609 50.5102 52.2999C50.1149 52.1092 49.6723 52.0461 49.2412 52.1191C48.8101 52.1921 48.4108 52.3977 48.0962 52.7087C47.8475 52.9638 47.6508 53.2671 47.5176 53.6009C47.3844 53.9348 47.3173 54.2924 47.3203 54.6531C47.3203 56.1887 47.3203 57.7243 47.3203 59.26V59.7129H46.3504V51.4714H47.191C47.191 51.8359 47.191 52.2226 47.2557 52.6535C47.5231 52.1837 47.9119 51.7987 48.3794 51.5413C48.8468 51.284 49.3745 51.1641 49.9043 51.1949C50.434 51.2258 50.9451 51.4062 51.3811 51.7163C51.817 52.0263 52.1609 52.4539 52.3746 52.9517C52.5362 52.7418 52.6871 52.5319 52.8595 52.3331C53.2071 51.8818 53.6708 51.5392 54.1983 51.344C54.7258 51.1488 55.2961 51.1087 55.8447 51.2283C56.4266 51.3485 56.9498 51.6718 57.3252 52.1432C57.7005 52.6146 57.9047 53.2049 57.903 53.8135C57.9677 54.9182 57.903 56.023 57.9569 57.1278C57.9569 57.9784 57.9569 58.8291 57.9569 59.724" fill="white"/>
        <path d="M38.8822 47.8477H39.9599C39.9599 47.9139 39.9599 47.9692 39.9599 48.0354C39.9599 50.6096 39.9599 53.1837 39.9599 55.7688C39.9886 56.4671 39.8446 57.1614 39.5413 57.7873C39.2379 58.4131 38.785 58.9501 38.2248 59.3483C36.867 60.2984 33.9142 60.3647 32.5563 58.6854C32.0062 57.9879 31.6722 57.1376 31.5972 56.2439C31.5575 55.8475 31.5395 55.4492 31.5433 55.0507C31.5433 52.8412 31.5433 50.5433 31.5433 48.2896V47.8697H32.6209V48.2454C32.6209 50.6538 32.6209 53.0622 32.6209 55.4706C32.5946 55.9416 32.6591 56.4133 32.8108 56.8588C32.9624 57.3043 33.1982 57.7148 33.5046 58.0668C33.9145 58.5 34.436 58.8049 35.0085 58.9457C35.5809 59.0866 36.1806 59.0576 36.7376 58.8622C37.2797 58.7112 37.7658 58.3985 38.1342 57.9638C38.5026 57.5291 38.7367 56.992 38.8068 56.4206C38.8797 56.0572 38.9159 55.687 38.9145 55.3159C38.9145 52.9738 38.9145 50.6317 38.9145 48.2896L38.8822 47.8477Z" fill="white"/>
        <path d="M17.0163 46.5438C17.039 46.1713 16.9835 45.798 16.8533 45.4494C16.7232 45.1008 16.5216 44.7848 16.2621 44.523C16.0025 44.2611 15.6912 44.0595 15.3491 43.9316C15.007 43.8038 14.6421 43.7527 14.2791 43.7819C13.6267 43.8595 13.0272 44.1875 12.6013 44.6999C12.1754 45.2124 11.9547 45.8712 11.9836 46.5438H17.0163ZM18.094 47.4829H11.9082C11.7958 48.2118 11.9681 48.9567 12.3876 49.5564C12.8072 50.156 13.4402 50.5621 14.1497 50.6867C14.7361 50.7978 15.3419 50.6804 15.8482 50.3575C16.3546 50.0346 16.725 49.5295 16.887 48.9412C16.9034 48.895 16.9307 48.8537 16.9664 48.8209C17.0021 48.7882 17.0452 48.7649 17.0918 48.7534C17.3612 48.7534 17.6306 48.7534 17.9324 48.7534C17.7828 49.4938 17.4316 50.1757 16.9193 50.7199C15.8417 51.8246 12.9535 52.2113 11.6603 50.289C11.0943 49.3731 10.7992 48.3087 10.8106 47.2245C10.8221 46.1403 11.1397 45.0827 11.725 44.1796C12.1331 43.6286 12.6941 43.2167 13.3344 42.9979C13.9747 42.7791 14.6646 42.7635 15.3136 42.9533C15.9376 43.0693 16.5114 43.3799 16.957 43.8425C17.4025 44.3052 17.6979 44.8974 17.803 45.5385C17.932 46.1812 18.0291 46.8301 18.094 47.4829Z" fill="white"/>
        <path d="M25.5191 43.1301H26.489V51.3717H25.5515V50.2669H25.4652C25.3898 50.3664 25.3251 50.4658 25.2497 50.5542C24.9859 50.9029 24.6497 51.187 24.2655 51.3858C23.8813 51.5847 23.4587 51.6934 23.0284 51.704C22.5981 51.7146 22.1709 51.6268 21.7778 51.447C21.3847 51.2672 21.0356 51 20.7558 50.6646C20.3435 50.0396 20.1325 49.2978 20.1524 48.5435C20.1524 46.798 20.1524 45.0524 20.1524 43.3069C20.149 43.2665 20.149 43.2258 20.1524 43.1854H21.0899V43.561C21.0899 45.185 21.0899 46.809 21.0899 48.433C21.0878 48.6965 21.1131 48.9594 21.1654 49.2174C21.2395 49.6157 21.4367 49.979 21.7278 50.2536C22.0189 50.5281 22.3885 50.6994 22.7819 50.742C23.2325 50.8352 23.7004 50.7783 24.1173 50.5796C24.5341 50.3808 24.8781 50.0506 25.0988 49.6372C25.3774 49.034 25.5105 48.3709 25.4868 47.7039V43.2185L25.5191 43.1301Z" fill="white"/>
        <path d="M29.3556 39.3521H28.4935V59.6687H29.3556V39.3521Z" fill="white"/>
        <path d="M43.6994 47.8364H42.7726V59.7237H43.6994V47.8364Z" fill="white"/>
    </g>
    <defs>
        <clipPath id="clip0">
            <rect width="58" height="60" fill="white"/>
        </clipPath>
    </defs>
</svg>
