<svg width="77" height="115" viewBox="0 0 77 115" fill="none" xmlns="http://www.w3.org/2000/svg">
    <path d="M68.839 57.3265H65.1946V46.5411C65.1946 36.6936 68.8343 36.7734 68.8343 46.5411L68.839 57.3265ZM77 56.7263H74.955V35.4979L73.6183 28.464L71.9064 35.5917L67.0332 0L61.9114 35.5917L60.1995 28.4546L58.8628 35.4885V56.7403H56.7521L56.9069 83.1926H48.4973V86.6861L45.8707 88.5055H41.0492V74.2923C39.7185 72.419 37.9528 70.8967 35.9039 69.8561C33.8549 68.8155 31.5839 68.2878 29.286 68.3182C28.7353 68.3119 28.1849 68.348 27.6397 68.426V85.3074H24.9006V64.5339C10.2248 65.0169 2.18566 70.2971 0 71.9618V115H77V56.7263Z" fill="url(#paint0_linear)"/>
    <path d="M26.5379 42.8599L22.9827 35.6056H25.3748L27.7199 40.4497L29.9384 35.6056H32.3351L28.7611 42.9115V47.718H26.5379V42.8599ZM17.5467 37.3782H14.8404V35.6056H22.4574V37.3782H19.7699V47.718H17.5467V37.3782ZM10.9522 35.6056H13.1754V47.718H10.9522V35.6056ZM8.99168 47.4601C8.65325 47.6186 8.29265 47.7245 7.9223 47.7743C7.40889 47.8558 6.88965 47.895 6.36982 47.8916C5.53559 47.9126 4.70671 47.7526 3.94027 47.4226C3.26986 47.1219 2.67649 46.673 2.20487 46.1096C1.72758 45.5292 1.37046 44.8597 1.15425 44.1401C0.679052 42.5285 0.679052 40.814 1.15425 39.2023C1.37101 38.4834 1.72456 37.813 2.19549 37.2281C2.66106 36.6663 3.24799 36.2174 3.91212 35.9151C4.66419 35.5867 5.47901 35.4266 6.29947 35.4462C6.85218 35.4378 7.40374 35.4993 7.94106 35.6291C8.29732 35.7162 8.64814 35.8242 8.99168 35.9526L8.86973 37.9456C8.63991 37.833 8.33973 37.6924 7.97389 37.5329C7.52734 37.3533 7.04779 37.2701 6.56681 37.2891C6.11905 37.2861 5.67486 37.3689 5.25823 37.5329C4.83979 37.6972 4.46784 37.9612 4.17478 38.302C3.83462 38.7005 3.5807 39.1651 3.42903 39.6665C3.05389 40.9815 3.05389 42.375 3.42903 43.6899C3.5817 44.191 3.83551 44.6554 4.17478 45.0545C4.46784 45.3953 4.83979 45.6593 5.25823 45.8236C5.67486 45.9876 6.11905 46.0704 6.56681 46.0674C7.02794 46.0793 7.48819 46.0208 7.93168 45.8939C8.26823 45.7908 8.58525 45.6323 8.86973 45.425L8.99168 47.4601Z" fill="url(#paint1_linear)"/>
    <path d="M48.9808 23.5307C49.4903 23.5439 49.9883 23.378 50.3879 23.0617C50.582 22.8857 50.7326 22.667 50.8279 22.4229C50.9231 22.1788 50.9603 21.9159 50.9367 21.655C50.9367 20.9609 50.7631 20.4967 50.4161 20.2482C49.9747 19.9912 49.4672 19.8705 48.9574 19.9012H48.0756V23.4744L48.9808 23.5307ZM45.8571 18.2552H49.6375C50.1334 18.2509 50.6275 18.3156 51.1055 18.4475C51.5233 18.5595 51.9132 18.7575 52.2499 19.029C52.5781 19.2917 52.8359 19.6316 53.0004 20.0184C53.1839 20.4723 53.2717 20.9592 53.2584 21.4486C53.2891 22.1549 53.0549 22.8473 52.6017 23.39C52.1676 23.8844 51.5698 24.2057 50.9179 24.295V24.3466C51.0351 24.3719 51.151 24.4032 51.265 24.4404C51.3918 24.4907 51.5091 24.562 51.6121 24.6514C51.7437 24.7722 51.8574 24.9111 51.9498 25.0641C52.0754 25.2825 52.1776 25.5135 52.2546 25.7534L53.8306 30.3677H51.4854L50.2894 26.4286C50.1974 26.029 49.9663 25.675 49.6375 25.4298C49.3259 25.2446 48.968 25.1519 48.6056 25.1625H48.0756V30.3677H45.8571V18.2552ZM37.2833 18.2552H43.6527V20.0231H39.5018V23.254H43.4276V25.0219H39.5018V28.6045H43.8262V30.3723H37.2599L37.2833 18.2552ZM26.1721 18.2552H28.5688L31.0171 27.5916H31.05L33.5686 18.2552H35.8575L32.1616 30.3677H29.8164L26.1721 18.2552ZM18.6395 18.2552H25.0089V20.0231H20.8627V23.254H24.7838V25.0219H20.8627V28.6045H25.1825V30.3723H18.6395V18.2552ZM10.8303 18.2552H13.0534V28.6045H17.0449V30.3723H10.8303V18.2552ZM8.99168 30.105C8.65487 30.2677 8.29358 30.3739 7.9223 30.4192C7.40903 30.5024 6.88978 30.5432 6.36982 30.5412C5.53559 30.5622 4.70671 30.4022 3.94027 30.0722C3.27108 29.7716 2.678 29.3245 2.20487 28.7639C1.72943 28.1823 1.37251 27.5132 1.15425 26.7944C0.679052 25.1828 0.679052 23.4683 1.15425 21.8566C1.371 21.1362 1.72452 20.4644 2.19549 19.8777C2.66258 19.3187 3.24921 18.8716 3.91212 18.5694C4.66419 18.2409 5.47901 18.0809 6.29947 18.1005C6.85218 18.0921 7.40374 18.1536 7.94106 18.2834C8.2965 18.3716 8.64717 18.478 8.99168 18.6022L8.86973 20.5999C8.63991 20.4826 8.33973 20.3466 7.97389 20.1825C7.52669 20.0051 7.04764 19.9221 6.56681 19.9387C6.11925 19.938 5.67548 20.0207 5.25823 20.1825C4.83957 20.3486 4.46769 20.6142 4.17478 20.9563C3.83552 21.3536 3.58167 21.8165 3.42903 22.3161C3.22785 22.9673 3.13283 23.6465 3.14761 24.3279C3.13249 25.0107 3.22751 25.6916 3.42903 26.3442C3.58912 26.8314 3.84596 27.2812 4.18416 27.6666C4.47707 28.0087 4.84895 28.2743 5.26761 28.4404C5.68486 28.6022 6.12863 28.6849 6.57619 28.6842C7.0372 28.6938 7.49711 28.6353 7.94106 28.5107C8.27758 28.4074 8.59458 28.249 8.87911 28.0418L8.99168 30.105Z" fill="url(#paint2_linear)"/>
    <path d="M37.5218 9.02223V10.1148H42.3153V13.0128H43.3893V10.1148H44.7589V9.11133H43.3893V0.900391H41.9823L37.5218 9.02223ZM42.2918 1.9883H42.3293V9.11133H38.4599L42.2918 1.9883ZM29.1872 2.92616H29.1544L26.1011 13.0128H24.5251L21.6265 2.91678H21.5749V13.0128H19.5769V0.900391H22.8929L25.3928 9.94133H25.4257L27.9772 0.900391H31.19V13.0128H29.1732L29.1872 2.92616ZM11.7864 0.900391H14.0049V11.2543H17.9963V13.0222H11.7864V0.900391ZM3.40019 0.900391V8.74556C3.40019 9.75376 3.55966 10.4478 3.86922 10.837C4.04757 11.0391 4.27055 11.1968 4.52049 11.2977C4.77042 11.3987 5.04044 11.44 5.30913 11.4185C5.57256 11.4359 5.83648 11.3925 6.08046 11.2917C6.32445 11.1909 6.54198 11.0353 6.71621 10.837C7.02576 10.4478 7.18523 9.75376 7.18523 8.74556V0.900391H9.40372V8.74556C9.42816 9.43808 9.32644 10.1293 9.10355 10.7854C8.9153 11.3056 8.61232 11.7768 8.21709 12.1641C7.84603 12.521 7.39851 12.7888 6.90851 12.9472C6.39106 13.1095 5.85145 13.1902 5.30913 13.1863C4.76215 13.1909 4.21779 13.1102 3.69568 12.9472C3.20567 12.7888 2.75816 12.521 2.3871 12.1641C1.99186 11.7768 1.68889 11.3056 1.50064 10.7854C1.27137 10.1304 1.16329 9.43923 1.1817 8.74556V0.900391H3.40019Z" fill="url(#paint3_linear)"/>
    <defs>
        <linearGradient id="paint0_linear" x1="20.7825" y1="118.006" x2="84.9465" y2="29.1453" gradientUnits="userSpaceOnUse">
            <stop stop-color="#ADCD65"/>
            <stop offset="1" stop-color="#0A82A3"/>
        </linearGradient>
        <linearGradient id="paint1_linear" x1="-1247.76" y1="2413.91" x2="-301.525" y2="-905.383" gradientUnits="userSpaceOnUse">
            <stop stop-color="#ADCD65"/>
            <stop offset="1" stop-color="#0A82A3"/>
        </linearGradient>
        <linearGradient id="paint2_linear" x1="-2098.77" y1="2395.55" x2="-1507.75" y2="-1091.92" gradientUnits="userSpaceOnUse">
            <stop stop-color="#ADCD65"/>
            <stop offset="1" stop-color="#0A82A3"/>
        </linearGradient>
        <linearGradient id="paint3_linear" x1="-2874.61" y1="2113.99" x2="-2182.03" y2="-1287.24" gradientUnits="userSpaceOnUse">
            <stop stop-color="#ADCD65"/>
            <stop offset="1" stop-color="#0A82A3"/>
        </linearGradient>
    </defs>
</svg>
