<?xml version="1.0" encoding="UTF-8" standalone="no"?>
<svg
   xmlns:dc="http://purl.org/dc/elements/1.1/"
   xmlns:cc="http://creativecommons.org/ns#"
   xmlns:rdf="http://www.w3.org/1999/02/22-rdf-syntax-ns#"
   xmlns:svg="http://www.w3.org/2000/svg"
   xmlns="http://www.w3.org/2000/svg"
   xmlns:sodipodi="http://sodipodi.sourceforge.net/DTD/sodipodi-0.dtd"
   xmlns:inkscape="http://www.inkscape.org/namespaces/inkscape"
   width="47.934319"
   height="27.880899"
   viewBox="0 0 47.934319 27.880899"
   version="1.1"
   id="svg70"
   sodipodi:docname="ulmutopia_logo_mobile.svg"
   style="fill:none"
   inkscape:version="0.92.3 (2405546, 2018-03-11)">
  <metadata
     id="metadata76">
    <rdf:RDF>
      <cc:Work
         rdf:about="">
        <dc:format>image/svg+xml</dc:format>
        <dc:type
           rdf:resource="http://purl.org/dc/dcmitype/StillImage" />
        <dc:title></dc:title>
      </cc:Work>
    </rdf:RDF>
  </metadata>
  <defs
     id="defs74" />
  <sodipodi:namedview
     pagecolor="#ffffff"
     bordercolor="#666666"
     borderopacity="1"
     objecttolerance="10"
     gridtolerance="10"
     guidetolerance="10"
     inkscape:pageopacity="0"
     inkscape:pageshadow="2"
     inkscape:window-width="3840"
     inkscape:window-height="2066"
     id="namedview72"
     showgrid="false"
     fit-margin-top="0"
     fit-margin-left="0"
     fit-margin-right="0"
     fit-margin-bottom="0"
     inkscape:zoom="1.8964286"
     inkscape:cx="135.61444"
     inkscape:cy="0.7604"
     inkscape:window-x="-11"
     inkscape:window-y="-11"
     inkscape:window-maximized="1"
     inkscape:current-layer="svg70" />
  <path
     d="M 20.57834,0.6759 V 0 h -1.3494 c -0.6747,0 -1.3494,0 -1.6868,0.50693 -0.506,0.50692 -0.506,1.18282 -0.506,1.68975 V 5.4072 c 0,3.8864 0,7.6039 0,11.4903 0,0.5069 0,0.8449 -0.1687,1.3518 -0.3373,3.2105 -3.5421,5.7452 -6.747,5.5762 -3.5421,-0.169 -6.4096,-3.0416 -6.4096,-6.2521 0,-3.5485 0,-7.0969 0,-10.8144 V 1.85873 c 0,-0.16898 0,-0.33795 0,-0.50693 C 3.71084,0.6759 2.86747,0 1.85542,0 1.68675,0 1.3494,0 1.18072,0 H 0 v 17.7424 0.5069 c 0,0.338 0.16867,0.8449 0.16867,1.1828 1.01205,4.9003 5.22892,8.2798 10.12047,8.2798 0.506,0 0.8434,0 1.3494,-0.169 4.8916,-0.6759 8.7711,-4.9002 8.9398,-9.6315 0,-4.0554 0,-8.1108 0,-11.99727 V 1.01385 c 0.1687,0 0.1687,0 0,-0.33795 z"
     id="path2"
     inkscape:connector-curvature="0"
     style="fill:#00c1d4" />
  <path
     d="m 45.87954,23.9945 c -1.3494,-0.169 -2.5301,-0.6759 -3.7109,-1.3518 -2.8674,-2.0277 -4.2168,-4.5624 -4.2168,-8.1108 0,-4.2244 0,-7.94187 0,-11.65932 0,-0.84488 0,-1.68975 -0.6747,-2.19668 C 36.93974,0 36.09634,0 35.08434,0 h -0.8434 v 4.39335 c 0,2.36565 0,4.90025 0,7.26595 v 0.6759 c 0,1.1828 0,2.1967 0,3.3795 0.3374,5.2382 3.8795,9.8005 8.9398,11.4903 1.1807,0.3379 2.3614,0.6759 3.5421,0.6759 0.1687,0 0.1687,0 0.3374,0 h 0.8434 v -1.3518 c 0.1686,-1.8587 -0.3374,-2.3657 -2.0241,-2.5346 z"
     id="path14"
     inkscape:connector-curvature="0"
     style="fill:#00c1d4" />
</svg>
