<svg width="280" height="61" viewBox="0 0 280 61" fill="none" xmlns="http://www.w3.org/2000/svg">
    <path d="M24.9639 4.0554V3.3795H23.6145C22.9398 3.3795 22.2651 3.3795 21.9277 3.88643C21.4217 4.39335 21.4217 5.06925 21.4217 5.57618V8.7867C21.4217 12.6731 21.4217 16.3906 21.4217 20.277C21.4217 20.7839 21.4217 21.1219 21.253 21.6288C20.9157 24.8393 17.7109 27.374 14.506 27.205C10.9639 27.036 8.0964 24.1634 8.0964 20.9529C8.0964 17.4044 8.0964 13.856 8.0964 10.1385V5.23823C8.0964 5.06925 8.0964 4.90028 8.0964 4.7313C8.0964 4.0554 7.25303 3.3795 6.24098 3.3795C6.07231 3.3795 5.73496 3.3795 5.56628 3.3795H4.38556V21.1219V21.6288C4.38556 21.9668 4.55423 22.4737 4.55423 22.8116C5.56628 27.7119 9.78315 31.0914 14.6747 31.0914C15.1807 31.0914 15.5181 31.0914 16.0241 30.9224C20.9157 30.2465 24.7952 26.0222 24.9639 21.2909C24.9639 17.2355 24.9639 13.1801 24.9639 9.29363V4.39335C25.1326 4.39335 25.1326 4.39335 24.9639 4.0554Z" fill="#fff"/>
    <path d="M182.337 3.88642C174.747 3.88642 168.506 10.1385 168.506 17.7424C168.506 25.5152 174.747 31.7673 182.337 31.7673C186.048 31.7673 189.422 30.4155 192.121 27.7119C194.819 25.0083 196.169 21.6288 196.169 17.9114C196.169 10.1385 189.928 3.88642 182.337 3.88642ZM189.422 25.0083C187.566 26.867 185.036 28.0499 182.337 28.0499C179.639 28.0499 177.108 27.036 175.084 25.0083C173.229 23.1496 172.048 20.446 172.048 17.7424C172.048 12.1662 176.602 7.60387 182.169 7.60387C187.735 7.60387 192.289 12.1662 192.289 17.7424C192.458 20.446 191.446 22.9806 189.422 25.0083Z" fill="#fff"/>
    <path d="M86.1928 4.56232C85.8554 4.39335 85.3494 4.22437 84.6747 4.39334C84 4.56232 83.6627 5.06925 83.3253 5.57617C81.1326 9.12465 78.9398 12.6731 76.9157 16.2216L75.5663 18.4183L72.5301 13.349C71.0121 10.6454 69.3253 8.1108 67.8073 5.4072C67.4699 5.06925 66.9639 4.56232 66.2892 4.39334C65.7832 4.22437 65.2771 4.39334 64.7711 4.39334C64.6024 4.39334 64.4338 4.39334 64.0964 4.39334H62.5783L69.1567 15.2077C70.6747 17.9114 72.3615 20.446 73.8795 23.1496C74.5542 24.3324 75.3976 24.3324 75.9036 24.1634C76.4097 23.9945 76.9157 23.4875 77.0844 23.1496C79.2771 19.4321 81.6386 15.7147 83.8314 12.1662L84.1687 11.4903L86.8675 23.9945C87.2048 25.8532 87.7109 27.8809 88.0482 29.7396C88.2169 30.5845 88.8916 31.2604 89.735 31.2604C89.9036 31.2604 90.0723 31.2604 90.4097 31.2604C90.5783 31.2604 90.747 31.2604 90.9157 31.2604H92.4338L87.0362 6.0831C86.8675 5.23822 86.3615 4.90027 86.1928 4.56232Z" fill="#fff"/>
    <path d="M125.831 4.0554L125.663 3.3795H124.482C123.807 3.3795 123.133 3.3795 122.627 3.88643C122.12 4.39335 122.12 5.06925 122.12 5.74515V20.446C122.12 20.9529 122.12 21.2909 122.12 21.7978C121.614 25.1773 118.578 27.7119 115.374 27.5429C111.831 27.374 109.133 24.5014 108.964 21.2909C108.964 17.7424 108.964 14.1939 108.964 10.6454V6.25208C108.964 5.4072 108.964 4.56233 108.289 4.0554C107.783 3.3795 106.94 3.3795 106.096 3.3795L105.422 3.54848V7.60388C105.422 11.8283 105.422 16.2216 105.422 20.446C105.422 21.2909 105.59 21.9668 105.759 22.8116C106.771 27.7119 110.988 31.0914 115.88 31.0914C116.386 31.0914 116.723 31.0914 117.229 30.9224C121.952 30.2465 126 25.8532 126 21.2909C126 17.2355 126 13.349 126 9.29363V4.39335C125.831 4.39335 125.831 4.22438 125.831 4.0554Z" fill="#fff"/>
    <path d="M276.627 21.2909C276.627 21.1219 276.458 21.1219 276.458 20.9529L274.602 16.7285C273.084 13.1801 271.398 9.46261 269.88 5.91413C269.205 4.39335 267.855 4.39335 267.349 4.56233C266.337 4.56233 265.831 4.90028 265.325 6.08311L259.084 21.7978L255.205 31.4294H257.566C258.916 31.4294 259.253 31.0914 259.759 29.9086L267.855 10.1385L271.735 18.9252H271.06H267.855C266.506 18.9252 266 19.7701 266 20.446C266 20.7839 266 21.1219 266 21.4598V22.6427H277.301L276.627 21.2909Z" fill="#fff"/>
    <path d="M216.072 4.56233C214.386 4.39336 212.699 4.39336 211.181 4.39336C210.506 4.39336 209.663 4.39336 208.988 4.39336H208.145V5.06926C207.976 5.91413 207.976 6.75901 208.482 7.26593C208.988 7.77286 209.663 7.94183 210.506 7.94183C211.855 7.94183 213.542 7.94183 215.229 7.94183C218.096 8.11081 220.289 10.6454 220.458 13.349C220.458 16.3906 218.265 18.7562 215.398 18.9252C214.554 18.9252 213.542 18.9252 212.699 18.9252H211.518C210.169 18.9252 209.494 19.6011 209.494 20.9529V30.7535H210.337C210.506 30.7535 210.843 30.7535 211.012 30.7535C211.518 30.7535 212.024 30.5845 212.361 30.2465C212.868 29.7396 213.036 28.8947 213.036 28.2188C213.036 26.6981 213.036 25.3463 213.036 23.8255V22.1357C213.374 22.1357 213.711 22.1357 214.048 22.1357C214.892 22.1357 215.735 22.1357 216.578 21.9668C220.795 21.2909 224.169 17.4044 224.169 13.0111C223.831 8.95568 220.458 5.06926 216.072 4.56233Z" fill="#fff"/>
    <path d="M50.2651 27.374C48.9157 27.205 47.735 26.6981 46.5542 26.0222C43.6868 23.9945 42.3374 21.4598 42.3374 17.9114C42.3374 13.687 42.3374 9.96953 42.3374 6.25208C42.3374 5.4072 42.3374 4.56233 41.6627 4.0554C41.3253 3.3795 40.4819 3.3795 39.4699 3.3795H38.6265V7.77285C38.6265 10.1385 38.6265 12.6731 38.6265 15.0388V15.7147C38.6265 16.8975 38.6265 17.9114 38.6265 19.0942C38.9639 24.3324 42.506 28.8947 47.5663 30.5845C48.747 30.9224 49.9277 31.2604 51.1084 31.2604C51.2771 31.2604 51.2771 31.2604 51.4458 31.2604H52.2892V29.9086C52.4578 28.0499 51.9518 27.5429 50.2651 27.374Z" fill="#fff"/>
    <path d="M239.012 6.75901V31.2604H240.53C242.217 31.2604 242.723 30.5845 242.723 29.0637V4.39336H241.205C239.518 4.39336 239.012 5.06926 239.012 6.75901Z" fill="#fff"/>
    <path d="M148.265 10.9834C147.59 10.9834 146.916 10.9834 146.578 11.4903C146.072 11.9972 146.072 12.6731 146.072 13.1801V31.0914H147.422H147.59C148.265 31.0914 148.94 31.0914 149.446 30.5845C149.952 30.0776 149.952 29.4017 149.952 28.7258V10.9834H148.265Z" fill="#fff"/>
    <path d="M139.494 5.91413C139.494 6.25208 139.494 6.42106 139.494 6.75901V7.94183H150.121H154.506C155.687 7.94183 156.361 7.26593 156.361 6.08311V4.39336H141.349C140.337 4.39336 139.663 5.06926 139.494 5.91413Z" fill="#fff"/>
    <path d="M14 43.0886V44.1025H9.78315V58.2964H8.60243V44.1025H4.38556V43.0886H14Z" fill="#fff"/>
    <path d="M18.0482 57.2826H25.4699V58.2964H16.8675V42.9197H25.3012V43.9335H18.0482V49.8476H24.7952V50.8615H18.0482V57.2826Z" fill="#fff"/>
    <path d="M28.6747 58.2964V42.9197H29.8554V58.2964H28.6747Z" fill="#fff"/>
    <path d="M42 57.2826V58.2964H33.735V42.9197H34.9157V57.1136H42V57.2826Z" fill="#fff"/>
    <path d="M52.9639 58.2964V51.0305H45.8795V58.2964H44.6988V42.9197H45.8795V49.8476H52.9639V42.9197H54.1446V58.2964H52.9639Z" fill="#fff"/>
    <path d="M62.241 43.0886H63.4217L68.4819 58.4654H67.1325L65.7831 54.5789H59.5422L58.3614 58.4654H57.1807L62.241 43.0886ZM65.6145 53.3961L62.747 44.7784L60.0482 53.3961H65.6145Z" fill="#fff"/>
    <path d="M76.0723 43.0886C76.747 43.0886 77.4217 43.2576 77.9277 43.4266C78.4338 43.5956 78.9398 43.9335 79.4458 44.2715C79.7832 44.6094 80.1205 44.9474 80.4579 45.4543C80.6265 45.9612 80.7952 46.4681 80.7952 47.144C80.7952 47.9889 80.6265 48.6648 80.1205 49.3407C79.7832 49.8477 79.1085 50.3546 78.4338 50.6925C79.2771 50.8615 79.9518 51.3684 80.4579 52.0443C80.9639 52.7202 81.1326 53.5651 81.1326 54.5789C81.1326 55.2548 80.9639 55.7618 80.7952 56.2687C80.6265 56.7756 80.2892 57.2825 79.7832 57.6205C79.4458 57.9584 78.9398 58.2964 78.2651 58.4654C77.7591 58.6343 77.0844 58.8033 76.4097 58.8033H71.3494V43.4266H76.0723V43.0886ZM72.6988 50.0166H76.0723C77.0844 50.0166 77.9277 49.6787 78.4338 49.1717C78.9398 48.6648 79.2771 47.8199 79.2771 46.9751C79.2771 46.1302 78.9398 45.4543 78.4338 44.9474C77.7591 44.4404 77.0844 44.1025 75.9036 44.1025H72.5301V50.0166H72.6988ZM72.6988 57.2826H76.4097C77.4217 57.2826 78.2651 56.9446 78.7711 56.4377C79.4458 55.9308 79.6145 55.0859 79.6145 54.241C79.6145 53.2271 79.2771 52.5513 78.7711 51.8754C78.2651 51.3684 77.4217 51.0305 76.4097 51.0305H72.5301V57.2826H72.6988Z" fill="#fff"/>
    <path d="M85.5181 57.2826H92.9398V58.2964H84.3374V42.9197H92.7711V43.9335H85.5181V49.8476H92.2651V50.8615H85.5181V57.2826Z" fill="#fff"/>
    <path d="M107.952 43.4266C108.627 43.5956 109.133 43.9335 109.47 44.4404C109.976 44.9474 110.313 45.4543 110.482 45.9612C110.651 46.6371 110.819 47.313 110.819 47.9889V53.3961C110.819 54.241 110.651 54.9169 110.482 55.4238C110.313 56.0997 109.976 56.6066 109.47 56.9446C108.964 57.4515 108.458 57.6205 107.952 57.9584C107.277 58.1274 106.602 58.2964 105.928 58.2964H101.374V42.9197H105.928C106.602 43.0886 107.277 43.0886 107.952 43.4266ZM102.554 57.2826H105.928C106.602 57.2826 107.108 57.1136 107.614 56.9446C108.12 56.7756 108.458 56.4377 108.795 56.0997C109.133 55.7618 109.301 55.4238 109.47 54.9169C109.639 54.5789 109.639 54.072 109.639 53.5651V47.8199C109.639 47.313 109.639 46.8061 109.47 46.2992C109.301 45.7922 109.133 45.4543 108.795 45.1163C108.458 44.7784 108.12 44.4404 107.614 44.2715C107.108 44.1025 106.602 43.9335 105.928 43.9335H102.554V57.2826Z" fill="#fff"/>
    <path d="M114.361 58.2964V42.9197H115.542V58.2964H114.361Z" fill="#fff"/>
    <path d="M128.868 51.0305V54.072C128.868 54.7479 128.699 55.4238 128.53 55.9308C128.361 56.4377 128.024 56.9446 127.518 57.2826C127.181 57.6205 126.675 57.9585 126 58.1274C125.494 58.2964 124.819 58.4654 123.976 58.4654C123.301 58.4654 122.627 58.2964 121.952 58.1274C121.277 57.9585 120.771 57.6205 120.434 57.1136C119.928 56.7756 119.59 56.2687 119.422 55.5928C119.253 55.0859 119.084 54.41 119.084 53.5651V47.313C119.084 46.6371 119.253 45.9612 119.422 45.2853C119.59 44.7784 119.928 44.2715 120.434 43.7645C120.94 43.4266 121.446 43.0886 121.952 42.7507C122.627 42.5817 123.133 42.4128 123.976 42.4128C124.651 42.4128 125.325 42.5817 126 42.7507C126.675 42.9197 127.012 43.2576 127.518 43.5956C127.855 43.9335 128.193 44.4405 128.53 44.9474C128.699 45.4543 128.868 46.1302 128.868 46.6371V47.313H127.687V46.9751C127.687 46.1302 127.349 45.4543 126.675 44.7784C126 44.2715 125.157 43.9335 123.976 43.9335C123.47 43.9335 122.795 44.1025 122.458 44.2715C122.12 44.4405 121.614 44.7784 121.277 44.9474C120.94 45.2853 120.771 45.6233 120.602 46.1302C120.434 46.6371 120.434 46.9751 120.434 47.482V53.9031C120.434 54.41 120.434 54.9169 120.602 55.2549C120.771 55.7618 120.94 56.0997 121.277 56.4377C121.614 56.7756 121.952 56.9446 122.458 57.1136C122.964 57.2826 123.47 57.4515 123.976 57.4515C125.157 57.4515 126 57.1136 126.675 56.4377C127.349 55.7618 127.687 55.0859 127.687 54.072V51.8754H124.482V50.8615H128.868V51.0305Z" fill="#fff"/>
    <path d="M132.241 58.2964V42.9197H133.422V58.2964H132.241Z" fill="#fff"/>
    <path d="M145.904 43.0886V44.1025H141.687V58.2964H140.506V44.1025H136.289V43.0886H145.904Z" fill="#fff"/>
    <path d="M150.964 43.0886H152.145L157.205 58.4654H155.855L154.506 54.5789H148.434L147.253 58.4654H146.072L150.964 43.0886ZM154.337 53.3961L151.47 44.7784L148.771 53.3961H154.337Z" fill="#fff"/>
    <path d="M168.506 57.2826V58.2964H160.241V42.9197H161.422V57.1136H168.506V57.2826Z" fill="#fff"/>
    <path d="M185.205 51.0305V54.072C185.205 54.7479 185.036 55.4238 184.867 55.9308C184.699 56.4377 184.361 56.9446 183.855 57.2826C183.518 57.6205 183.012 57.9585 182.337 58.1274C181.831 58.2964 181.157 58.4654 180.313 58.4654C179.47 58.4654 178.964 58.2964 178.289 58.1274C177.614 57.9585 177.108 57.6205 176.771 57.1136C176.265 56.7756 175.928 56.2687 175.759 55.5928C175.59 55.0859 175.422 54.41 175.422 53.5651V47.313C175.422 46.6371 175.59 45.9612 175.759 45.2853C175.928 44.7784 176.265 44.2715 176.771 43.7645C177.277 43.4266 177.783 43.0886 178.289 42.7507C178.964 42.5817 179.47 42.4128 180.313 42.4128C180.988 42.4128 181.663 42.5817 182.337 42.7507C182.843 42.9197 183.349 43.2576 183.855 43.5956C184.193 43.9335 184.53 44.4405 184.867 44.9474C185.036 45.4543 185.205 46.1302 185.205 46.6371V47.313H184.024V46.9751C184.024 46.1302 183.687 45.4543 183.012 44.7784C182.337 44.2715 181.494 43.9335 180.313 43.9335C179.639 43.9335 179.133 44.1025 178.795 44.2715C178.289 44.4405 177.952 44.7784 177.614 44.9474C177.277 45.2853 177.108 45.6233 176.94 46.1302C176.771 46.6371 176.771 46.9751 176.771 47.482V53.9031C176.771 54.41 176.771 54.9169 176.94 55.2549C177.108 55.7618 177.277 56.0997 177.614 56.4377C177.952 56.7756 178.289 56.9446 178.795 57.1136C179.301 57.2826 179.807 57.4515 180.313 57.4515C181.494 57.4515 182.337 57.1136 183.012 56.4377C183.687 55.7618 184.024 55.0859 184.024 54.072V51.8754H180.819V50.8615H185.205V51.0305Z" fill="#fff"/>
    <path d="M189.759 57.2826H197.181V58.2964H188.578V42.9197H197.012V43.9335H189.759V49.8476H196.506V50.8615H189.759V57.2826Z" fill="#fff"/>
    <path d="M207.807 46.9751C207.807 46.4681 207.807 46.1302 207.639 45.7922C207.47 45.4543 207.301 45.1163 206.964 44.7784C206.627 44.4404 206.289 44.2715 205.952 44.1025C205.446 43.9335 205.108 43.9335 204.434 43.9335C203.422 43.9335 202.578 44.1025 201.904 44.6094C201.229 45.1163 201.06 45.7922 201.06 46.4681C201.06 47.144 201.229 47.651 201.735 47.9889C202.072 48.3269 202.578 48.6648 203.084 48.8338L205.783 50.0166C206.121 50.1856 206.627 50.3546 207.133 50.5235C207.639 50.6925 207.976 51.0305 208.313 51.3684C208.651 51.7064 208.988 52.0443 209.157 52.5513C209.325 53.0582 209.494 53.5651 209.494 54.241C209.494 54.9169 209.325 55.5928 209.157 56.0997C208.988 56.6067 208.651 57.1136 208.145 57.4515C207.639 57.7895 207.133 58.1274 206.627 58.2964C205.952 58.4654 205.446 58.6344 204.602 58.6344C203.759 58.6344 203.253 58.4654 202.578 58.2964C202.072 58.1274 201.398 57.7895 201.06 57.4515C200.554 57.1136 200.386 56.6067 200.048 56.0997C199.88 55.5928 199.711 54.9169 199.711 54.41V54.072H200.892V54.41C200.892 54.9169 200.892 55.2549 201.06 55.5928C201.229 55.9308 201.398 56.2687 201.735 56.6067C202.072 56.9446 202.41 57.1136 202.916 57.2826C203.422 57.4515 203.928 57.4515 204.434 57.4515C205.614 57.4515 206.458 57.1136 207.133 56.6067C207.807 56.0997 208.145 55.2549 208.145 54.41C208.145 53.9031 207.976 53.5651 207.807 53.2271C207.639 52.8892 207.47 52.5512 207.133 52.3823C206.795 52.2133 206.458 51.8753 206.121 51.7064C205.783 51.5374 205.446 51.3684 204.94 51.1994L202.916 50.3546C202.578 50.1856 202.241 50.0166 201.904 49.8476C201.566 49.6787 201.229 49.3407 200.892 49.1717C200.554 48.8338 200.386 48.4958 200.217 48.1579C200.048 47.8199 199.88 47.313 199.88 46.8061C199.88 46.2992 200.048 45.7922 200.217 45.2853C200.386 44.7784 200.723 44.4404 201.229 44.1025C201.566 43.7645 202.072 43.5956 202.578 43.4266C203.084 43.2576 203.759 43.0886 204.434 43.0886C205.108 43.0886 205.783 43.2576 206.289 43.4266C206.795 43.5956 207.301 43.9335 207.807 44.2715C208.145 44.6094 208.482 45.1163 208.819 45.6233C208.988 46.1302 209.157 46.8061 209.157 47.313H207.976V46.9751H207.807Z" fill="#fff"/>
    <path d="M220.795 43.0886V44.1025H216.578V58.2964H215.398V44.1025H211.181V43.0886H220.795Z" fill="#fff"/>
    <path d="M226.024 43.0886H227.205L232.265 58.4654H230.916L229.566 54.5789H223.325L222.145 58.4654H220.964L226.024 43.0886ZM229.398 53.3961L226.53 44.7784L223.831 53.3961H229.398Z" fill="#fff"/>
    <path d="M243.398 57.2826V58.2964H235.133V42.9197H236.313V57.1136H243.398V57.2826Z" fill="#fff"/>
    <path d="M253.012 43.0886V44.1025H248.795V58.2964H247.614V44.1025H243.398V43.0886H253.012Z" fill="#fff"/>
    <path d="M257.06 57.2826H264.482V58.2964H255.88V42.9197H264.313V43.9335H257.06V49.8476H263.807V50.8615H257.06V57.2826Z" fill="#fff"/>
    <path d="M276.12 58.2964L268.867 45.2853V58.2964H267.687V42.9197H268.867L275.952 55.7618V42.9197H277.133V58.2964H276.12Z" fill="#fff"/>
</svg>
